<svg type="image" width="55" height="40" viewBox="0 0 55 40" fill="none" xmlns="http://www.w3.org/2000/svg">
<rect fill="white" x="3.0202" y="8.55554" width="51" height="32"/>
<path fill-rule="evenodd" clip-rule="evenodd" d="M44.8676 22.1684C41.0721 22.2541 38.0202 25.5286 38.0202 29.5556H38.0911C38.5763 25.9748 41.4937 23.2222 45.0202 23.2222C48.8862 23.2222 52.0202 26.5303 52.0202 30.6111C52.0202 34.6919 48.8862 38 45.0202 38C44.1915 38 43.3964 37.848 42.6586 37.569C42.0973 37.845 41.4658 38 40.798 38H16.2424C15.5747 38 14.9431 37.845 14.3818 37.569C13.644 37.848 12.8489 38 12.0202 38C8.15421 38 5.0202 34.6919 5.0202 30.6111C5.0202 26.5303 8.15421 23.2222 12.0202 23.2222C12.1337 23.2222 12.2466 23.2251 12.3588 23.2307C13.1802 20.7664 15.4048 19 18.0202 19C20.9771 19 23.4344 21.2577 23.9293 24.2291C23.989 23.9032 24.0202 23.5665 24.0202 23.2222C24.0202 20.8079 22.4845 18.7723 20.3879 18.1443C22.5214 13.6448 26.929 10.5555 32.0202 10.5555C38.5203 10.5555 43.9062 15.5912 44.8676 22.1684Z"/>
<path d="M38.0202 29.5556H36.0202V31.5556H38.0202V29.5556ZM44.8676 22.1684L44.9127 24.1679L47.1736 24.1168L46.8465 21.8791L44.8676 22.1684ZM38.0911 29.5556V31.5556H39.8383L40.073 29.8241L38.0911 29.5556ZM42.6586 37.569L43.3662 35.6983L42.5547 35.3914L41.7761 35.7742L42.6586 37.569ZM14.3818 37.569L15.2643 35.7742L14.4857 35.3914L13.6742 35.6983L14.3818 37.569ZM12.3588 23.2307L12.2584 25.2282L13.7757 25.3045L14.2562 23.8631L12.3588 23.2307ZM23.9293 24.2291L21.9565 24.5577L25.8967 24.5891L23.9293 24.2291ZM20.3879 18.1443L18.5807 17.2875L17.5829 19.392L19.814 20.0602L20.3879 18.1443ZM40.0202 29.5556C40.0202 26.5182 42.2987 24.2269 44.9127 24.1679L44.8224 20.1689C39.8454 20.2813 36.0202 24.539 36.0202 29.5556H40.0202ZM38.0911 27.5556H38.0202V31.5556H38.0911V27.5556ZM45.0202 21.2222C40.3982 21.2222 36.7157 24.8114 36.1092 29.287L40.073 29.8241C40.437 27.1382 42.5893 25.2222 45.0202 25.2222V21.2222ZM54.0202 30.6111C54.0202 25.529 50.0913 21.2222 45.0202 21.2222V25.2222C47.6811 25.2222 50.0202 27.5316 50.0202 30.6111H54.0202ZM45.0202 40C50.0913 40 54.0202 35.6932 54.0202 30.6111H50.0202C50.0202 33.6906 47.6811 36 45.0202 36V40ZM41.9511 39.4396C42.9103 39.8024 43.9448 40 45.0202 40V36C44.4382 36 43.8826 35.8936 43.3662 35.6983L41.9511 39.4396ZM40.798 40C41.7785 40 42.7113 39.7718 43.5412 39.3637L41.7761 35.7742C41.4833 35.9182 41.1531 36 40.798 36V40ZM16.2424 40H40.798V36H16.2424V40ZM13.4992 39.3637C14.3291 39.7718 15.262 40 16.2424 40V36C15.8874 36 15.5571 35.9182 15.2643 35.7742L13.4992 39.3637ZM12.0202 40C13.0956 40 14.1301 39.8024 15.0893 39.4396L13.6742 35.6983C13.1578 35.8936 12.6022 36 12.0202 36V40ZM3.0202 30.6111C3.0202 35.6932 6.94913 40 12.0202 40V36C9.35929 36 7.0202 33.6906 7.0202 30.6111H3.0202ZM12.0202 21.2222C6.94913 21.2222 3.0202 25.529 3.0202 30.6111H7.0202C7.0202 27.5316 9.35929 25.2222 12.0202 25.2222V21.2222ZM12.4592 21.2332C12.3136 21.2259 12.1672 21.2222 12.0202 21.2222V25.2222C12.1002 25.2222 12.1796 25.2242 12.2584 25.2282L12.4592 21.2332ZM18.0202 17C14.4611 17 11.5279 19.3987 10.4614 22.5983L14.2562 23.8631C14.8325 22.1342 16.3484 21 18.0202 21V17ZM25.9021 23.9005C25.2623 20.0596 22.048 17 18.0202 17V21C19.9061 21 21.6064 22.4559 21.9565 24.5577L25.9021 23.9005ZM22.0202 23.2222C22.0202 23.4454 22 23.6615 21.962 23.8691L25.8967 24.5891C25.978 24.1448 26.0202 23.6877 26.0202 23.2222H22.0202ZM19.814 20.0602C21.0276 20.4237 22.0202 21.6526 22.0202 23.2222H26.0202C26.0202 19.9632 23.9413 17.1209 20.9617 16.2284L19.814 20.0602ZM32.0202 8.55554C26.0842 8.55554 21.0131 12.1575 18.5807 17.2875L22.195 19.0012C24.0296 15.1321 27.7739 12.5555 32.0202 12.5555V8.55554ZM46.8465 21.8791C45.7557 14.4158 39.6074 8.55554 32.0202 8.55554V12.5555C37.4333 12.5555 42.0568 16.7667 42.8886 22.4576L46.8465 21.8791Z" fill="black"/>
<path fill-rule="evenodd" clip-rule="evenodd" d="M8.35511 22.3154C8.44989 22.2787 8.54707 22.2482 8.64604 22.2242L9.96709 21.9028L10.3071 21.8476C10.1199 21.1077 10.0202 20.33 10.0202 19.5278C10.0202 14.5726 13.8258 10.5556 18.5202 10.5556C20.2879 10.5556 21.9295 11.1251 23.2894 12.0999L25.0595 10.8558C23.2655 9.34649 20.9926 8.44446 18.5202 8.44446C12.7212 8.44446 8.0202 13.4066 8.0202 19.5278C8.0202 20.4906 8.13651 21.4248 8.35511 22.3154Z" fill="black"/>
<path fill-rule="evenodd" clip-rule="evenodd" d="M19.0202 0C18.4679 0 18.0202 0.447715 18.0202 1V4.27778C18.0202 4.83006 18.4679 5.27778 19.0202 5.27778C19.5725 5.27778 20.0202 4.83006 20.0202 4.27778V1C20.0202 0.447717 19.5725 0 19.0202 0ZM28.5182 2.68241C28.0466 2.395 27.4494 2.55481 27.1844 3.03935L25.6441 5.85536C25.3791 6.3399 25.5466 6.96569 26.0182 7.2531L26.0424 7.26785C26.514 7.55526 27.1112 7.39545 27.3762 6.91091L28.9165 4.0949C29.1815 3.61036 29.014 2.98457 28.5424 2.69716L28.5182 2.68241ZM1 21.1325C0.447715 21.1325 0 20.6848 0 20.1325V20.0214C0 19.4691 0.447715 19.0214 1 19.0214H4C4.55228 19.0214 5 19.4691 5 20.0214V20.1325C5 20.6848 4.55228 21.1325 4 21.1325H1ZM2.52809 10.0752C2.26306 10.5598 2.43053 11.1855 2.90214 11.4729L5.52442 13.071C5.99603 13.3584 6.59319 13.1986 6.85822 12.7141L6.89847 12.6405C7.1635 12.156 6.99603 11.5302 6.52442 11.2428L3.90214 9.64467C3.43053 9.35726 2.83337 9.51707 2.56835 10.0016L2.52809 10.0752ZM9.12395 4.0949C8.85892 3.61036 9.02639 2.98457 9.498 2.69716L9.5222 2.68241C9.99381 2.395 10.591 2.55481 10.856 3.03935L12.3963 5.85536C12.6613 6.3399 12.4938 6.96569 12.0222 7.2531L11.998 7.26785C11.5264 7.55526 10.9292 7.39545 10.6642 6.91091L9.12395 4.0949Z" fill="black"/>
</svg>
