<svg height="640" version="1.1" width="360" xmlns="http://www.w3.org/2000/svg" style="" fill="#ffffff"><desc>Created with Snap</desc><defs></defs><rect width="360" height="640" fill="#ffffff" style=""></rect><g><g transform="matrix(1,0,0,1,225,8)" width="76" height="20"><svg type="text" width="76" height="20" viewBox="0 0 106 28" fill="none" xmlns="http://www.w3.org/2000/svg">
<text fill="#383B41" xml:space="preserve" style="white-space: pre" font-family="Avenir" font-size="32" font-weight="900" letter-spacing="0px"><tspan x="0.3125" y="25">Seattle</tspan></text>
</svg></g><g transform="matrix(1,0,0,1,119,40)" width="182" height="20"><svg type="text" width="182" height="20" viewBox="0 0 118 13" fill="none" xmlns="http://www.w3.org/2000/svg">
<text fill="#383B41" xml:space="preserve" style="white-space: pre" font-family="Avenir" font-size="12" font-weight="800" letter-spacing="0.2px"><tspan x="-0.145409" y="10">Monday, March 11th</tspan></text>
</svg></g></g><g transform="matrix(1,0,0,1,68,88)" width="284" height="4"><svg type="separator" width="284" height="4" viewBox="0 0 292 4" fill="none" xmlns="http://www.w3.org/2000/svg">
  <rect width="100%" height="100%" rx="2.5" fill="#838992"></rect>
</svg></g><g transform="matrix(1,0,0,1,248,168)" width="104" height="104"><svg type="image" width="104" height="104" viewBox="0 0 67 67" fill="none" xmlns="http://www.w3.org/2000/svg">
<rect x="0.5" y="0.5" width="66" height="66" rx="9.5" stroke="#383B41"></rect>
<rect fill="white" x="7.95947" y="12.0338" width="51" height="30"></rect>
<path fill-rule="evenodd" clip-rule="evenodd" d="M49.7627 25.0233C45.9714 25.1044 42.9229 28.2031 42.9229 32.0139L42.9937 32.0139C43.4784 28.6253 46.3926 26.0205 49.9151 26.0205C53.7768 26.0205 56.9074 29.151 56.9074 33.0128C56.9074 36.8745 53.7768 40.005 49.9151 40.005C49.1142 40.005 48.3447 39.8703 47.628 39.6224C47.11 39.8678 46.5308 40.005 45.9196 40.005H20.9473C20.336 40.005 19.7568 39.8678 19.2388 39.6224C18.5222 39.8703 17.7527 40.005 16.9517 40.005C13.09 40.005 9.95947 36.8745 9.95947 33.0128C9.95947 29.151 13.09 26.0205 16.9517 26.0205C17.0651 26.0205 17.1778 26.0232 17.2899 26.0285C18.1104 23.6965 20.3325 22.0249 22.9451 22.0249C25.8987 22.0249 28.3533 24.1615 28.8476 26.9734C28.9072 26.6649 28.9384 26.3464 28.9384 26.0205C28.9384 23.7358 27.4044 21.8095 25.3101 21.2152C27.4412 16.9572 31.844 14.0338 36.9295 14.0338C43.4225 14.0338 48.8024 18.7992 49.7627 25.0233Z"></path>
<path d="M42.9229 32.0139H40.9229V34.0138L42.9228 34.0139L42.9229 32.0139ZM49.7627 25.0233L49.8054 27.0228L52.0873 26.974L51.7393 24.7183L49.7627 25.0233ZM42.9937 32.0139L42.9936 34.0139L44.728 34.014L44.9735 32.2971L42.9937 32.0139ZM47.628 39.6224L48.2819 37.7323L47.51 37.4652L46.7718 37.8149L47.628 39.6224ZM19.2388 39.6224L20.095 37.8149L19.3568 37.4652L18.5849 37.7323L19.2388 39.6224ZM17.2899 26.0285L17.1948 28.0263L18.6823 28.0971L19.1765 26.6923L17.2899 26.0285ZM28.8476 26.9734L26.8778 27.3197L30.8113 27.3527L28.8476 26.9734ZM25.3101 21.2152L23.5216 20.3201L22.4406 22.4799L24.7642 23.1392L25.3101 21.2152ZM44.9229 32.0139C44.9229 29.2934 47.0994 27.0807 49.8054 27.0228L49.7199 23.0237C44.8433 23.1281 40.9229 27.1129 40.9229 32.0139H44.9229ZM42.9938 30.0139L42.923 30.0139L42.9228 34.0139L42.9936 34.0139L42.9938 30.0139ZM49.9151 24.0205C45.3833 24.0205 41.6374 27.3711 41.0138 31.7307L44.9735 32.2971C45.3193 29.8796 47.4019 28.0205 49.9151 28.0205V24.0205ZM58.9074 33.0128C58.9074 28.0465 54.8814 24.0205 49.9151 24.0205V28.0205C52.6723 28.0205 54.9074 30.2556 54.9074 33.0128H58.9074ZM49.9151 42.005C54.8814 42.005 58.9074 37.979 58.9074 33.0128H54.9074C54.9074 35.7699 52.6723 38.005 49.9151 38.005V42.005ZM46.9741 41.5125C47.8982 41.8322 48.8886 42.005 49.9151 42.005V38.005C49.3397 38.005 48.7911 37.9084 48.2819 37.7323L46.9741 41.5125ZM45.9196 42.005C46.8331 42.005 47.7042 41.7993 48.4842 41.4298L46.7718 37.8149C46.5158 37.9362 46.2285 38.005 45.9196 38.005V42.005ZM20.9473 42.005H45.9196V38.005H20.9473V42.005ZM18.3826 41.4298C19.1626 41.7993 20.0337 42.005 20.9473 42.005V38.005C20.6383 38.005 20.351 37.9362 20.095 37.8149L18.3826 41.4298ZM16.9517 42.005C17.9782 42.005 18.9686 41.8322 19.8927 41.5125L18.5849 37.7323C18.0758 37.9085 17.5271 38.005 16.9517 38.005V42.005ZM7.95947 33.0128C7.95947 37.979 11.9854 42.005 16.9517 42.005V38.005C14.1946 38.005 11.9595 35.7699 11.9595 33.0128H7.95947ZM16.9517 24.0205C11.9854 24.0205 7.95947 28.0465 7.95947 33.0128H11.9595C11.9595 30.2556 14.1946 28.0205 16.9517 28.0205V24.0205ZM17.385 24.0308C17.2413 24.024 17.0968 24.0205 16.9517 24.0205V28.0205C17.0334 28.0205 17.1144 28.0225 17.1948 28.0263L17.385 24.0308ZM22.9451 20.0249C19.4576 20.0249 16.4966 22.2572 15.4033 25.3648L19.1765 26.6923C19.7242 25.1359 21.2074 24.0249 22.9451 24.0249V20.0249ZM30.8174 26.627C30.1578 22.8754 26.8864 20.0249 22.9451 20.0249V24.0249C24.911 24.0249 26.5487 25.4475 26.8778 27.3197L30.8174 26.627ZM26.9384 26.0205C26.9384 26.2184 26.9195 26.4099 26.8839 26.594L30.8113 27.3527C30.8949 26.9199 30.9384 26.4743 30.9384 26.0205H26.9384ZM24.7642 23.1392C26.0209 23.4958 26.9384 24.6536 26.9384 26.0205H30.9384C30.9384 22.8181 28.7879 20.1231 25.8561 19.2912L24.7642 23.1392ZM36.9295 12.0338C31.0578 12.0338 25.9785 15.4112 23.5216 20.3201L27.0986 22.1103C28.904 18.5033 32.6302 16.0338 36.9295 16.0338V12.0338ZM51.7393 24.7183C50.6309 17.5339 44.4244 12.0338 36.9295 12.0338V16.0338C42.4206 16.0338 46.974 20.0645 47.7861 25.3282L51.7393 24.7183Z" fill="black"></path>
<path fill-rule="evenodd" clip-rule="evenodd" d="M34.2565 48.4361C34.8603 48.2744 35.3391 47.6462 35.1176 46.8197C34.9703 46.2697 34.2147 45.5885 33.7255 45.1943C33.5115 45.0217 33.202 45.1098 33.1081 45.3681C32.8874 45.9753 32.5722 46.9808 32.7025 47.4668C32.8962 48.19 33.6527 48.5979 34.2565 48.4361ZM40.5934 46.9002C40.7358 47.4315 40.3935 47.8446 39.9708 47.9578C39.5482 48.0711 39.0274 47.8181 38.9028 47.3532C38.8168 47.0323 39.0657 46.3503 39.2282 45.9586C39.2932 45.8019 39.4824 45.7479 39.6193 45.8482C39.9526 46.0924 40.496 46.5365 40.5934 46.9002ZM27.2188 47.9578C27.6415 47.8446 27.9838 47.4315 27.8415 46.9002C27.744 46.5365 27.2007 46.0924 26.8674 45.8482C26.7304 45.7479 26.5412 45.8019 26.4762 45.9586C26.3137 46.3503 26.0648 47.0323 26.1508 47.3532C26.2754 47.8181 26.7962 48.0711 27.2188 47.9578ZM44.258 52.9311C44.8618 52.7693 45.3407 52.1411 45.1192 51.3146C44.9718 50.7646 44.2162 50.0835 43.7271 49.6892C43.513 49.5167 43.2036 49.6047 43.1096 49.8631C42.8889 50.4703 42.5738 51.4757 42.704 51.9618C42.8978 52.685 43.6542 53.0929 44.258 52.9311ZM25.3411 50.8958C25.4834 51.4271 25.1411 51.8402 24.7185 51.9534C24.2958 52.0667 23.775 51.8137 23.6504 51.3488C23.5645 51.0279 23.8134 50.3459 23.9758 49.9542C24.0409 49.7975 24.2301 49.7435 24.367 49.8438C24.7003 50.088 25.2436 50.5321 25.3411 50.8958ZM38.093 50.8958C38.2354 51.4271 37.8931 51.8402 37.4704 51.9534C37.0478 52.0667 36.527 51.8137 36.4024 51.3488C36.3164 51.0279 36.5653 50.3459 36.7278 49.9542C36.7928 49.7975 36.982 49.7435 37.1189 49.8438C37.4522 50.088 37.9956 50.5321 38.093 50.8958ZM31.8672 51.3146C32.0886 52.1411 31.6098 52.7693 31.006 52.9311C30.4022 53.0929 29.6457 52.685 29.452 51.9618C29.3217 51.4757 29.6369 50.4703 29.8576 49.8631C29.9515 49.6047 30.261 49.5167 30.475 49.6892C30.9642 50.0835 31.7198 50.7646 31.8672 51.3146ZM21.6156 46.8197C21.837 47.6462 21.3582 48.2744 20.7544 48.4361C20.1506 48.5979 19.3942 48.19 19.2004 47.4668C19.0702 46.9808 19.3853 45.9754 19.606 45.3681C19.6999 45.1098 20.0094 45.0217 20.2235 45.1943C20.7126 45.5885 21.4682 46.2697 21.6156 46.8197ZM47.5085 48.4361C48.1123 48.2744 48.5912 47.6462 48.3697 46.8197C48.2223 46.2697 47.4667 45.5885 46.9776 45.1943C46.7635 45.0217 46.4541 45.1098 46.3601 45.3681C46.1394 45.9753 45.8243 46.9808 45.9545 47.4668C46.1483 48.19 46.9047 48.5979 47.5085 48.4361Z" fill="black"></path>
</svg></g><g><g transform="matrix(1,0,0,1,12,116)" width="216" height="72"><svg type="text" width="216" height="72" viewBox="0 0 75 25" fill="none" xmlns="http://www.w3.org/2000/svg">
<text fill="#383B41" xml:space="preserve" style="white-space: pre" font-family="Avenir" font-size="24" font-weight="300" letter-spacing="0px"><tspan x="-1.03125" y="19">Cloudy</tspan></text>
</svg></g><g transform="matrix(1,0,0,1,27,192)" width="187" height="88"><svg type="text" width="187" height="88" viewBox="0 0 87 41" fill="none" xmlns="http://www.w3.org/2000/svg">
<text fill="#383B41" xml:space="preserve" style="white-space: pre" font-family="Avenir" font-size="56" font-weight="900" letter-spacing="0px"><tspan x="-0.703125" y="41">44°</tspan></text>
</svg></g></g><g transform="matrix(1,0,0,1,8,308)" width="344" height="23"><svg type="text" width="344" height="23" viewBox="0 0 203 14" fill="none" xmlns="http://www.w3.org/2000/svg">
<text id="Body" fill="#383B41" xml:space="preserve" style="white-space: pre" font-family="Avenir" font-size="16" font-weight="300" letter-spacing="0px"><tspan x="0.40625" y="13">Winds ENE at 10 to 15 km/h. </tspan></text>
</svg></g><g transform="matrix(1,0,0,1,68,384)" width="224" height="4"><svg type="separator" width="224" height="4" viewBox="0 0 292 4" fill="none" xmlns="http://www.w3.org/2000/svg">
  <rect width="100%" height="100%" rx="2.5" fill="#838992"></rect>
</svg></g><g><g><g transform="matrix(1,0,0,1,125,496)" width="42" height="16"><svg type="text" width="42" height="16" viewBox="0 0 52 20" fill="none" xmlns="http://www.w3.org/2000/svg">
<text id="TuesHeader" fill="#383B41" xml:space="preserve" style="white-space: pre" font-family="Avenir" font-size="24" font-weight="900" letter-spacing="0.5px"><tspan x="0.375" y="19">Tues</tspan></text>
</svg></g><g transform="matrix(1,0,0,1,85,488)" width="32" height="32"><svg type="icon" width="32" height="32" viewBox="0 0 36 36" fill="none" xmlns="http://www.w3.org/2000/svg">
<g id="Sunny">
<path id="Oval 16" d="M18 27.4445C23.2266 27.4445 27.4636 23.2075 27.4636 17.9809C27.4636 12.7542 23.2266 8.51724 18 8.51724C12.7734 8.51724 8.53638 12.7542 8.53638 17.9809C8.53638 23.2075 12.7734 27.4445 18 27.4445Z" stroke="black" stroke-width="2"></path>
<path id="Aura" fill-rule="evenodd" clip-rule="evenodd" d="M17.0536 0.946362C17.0536 0.423701 17.4773 0 18 0C18.5227 0 18.9464 0.4237 18.9464 0.946361V3.78545C18.9464 4.30811 18.5227 4.73181 18 4.73181C17.4773 4.73181 17.0536 4.30811 17.0536 3.78545V0.946362ZM25.7072 2.75793C25.9686 2.30529 26.5474 2.15021 27 2.41154C27.4526 2.67287 27.6077 3.25165 27.3464 3.70429L25.9269 6.16301C25.6655 6.61565 25.0867 6.77073 24.6341 6.5094C24.1815 6.24807 24.0264 5.66929 24.2877 5.21665L25.7072 2.75793ZM33.5884 8.99999C33.3271 8.54736 32.7483 8.39227 32.2957 8.6536L29.837 10.0731C29.3843 10.3345 29.2292 10.9133 29.4906 11.3659C29.7519 11.8185 30.3307 11.9736 30.7833 11.7123L33.2421 10.2927C33.6947 10.0314 33.8498 9.45263 33.5884 8.99999ZM35.0536 17.0536C35.5763 17.0536 36 17.4773 36 18C36 18.5227 35.5763 18.9464 35.0536 18.9464H32.2146C31.6919 18.9464 31.2682 18.5227 31.2682 18C31.2682 17.4773 31.6919 17.0536 32.2146 17.0536H35.0536ZM33.5884 27C33.8498 26.5473 33.6947 25.9686 33.2421 25.7072L30.7833 24.2877C30.3307 24.0264 29.7519 24.1814 29.4906 24.6341C29.2293 25.0867 29.3843 25.6655 29.837 25.9268L32.2957 27.3464C32.7483 27.6077 33.3271 27.4526 33.5884 27ZM27.3464 32.2957C27.6077 32.7483 27.4526 33.3271 27 33.5885C26.5474 33.8498 25.9686 33.6947 25.7072 33.2421L24.2877 30.7833C24.0264 30.3307 24.1815 29.7519 24.6341 29.4906C25.0867 29.2293 25.6655 29.3843 25.9268 29.837L27.3464 32.2957ZM18 36C18.5227 36 18.9464 35.5763 18.9464 35.0536V32.2145C18.9464 31.6919 18.5227 31.2682 18 31.2682C17.4773 31.2682 17.0536 31.6919 17.0536 32.2145V35.0536C17.0536 35.5763 17.4773 36 18 36ZM10.2928 33.2421C10.0314 33.6947 9.45264 33.8498 9 33.5884C8.54736 33.3271 8.39228 32.7483 8.65361 32.2957L10.0731 29.837C10.3345 29.3843 10.9133 29.2293 11.3659 29.4906C11.8185 29.7519 11.9736 30.3307 11.7123 30.7833L10.2928 33.2421ZM2.41155 27C2.67288 27.4526 3.25166 27.6077 3.7043 27.3464L6.16302 25.9268C6.61566 25.6655 6.77074 25.0867 6.50941 24.6341C6.24808 24.1814 5.6693 24.0264 5.21666 24.2877L2.75794 25.7072C2.3053 25.9686 2.15022 26.5474 2.41155 27ZM0.946362 18.9464C0.423701 18.9464 0 18.5227 0 18C0 17.4773 0.4237 17.0536 0.946361 17.0536H3.78545C4.30811 17.0536 4.73181 17.4773 4.73181 18C4.73181 18.5227 4.30811 18.9464 3.78545 18.9464H0.946362ZM2.41154 9C2.15021 9.45264 2.3053 10.0314 2.75794 10.2928L5.21666 11.7123C5.66929 11.9736 6.24808 11.8185 6.50941 11.3659C6.77074 10.9133 6.61565 10.3345 6.16302 10.0731L3.7043 8.65361C3.25166 8.39228 2.67287 8.54736 2.41154 9ZM8.65361 3.70429C8.39228 3.25165 8.54736 2.67287 9 2.41154C9.45264 2.15021 10.0314 2.30529 10.2928 2.75793L11.7123 5.21665C11.9736 5.66929 11.8185 6.24807 11.3659 6.5094C10.9133 6.77073 10.3345 6.61565 10.0732 6.16301L8.65361 3.70429Z" fill="black"></path>
</g>
</svg></g></g><g><g transform="matrix(1,0,0,1,125,540)" width="42" height="16"><svg type="text" width="42" height="16" viewBox="0 0 52 20" fill="none" xmlns="http://www.w3.org/2000/svg">
<text id="WedHeader" fill="#383B41" xml:space="preserve" style="white-space: pre" font-family="Avenir" font-size="24" font-weight="900" letter-spacing="0px"><tspan x="0.261719" y="19">Wed</tspan></text>
</svg></g><g transform="matrix(1,0,0,1,75,532)" width="42" height="32"><svg type="icon" width="42" height="32" viewBox="0 0 50 38" fill="none" xmlns="http://www.w3.org/2000/svg">
<g id="Rainy">
<g id="Cloud">
<rect fill="white" width="50" height="29"></rect>
<path fill-rule="evenodd" clip-rule="evenodd" d="M40.4418 12.1617C36.7801 12.2367 33.8359 15.102 33.8359 18.6258L33.9043 18.6258C34.3724 15.4925 37.1869 13.0839 40.589 13.0839C44.3186 13.0839 47.3421 15.9786 47.3421 19.5494C47.3421 23.1203 44.3186 26.015 40.589 26.015C39.836 26.015 39.1118 25.897 38.4354 25.6793C37.9664 25.8948 37.4444 26.015 36.8944 26.015H12.4477C11.8977 26.015 11.3757 25.8948 10.9067 25.6793C10.2303 25.897 9.50609 26.015 8.75308 26.015C5.02346 26.015 2 23.1203 2 19.5494C2 15.9786 5.02346 13.0839 8.75308 13.0839C8.86258 13.0839 8.97148 13.0863 9.07971 13.0913C9.87212 10.9349 12.0182 9.38922 14.5414 9.38922C17.394 9.38922 19.7646 11.3648 20.2421 13.9649C20.2996 13.6797 20.3298 13.3851 20.3298 13.0838C20.3298 10.9712 18.8482 9.18996 16.8256 8.64047C18.8838 4.70321 23.136 2 28.0476 2C34.3184 2 39.5144 6.40643 40.4418 12.1617Z"></path>
<path d="M33.8359 18.6258H31.8359V20.6255L33.8357 20.6258L33.8359 18.6258ZM40.4418 12.1617L40.4827 14.1613L42.7822 14.1142L42.4163 11.8435L40.4418 12.1617ZM33.9043 18.6258L33.9041 20.6258L35.6277 20.626L35.8824 18.9213L33.9043 18.6258ZM38.4354 25.6793L39.0483 23.7755L38.3075 23.537L37.6003 23.862L38.4354 25.6793ZM10.9067 25.6793L11.7418 23.862L11.0346 23.537L10.2938 23.7755L10.9067 25.6793ZM9.07971 13.0913L8.98862 15.0892L10.4518 15.1559L10.957 13.7811L9.07971 13.0913ZM20.2421 13.9649L18.275 14.3261L22.2026 14.3604L20.2421 13.9649ZM16.8256 8.64047L15.0532 7.71392L13.9008 9.91835L16.3013 10.5705L16.8256 8.64047ZM35.8359 18.6258C35.8359 16.2716 37.8267 14.2157 40.4827 14.1613L40.4008 10.1621C35.7335 10.2577 31.8359 13.9325 31.8359 18.6258H35.8359ZM33.9045 16.6258L33.8362 16.6258L33.8357 20.6258L33.9041 20.6258L33.9045 16.6258ZM40.589 11.0839C36.2475 11.0839 32.5481 14.1678 31.9263 18.3303L35.8824 18.9213C36.1967 16.8172 38.1264 15.0839 40.589 15.0839V11.0839ZM49.3421 19.5494C49.3421 14.7929 45.3403 11.0839 40.589 11.0839V15.0839C43.297 15.0839 45.3421 17.1643 45.3421 19.5494H49.3421ZM40.589 28.015C45.3403 28.015 49.3421 24.306 49.3421 19.5494H45.3421C45.3421 21.9346 43.297 24.015 40.589 24.015V28.015ZM37.8226 27.5831C38.6953 27.864 39.6262 28.015 40.589 28.015V24.015C40.0458 24.015 39.5283 23.93 39.0483 23.7755L37.8226 27.5831ZM36.8944 28.015C37.7385 28.015 38.5449 27.8301 39.2706 27.4966L37.6003 23.862C37.3879 23.9596 37.1504 24.015 36.8944 24.015V28.015ZM12.4477 28.015H36.8944V24.015H12.4477V28.015ZM10.0715 27.4966C10.7972 27.8301 11.6036 28.015 12.4477 28.015V24.015C12.1917 24.015 11.9542 23.9596 11.7418 23.862L10.0715 27.4966ZM8.75308 28.015C9.7159 28.015 10.6468 27.864 11.5195 27.5831L10.2938 23.7755C9.81379 23.93 9.29627 24.015 8.75308 24.015V28.015ZM0 19.5494C0 24.306 4.00178 28.015 8.75308 28.015V24.015C6.04513 24.015 4 21.9346 4 19.5494H0ZM8.75308 11.0839C4.00178 11.0839 0 14.7929 0 19.5494H4C4 17.1643 6.04513 15.0839 8.75308 15.0839V11.0839ZM9.1708 11.0934C9.03224 11.087 8.89298 11.0839 8.75308 11.0839V15.0839C8.83219 15.0839 8.91071 15.0857 8.98862 15.0892L9.1708 11.0934ZM14.5414 7.38922C11.1976 7.38922 8.29022 9.44134 7.20245 12.4014L10.957 13.7811C11.454 12.4285 12.8389 11.3892 14.5414 11.3892V7.38922ZM22.2092 13.6036C21.5494 10.0109 18.3146 7.38922 14.5414 7.38922V11.3892C16.4734 11.3892 17.9798 12.7187 18.275 14.3261L22.2092 13.6036ZM18.3298 13.0838C18.3298 13.2514 18.3131 13.4134 18.2816 13.5693L22.2026 14.3604C22.2862 13.9459 22.3298 13.5188 22.3298 13.0838H18.3298ZM16.3013 10.5705C17.527 10.9035 18.3298 11.9485 18.3298 13.0838H22.3298C22.3298 9.99398 20.1694 7.47641 17.35 6.71042L16.3013 10.5705ZM28.0476 0C22.3956 0 17.4583 3.11315 15.0532 7.71392L18.598 9.56701C20.3094 6.29326 23.8764 4 28.0476 4V0ZM42.4163 11.8435C41.3251 5.07163 35.2514 0 28.0476 0V4C33.3855 4 37.7036 7.74124 38.4672 12.4799L42.4163 11.8435Z" fill="black"></path>
</g>
<g id="Drops">
<path id="Drops_2" fill-rule="evenodd" clip-rule="evenodd" d="M13.2574 32.3162C13.4713 33.0805 13.0088 33.6614 12.4257 33.811C11.8425 33.9606 11.112 33.5834 10.9248 32.9147C10.7999 32.4683 11.0993 31.5481 11.3122 30.9855C11.4063 30.737 11.708 30.6547 11.9225 30.8207C12.3951 31.1863 13.116 31.8111 13.2574 32.3162ZM25.466 33.811C26.0491 33.6614 26.5116 33.0805 26.2977 32.3162C26.1563 31.8111 25.4354 31.1863 24.9628 30.8207C24.7483 30.6547 24.4466 30.737 24.3525 30.9855C24.1396 31.5481 23.8402 32.4683 23.9651 32.9147C24.1523 33.5834 24.8828 33.9606 25.466 33.811ZM18.6691 33.3687C19.0773 33.264 19.4079 32.882 19.2704 32.3907C19.1768 32.0563 18.6573 31.6483 18.3349 31.4217C18.1981 31.3255 18.014 31.3761 17.9491 31.5264C17.7921 31.8896 17.555 32.5146 17.6376 32.8096C17.7579 33.2395 18.2609 33.4734 18.6691 33.3687ZM35.1254 37.9674C35.7086 37.8178 36.171 37.237 35.9571 36.4727C35.8158 35.9676 35.0949 35.3428 34.6222 34.9771C34.4077 34.8112 34.106 34.8935 34.012 35.1419C33.799 35.7045 33.4996 36.6247 33.6245 37.0711C33.8117 37.7398 34.5423 38.117 35.1254 37.9674ZM16.8555 36.0854C16.993 36.5767 16.6624 36.9586 16.2542 37.0634C15.846 37.1681 15.343 36.9341 15.2227 36.5043C15.1401 36.2092 15.3773 35.5843 15.5342 35.2211C15.5992 35.0708 15.7832 35.0202 15.92 35.1164C16.2424 35.3429 16.7619 35.751 16.8555 36.0854ZM29.1713 36.0854C29.3088 36.5767 28.9782 36.9586 28.57 37.0634C28.1618 37.1681 27.6588 36.9341 27.5385 36.5043C27.4559 36.2092 27.6931 35.5843 27.85 35.2211C27.915 35.0708 28.099 35.0202 28.2359 35.1164C28.5582 35.3429 29.0777 35.751 29.1713 36.0854ZM23.1583 36.4727C23.3722 37.237 22.9098 37.8178 22.3266 37.9674C21.7435 38.117 21.0129 37.7398 20.8258 37.0711C20.7008 36.6247 21.0003 35.7045 21.2132 35.1419C21.3072 34.8935 21.6089 34.8112 21.8235 34.9771C22.2961 35.3428 23.017 35.9676 23.1583 36.4727ZM31.5861 32.3907C31.7236 32.882 31.393 33.264 30.9848 33.3687C30.5766 33.4734 30.0737 33.2395 29.9533 32.8096C29.8708 32.5146 30.1079 31.8896 30.2649 31.5264C30.3298 31.3761 30.5139 31.3255 30.6507 31.4217C30.973 31.6483 31.4926 32.0563 31.5861 32.3907ZM38.2647 33.811C38.8479 33.6614 39.3103 33.0805 39.0964 32.3162C38.9551 31.8111 38.2342 31.1863 37.7616 30.8207C37.547 30.6547 37.2453 30.737 37.1513 30.9855C36.9384 31.5481 36.6389 32.4683 36.7639 32.9147C36.951 33.5834 37.6816 33.9606 38.2647 33.811Z" fill="black"></path>
</g>
</g>
</svg></g></g><g><g transform="matrix(1,0,0,1,125,452)" width="42" height="16"><svg type="text" width="42" height="16" viewBox="0 0 52 20" fill="none" xmlns="http://www.w3.org/2000/svg">
<text id="ThursHeader" fill="#383B41" xml:space="preserve" style="white-space: pre" font-family="Avenir" font-size="24" font-weight="900" letter-spacing="0px"><tspan x="0.441406" y="19">Thur</tspan></text>
</svg></g><g transform="matrix(1,0,0,1,73,444)" width="44" height="32"><svg type="icon" width="44" height="32" viewBox="0 0 52 38" fill="none" xmlns="http://www.w3.org/2000/svg">
<g id="Cloudy">
<g id="Cloud">
<rect fill="white" x="2.75598" y="7.99997" width="49" height="31"></rect>
<path fill-rule="evenodd" clip-rule="evenodd" d="M40.4134 35.5916C41.1124 35.856 41.8656 36 42.6507 36C46.3132 36 49.2823 32.866 49.2823 29C49.2823 25.134 46.3132 22 42.6507 22C39.3098 22 36.546 24.6077 36.0863 28H36.0191C36.0191 24.185 38.9104 21.0828 42.5061 21.0016C41.5954 14.7706 36.493 9.99997 30.3349 9.99997C25.5117 9.99997 21.336 12.9266 19.3148 17.1894C21.3011 17.7843 22.756 19.7128 22.756 22C22.756 22.3262 22.7264 22.6451 22.6699 22.9539C22.201 20.1389 19.873 18 17.0718 18C14.594 18 12.4865 19.6734 11.7083 22.008C11.602 22.0027 11.4951 22 11.3876 22C7.72504 22 4.75598 25.134 4.75598 29C4.75598 32.866 7.72504 36 11.3876 36C12.1727 36 12.9259 35.856 13.6248 35.5916C14.1566 35.8531 14.7549 36 15.3876 36L30.3349 36L38.6507 36C39.2833 36 39.8817 35.8531 40.4134 35.5916Z"></path>
<path d="M40.4134 35.5916L41.121 33.7209L40.3095 33.414L39.5309 33.7969L40.4134 35.5916ZM36.0863 28V30H37.8336L38.0682 28.2685L36.0863 28ZM36.0191 28L34.0191 28L34.0191 30H36.0191V28ZM42.5061 21.0016L42.5513 23.0011L44.8121 22.9501L44.4851 20.7124L42.5061 21.0016ZM19.3148 17.1894L17.5077 16.3325L16.5098 18.437L18.741 19.1053L19.3148 17.1894ZM22.6699 22.9539L20.6971 23.2825L24.6372 23.3139L22.6699 22.9539ZM11.7083 22.008L11.6079 24.0055L13.1253 24.0818L13.6057 22.6405L11.7083 22.008ZM13.6248 35.5916L14.5073 33.7969L13.7288 33.414L12.9173 33.7209L13.6248 35.5916ZM15.3876 36L15.3876 38L15.3876 38L15.3876 36ZM30.3349 36L30.3349 34L30.3349 34L30.3349 36ZM38.6507 36L38.6507 38H38.6507V36ZM39.7059 37.4623C40.6262 37.8104 41.6189 38 42.6507 38V34C42.1123 34 41.5985 33.9016 41.121 33.7209L39.7059 37.4623ZM42.6507 38C47.5183 38 51.2823 33.8673 51.2823 29H47.2823C47.2823 31.8647 45.1082 34 42.6507 34V38ZM51.2823 29C51.2823 24.1327 47.5183 20 42.6507 20V24C45.1082 24 47.2823 26.1353 47.2823 29H51.2823ZM42.6507 20C38.2143 20 34.6854 23.4443 34.1044 27.7314L38.0682 28.2685C38.4066 25.7711 40.4054 24 42.6507 24V20ZM36.0863 26H36.0191V30H36.0863V26ZM38.0191 28C38.0191 25.1746 40.1371 23.0556 42.5513 23.0011L42.461 19.0021C37.6837 19.11 34.0191 23.1954 34.0191 28L38.0191 28ZM44.4851 20.7124C43.4448 13.5952 37.5801 7.99997 30.3349 7.99997V12C35.4059 12 39.7459 15.9461 40.5271 21.2909L44.4851 20.7124ZM30.3349 7.99997C24.6668 7.99997 19.8278 11.4394 17.5077 16.3325L21.122 18.0462C22.8443 14.4139 26.3565 12 30.3349 12V7.99997ZM18.741 19.1053C19.8442 19.4357 20.756 20.5575 20.756 22H24.756C24.756 18.8681 22.7579 16.1328 19.8887 15.2734L18.741 19.1053ZM20.756 22C20.756 22.2051 20.7374 22.4035 20.7026 22.5939L24.6372 23.3139C24.7154 22.8868 24.756 22.4474 24.756 22H20.756ZM24.6427 22.6253C24.029 18.9407 20.944 16 17.0718 16V20C18.8021 20 20.373 21.3371 20.6971 23.2825L24.6427 22.6253ZM17.0718 16C13.6503 16 10.8342 18.3057 9.81095 21.3756L13.6057 22.6405C14.1388 21.0412 15.5376 20 17.0718 20V16ZM11.8087 20.0105C11.669 20.0035 11.5286 20 11.3876 20V24C11.4616 24 11.5351 24.0018 11.6079 24.0055L11.8087 20.0105ZM11.3876 20C6.51996 20 2.75598 24.1327 2.75598 29H6.75598C6.75598 26.1353 8.93012 24 11.3876 24V20ZM2.75598 29C2.75598 33.8673 6.51996 38 11.3876 38V34C8.93012 34 6.75598 31.8647 6.75598 29H2.75598ZM11.3876 38C12.4194 38 13.412 37.8104 14.3323 37.4623L12.9173 33.7209C12.4397 33.9016 11.9259 34 11.3876 34V38ZM12.7423 37.3864C13.5426 37.7799 14.4422 38 15.3876 38V34C15.0676 34 14.7706 33.9263 14.5073 33.7969L12.7423 37.3864ZM15.3876 38L30.3349 38L30.3349 34L15.3876 34L15.3876 38ZM30.3349 38L38.6507 38L38.6507 34L30.3349 34L30.3349 38ZM38.6507 38C39.596 38 40.4956 37.7799 41.2959 37.3864L39.5309 33.7969C39.2677 33.9263 38.9706 34 38.6507 34V38Z" fill="black"></path>
</g>
<g id="Sun">
<path id="Oval 16" fill-rule="evenodd" clip-rule="evenodd" d="M7.91535 21.1409C8.00515 21.1062 8.09721 21.0773 8.19098 21.0545L9.4425 20.75L9.76457 20.6978C9.5873 19.9967 9.49281 19.26 9.49281 18.5C9.49281 13.8056 13.0981 9.99998 17.5454 9.99998C19.2201 9.99998 20.7753 10.5396 22.0636 11.463L23.7258 10.2948C23.7307 10.2914 23.7357 10.2879 23.7406 10.2845C22.041 8.85459 19.8878 8.00003 17.5455 8.00003C12.0517 8.00003 7.59808 12.701 7.59808 18.5C7.59808 19.4122 7.70827 20.2971 7.91535 21.1409Z" fill="black"></path>
<path id="Rectangle 69" fill-rule="evenodd" clip-rule="evenodd" d="M18.0192 0C17.4959 0 17.0718 0.424151 17.0718 0.947369V4.05263C17.0718 4.57585 17.4959 5 18.0192 5C18.5424 5 18.9665 4.57585 18.9665 4.05263V0.947369C18.9665 0.424151 18.5424 0 18.0192 0ZM27.0287 2.54823C26.5756 2.27209 26.0018 2.42563 25.7472 2.89118L24.3009 5.53542C24.0463 6.00096 24.2072 6.60222 24.6603 6.87836C25.1134 7.1545 25.6871 7.00096 25.9418 6.53542L27.3881 3.89118C27.6427 3.42563 27.4818 2.82437 27.0287 2.54823ZM1 20.0203C0.447715 20.0203 0 19.5726 0 19.0203C0 18.468 0.447715 18.0203 0.999999 18.0203H3.73684C4.28913 18.0203 4.73684 18.468 4.73684 19.0203C4.73684 19.5726 4.28913 20.0203 3.73684 20.0203H1ZM2.41411 9.51005C2.1525 9.98835 2.31781 10.6061 2.78333 10.8898L5.19974 12.3624C5.66527 12.6461 6.25472 12.4883 6.51633 12.0101C6.77794 11.5318 6.61263 10.914 6.14711 10.6303L3.7307 9.15772C3.26517 8.87402 2.67572 9.03176 2.41411 9.51005ZM8.65017 3.89114C8.39554 3.42559 8.55644 2.82434 9.00956 2.54819C9.46268 2.27205 10.0364 2.42559 10.2911 2.89114L11.7374 5.53538C11.992 6.00092 11.8311 6.60218 11.378 6.87832C10.9249 7.15446 10.3511 7.00092 10.0965 6.53538L8.65017 3.89114Z" fill="black"></path>
</g>
</g>
</svg></g></g></g></svg>