<svg type="icon" width="24" height="24" viewBox="0 0 24 24" fill="none" xmlns="http://www.w3.org/2000/svg">
<g id="instagram">
<path id="Shape" fill-rule="evenodd" clip-rule="evenodd" d="M2.01512 2.01504C2.68235 1.34784 3.35149 0.93696 4.14065 0.63072C4.90388 0.33408 5.77559 0.13152 7.0534 0.07296C8.33313 0.01344 8.74115 0 12.0014 0C15.2608 0 15.6697 0.0144 16.9485 0.07296C18.2254 0.13056 19.0971 0.33408 19.8613 0.63072C20.6495 0.93696 21.3186 1.34784 21.9858 2.01504C22.6531 2.68224 23.063 3.35136 23.3702 4.14048C23.6669 4.90368 23.8694 5.77536 23.928 7.05312C23.9866 8.33184 24 8.74176 24 12C24 15.2582 23.9866 15.6662 23.928 16.9469C23.8704 18.2246 23.6669 19.0963 23.3702 19.8595C23.063 20.6486 22.6531 21.3178 21.9858 21.985C21.3186 22.6522 20.6495 23.0621 19.8603 23.3693C19.0971 23.6659 18.2254 23.8685 16.9476 23.927C15.6688 23.9866 15.2608 24 12.0005 24C8.74211 24 8.33409 23.9856 7.0534 23.927C5.77559 23.8685 4.90484 23.6659 4.14065 23.3693C3.35053 23.0621 2.68235 22.6522 2.01512 21.985C1.34693 21.3187 0.936997 20.6486 0.630745 19.8595C0.334093 19.0963 0.131525 18.2246 0.0729629 16.9469C0.0134405 15.6682 0 15.2592 0 12C0 8.7408 0.0134405 8.33184 0.0720029 7.05216C0.130565 5.7744 0.333133 4.90272 0.629785 4.13952C0.936037 3.34944 1.34693 2.68128 2.01512 2.01504ZM7.15228 21.768C5.982 21.7142 5.34645 21.5203 4.92403 21.3552C4.36337 21.1373 3.964 20.8771 3.5435 20.4576C3.12396 20.0381 2.86283 19.6387 2.64586 19.0781C2.48074 18.6557 2.28585 18.0192 2.23305 16.8499C2.17448 15.5846 2.16296 15.2054 2.16296 12.001C2.16296 8.79648 2.17544 8.41728 2.23305 7.152C2.28681 5.98176 2.4817 5.3472 2.64586 4.92384C2.86379 4.3632 3.12396 3.96384 3.5435 3.54336C3.96304 3.12384 4.36241 2.86272 4.92403 2.64576C5.34645 2.48064 5.98296 2.28576 7.15228 2.23296C8.41761 2.1744 8.79683 2.16288 12.0005 2.16288C15.2051 2.16288 15.5843 2.17536 16.8496 2.23296C18.0199 2.28672 18.6545 2.4816 19.0779 2.64576C19.6385 2.86272 20.0379 3.12384 20.4584 3.54336C20.878 3.96288 21.1381 4.3632 21.3561 4.92384C21.5212 5.34624 21.7161 5.98272 21.7689 7.152C21.8274 8.41824 21.839 8.79648 21.839 12.001C21.839 15.2045 21.8274 15.5846 21.7689 16.8499C21.7151 18.0202 21.5202 18.6557 21.3561 19.0781C21.1381 19.6387 20.878 20.0381 20.4584 20.4576C20.0389 20.8771 19.6385 21.1373 19.0779 21.3552C18.6555 21.5203 18.019 21.7152 16.8496 21.768C15.5843 21.8266 15.2051 21.8381 12.0005 21.8381C8.79683 21.8371 8.41665 21.8256 7.15228 21.768ZM18.4068 7.03393C17.6109 7.03393 16.9668 6.38881 16.9668 5.59393C16.9668 4.79905 17.6109 4.15489 18.4068 4.15489C19.2027 4.15489 19.8469 4.79905 19.8469 5.59393C19.8469 6.38881 19.2017 7.03393 18.4068 7.03393ZM5.838 12C5.838 15.4032 8.59715 18.1622 12.0005 18.1622C15.4038 18.1622 18.163 15.4032 18.163 12C18.163 8.5968 15.4038 5.83776 12.0005 5.83776C8.59715 5.83776 5.838 8.5968 5.838 12ZM8.00096 12C8.00096 9.79104 9.79143 7.99968 12.0005 7.99968C14.2095 7.99968 16.001 9.79104 16.001 12C16.001 14.209 14.2095 16.0003 12.0005 16.0003C9.79143 16.0003 8.00096 14.209 8.00096 12Z" fill="#C1C7D0"/>
</g>
</svg>
