<svg type="image" width="67" height="67" viewBox="0 0 67 67" fill="none" xmlns="http://www.w3.org/2000/svg">
<rect x="0.5" y="0.5" width="66" height="66" rx="9.5" stroke="#383B41"/>
<rect fill="white" x="7.95947" y="12.0338" width="51" height="30"/>
<path fill-rule="evenodd" clip-rule="evenodd" d="M49.7627 25.0233C45.9714 25.1044 42.9229 28.2031 42.9229 32.0139L42.9937 32.0139C43.4784 28.6253 46.3926 26.0205 49.9151 26.0205C53.7768 26.0205 56.9074 29.151 56.9074 33.0128C56.9074 36.8745 53.7768 40.005 49.9151 40.005C49.1142 40.005 48.3447 39.8703 47.628 39.6224C47.11 39.8678 46.5308 40.005 45.9196 40.005H20.9473C20.336 40.005 19.7568 39.8678 19.2388 39.6224C18.5222 39.8703 17.7527 40.005 16.9517 40.005C13.09 40.005 9.95947 36.8745 9.95947 33.0128C9.95947 29.151 13.09 26.0205 16.9517 26.0205C17.0651 26.0205 17.1778 26.0232 17.2899 26.0285C18.1104 23.6965 20.3325 22.0249 22.9451 22.0249C25.8987 22.0249 28.3533 24.1615 28.8476 26.9734C28.9072 26.6649 28.9384 26.3464 28.9384 26.0205C28.9384 23.7358 27.4044 21.8095 25.3101 21.2152C27.4412 16.9572 31.844 14.0338 36.9295 14.0338C43.4225 14.0338 48.8024 18.7992 49.7627 25.0233Z"/>
<path d="M42.9229 32.0139H40.9229V34.0138L42.9228 34.0139L42.9229 32.0139ZM49.7627 25.0233L49.8054 27.0228L52.0873 26.974L51.7393 24.7183L49.7627 25.0233ZM42.9937 32.0139L42.9936 34.0139L44.728 34.014L44.9735 32.2971L42.9937 32.0139ZM47.628 39.6224L48.2819 37.7323L47.51 37.4652L46.7718 37.8149L47.628 39.6224ZM19.2388 39.6224L20.095 37.8149L19.3568 37.4652L18.5849 37.7323L19.2388 39.6224ZM17.2899 26.0285L17.1948 28.0263L18.6823 28.0971L19.1765 26.6923L17.2899 26.0285ZM28.8476 26.9734L26.8778 27.3197L30.8113 27.3527L28.8476 26.9734ZM25.3101 21.2152L23.5216 20.3201L22.4406 22.4799L24.7642 23.1392L25.3101 21.2152ZM44.9229 32.0139C44.9229 29.2934 47.0994 27.0807 49.8054 27.0228L49.7199 23.0237C44.8433 23.1281 40.9229 27.1129 40.9229 32.0139H44.9229ZM42.9938 30.0139L42.923 30.0139L42.9228 34.0139L42.9936 34.0139L42.9938 30.0139ZM49.9151 24.0205C45.3833 24.0205 41.6374 27.3711 41.0138 31.7307L44.9735 32.2971C45.3193 29.8796 47.4019 28.0205 49.9151 28.0205V24.0205ZM58.9074 33.0128C58.9074 28.0465 54.8814 24.0205 49.9151 24.0205V28.0205C52.6723 28.0205 54.9074 30.2556 54.9074 33.0128H58.9074ZM49.9151 42.005C54.8814 42.005 58.9074 37.979 58.9074 33.0128H54.9074C54.9074 35.7699 52.6723 38.005 49.9151 38.005V42.005ZM46.9741 41.5125C47.8982 41.8322 48.8886 42.005 49.9151 42.005V38.005C49.3397 38.005 48.7911 37.9084 48.2819 37.7323L46.9741 41.5125ZM45.9196 42.005C46.8331 42.005 47.7042 41.7993 48.4842 41.4298L46.7718 37.8149C46.5158 37.9362 46.2285 38.005 45.9196 38.005V42.005ZM20.9473 42.005H45.9196V38.005H20.9473V42.005ZM18.3826 41.4298C19.1626 41.7993 20.0337 42.005 20.9473 42.005V38.005C20.6383 38.005 20.351 37.9362 20.095 37.8149L18.3826 41.4298ZM16.9517 42.005C17.9782 42.005 18.9686 41.8322 19.8927 41.5125L18.5849 37.7323C18.0758 37.9085 17.5271 38.005 16.9517 38.005V42.005ZM7.95947 33.0128C7.95947 37.979 11.9854 42.005 16.9517 42.005V38.005C14.1946 38.005 11.9595 35.7699 11.9595 33.0128H7.95947ZM16.9517 24.0205C11.9854 24.0205 7.95947 28.0465 7.95947 33.0128H11.9595C11.9595 30.2556 14.1946 28.0205 16.9517 28.0205V24.0205ZM17.385 24.0308C17.2413 24.024 17.0968 24.0205 16.9517 24.0205V28.0205C17.0334 28.0205 17.1144 28.0225 17.1948 28.0263L17.385 24.0308ZM22.9451 20.0249C19.4576 20.0249 16.4966 22.2572 15.4033 25.3648L19.1765 26.6923C19.7242 25.1359 21.2074 24.0249 22.9451 24.0249V20.0249ZM30.8174 26.627C30.1578 22.8754 26.8864 20.0249 22.9451 20.0249V24.0249C24.911 24.0249 26.5487 25.4475 26.8778 27.3197L30.8174 26.627ZM26.9384 26.0205C26.9384 26.2184 26.9195 26.4099 26.8839 26.594L30.8113 27.3527C30.8949 26.9199 30.9384 26.4743 30.9384 26.0205H26.9384ZM24.7642 23.1392C26.0209 23.4958 26.9384 24.6536 26.9384 26.0205H30.9384C30.9384 22.8181 28.7879 20.1231 25.8561 19.2912L24.7642 23.1392ZM36.9295 12.0338C31.0578 12.0338 25.9785 15.4112 23.5216 20.3201L27.0986 22.1103C28.904 18.5033 32.6302 16.0338 36.9295 16.0338V12.0338ZM51.7393 24.7183C50.6309 17.5339 44.4244 12.0338 36.9295 12.0338V16.0338C42.4206 16.0338 46.974 20.0645 47.7861 25.3282L51.7393 24.7183Z" fill="black"/>
<path fill-rule="evenodd" clip-rule="evenodd" d="M34.2565 48.4361C34.8603 48.2744 35.3391 47.6462 35.1176 46.8197C34.9703 46.2697 34.2147 45.5885 33.7255 45.1943C33.5115 45.0217 33.202 45.1098 33.1081 45.3681C32.8874 45.9753 32.5722 46.9808 32.7025 47.4668C32.8962 48.19 33.6527 48.5979 34.2565 48.4361ZM40.5934 46.9002C40.7358 47.4315 40.3935 47.8446 39.9708 47.9578C39.5482 48.0711 39.0274 47.8181 38.9028 47.3532C38.8168 47.0323 39.0657 46.3503 39.2282 45.9586C39.2932 45.8019 39.4824 45.7479 39.6193 45.8482C39.9526 46.0924 40.496 46.5365 40.5934 46.9002ZM27.2188 47.9578C27.6415 47.8446 27.9838 47.4315 27.8415 46.9002C27.744 46.5365 27.2007 46.0924 26.8674 45.8482C26.7304 45.7479 26.5412 45.8019 26.4762 45.9586C26.3137 46.3503 26.0648 47.0323 26.1508 47.3532C26.2754 47.8181 26.7962 48.0711 27.2188 47.9578ZM44.258 52.9311C44.8618 52.7693 45.3407 52.1411 45.1192 51.3146C44.9718 50.7646 44.2162 50.0835 43.7271 49.6892C43.513 49.5167 43.2036 49.6047 43.1096 49.8631C42.8889 50.4703 42.5738 51.4757 42.704 51.9618C42.8978 52.685 43.6542 53.0929 44.258 52.9311ZM25.3411 50.8958C25.4834 51.4271 25.1411 51.8402 24.7185 51.9534C24.2958 52.0667 23.775 51.8137 23.6504 51.3488C23.5645 51.0279 23.8134 50.3459 23.9758 49.9542C24.0409 49.7975 24.2301 49.7435 24.367 49.8438C24.7003 50.088 25.2436 50.5321 25.3411 50.8958ZM38.093 50.8958C38.2354 51.4271 37.8931 51.8402 37.4704 51.9534C37.0478 52.0667 36.527 51.8137 36.4024 51.3488C36.3164 51.0279 36.5653 50.3459 36.7278 49.9542C36.7928 49.7975 36.982 49.7435 37.1189 49.8438C37.4522 50.088 37.9956 50.5321 38.093 50.8958ZM31.8672 51.3146C32.0886 52.1411 31.6098 52.7693 31.006 52.9311C30.4022 53.0929 29.6457 52.685 29.452 51.9618C29.3217 51.4757 29.6369 50.4703 29.8576 49.8631C29.9515 49.6047 30.261 49.5167 30.475 49.6892C30.9642 50.0835 31.7198 50.7646 31.8672 51.3146ZM21.6156 46.8197C21.837 47.6462 21.3582 48.2744 20.7544 48.4361C20.1506 48.5979 19.3942 48.19 19.2004 47.4668C19.0702 46.9808 19.3853 45.9754 19.606 45.3681C19.6999 45.1098 20.0094 45.0217 20.2235 45.1943C20.7126 45.5885 21.4682 46.2697 21.6156 46.8197ZM47.5085 48.4361C48.1123 48.2744 48.5912 47.6462 48.3697 46.8197C48.2223 46.2697 47.4667 45.5885 46.9776 45.1943C46.7635 45.0217 46.4541 45.1098 46.3601 45.3681C46.1394 45.9753 45.8243 46.9808 45.9545 47.4668C46.1483 48.19 46.9047 48.5979 47.5085 48.4361Z" fill="black"/>
</svg>
