<svg type="image" width="67" height="67" viewBox="0 0 67 67" fill="none" xmlns="http://www.w3.org/2000/svg">
<circle cx="33.5" cy="33.5" r="33.25" fill="white" stroke="black" stroke-width="0.5"/>
<path fill-rule="evenodd" clip-rule="evenodd" d="M49.8032 24.9895C46.0119 25.0706 42.9634 28.1693 42.9634 31.9801L43.0342 31.9801C43.5189 28.5915 46.4331 25.9867 49.9557 25.9867C53.8174 25.9867 56.9479 29.1172 56.9479 32.9789C56.9479 36.8406 53.8174 39.9712 49.9557 39.9712C49.1547 39.9712 48.3852 39.8365 47.6685 39.5886C47.1505 39.8339 46.5713 39.9712 45.9601 39.9712H20.9878C20.3765 39.9712 19.7974 39.8339 19.2794 39.5886C18.5627 39.8365 17.7932 39.9712 16.9922 39.9712C13.1305 39.9712 10 36.8406 10 32.9789C10 29.1172 13.1305 25.9867 16.9922 25.9867C17.1056 25.9867 17.2184 25.9894 17.3304 25.9947C18.1509 23.6627 20.373 21.9911 22.9856 21.9911C25.9392 21.9911 28.3938 24.1277 28.8882 26.9395C28.9477 26.6311 28.9789 26.3125 28.9789 25.9867C28.9789 23.702 27.4449 21.7756 25.3507 21.1814C27.4818 16.9234 31.8845 14 36.9701 14C43.463 14 48.8429 18.7654 49.8032 24.9895Z"/>
<path d="M42.9634 31.9801H40.9634V33.9799L42.9633 33.9801L42.9634 31.9801ZM49.8032 24.9895L49.846 26.989L52.1278 26.9402L51.7798 24.6845L49.8032 24.9895ZM43.0342 31.9801L43.0341 33.9801L44.7685 33.9802L45.0141 32.2633L43.0342 31.9801ZM47.6685 39.5886L48.3225 37.6985L47.5505 37.4314L46.8123 37.7811L47.6685 39.5886ZM19.2794 39.5886L20.1356 37.7811L19.3974 37.4314L18.6254 37.6985L19.2794 39.5886ZM17.3304 25.9947L17.2353 27.9925L18.7228 28.0633L19.2171 26.6585L17.3304 25.9947ZM28.8882 26.9395L26.9184 27.2859L30.8519 27.3189L28.8882 26.9395ZM25.3507 21.1814L23.5622 20.2863L22.4812 22.4461L24.8047 23.1054L25.3507 21.1814ZM44.9634 31.9801C44.9634 29.2596 47.14 27.0469 49.846 26.989L49.7604 22.9899C44.8838 23.0942 40.9634 27.0791 40.9634 31.9801H44.9634ZM43.0344 29.9801L42.9636 29.9801L42.9633 33.9801L43.0341 33.9801L43.0344 29.9801ZM49.9557 23.9867C45.4238 23.9867 41.678 27.3372 41.0544 31.6969L45.0141 32.2633C45.3599 29.8458 47.4424 27.9867 49.9557 27.9867V23.9867ZM58.9479 32.9789C58.9479 28.0127 54.9219 23.9867 49.9557 23.9867V27.9867C52.7128 27.9867 54.9479 30.2218 54.9479 32.9789H58.9479ZM49.9557 41.9712C54.9219 41.9712 58.9479 37.9452 58.9479 32.9789H54.9479C54.9479 35.7361 52.7128 37.9712 49.9557 37.9712V41.9712ZM47.0146 41.4786C47.9388 41.7984 48.9291 41.9712 49.9557 41.9712V37.9712C49.3802 37.9712 48.8316 37.8746 48.3225 37.6985L47.0146 41.4786ZM45.9601 41.9712C46.8737 41.9712 47.7448 41.7655 48.5247 41.396L46.8123 37.7811C46.5563 37.9024 46.269 37.9712 45.9601 37.9712V41.9712ZM20.9878 41.9712H45.9601V37.9712H20.9878V41.9712ZM18.4232 41.396C19.2031 41.7655 20.0742 41.9712 20.9878 41.9712V37.9712C20.6789 37.9712 20.3916 37.9024 20.1356 37.7811L18.4232 41.396ZM16.9922 41.9712C18.0188 41.9712 19.0091 41.7984 19.9333 41.4786L18.6254 37.6985C18.1163 37.8746 17.5677 37.9712 16.9922 37.9712V41.9712ZM8 32.9789C8 37.9452 12.026 41.9712 16.9922 41.9712V37.9712C14.2351 37.9712 12 35.7361 12 32.9789H8ZM16.9922 23.9867C12.026 23.9867 8 28.0127 8 32.9789H12C12 30.2218 14.2351 27.9867 16.9922 27.9867V23.9867ZM17.4256 23.997C17.2818 23.9901 17.1374 23.9867 16.9922 23.9867V27.9867C17.0739 27.9867 17.1549 27.9886 17.2353 27.9925L17.4256 23.997ZM22.9856 19.9911C19.4981 19.9911 16.5371 22.2234 15.4438 25.3309L19.2171 26.6585C19.7647 25.102 21.248 23.9911 22.9856 23.9911V19.9911ZM30.8579 26.5932C30.1983 22.8416 26.9269 19.9911 22.9856 19.9911V23.9911C24.9515 23.9911 26.5892 25.4137 26.9184 27.2859L30.8579 26.5932ZM26.9789 25.9867C26.9789 26.1846 26.96 26.3761 26.9245 26.5602L30.8519 27.3189C30.9355 26.8861 30.9789 26.4405 30.9789 25.9867H26.9789ZM24.8047 23.1054C26.0614 23.462 26.9789 24.6198 26.9789 25.9867H30.9789C30.9789 22.7843 28.8284 20.0893 25.8966 19.2574L24.8047 23.1054ZM36.9701 12C31.0984 12 26.0191 15.3773 23.5622 20.2863L27.1392 22.0765C28.9445 18.4695 32.6707 16 36.9701 16V12ZM51.7798 24.6845C50.6714 17.5001 44.4649 12 36.9701 12V16C42.4612 16 47.0145 20.0307 47.8266 25.2944L51.7798 24.6845Z" fill="black"/>
<path fill-rule="evenodd" clip-rule="evenodd" d="M34.297 48.4022C34.9008 48.2404 35.3796 47.6122 35.1582 46.7857C35.0108 46.2358 34.2552 45.5546 33.7661 45.1603C33.552 44.9878 33.2425 45.0758 33.1486 45.3342C32.9279 45.9414 32.6128 46.9469 32.743 47.4329C32.9368 48.1561 33.6932 48.564 34.297 48.4022ZM40.634 46.8662C40.7763 47.3976 40.434 47.8106 40.0113 47.9239C39.5887 48.0371 39.0679 47.7842 38.9433 47.3192C38.8573 46.9984 39.1062 46.3164 39.2687 45.9247C39.3337 45.7679 39.5229 45.714 39.6599 45.8143C39.9932 46.0584 40.5365 46.5026 40.634 46.8662ZM27.2594 47.9239C27.682 47.8106 28.0244 47.3976 27.882 46.8662C27.7845 46.5026 27.2412 46.0584 26.9079 45.8143C26.771 45.714 26.5818 45.7679 26.5167 45.9247C26.3543 46.3164 26.1054 46.9984 26.1914 47.3192C26.3159 47.7842 26.8367 48.0371 27.2594 47.9239ZM44.2986 52.8972C44.9024 52.7354 45.3812 52.1072 45.1597 51.2807C45.0124 50.7307 44.2568 50.0495 43.7676 49.6553C43.5536 49.4827 43.2441 49.5708 43.1502 49.8292C42.9295 50.4364 42.6143 51.4418 42.7445 51.9278C42.9383 52.651 43.6948 53.0589 44.2986 52.8972ZM25.3816 50.8618C25.524 51.3932 25.1817 51.8062 24.759 51.9195C24.3363 52.0327 23.8156 51.7797 23.691 51.3148C23.605 50.9939 23.8539 50.312 24.0164 49.9203C24.0814 49.7635 24.2706 49.7095 24.4075 49.8098C24.7408 50.054 25.2842 50.4982 25.3816 50.8618ZM38.1336 50.8618C38.2759 51.3932 37.9336 51.8062 37.511 51.9195C37.0883 52.0327 36.5675 51.7797 36.4429 51.3148C36.357 50.9939 36.6059 50.312 36.7683 49.9203C36.8333 49.7635 37.0226 49.7095 37.1595 49.8098C37.4928 50.054 38.0361 50.4982 38.1336 50.8618ZM31.9077 51.2807C32.1292 52.1072 31.6503 52.7354 31.0465 52.8972C30.4427 53.0589 29.6863 52.651 29.4925 51.9278C29.3623 51.4418 29.6774 50.4364 29.8981 49.8292C29.9921 49.5708 30.3015 49.4827 30.5156 49.6553C31.0047 50.0495 31.7603 50.7307 31.9077 51.2807ZM21.6561 46.7857C21.8776 47.6122 21.3987 48.2404 20.7949 48.4022C20.1911 48.564 19.4347 48.1561 19.2409 47.4329C19.1107 46.9469 19.4258 45.9414 19.6465 45.3342C19.7405 45.0758 20.0499 44.9878 20.264 45.1603C20.7531 45.5546 21.5087 46.2358 21.6561 46.7857ZM47.5491 48.4022C48.1529 48.2404 48.6317 47.6122 48.4102 46.7857C48.2629 46.2358 47.5072 45.5546 47.0181 45.1603C46.8041 44.9878 46.4946 45.0758 46.4007 45.3342C46.18 45.9414 45.8648 46.9469 45.995 47.4329C46.1888 48.1561 46.9453 48.564 47.5491 48.4022Z" fill="black"/>
</svg>
