<svg type="image" width="67" height="67" viewBox="0 0 67 67" fill="none" xmlns="http://www.w3.org/2000/svg">
<rect x="0.5" y="0.5" width="66" height="66" stroke="#383B41"/>
<mask id="path-2-outside-1" maskUnits="userSpaceOnUse" x="7.95349" y="12.0338" width="51" height="30" fill="black">
<rect fill="white" x="7.95349" y="12.0338" width="51" height="30"/>
<path fill-rule="evenodd" clip-rule="evenodd" d="M47.622 39.6223C48.3386 39.8703 49.1082 40.005 49.9091 40.005C53.7708 40.005 56.9014 36.8744 56.9014 33.0127C56.9014 29.151 53.7708 26.0205 49.9091 26.0205C46.3866 26.0205 43.4724 28.6253 42.9877 32.0138H42.9169C42.9169 28.2031 45.9654 25.1044 49.7567 25.0233C48.7964 18.7992 43.4165 14.0338 36.9236 14.0338C31.838 14.0338 27.4353 16.9572 25.3041 21.2152C27.3984 21.8095 28.9324 23.7358 28.9324 26.0205C28.9324 26.3464 28.9012 26.6649 28.8416 26.9733C28.3472 24.1615 25.8927 22.025 22.9391 22.025C20.3266 22.025 18.1044 23.6965 17.284 26.0285C17.1719 26.0232 17.0591 26.0205 16.9457 26.0205C13.084 26.0205 9.95349 29.151 9.95349 33.0127C9.95349 36.8744 13.084 40.005 16.9457 40.005C17.7467 40.005 18.5162 39.8703 19.2329 39.6223C19.7509 39.8677 20.3301 40.005 20.9413 40.005H36.8917C36.9023 40.005 36.9129 40.005 36.9236 40.005C36.9342 40.005 36.9448 40.005 36.9554 40.005H45.9136C46.5248 40.005 47.104 39.8677 47.622 39.6223Z"/>
</mask>
<path d="M47.622 39.6223L48.2759 37.7323L47.504 37.4652L46.7658 37.8149L47.622 39.6223ZM42.9877 32.0138V34.0138H44.722L44.9676 32.297L42.9877 32.0138ZM42.9169 32.0138L40.9169 32.0138L40.9169 34.0138H42.9169V32.0138ZM49.7567 25.0233L49.7994 27.0228L52.0813 26.974L51.7333 24.7183L49.7567 25.0233ZM25.3041 21.2152L23.5156 20.3201L22.4346 22.4799L24.7582 23.1393L25.3041 21.2152ZM28.8416 26.9733L26.8719 27.3197L30.8053 27.3526L28.8416 26.9733ZM17.284 26.0285L17.1888 28.0263L18.6763 28.0971L19.1706 26.6923L17.284 26.0285ZM19.2329 39.6223L20.0891 37.8149L19.3509 37.4652L18.579 37.7323L19.2329 39.6223ZM36.8917 40.005L36.8964 38.005H36.8917V40.005ZM36.9554 40.005V38.0049L36.9507 38.005L36.9554 40.005ZM46.9681 41.5124C47.8922 41.8322 48.8826 42.005 49.9091 42.005V38.005C49.3337 38.005 48.7851 37.9084 48.2759 37.7323L46.9681 41.5124ZM49.9091 42.005C54.8754 42.005 58.9014 37.979 58.9014 33.0127H54.9014C54.9014 35.7699 52.6663 38.005 49.9091 38.005V42.005ZM58.9014 33.0127C58.9014 28.0464 54.8754 24.0205 49.9091 24.0205V28.0205C52.6663 28.0205 54.9014 30.2556 54.9014 33.0127H58.9014ZM49.9091 24.0205C45.3773 24.0205 41.6315 27.371 41.0079 31.7306L44.9676 32.297C45.3134 29.8796 47.3959 28.0205 49.9091 28.0205V24.0205ZM42.9877 30.0138H42.9169V34.0138H42.9877V30.0138ZM44.9169 32.0138C44.9169 29.2933 47.0935 27.0807 49.7994 27.0228L49.7139 23.0237C44.8373 23.1281 40.9169 27.1128 40.9169 32.0138L44.9169 32.0138ZM51.7333 24.7183C50.6249 17.5339 44.4184 12.0338 36.9236 12.0338V16.0338C42.4146 16.0338 46.968 20.0645 47.7801 25.3282L51.7333 24.7183ZM36.9236 12.0338C31.0518 12.0338 25.9725 15.4112 23.5156 20.3201L27.0926 22.1104C28.898 18.5033 32.6242 16.0338 36.9236 16.0338V12.0338ZM24.7582 23.1393C26.0149 23.4958 26.9324 24.6536 26.9324 26.0205H30.9324C30.9324 22.8181 28.7819 20.1231 25.8501 19.2912L24.7582 23.1393ZM26.9324 26.0205C26.9324 26.2184 26.9135 26.4099 26.8779 26.594L30.8053 27.3526C30.8889 26.9199 30.9324 26.4743 30.9324 26.0205H26.9324ZM30.8114 26.627C30.1518 22.8754 26.8804 20.025 22.9391 20.025V24.025C24.905 24.025 26.5427 25.4475 26.8719 27.3197L30.8114 26.627ZM22.9391 20.025C19.4516 20.025 16.4907 22.2572 15.3973 25.3647L19.1706 26.6923C19.7182 25.1359 21.2015 24.025 22.9391 24.025V20.025ZM17.3791 24.0308C17.2353 24.0239 17.0909 24.0205 16.9457 24.0205V28.0205C17.0274 28.0205 17.1084 28.0224 17.1888 28.0263L17.3791 24.0308ZM16.9457 24.0205C11.9795 24.0205 7.95349 28.0464 7.95349 33.0127H11.9535C11.9535 30.2556 14.1886 28.0205 16.9457 28.0205V24.0205ZM7.95349 33.0127C7.95349 37.979 11.9795 42.005 16.9457 42.005V38.005C14.1886 38.005 11.9535 35.7699 11.9535 33.0127H7.95349ZM16.9457 42.005C17.9723 42.005 18.9627 41.8322 19.8868 41.5124L18.579 37.7323C18.0698 37.9084 17.5212 38.005 16.9457 38.005V42.005ZM18.3767 41.4298C19.1567 41.7993 20.0277 42.005 20.9413 42.005V38.005C20.6324 38.005 20.3451 37.9361 20.0891 37.8149L18.3767 41.4298ZM20.9413 42.005H36.8917V38.005H20.9413V42.005ZM36.8871 42.0049C36.8991 42.005 36.9113 42.005 36.9236 42.005V38.005C36.9146 38.005 36.9056 38.005 36.8964 38.005L36.8871 42.0049ZM36.9236 42.005C36.9358 42.005 36.948 42.005 36.96 42.0049L36.9507 38.005C36.9415 38.005 36.9325 38.005 36.9236 38.005V42.005ZM36.9554 42.005H45.9136V38.005H36.9554V42.005ZM45.9136 42.005C46.8271 42.005 47.6982 41.7993 48.4782 41.4298L46.7658 37.8149C46.5098 37.9361 46.2225 38.005 45.9136 38.005V42.005Z" fill="black" mask="url(#path-2-outside-1)"/>
<path fill-rule="evenodd" clip-rule="evenodd" d="M47.5025 48.436C48.1063 48.2742 48.5852 47.6461 48.3637 46.8195C48.2163 46.2696 47.4607 45.5884 46.9716 45.1941C46.7575 45.0216 46.4481 45.1096 46.3541 45.368C46.1334 45.9752 45.8183 46.9807 45.9485 47.4667C46.1423 48.1899 46.8987 48.5978 47.5025 48.436ZM34.2505 48.436C34.8543 48.2742 35.3331 47.6461 35.1117 46.8195C34.9643 46.2696 34.2087 45.5884 33.7196 45.1941C33.5055 45.0216 33.196 45.1096 33.1021 45.368C32.8814 45.9752 32.5662 46.9807 32.6965 47.4667C32.8903 48.1899 33.6467 48.5978 34.2505 48.436ZM27.2129 47.9578C27.6355 47.8445 27.9778 47.4314 27.8355 46.9001C27.738 46.5365 27.1947 46.0923 26.8614 45.8481C26.7245 45.7478 26.5353 45.8018 26.4702 45.9586C26.3078 46.3503 26.0589 47.0322 26.1448 47.3531C26.2694 47.818 26.7902 48.071 27.2129 47.9578ZM31.8612 51.3145C32.0826 52.141 31.6038 52.7692 31 52.931C30.3962 53.0928 29.6398 52.6849 29.446 51.9617C29.3157 51.4756 29.6309 50.4702 29.8516 49.863C29.9455 49.6046 30.255 49.5166 30.469 49.6891C30.9582 50.0834 31.7138 50.7645 31.8612 51.3145ZM44.2521 52.931C44.8558 52.7692 45.3347 52.141 45.1132 51.3145C44.9658 50.7645 44.2102 50.0834 43.7211 49.6891C43.5071 49.5166 43.1976 49.6046 43.1037 49.863C42.8829 50.4702 42.5678 51.4756 42.698 51.9617C42.8918 52.6849 43.6483 53.0928 44.2521 52.931ZM25.3351 50.8957C25.4775 51.427 25.1351 51.8401 24.7125 51.9533C24.2898 52.0666 23.769 51.8136 23.6445 51.3487C23.5585 51.0278 23.8074 50.3458 23.9698 49.9541C24.0349 49.7974 24.2241 49.7434 24.361 49.8437C24.6943 50.0879 25.2376 50.532 25.3351 50.8957ZM38.087 50.8957C38.2294 51.427 37.8871 51.8401 37.4644 51.9533C37.0418 52.0666 36.521 51.8136 36.3964 51.3487C36.3104 51.0278 36.5593 50.3458 36.7218 49.9541C36.7868 49.7974 36.976 49.7434 37.113 49.8437C37.4463 50.0879 37.9896 50.532 38.087 50.8957ZM40.5874 46.9001C40.7298 47.4314 40.3875 47.8445 39.9648 47.9578C39.5422 48.071 39.0214 47.818 38.8968 47.3531C38.8108 47.0322 39.0597 46.3503 39.2222 45.9586C39.2872 45.8018 39.4764 45.7478 39.6133 45.8481C39.9466 46.0923 40.49 46.5365 40.5874 46.9001ZM21.6096 46.8195C21.831 47.6461 21.3522 48.2742 20.7484 48.436C20.1446 48.5978 19.3882 48.1899 19.1944 47.4667C19.0642 46.9807 19.3793 45.9752 19.6 45.368C19.694 45.1096 20.0034 45.0216 20.2175 45.1941C20.7066 45.5884 21.4622 46.2696 21.6096 46.8195Z" fill="black"/>
</svg>
