<svg type="icon" width="48" height="48" viewBox="0 0 48 48" fill="none" xmlns="http://www.w3.org/2000/svg">
<g id="Group 2">
<rect id="Rectangle" width="48" height="48" fill="white"/>
<g id="Foggy">
<rect id="Rectangle_2" y="5" width="48" height="38" fill="white"/>
<g id="Foggy_2">
<g id="Cloud">
<rect fill="white" y="5" width="48" height="29"/>
<path fill-rule="evenodd" clip-rule="evenodd" d="M39.3039 17.3581C35.7507 17.4346 32.8936 20.3553 32.8936 23.9472C32.8936 23.9472 32.8936 23.9472 32.8936 23.9472H32.96C33.4142 20.7533 36.1454 18.2981 39.4468 18.2981C43.066 18.2981 46 21.2488 46 24.8887C46 28.5286 43.066 31.4793 39.4468 31.4793C38.6935 31.4793 37.9699 31.3515 37.2962 31.1162C36.8067 31.349 36.2589 31.4793 35.6807 31.4793H12.3192C11.741 31.4793 11.1933 31.349 10.7037 31.1162C10.0301 31.3515 9.30649 31.4793 8.55319 31.4793C4.93396 31.4793 2 28.5286 2 24.8887C2 21.2488 4.93396 18.2981 8.55319 18.2981C8.65945 18.2981 8.76512 18.3007 8.87014 18.3057C9.6391 16.1077 11.7217 14.5321 14.1702 14.5321C16.9383 14.5321 19.2388 16.5459 19.7021 19.1963C19.758 18.9056 19.7872 18.6053 19.7872 18.2982C19.7872 16.1447 18.3495 14.329 16.3868 13.7689C18.3841 9.75549 22.5104 7 27.2766 7C33.3618 7 38.4039 11.4916 39.3039 17.3581Z"/>
<path d="M39.3039 17.3581L39.3469 19.3576L41.6265 19.3086L41.2808 17.0548L39.3039 17.3581ZM32.8936 23.9472H30.8936V25.9472H32.8936V23.9472ZM32.96 23.9472V25.9472H34.6956L34.94 24.2288L32.96 23.9472ZM37.2962 31.1162L37.9557 29.228L37.1796 28.957L36.4373 29.3101L37.2962 31.1162ZM10.7037 31.1162L11.5627 29.3101L10.8204 28.957L10.0443 29.228L10.7037 31.1162ZM8.87014 18.3057L8.77446 20.3034L10.2651 20.3748L10.7579 18.9661L8.87014 18.3057ZM19.7021 19.1963L17.732 19.5407L21.6662 19.5735L19.7021 19.1963ZM16.3868 13.7689L14.5963 12.8778L13.5243 15.0318L15.8379 15.6921L16.3868 13.7689ZM34.8936 23.9472C34.8936 21.4351 36.8893 19.4105 39.3469 19.3576L39.2609 15.3586C34.6121 15.4586 30.8936 19.2755 30.8936 23.9472H34.8936ZM34.8936 23.9472C34.8936 23.9472 34.8936 23.9472 34.8936 23.9472C34.8936 23.9472 34.8936 23.9472 34.8936 23.9472V23.9472V23.9472V23.9472V23.9472C34.8936 23.9472 34.8936 23.9472 34.8936 23.9472C34.8936 23.9472 34.8936 23.9472 34.8936 23.9472C34.8936 23.9472 34.8936 23.9472 34.8936 23.9472C34.8936 23.9472 34.8936 23.9472 34.8936 23.9472V23.9472C34.8936 23.9472 34.8936 23.9472 34.8936 23.9472C34.8936 23.9472 34.8936 23.9472 34.8936 23.9472C34.8936 23.9472 34.8936 23.9472 34.8936 23.9472V23.9472C34.8936 23.9472 34.8936 23.9472 34.8936 23.9472C34.8936 23.9472 34.8936 23.9472 34.8936 23.9472V23.9472C34.8936 23.9472 34.8936 23.9472 34.8936 23.9472V23.9472C34.8936 23.9472 34.8936 23.9472 34.8936 23.9472C34.8936 23.9472 34.8936 23.9472 34.8936 23.9472V23.9472C34.8936 23.9472 34.8936 23.9472 34.8936 23.9472C34.8936 23.9472 34.8936 23.9472 34.8936 23.9472C34.8936 23.9472 34.8936 23.9472 34.8936 23.9472V23.9472C34.8936 23.9472 34.8936 23.9472 34.8936 23.9472C34.8936 23.9472 34.8936 23.9472 34.8936 23.9472C34.8936 23.9472 34.8936 23.9472 34.8936 23.9472C34.8936 23.9472 34.8936 23.9472 34.8936 23.9472V23.9472V23.9472V23.9472V23.9472C34.8936 23.9472 34.8936 23.9472 34.8936 23.9472C34.8936 23.9472 34.8936 23.9472 34.8936 23.9472H30.8936C30.8936 23.9472 30.8936 23.9472 30.8936 23.9472C30.8936 23.9472 30.8936 23.9472 30.8936 23.9472V23.9472V23.9472V23.9472V23.9472C30.8936 23.9472 30.8936 23.9472 30.8936 23.9472C30.8936 23.9472 30.8936 23.9472 30.8936 23.9472C30.8936 23.9472 30.8936 23.9472 30.8936 23.9472C30.8936 23.9472 30.8936 23.9472 30.8936 23.9472V23.9472C30.8936 23.9472 30.8936 23.9472 30.8936 23.9472C30.8936 23.9472 30.8936 23.9472 30.8936 23.9472C30.8936 23.9472 30.8936 23.9472 30.8936 23.9472V23.9472C30.8936 23.9472 30.8936 23.9472 30.8936 23.9472C30.8936 23.9472 30.8936 23.9472 30.8936 23.9472V23.9472C30.8936 23.9472 30.8936 23.9472 30.8936 23.9472V23.9472C30.8936 23.9472 30.8936 23.9472 30.8936 23.9472C30.8936 23.9472 30.8936 23.9472 30.8936 23.9472V23.9472C30.8936 23.9472 30.8936 23.9472 30.8936 23.9472C30.8936 23.9472 30.8936 23.9472 30.8936 23.9472C30.8936 23.9472 30.8936 23.9472 30.8936 23.9472V23.9472C30.8936 23.9472 30.8936 23.9472 30.8936 23.9472C30.8936 23.9472 30.8936 23.9472 30.8936 23.9472C30.8936 23.9472 30.8936 23.9472 30.8936 23.9472C30.8936 23.9472 30.8936 23.9472 30.8936 23.9472V23.9472V23.9472V23.9472V23.9472C30.8936 23.9472 30.8936 23.9472 30.8936 23.9472C30.8936 23.9472 30.8936 23.9472 30.8936 23.9472H34.8936ZM32.96 21.9472H32.8936V25.9472H32.96V21.9472ZM39.4468 16.2981C35.127 16.2981 31.5711 19.5084 30.9799 23.6656L34.94 24.2288C35.2573 21.9982 37.1638 20.2981 39.4468 20.2981V16.2981ZM48 24.8887C48 20.155 44.1813 16.2981 39.4468 16.2981V20.2981C41.9507 20.2981 44 22.3427 44 24.8887H48ZM39.4468 33.4793C44.1813 33.4793 48 29.6224 48 24.8887H44C44 27.4348 41.9507 29.4793 39.4468 29.4793V33.4793ZM36.6368 33.0044C37.5194 33.3126 38.4658 33.4793 39.4468 33.4793V29.4793C38.9212 29.4793 38.4203 29.3903 37.9557 29.228L36.6368 33.0044ZM35.6807 33.4793C36.5623 33.4793 37.403 33.2801 38.1552 32.9224L36.4373 29.3101C36.2104 29.418 35.9555 29.4793 35.6807 29.4793V33.4793ZM12.3192 33.4793H35.6807V29.4793H12.3192V33.4793ZM9.84478 32.9224C10.597 33.2801 11.4376 33.4793 12.3192 33.4793V29.4793C12.0444 29.4793 11.7896 29.418 11.5627 29.3101L9.84478 32.9224ZM8.55319 33.4793C9.53418 33.4793 10.4805 33.3126 11.3632 33.0044L10.0443 29.228C9.57964 29.3903 9.0788 29.4793 8.55319 29.4793V33.4793ZM0 24.8887C0 29.6224 3.81868 33.4793 8.55319 33.4793V29.4793C6.04925 29.4793 4 27.4348 4 24.8887H0ZM8.55319 16.2981C3.81868 16.2981 0 20.155 0 24.8887H4C4 22.3427 6.04925 20.2981 8.55319 20.2981V16.2981ZM8.96581 16.308C8.82894 16.3014 8.69137 16.2981 8.55319 16.2981V20.2981C8.62753 20.2981 8.70129 20.2999 8.77446 20.3034L8.96581 16.308ZM14.1702 12.5321C10.8396 12.5321 8.02122 14.6757 6.98233 17.6453L10.7579 18.9661C11.257 17.5397 12.6038 16.5321 14.1702 16.5321V12.5321ZM21.6723 18.8519C21.0459 15.2689 17.9348 12.5321 14.1702 12.5321V16.5321C15.9419 16.5321 17.4317 17.8229 17.732 19.5407L21.6723 18.8519ZM17.7872 18.2982C17.7872 18.478 17.7701 18.652 17.738 18.819L21.6662 19.5735C21.7458 19.1591 21.7872 18.7325 21.7872 18.2982H17.7872ZM15.8379 15.6921C16.9581 16.0118 17.7872 17.0548 17.7872 18.2982H21.7872C21.7872 15.2347 19.741 12.6462 16.9356 11.8457L15.8379 15.6921ZM27.2766 5C21.7181 5 16.9165 8.21539 14.5963 12.8778L18.1773 14.66C19.8516 11.2956 23.3026 9 27.2766 9V5ZM41.2808 17.0548C40.2346 10.2356 34.3727 5 27.2766 5V9C32.351 9 36.5732 12.7476 37.3271 17.6614L41.2808 17.0548Z" fill="black" />
</g>
<g id="Line">
<path d="M3.87231 39.9006C6.93824 39.9006 6.38988 40.8421 8.89958 40.8421C11.4093 40.8421 11.2658 39.9006 13.9274 39.9006C16.589 39.9006 16.9185 40.8421 18.955 40.8421C20.9915 40.8421 21.3702 39.9006 23.9822 39.9006C26.5942 39.9006 26.3976 40.8421 29.0096 40.8421C31.6216 40.8421 31.4251 39.9006 34.0371 39.9006C36.6491 39.9006 36.4526 40.8421 39.0646 40.8421C41.6766 40.8421 40.5439 39.9006 44.092 39.9006" fill="black"/>
<path d="M3.87231 39.9006C6.93824 39.9006 6.38988 40.8421 8.89958 40.8421C11.4093 40.8421 11.2658 39.9006 13.9274 39.9006C16.589 39.9006 16.9185 40.8421 18.955 40.8421C20.9915 40.8421 21.3702 39.9006 23.9822 39.9006C26.5942 39.9006 26.3976 40.8421 29.0096 40.8421C31.6216 40.8421 31.4251 39.9006 34.0371 39.9006C36.6491 39.9006 36.4526 40.8421 39.0646 40.8421C41.6766 40.8421 40.5439 39.9006 44.092 39.9006" stroke="white" stroke-linecap="square"/>
</g>
<g id="Line_2">
<path d="M3.87231 42.7252C6.93824 42.7252 6.38988 43.6667 8.89958 43.6667C11.4093 43.6667 11.2658 42.7252 13.9274 42.7252C16.589 42.7252 16.9185 43.6667 18.955 43.6667C20.9915 43.6667 21.3702 42.7252 23.9822 42.7252C26.5942 42.7252 26.3976 43.6667 29.0096 43.6667C31.6216 43.6667 31.4251 42.7252 34.0371 42.7252C36.6491 42.7252 36.4526 43.6667 39.0646 43.6667C41.6766 43.6667 40.5439 42.7252 44.092 42.7252" fill="black"/>
<path d="M3.87231 42.7252C6.93824 42.7252 6.38988 43.6667 8.89958 43.6667C11.4093 43.6667 11.2658 42.7252 13.9274 42.7252C16.589 42.7252 16.9185 43.6667 18.955 43.6667C20.9915 43.6667 21.3702 42.7252 23.9822 42.7252C26.5942 42.7252 26.3976 43.6667 29.0096 43.6667C31.6216 43.6667 31.4251 42.7252 34.0371 42.7252C36.6491 42.7252 36.4526 43.6667 39.0646 43.6667C41.6766 43.6667 40.5439 42.7252 44.092 42.7252" stroke="white" stroke-linecap="square"/>
</g>
<g id="Line_3">
<path d="M3.87231 45.7252C6.93824 45.7252 6.38988 46.6667 8.89958 46.6667C11.4093 46.6667 11.2658 45.7252 13.9274 45.7252C16.589 45.7252 16.9185 46.6667 18.955 46.6667C20.9915 46.6667 21.3702 45.7252 23.9822 45.7252C26.5942 45.7252 26.3976 46.6667 29.0096 46.6667C31.6216 46.6667 31.4251 45.7252 34.0371 45.7252C36.6491 45.7252 36.4526 46.6667 39.0646 46.6667C41.6766 46.6667 40.5439 45.7252 44.092 45.7252" fill="black"/>
<path d="M3.87231 45.7252C6.93824 45.7252 6.38988 46.6667 8.89958 46.6667C11.4093 46.6667 11.2658 45.7252 13.9274 45.7252C16.589 45.7252 16.9185 46.6667 18.955 46.6667C20.9915 46.6667 21.3702 45.7252 23.9822 45.7252C26.5942 45.7252 26.3976 46.6667 29.0096 46.6667C31.6216 46.6667 31.4251 45.7252 34.0371 45.7252C36.6491 45.7252 36.4526 46.6667 39.0646 46.6667C41.6766 46.6667 40.5439 45.7252 44.092 45.7252" stroke="white" stroke-linecap="square"/>
</g>
</g>
</g>
</g>
</svg>
