<svg type="icon" width="52" height="43" viewBox="0 0 52 43" fill="none" xmlns="http://www.w3.org/2000/svg">
<g id="Foggy">
<g id="Cloud">
<rect fill="white" width="52" height="31"/>
<path fill-rule="evenodd" clip-rule="evenodd" d="M42.6952 13.2998C38.8189 13.3832 35.7021 16.5695 35.7021 20.4878L35.7745 20.4879C36.2701 17.0036 39.2496 14.3252 42.8511 14.3252C46.7993 14.3252 50 17.5442 50 21.515C50 25.4858 46.7993 28.7047 42.8511 28.7047C42.0293 28.7047 41.2399 28.5652 40.505 28.3086C39.9709 28.5626 39.3734 28.7047 38.7427 28.7047L29.5745 28.7047L13.2574 28.7047C12.6266 28.7047 12.0291 28.5626 11.4951 28.3086C10.7601 28.5653 9.97074 28.7047 9.14894 28.7047C5.20069 28.7047 2 25.4858 2 21.515C2 17.5442 5.20069 14.3253 9.14894 14.3253C9.26486 14.3253 9.38013 14.328 9.4947 14.3335C10.3336 11.9356 12.6055 10.2168 15.2766 10.2168C18.2964 10.2168 20.806 12.4137 21.3114 15.305C21.3724 14.9878 21.4043 14.6603 21.4043 14.3253C21.4043 11.9761 19.8358 9.99527 17.6947 9.38424C19.8735 5.00599 24.3749 2 29.5745 2C36.2129 2 41.7134 6.89995 42.6952 13.2998Z"/>
<path d="M35.7021 20.4878H33.7021V22.4873L35.7015 22.4878L35.7021 20.4878ZM42.6952 13.2998L42.7382 15.2993L45.0178 15.2503L44.672 12.9965L42.6952 13.2998ZM35.7745 20.4879L35.7739 22.4879L37.5101 22.4884L37.7546 20.7695L35.7745 20.4879ZM40.505 28.3086L41.1644 26.4204L40.3884 26.1494L39.646 26.5024L40.505 28.3086ZM38.7427 28.7047L38.7427 30.7047H38.7427V28.7047ZM29.5745 28.7047L29.5745 26.7047L29.5745 26.7047L29.5745 28.7047ZM13.2574 28.7047L13.2574 30.7047L13.2574 30.7047L13.2574 28.7047ZM11.4951 28.3086L12.354 26.5024L11.6117 26.1494L10.8356 26.4204L11.4951 28.3086ZM9.4947 14.3335L9.39902 16.3312L10.8897 16.4026L11.3825 14.9939L9.4947 14.3335ZM21.3114 15.305L19.3413 15.6494L23.2755 15.6822L21.3114 15.305ZM17.6947 9.38424L15.9041 8.49317L14.8322 10.6472L17.1458 11.3075L17.6947 9.38424ZM37.7021 20.4878C37.7021 17.6492 39.9575 15.3592 42.7382 15.2993L42.6521 11.3003C37.6803 11.4072 33.7021 15.4897 33.7021 20.4878H37.7021ZM35.7751 18.4879L35.7027 18.4878L35.7015 22.4878L35.7739 22.4879L35.7751 18.4879ZM42.8511 12.3252C38.2312 12.3252 34.427 15.7587 33.7945 20.2062L37.7546 20.7695C38.1132 18.2485 40.268 16.3252 42.8511 16.3252V12.3252ZM52 21.515C52 16.4504 47.9146 12.3252 42.8511 12.3252V16.3252C45.684 16.3252 48 18.638 48 21.515H52ZM42.8511 30.7047C47.9146 30.7047 52 26.5796 52 21.515H48C48 24.3919 45.684 26.7047 42.8511 26.7047V30.7047ZM39.8455 30.1967C40.7894 30.5264 41.8016 30.7047 42.8511 30.7047V26.7047C42.257 26.7047 41.6903 26.6041 41.1644 26.4204L39.8455 30.1967ZM38.7427 30.7047C39.6768 30.7047 40.5672 30.4936 41.3639 30.1147L39.646 26.5024C39.3746 26.6315 39.07 26.7047 38.7427 26.7047V30.7047ZM29.5745 30.7047L38.7427 30.7047L38.7427 26.7047L29.5745 26.7047L29.5745 30.7047ZM13.2574 30.7047L29.5745 30.7047L29.5745 26.7047L13.2574 26.7047L13.2574 30.7047ZM10.6361 30.1148C11.4328 30.4936 12.3232 30.7047 13.2574 30.7047V26.7047C12.93 26.7047 12.6254 26.6315 12.354 26.5024L10.6361 30.1148ZM9.14894 30.7047C10.1984 30.7047 11.2106 30.5264 12.1545 30.1968L10.8356 26.4204C10.3097 26.6041 9.74304 26.7047 9.14894 26.7047V30.7047ZM0 21.515C0 26.5796 4.0854 30.7047 9.14894 30.7047V26.7047C6.31597 26.7047 4 24.3919 4 21.515H0ZM9.14894 12.3253C4.0854 12.3253 0 16.4504 0 21.515H4C4 18.638 6.31597 16.3253 9.14894 16.3253V12.3253ZM9.59039 12.3358C9.44395 12.3288 9.29677 12.3253 9.14894 12.3253V16.3253C9.23294 16.3253 9.31632 16.3273 9.39902 16.3312L9.59039 12.3358ZM15.2766 8.21681C11.7234 8.21681 8.71567 10.5036 7.60689 13.6731L11.3825 14.9939C11.9515 13.3676 13.4876 12.2168 15.2766 12.2168V8.21681ZM23.2816 14.9606C22.6131 11.1367 19.2929 8.21681 15.2766 8.21681V12.2168C17.2999 12.2168 18.9989 13.6907 19.3413 15.6494L23.2816 14.9606ZM19.4043 14.3253C19.4043 14.5331 19.3845 14.7343 19.3473 14.9278L23.2755 15.6822C23.3602 15.2414 23.4043 14.7875 23.4043 14.3253H19.4043ZM17.1458 11.3075C18.4444 11.678 19.4043 12.8861 19.4043 14.3253H23.4043C23.4043 11.066 21.2273 8.3125 18.2435 7.46102L17.1458 11.3075ZM29.5745 0C23.5827 0 18.406 3.46589 15.9041 8.49317L19.4852 10.2753C21.3411 6.54608 25.1672 4 29.5745 4V0ZM44.672 12.9965C43.5441 5.64393 37.2238 0 29.5745 0V4C35.202 4 39.8827 8.15596 40.7183 13.6031L44.672 12.9965Z" fill="black"/>
</g>
<g id="Line">
<path d="M4.04257 37.8915C7.38722 37.8915 6.78901 38.9186 9.52686 38.9186C12.2647 38.9186 12.1082 37.8915 15.0118 37.8915C17.9154 37.8915 18.2748 38.9186 20.4964 38.9186C22.7181 38.9186 23.1311 37.8915 25.9806 37.8915C28.83 37.8915 28.6156 38.9186 31.4651 38.9186C34.3145 38.9186 34.1002 37.8915 36.9496 37.8915C39.799 37.8915 39.5847 38.9186 42.4341 38.9186C45.2835 38.9186 44.0479 37.8915 47.9186 37.8915" fill="black"/>
<path d="M4.04257 37.8915C7.38722 37.8915 6.78901 38.9186 9.52686 38.9186C12.2647 38.9186 12.1082 37.8915 15.0118 37.8915C17.9154 37.8915 18.2748 38.9186 20.4964 38.9186C22.7181 38.9186 23.1311 37.8915 25.9806 37.8915C28.83 37.8915 28.6156 38.9186 31.4651 38.9186C34.3145 38.9186 34.1002 37.8915 36.9496 37.8915C39.799 37.8915 39.5847 38.9186 42.4341 38.9186C45.2835 38.9186 44.0479 37.8915 47.9186 37.8915" stroke="white" stroke-linecap="square"/>
</g>
<g id="Line_2">
<path d="M4.04257 40.9729C7.38722 40.9729 6.78901 42 9.52686 42C12.2647 42 12.1082 40.9729 15.0118 40.9729C17.9154 40.9729 18.2748 42 20.4964 42C22.7181 42 23.1311 40.9729 25.9806 40.9729C28.83 40.9729 28.6156 42 31.4651 42C34.3145 42 34.1002 40.9729 36.9496 40.9729C39.799 40.9729 39.5847 42 42.4341 42C45.2835 42 44.0479 40.9729 47.9186 40.9729" fill="black"/>
<path d="M4.04257 40.9729C7.38722 40.9729 6.78901 42 9.52686 42C12.2647 42 12.1082 40.9729 15.0118 40.9729C17.9154 40.9729 18.2748 42 20.4964 42C22.7181 42 23.1311 40.9729 25.9806 40.9729C28.83 40.9729 28.6156 42 31.4651 42C34.3145 42 34.1002 40.9729 36.9496 40.9729C39.799 40.9729 39.5847 42 42.4341 42C45.2835 42 44.0479 40.9729 47.9186 40.9729" stroke="white" stroke-linecap="square"/>
</g>
</g>
</svg>
