<svg width="39" height="39" viewBox="0 0 39 39" fill="none" xmlns="http://www.w3.org/2000/svg">
<g id="Sunny">
<path id="Oval 16" d="M19.0202 29C24.5431 29 29.0202 24.5228 29.0202 19C29.0202 13.4772 24.5431 9 19.0202 9C13.4974 9 9.02021 13.4772 9.02021 19C9.02021 24.5228 13.4974 29 19.0202 29Z" stroke="black" stroke-width="2"/>
<path id="Aura" fill-rule="evenodd" clip-rule="evenodd" d="M18.0202 1C18.0202 0.447715 18.4679 0 19.0202 0C19.5725 0 20.0202 0.447715 20.0202 1V4C20.0202 4.55228 19.5725 5 19.0202 5C18.4679 5 18.0202 4.55228 18.0202 4V1ZM27.1643 2.91425C27.4404 2.43596 28.052 2.27208 28.5303 2.54822C29.0086 2.82437 29.1725 3.43596 28.8963 3.91425L27.3963 6.51233C27.1202 6.99062 26.5086 7.15449 26.0303 6.87835C25.552 6.60221 25.3881 5.99062 25.6643 5.51233L27.1643 2.91425ZM35.4922 9.5101C35.2161 9.03181 34.6045 8.86794 34.1262 9.14408L31.5281 10.6441C31.0498 10.9202 30.8859 11.5318 31.1621 12.0101C31.4382 12.4884 32.0498 12.6523 32.5281 12.3761L35.1262 10.8761C35.6045 10.6 35.7683 9.9884 35.4922 9.5101ZM37.0404 18.0202C37.5927 18.0202 38.0404 18.4679 38.0404 19.0202C38.0404 19.5725 37.5927 20.0202 37.0404 20.0202H34.0404C33.4881 20.0202 33.0404 19.5725 33.0404 19.0202C33.0404 18.4679 33.4881 18.0202 34.0404 18.0202H37.0404ZM35.4922 28.5303C35.7683 28.052 35.6045 27.4404 35.1262 27.1643L32.5281 25.6643C32.0498 25.3881 31.4382 25.552 31.1621 26.0303C30.8859 26.5086 31.0498 27.1202 31.5281 27.3963L34.1262 28.8963C34.6045 29.1725 35.2161 29.0086 35.4922 28.5303ZM28.8963 34.1262C29.1725 34.6045 29.0086 35.2161 28.5303 35.4922C28.052 35.7683 27.4404 35.6045 27.1643 35.1262L25.6643 32.5281C25.3881 32.0498 25.552 31.4382 26.0303 31.1621C26.5086 30.8859 27.1202 31.0498 27.3963 31.5281L28.8963 34.1262ZM19.0202 38.0404C19.5725 38.0404 20.0202 37.5927 20.0202 37.0404V34.0404C20.0202 33.4881 19.5725 33.0404 19.0202 33.0404C18.4679 33.0404 18.0202 33.4881 18.0202 34.0404V37.0404C18.0202 37.5927 18.4679 38.0404 19.0202 38.0404ZM10.8761 35.1262C10.6 35.6045 9.9884 35.7683 9.51011 35.4922C9.03181 35.2161 8.86794 34.6045 9.14408 34.1262L10.6441 31.5281C10.9202 31.0498 11.5318 30.8859 12.0101 31.1621C12.4884 31.4382 12.6523 32.0498 12.3761 32.5281L10.8761 35.1262ZM2.54822 28.5303C2.82437 29.0086 3.43596 29.1725 3.91425 28.8963L6.51233 27.3963C6.99062 27.1202 7.15449 26.5086 6.87835 26.0303C6.60221 25.552 5.99062 25.3881 5.51233 25.6643L2.91425 27.1643C2.43596 27.4404 2.27208 28.052 2.54822 28.5303ZM1 20.0202C0.447715 20.0202 0 19.5725 0 19.0202C0 18.4679 0.447715 18.0202 1 18.0202H4C4.55228 18.0202 5 18.4679 5 19.0202C5 19.5725 4.55228 20.0202 4 20.0202H1ZM2.54822 9.51011C2.27208 9.9884 2.43596 10.6 2.91425 10.8761L5.51233 12.3761C5.99062 12.6523 6.60221 12.4884 6.87835 12.0101C7.15449 11.5318 6.99062 10.9202 6.51233 10.6441L3.91425 9.14408C3.43596 8.86794 2.82437 9.03181 2.54822 9.51011ZM9.14408 3.91425C8.86794 3.43596 9.03181 2.82437 9.5101 2.54822C9.9884 2.27208 10.6 2.43596 10.8761 2.91425L12.3761 5.51233C12.6523 5.99062 12.4884 6.60221 12.0101 6.87835C11.5318 7.15449 10.9202 6.99062 10.6441 6.51233L9.14408 3.91425Z" fill="black"/>
</g>
</svg>
