<svg type="icon" width="36" height="36" viewBox="0 0 36 36" fill="none" xmlns="http://www.w3.org/2000/svg">
<g id="Sunny">
<path id="Oval 16" d="M18 27.4445C23.2266 27.4445 27.4636 23.2075 27.4636 17.9809C27.4636 12.7542 23.2266 8.51724 18 8.51724C12.7734 8.51724 8.53638 12.7542 8.53638 17.9809C8.53638 23.2075 12.7734 27.4445 18 27.4445Z" stroke="black" stroke-width="2"/>
<path id="Aura" fill-rule="evenodd" clip-rule="evenodd" d="M17.0536 0.946362C17.0536 0.423701 17.4773 0 18 0C18.5227 0 18.9464 0.4237 18.9464 0.946361V3.78545C18.9464 4.30811 18.5227 4.73181 18 4.73181C17.4773 4.73181 17.0536 4.30811 17.0536 3.78545V0.946362ZM25.7072 2.75793C25.9686 2.30529 26.5474 2.15021 27 2.41154C27.4526 2.67287 27.6077 3.25165 27.3464 3.70429L25.9269 6.16301C25.6655 6.61565 25.0867 6.77073 24.6341 6.5094C24.1815 6.24807 24.0264 5.66929 24.2877 5.21665L25.7072 2.75793ZM33.5884 8.99999C33.3271 8.54736 32.7483 8.39227 32.2957 8.6536L29.837 10.0731C29.3843 10.3345 29.2292 10.9133 29.4906 11.3659C29.7519 11.8185 30.3307 11.9736 30.7833 11.7123L33.2421 10.2927C33.6947 10.0314 33.8498 9.45263 33.5884 8.99999ZM35.0536 17.0536C35.5763 17.0536 36 17.4773 36 18C36 18.5227 35.5763 18.9464 35.0536 18.9464H32.2146C31.6919 18.9464 31.2682 18.5227 31.2682 18C31.2682 17.4773 31.6919 17.0536 32.2146 17.0536H35.0536ZM33.5884 27C33.8498 26.5473 33.6947 25.9686 33.2421 25.7072L30.7833 24.2877C30.3307 24.0264 29.7519 24.1814 29.4906 24.6341C29.2293 25.0867 29.3843 25.6655 29.837 25.9268L32.2957 27.3464C32.7483 27.6077 33.3271 27.4526 33.5884 27ZM27.3464 32.2957C27.6077 32.7483 27.4526 33.3271 27 33.5885C26.5474 33.8498 25.9686 33.6947 25.7072 33.2421L24.2877 30.7833C24.0264 30.3307 24.1815 29.7519 24.6341 29.4906C25.0867 29.2293 25.6655 29.3843 25.9268 29.837L27.3464 32.2957ZM18 36C18.5227 36 18.9464 35.5763 18.9464 35.0536V32.2145C18.9464 31.6919 18.5227 31.2682 18 31.2682C17.4773 31.2682 17.0536 31.6919 17.0536 32.2145V35.0536C17.0536 35.5763 17.4773 36 18 36ZM10.2928 33.2421C10.0314 33.6947 9.45264 33.8498 9 33.5884C8.54736 33.3271 8.39228 32.7483 8.65361 32.2957L10.0731 29.837C10.3345 29.3843 10.9133 29.2293 11.3659 29.4906C11.8185 29.7519 11.9736 30.3307 11.7123 30.7833L10.2928 33.2421ZM2.41155 27C2.67288 27.4526 3.25166 27.6077 3.7043 27.3464L6.16302 25.9268C6.61566 25.6655 6.77074 25.0867 6.50941 24.6341C6.24808 24.1814 5.6693 24.0264 5.21666 24.2877L2.75794 25.7072C2.3053 25.9686 2.15022 26.5474 2.41155 27ZM0.946362 18.9464C0.423701 18.9464 0 18.5227 0 18C0 17.4773 0.4237 17.0536 0.946361 17.0536H3.78545C4.30811 17.0536 4.73181 17.4773 4.73181 18C4.73181 18.5227 4.30811 18.9464 3.78545 18.9464H0.946362ZM2.41154 9C2.15021 9.45264 2.3053 10.0314 2.75794 10.2928L5.21666 11.7123C5.66929 11.9736 6.24808 11.8185 6.50941 11.3659C6.77074 10.9133 6.61565 10.3345 6.16302 10.0731L3.7043 8.65361C3.25166 8.39228 2.67287 8.54736 2.41154 9ZM8.65361 3.70429C8.39228 3.25165 8.54736 2.67287 9 2.41154C9.45264 2.15021 10.0314 2.30529 10.2928 2.75793L11.7123 5.21665C11.9736 5.66929 11.8185 6.24807 11.3659 6.5094C10.9133 6.77073 10.3345 6.61565 10.0732 6.16301L8.65361 3.70429Z" fill="black"/>
</g>
</svg>
