<svg type="image" width="51" height="40" viewBox="0 0 51 40" fill="none" xmlns="http://www.w3.org/2000/svg">
<rect fill="white" width="51" height="30"/>
<path fill-rule="evenodd" clip-rule="evenodd" d="M39.1315 27.3872C40.0069 27.7809 40.9779 28 42 28C45.866 28 49 24.866 49 21C49 17.134 45.866 14 42 14C38.6314 14 35.8185 16.3795 35.1505 19.5494H35.0143C35.2433 15.9436 38.2024 13.0796 41.8474 13.0016C40.886 6.77065 35.5001 2 29 2C23.9088 2 19.5012 4.92665 17.3677 9.18936C19.4643 9.78427 21 11.7128 21 14C21 14.2927 20.9748 14.5795 20.9266 14.8584C20.4749 11.9919 17.9935 9.79975 15 9.79975C12.3114 9.79975 10.0358 11.5681 9.27296 14.0052C9.18241 14.0018 9.09141 14 9 14C5.13401 14 2 17.134 2 21C2 24.866 5.13401 28 9 28C10.0221 28 10.9931 27.7809 11.8685 27.3872C12.2273 27.4928 12.607 27.5494 13 27.5494H25.5947C26.68 27.8432 27.8217 28 29 28C30.1783 28 31.32 27.8432 32.4053 27.5494H38C38.393 27.5494 38.7727 27.4928 39.1315 27.3872Z"/>
<path d="M39.1315 27.3872L39.9519 25.5632L39.2768 25.2595L38.5667 25.4685L39.1315 27.3872ZM35.1505 19.5494V21.5494H36.773L37.1075 19.9618L35.1505 19.5494ZM35.0143 19.5494L33.0183 19.4226L32.8832 21.5494H35.0143V19.5494ZM41.8474 13.0016L41.8901 15.0012L44.172 14.9524L43.824 12.6967L41.8474 13.0016ZM17.3677 9.18936L15.5792 8.29422L14.4982 10.4541L16.8217 11.1134L17.3677 9.18936ZM20.9266 14.8584L18.951 15.1697L22.8973 15.1994L20.9266 14.8584ZM9.27296 14.0052L9.19633 16.0038L10.7247 16.0624L11.1816 14.6027L9.27296 14.0052ZM11.8685 27.3872L12.4333 25.4685L11.7232 25.2595L11.0481 25.5632L11.8685 27.3872ZM25.5947 27.5494L26.1173 25.6189L25.8606 25.5494H25.5947V27.5494ZM32.4053 27.5494V25.5494H32.1394L31.8827 25.6189L32.4053 27.5494ZM38.311 29.2111C39.4393 29.7186 40.6895 30 42 30V26C41.2662 26 40.5744 25.8432 39.9519 25.5632L38.311 29.2111ZM42 30C46.9706 30 51 25.9706 51 21H47C47 23.7614 44.7614 26 42 26V30ZM51 21C51 16.0294 46.9706 12 42 12V16C44.7614 16 47 18.2386 47 21H51ZM42 12C37.6665 12 34.0525 15.0608 33.1935 19.137L37.1075 19.9618C37.5845 17.6983 39.5962 16 42 16V12ZM35.1505 17.5494H35.0143V21.5494H35.1505V17.5494ZM37.0102 19.6762C37.1737 17.1028 39.2883 15.0568 41.8901 15.0012L41.8046 11.0021C37.1166 11.1024 33.3129 14.7844 33.0183 19.4226L37.0102 19.6762ZM43.824 12.6967C42.7145 5.50536 36.502 0 29 0V4C34.4983 4 39.0576 8.03594 39.8707 13.3066L43.824 12.6967ZM29 0C23.1226 0 18.0385 3.38059 15.5792 8.29422L19.1562 10.0845C20.9639 6.47272 24.695 4 29 4V0ZM16.8217 11.1134C18.0808 11.4707 19 12.6306 19 14H23C23 10.795 20.8478 8.09789 17.9136 7.26532L16.8217 11.1134ZM19 14C19 14.1779 18.9847 14.3507 18.9559 14.5175L22.8973 15.1994C22.965 14.8084 23 14.4075 23 14H19ZM22.9022 14.5471C22.2997 10.7234 18.9932 7.79975 15 7.79975V11.7997C16.9938 11.7997 18.6501 13.2604 18.951 15.1697L22.9022 14.5471ZM15 7.79975C11.4122 7.79975 8.38088 10.1601 7.36429 13.4078L11.1816 14.6027C11.6908 12.9762 13.2106 11.7997 15 11.7997V7.79975ZM9.3496 12.0067C9.23351 12.0022 9.11696 12 9 12V16C9.06585 16 9.1313 16.0013 9.19633 16.0038L9.3496 12.0067ZM9 12C4.02944 12 0 16.0294 0 21H4C4 18.2386 6.23858 16 9 16V12ZM0 21C0 25.9706 4.02944 30 9 30V26C6.23858 26 4 23.7614 4 21H0ZM9 30C10.3105 30 11.5607 29.7186 12.689 29.2111L11.0481 25.5632C10.4256 25.8432 9.73379 26 9 26V30ZM11.3038 29.3058C11.844 29.4648 12.4139 29.5494 13 29.5494V25.5494C12.8002 25.5494 12.6106 25.5207 12.4333 25.4685L11.3038 29.3058ZM13 29.5494H25.5947V25.5494H13V29.5494ZM25.0721 29.4799C26.3262 29.8195 27.6436 30 29 30V26C27.9998 26 27.0338 25.867 26.1173 25.6189L25.0721 29.4799ZM29 30C30.3564 30 31.6738 29.8195 32.9279 29.4799L31.8827 25.6189C30.9662 25.867 30.0002 26 29 26V30ZM32.4053 29.5494H38V25.5494H32.4053V29.5494ZM38 29.5494C38.5861 29.5494 39.156 29.4648 39.6962 29.3058L38.5667 25.4685C38.3894 25.5207 38.1998 25.5494 38 25.5494V29.5494Z" fill="black"/>
<path fill-rule="evenodd" clip-rule="evenodd" d="M13.6607 33.9703C13.8878 34.7963 13.4104 35.4206 12.8049 35.5787C12.1994 35.7369 11.4375 35.3257 11.2389 34.603C11.1053 34.1171 11.4165 33.115 11.6347 32.5103C11.7275 32.2533 12.0375 32.1672 12.2532 32.3403C12.7466 32.7364 13.5096 33.4205 13.6607 33.9703ZM26.322 35.5787C26.9275 35.4206 27.4048 34.7963 27.1778 33.9703C27.0267 33.4205 26.2637 32.7364 25.7703 32.3403C25.5546 32.1672 25.2446 32.2533 25.1518 32.5103C24.9335 33.115 24.6224 34.1171 24.756 34.603C24.9546 35.3257 25.7165 35.7369 26.322 35.5787ZM19.2771 35.1118C19.701 35.0011 20.0424 34.5907 19.8965 34.0597C19.7966 33.6962 19.2482 33.2499 18.9121 33.0044C18.7742 32.9037 18.5847 32.9565 18.5203 33.1124C18.3594 33.5023 18.113 34.1818 18.2012 34.5026C18.3289 34.9672 18.8533 35.2225 19.2771 35.1118ZM36.3346 39.9661C36.9401 39.8079 37.4175 39.1836 37.1905 38.3576C37.0394 37.8078 36.2763 37.1237 35.7829 36.7277C35.5672 36.5546 35.2573 36.6406 35.1645 36.8977C34.9462 37.5024 34.6351 38.5045 34.7686 38.9903C34.9672 39.7131 35.7292 40.1243 36.3346 39.9661ZM17.3933 37.9596C17.5393 38.4906 17.1978 38.9009 16.774 39.0117C16.3501 39.1224 15.8257 38.8671 15.698 38.4025C15.6099 38.0817 15.8562 37.4022 16.0172 37.0123C16.0815 36.8563 16.271 36.8036 16.409 36.9043C16.745 37.1497 17.2934 37.5961 17.3933 37.9596ZM30.1595 37.9596C30.3054 38.4906 29.9639 38.9009 29.5401 39.0117C29.1163 39.1224 28.5919 38.8671 28.4642 38.4025C28.376 38.0817 28.6223 37.4022 28.7833 37.0123C28.8477 36.8563 29.0372 36.8036 29.1751 36.9043C29.5112 37.1497 30.0596 37.5961 30.1595 37.9596ZM23.9237 38.3576C24.1507 39.1836 23.6733 39.8079 23.0679 39.9661C22.4624 40.1243 21.7005 39.7131 21.5018 38.9903C21.3683 38.5045 21.6794 37.5024 21.8977 36.8977C21.9905 36.6406 22.3005 36.5546 22.5162 36.7277C23.0095 37.1237 23.7726 37.8078 23.9237 38.3576ZM32.6626 34.0597C32.8086 34.5907 32.4671 35.0011 32.0433 35.1118C31.6194 35.2225 31.095 34.9672 30.9673 34.5026C30.8792 34.1818 31.1255 33.5023 31.2865 33.1124C31.3508 32.9565 31.5403 32.9037 31.6783 33.0044C32.0143 33.2499 32.5627 33.6962 32.6626 34.0597ZM39.5888 35.5787C40.1942 35.4206 40.6716 34.7963 40.4446 33.9703C40.2935 33.4205 39.5304 32.7364 39.037 32.3403C38.8213 32.1672 38.5114 32.2533 38.4186 32.5103C38.2003 33.115 37.8892 34.1171 38.0227 34.603C38.2213 35.3257 38.9833 35.7369 39.5888 35.5787Z" fill="black"/>
</svg>
