<svg type="icon" width="50" height="38" viewBox="0 0 50 38" fill="none" xmlns="http://www.w3.org/2000/svg">
<g id="Rainy">
<g id="Cloud">
<rect fill="white" width="50" height="29"/>
<path fill-rule="evenodd" clip-rule="evenodd" d="M40.4418 12.1617C36.7801 12.2367 33.8359 15.102 33.8359 18.6258L33.9043 18.6258C34.3724 15.4925 37.1869 13.0839 40.589 13.0839C44.3186 13.0839 47.3421 15.9786 47.3421 19.5494C47.3421 23.1203 44.3186 26.015 40.589 26.015C39.836 26.015 39.1118 25.897 38.4354 25.6793C37.9664 25.8948 37.4444 26.015 36.8944 26.015H12.4477C11.8977 26.015 11.3757 25.8948 10.9067 25.6793C10.2303 25.897 9.50609 26.015 8.75308 26.015C5.02346 26.015 2 23.1203 2 19.5494C2 15.9786 5.02346 13.0839 8.75308 13.0839C8.86258 13.0839 8.97148 13.0863 9.07971 13.0913C9.87212 10.9349 12.0182 9.38922 14.5414 9.38922C17.394 9.38922 19.7646 11.3648 20.2421 13.9649C20.2996 13.6797 20.3298 13.3851 20.3298 13.0838C20.3298 10.9712 18.8482 9.18996 16.8256 8.64047C18.8838 4.70321 23.136 2 28.0476 2C34.3184 2 39.5144 6.40643 40.4418 12.1617Z"/>
<path d="M33.8359 18.6258H31.8359V20.6255L33.8357 20.6258L33.8359 18.6258ZM40.4418 12.1617L40.4827 14.1613L42.7822 14.1142L42.4163 11.8435L40.4418 12.1617ZM33.9043 18.6258L33.9041 20.6258L35.6277 20.626L35.8824 18.9213L33.9043 18.6258ZM38.4354 25.6793L39.0483 23.7755L38.3075 23.537L37.6003 23.862L38.4354 25.6793ZM10.9067 25.6793L11.7418 23.862L11.0346 23.537L10.2938 23.7755L10.9067 25.6793ZM9.07971 13.0913L8.98862 15.0892L10.4518 15.1559L10.957 13.7811L9.07971 13.0913ZM20.2421 13.9649L18.275 14.3261L22.2026 14.3604L20.2421 13.9649ZM16.8256 8.64047L15.0532 7.71392L13.9008 9.91835L16.3013 10.5705L16.8256 8.64047ZM35.8359 18.6258C35.8359 16.2716 37.8267 14.2157 40.4827 14.1613L40.4008 10.1621C35.7335 10.2577 31.8359 13.9325 31.8359 18.6258H35.8359ZM33.9045 16.6258L33.8362 16.6258L33.8357 20.6258L33.9041 20.6258L33.9045 16.6258ZM40.589 11.0839C36.2475 11.0839 32.5481 14.1678 31.9263 18.3303L35.8824 18.9213C36.1967 16.8172 38.1264 15.0839 40.589 15.0839V11.0839ZM49.3421 19.5494C49.3421 14.7929 45.3403 11.0839 40.589 11.0839V15.0839C43.297 15.0839 45.3421 17.1643 45.3421 19.5494H49.3421ZM40.589 28.015C45.3403 28.015 49.3421 24.306 49.3421 19.5494H45.3421C45.3421 21.9346 43.297 24.015 40.589 24.015V28.015ZM37.8226 27.5831C38.6953 27.864 39.6262 28.015 40.589 28.015V24.015C40.0458 24.015 39.5283 23.93 39.0483 23.7755L37.8226 27.5831ZM36.8944 28.015C37.7385 28.015 38.5449 27.8301 39.2706 27.4966L37.6003 23.862C37.3879 23.9596 37.1504 24.015 36.8944 24.015V28.015ZM12.4477 28.015H36.8944V24.015H12.4477V28.015ZM10.0715 27.4966C10.7972 27.8301 11.6036 28.015 12.4477 28.015V24.015C12.1917 24.015 11.9542 23.9596 11.7418 23.862L10.0715 27.4966ZM8.75308 28.015C9.7159 28.015 10.6468 27.864 11.5195 27.5831L10.2938 23.7755C9.81379 23.93 9.29627 24.015 8.75308 24.015V28.015ZM0 19.5494C0 24.306 4.00178 28.015 8.75308 28.015V24.015C6.04513 24.015 4 21.9346 4 19.5494H0ZM8.75308 11.0839C4.00178 11.0839 0 14.7929 0 19.5494H4C4 17.1643 6.04513 15.0839 8.75308 15.0839V11.0839ZM9.1708 11.0934C9.03224 11.087 8.89298 11.0839 8.75308 11.0839V15.0839C8.83219 15.0839 8.91071 15.0857 8.98862 15.0892L9.1708 11.0934ZM14.5414 7.38922C11.1976 7.38922 8.29022 9.44134 7.20245 12.4014L10.957 13.7811C11.454 12.4285 12.8389 11.3892 14.5414 11.3892V7.38922ZM22.2092 13.6036C21.5494 10.0109 18.3146 7.38922 14.5414 7.38922V11.3892C16.4734 11.3892 17.9798 12.7187 18.275 14.3261L22.2092 13.6036ZM18.3298 13.0838C18.3298 13.2514 18.3131 13.4134 18.2816 13.5693L22.2026 14.3604C22.2862 13.9459 22.3298 13.5188 22.3298 13.0838H18.3298ZM16.3013 10.5705C17.527 10.9035 18.3298 11.9485 18.3298 13.0838H22.3298C22.3298 9.99398 20.1694 7.47641 17.35 6.71042L16.3013 10.5705ZM28.0476 0C22.3956 0 17.4583 3.11315 15.0532 7.71392L18.598 9.56701C20.3094 6.29326 23.8764 4 28.0476 4V0ZM42.4163 11.8435C41.3251 5.07163 35.2514 0 28.0476 0V4C33.3855 4 37.7036 7.74124 38.4672 12.4799L42.4163 11.8435Z" fill="black"/>
</g>
<g id="Drops">
<path id="Drops_2" fill-rule="evenodd" clip-rule="evenodd" d="M13.2574 32.3162C13.4713 33.0805 13.0088 33.6614 12.4257 33.811C11.8425 33.9606 11.112 33.5834 10.9248 32.9147C10.7999 32.4683 11.0993 31.5481 11.3122 30.9855C11.4063 30.737 11.708 30.6547 11.9225 30.8207C12.3951 31.1863 13.116 31.8111 13.2574 32.3162ZM25.466 33.811C26.0491 33.6614 26.5116 33.0805 26.2977 32.3162C26.1563 31.8111 25.4354 31.1863 24.9628 30.8207C24.7483 30.6547 24.4466 30.737 24.3525 30.9855C24.1396 31.5481 23.8402 32.4683 23.9651 32.9147C24.1523 33.5834 24.8828 33.9606 25.466 33.811ZM18.6691 33.3687C19.0773 33.264 19.4079 32.882 19.2704 32.3907C19.1768 32.0563 18.6573 31.6483 18.3349 31.4217C18.1981 31.3255 18.014 31.3761 17.9491 31.5264C17.7921 31.8896 17.555 32.5146 17.6376 32.8096C17.7579 33.2395 18.2609 33.4734 18.6691 33.3687ZM35.1254 37.9674C35.7086 37.8178 36.171 37.237 35.9571 36.4727C35.8158 35.9676 35.0949 35.3428 34.6222 34.9771C34.4077 34.8112 34.106 34.8935 34.012 35.1419C33.799 35.7045 33.4996 36.6247 33.6245 37.0711C33.8117 37.7398 34.5423 38.117 35.1254 37.9674ZM16.8555 36.0854C16.993 36.5767 16.6624 36.9586 16.2542 37.0634C15.846 37.1681 15.343 36.9341 15.2227 36.5043C15.1401 36.2092 15.3773 35.5843 15.5342 35.2211C15.5992 35.0708 15.7832 35.0202 15.92 35.1164C16.2424 35.3429 16.7619 35.751 16.8555 36.0854ZM29.1713 36.0854C29.3088 36.5767 28.9782 36.9586 28.57 37.0634C28.1618 37.1681 27.6588 36.9341 27.5385 36.5043C27.4559 36.2092 27.6931 35.5843 27.85 35.2211C27.915 35.0708 28.099 35.0202 28.2359 35.1164C28.5582 35.3429 29.0777 35.751 29.1713 36.0854ZM23.1583 36.4727C23.3722 37.237 22.9098 37.8178 22.3266 37.9674C21.7435 38.117 21.0129 37.7398 20.8258 37.0711C20.7008 36.6247 21.0003 35.7045 21.2132 35.1419C21.3072 34.8935 21.6089 34.8112 21.8235 34.9771C22.2961 35.3428 23.017 35.9676 23.1583 36.4727ZM31.5861 32.3907C31.7236 32.882 31.393 33.264 30.9848 33.3687C30.5766 33.4734 30.0737 33.2395 29.9533 32.8096C29.8708 32.5146 30.1079 31.8896 30.2649 31.5264C30.3298 31.3761 30.5139 31.3255 30.6507 31.4217C30.973 31.6483 31.4926 32.0563 31.5861 32.3907ZM38.2647 33.811C38.8479 33.6614 39.3103 33.0805 39.0964 32.3162C38.9551 31.8111 38.2342 31.1863 37.7616 30.8207C37.547 30.6547 37.2453 30.737 37.1513 30.9855C36.9384 31.5481 36.6389 32.4683 36.7639 32.9147C36.951 33.5834 37.6816 33.9606 38.2647 33.811Z" fill="black"/>
</g>
</g>
</svg>
