<svg width="43" height="33" viewBox="0 0 43 33" fill="none" xmlns="http://www.w3.org/2000/svg">
<g id="Rainy">
<g id="Cloud">
<rect fill="white" width="43" height="25"/>
<path fill-rule="evenodd" clip-rule="evenodd" d="M34.507 10.7503C31.4107 10.8149 28.921 13.2823 28.921 16.3166C28.921 16.3166 28.921 16.3166 28.921 16.3166H28.9789C29.3747 13.6185 31.7547 11.5444 34.6316 11.5444C37.7854 11.5444 40.3421 14.0371 40.3421 17.112C40.3421 20.1869 37.7854 22.6796 34.6316 22.6796C33.9876 22.6796 33.3685 22.5757 32.791 22.3841C32.3835 22.5737 31.9292 22.6796 31.4501 22.6796H10.892C10.4129 22.6796 9.95859 22.5737 9.55111 22.3841C8.9736 22.5757 8.35451 22.6796 7.71053 22.6796C4.55669 22.6796 2 20.1869 2 17.112C2 14.0371 4.55669 11.5444 7.71053 11.5444C7.80313 11.5444 7.89521 11.5466 7.98673 11.5508C8.65682 9.69396 10.4716 8.36295 12.6053 8.36295C15.0174 8.36295 17.0221 10.0642 17.4259 12.3031C17.4745 12.0575 17.5 11.8039 17.5 11.5444C17.5 9.72524 16.2472 8.19136 14.5368 7.71819C16.2773 4.32777 19.873 2 24.0263 2C29.3291 2 33.7228 5.79442 34.507 10.7503Z"/>
<path d="M34.507 10.7503L34.5488 12.7499L36.8408 12.7021L36.4825 10.4377L34.507 10.7503ZM28.921 16.3166H26.921V18.3166H28.921V16.3166ZM28.9789 16.3166V18.3166H30.7069L30.9577 16.607L28.9789 16.3166ZM32.791 22.3841L33.4208 20.4858L32.667 20.2357L31.9471 20.5708L32.791 22.3841ZM9.55111 22.3841L10.395 20.5708L9.67506 20.2357L8.92134 20.4858L9.55111 22.3841ZM7.98673 11.5508L7.89397 13.5487L9.36732 13.6171L9.86799 12.2297L7.98673 11.5508ZM17.4259 12.3031L15.4576 12.6581L19.3877 12.6918L17.4259 12.3031ZM14.5368 7.71819L12.7576 6.80481L11.6355 8.99065L14.0035 9.64578L14.5368 7.71819ZM30.921 16.3166C30.921 14.419 32.4915 12.7928 34.5488 12.7499L34.4653 8.75078C30.3299 8.83704 26.921 12.1457 26.921 16.3166H30.921ZM30.921 16.3166C30.921 16.3166 30.921 16.3166 30.921 16.3166C30.921 16.3166 30.921 16.3166 30.921 16.3166C30.921 16.3166 30.921 16.3166 30.921 16.3166C30.921 16.3166 30.921 16.3166 30.921 16.3166C30.921 16.3166 30.921 16.3166 30.921 16.3166C30.921 16.3166 30.921 16.3166 30.921 16.3166C30.921 16.3166 30.921 16.3166 30.921 16.3166C30.921 16.3166 30.921 16.3166 30.921 16.3166C30.921 16.3166 30.921 16.3166 30.921 16.3166C30.921 16.3166 30.921 16.3166 30.921 16.3166C30.921 16.3166 30.921 16.3166 30.921 16.3166C30.921 16.3166 30.921 16.3166 30.921 16.3166C30.921 16.3166 30.921 16.3166 30.921 16.3166C30.921 16.3166 30.921 16.3166 30.921 16.3166C30.921 16.3166 30.921 16.3166 30.921 16.3166C30.921 16.3166 30.921 16.3166 30.921 16.3166C30.921 16.3166 30.921 16.3166 30.921 16.3166C30.921 16.3166 30.921 16.3166 30.921 16.3166C30.921 16.3166 30.921 16.3166 30.921 16.3166C30.921 16.3166 30.921 16.3166 30.921 16.3166C30.921 16.3166 30.921 16.3166 30.921 16.3166C30.921 16.3166 30.921 16.3166 30.921 16.3166C30.921 16.3166 30.921 16.3166 30.921 16.3166C30.921 16.3166 30.921 16.3166 30.921 16.3166C30.921 16.3166 30.921 16.3166 30.921 16.3166C30.921 16.3166 30.921 16.3166 30.921 16.3166C30.921 16.3166 30.921 16.3166 30.921 16.3166C30.921 16.3166 30.921 16.3166 30.921 16.3166C30.921 16.3166 30.921 16.3166 30.921 16.3166C30.921 16.3166 30.921 16.3166 30.921 16.3166C30.921 16.3166 30.921 16.3166 30.921 16.3166C30.921 16.3166 30.921 16.3166 30.921 16.3166C30.921 16.3166 30.921 16.3166 30.921 16.3166C30.921 16.3166 30.921 16.3166 30.921 16.3166C30.921 16.3166 30.921 16.3166 30.921 16.3166C30.921 16.3166 30.921 16.3166 30.921 16.3166C30.921 16.3166 30.921 16.3166 30.921 16.3166C30.921 16.3166 30.921 16.3166 30.921 16.3166C30.921 16.3166 30.921 16.3166 30.921 16.3166C30.921 16.3166 30.921 16.3166 30.921 16.3166C30.921 16.3166 30.921 16.3166 30.921 16.3166C30.921 16.3166 30.921 16.3166 30.921 16.3166C30.921 16.3166 30.921 16.3166 30.921 16.3166C30.921 16.3166 30.921 16.3166 30.921 16.3166C30.921 16.3166 30.921 16.3166 30.921 16.3166C30.921 16.3166 30.921 16.3166 30.921 16.3166C30.921 16.3166 30.921 16.3166 30.921 16.3166C30.921 16.3166 30.921 16.3166 30.921 16.3166C30.921 16.3166 30.921 16.3166 30.921 16.3166C30.921 16.3166 30.921 16.3166 30.921 16.3166C30.921 16.3166 30.921 16.3166 30.921 16.3166C30.921 16.3166 30.921 16.3166 30.921 16.3166C30.921 16.3166 30.921 16.3166 30.921 16.3166C30.921 16.3166 30.921 16.3166 30.921 16.3166C30.921 16.3166 30.921 16.3166 30.921 16.3166C30.921 16.3166 30.921 16.3166 30.921 16.3166C30.921 16.3166 30.921 16.3166 30.921 16.3166C30.921 16.3166 30.921 16.3166 30.921 16.3166C30.921 16.3166 30.921 16.3166 30.921 16.3166C30.921 16.3166 30.921 16.3166 30.921 16.3166C30.921 16.3166 30.921 16.3166 30.921 16.3166C30.921 16.3166 30.921 16.3166 30.921 16.3166C30.921 16.3166 30.921 16.3166 30.921 16.3166C30.921 16.3166 30.921 16.3166 30.921 16.3166C30.921 16.3166 30.921 16.3166 30.921 16.3166C30.921 16.3166 30.921 16.3166 30.921 16.3166C30.921 16.3166 30.921 16.3166 30.921 16.3166C30.921 16.3166 30.921 16.3166 30.921 16.3166C30.921 16.3166 30.921 16.3166 30.921 16.3166C30.921 16.3166 30.921 16.3166 30.921 16.3166C30.921 16.3166 30.921 16.3166 30.921 16.3166C30.921 16.3166 30.921 16.3166 30.921 16.3166C30.921 16.3166 30.921 16.3166 30.921 16.3166C30.921 16.3166 30.921 16.3166 30.921 16.3166C30.921 16.3166 30.921 16.3166 30.921 16.3166C30.921 16.3166 30.921 16.3166 30.921 16.3166C30.921 16.3166 30.921 16.3166 30.921 16.3166C30.921 16.3166 30.921 16.3166 30.921 16.3166C30.921 16.3166 30.921 16.3166 30.921 16.3166C30.921 16.3166 30.921 16.3166 30.921 16.3166C30.921 16.3166 30.921 16.3166 30.921 16.3166C30.921 16.3166 30.921 16.3166 30.921 16.3166C30.921 16.3166 30.921 16.3166 30.921 16.3166C30.921 16.3166 30.921 16.3166 30.921 16.3166C30.921 16.3166 30.921 16.3166 30.921 16.3166C30.921 16.3166 30.921 16.3166 30.921 16.3166C30.921 16.3166 30.921 16.3166 30.921 16.3166C30.921 16.3166 30.921 16.3166 30.921 16.3166C30.921 16.3166 30.921 16.3166 30.921 16.3166C30.921 16.3166 30.921 16.3166 30.921 16.3166C30.921 16.3166 30.921 16.3166 30.921 16.3166C30.921 16.3166 30.921 16.3166 30.921 16.3166C30.921 16.3166 30.921 16.3166 30.921 16.3166C30.921 16.3166 30.921 16.3166 30.921 16.3166C30.921 16.3166 30.921 16.3166 30.921 16.3166C30.921 16.3166 30.921 16.3166 30.921 16.3166C30.921 16.3166 30.921 16.3166 30.921 16.3166C30.921 16.3166 30.921 16.3166 30.921 16.3166C30.921 16.3166 30.921 16.3166 30.921 16.3166C30.921 16.3166 30.921 16.3166 30.921 16.3166C30.921 16.3166 30.921 16.3166 30.921 16.3166C30.921 16.3166 30.921 16.3166 30.921 16.3166C30.921 16.3166 30.921 16.3166 30.921 16.3166C30.921 16.3166 30.921 16.3166 30.921 16.3166C30.921 16.3166 30.921 16.3166 30.921 16.3166C30.921 16.3166 30.921 16.3166 30.921 16.3166C30.921 16.3166 30.921 16.3166 30.921 16.3166C30.921 16.3166 30.921 16.3166 30.921 16.3166C30.921 16.3166 30.921 16.3166 30.921 16.3166C30.921 16.3166 30.921 16.3166 30.921 16.3166C30.921 16.3166 30.921 16.3166 30.921 16.3166C30.921 16.3166 30.921 16.3166 30.921 16.3166C30.921 16.3166 30.921 16.3166 30.921 16.3166C30.921 16.3166 30.921 16.3166 30.921 16.3166C30.921 16.3166 30.921 16.3166 30.921 16.3166C30.921 16.3166 30.921 16.3166 30.921 16.3166C30.921 16.3166 30.921 16.3166 30.921 16.3166C30.921 16.3166 30.921 16.3166 30.921 16.3166C30.921 16.3166 30.921 16.3166 30.921 16.3166C30.921 16.3166 30.921 16.3166 30.921 16.3166C30.921 16.3166 30.921 16.3166 30.921 16.3166C30.921 16.3166 30.921 16.3166 30.921 16.3166C30.921 16.3166 30.921 16.3166 30.921 16.3166C30.921 16.3166 30.921 16.3166 30.921 16.3166C30.921 16.3166 30.921 16.3166 30.921 16.3166C30.921 16.3166 30.921 16.3166 30.921 16.3166C30.921 16.3166 30.921 16.3166 30.921 16.3166C30.921 16.3166 30.921 16.3166 30.921 16.3166C30.921 16.3166 30.921 16.3166 30.921 16.3166C30.921 16.3166 30.921 16.3166 30.921 16.3166C30.921 16.3166 30.921 16.3166 30.921 16.3166C30.921 16.3166 30.921 16.3166 30.921 16.3166C30.921 16.3166 30.921 16.3166 30.921 16.3166C30.921 16.3166 30.921 16.3166 30.921 16.3166C30.921 16.3166 30.921 16.3166 30.921 16.3166C30.921 16.3166 30.921 16.3166 30.921 16.3166C30.921 16.3166 30.921 16.3166 30.921 16.3166C30.921 16.3166 30.921 16.3166 30.921 16.3166C30.921 16.3166 30.921 16.3166 30.921 16.3166C30.921 16.3166 30.921 16.3166 30.921 16.3166C30.921 16.3166 30.921 16.3166 30.921 16.3166C30.921 16.3166 30.921 16.3166 30.921 16.3166C30.921 16.3166 30.921 16.3166 30.921 16.3166C30.921 16.3166 30.921 16.3166 30.921 16.3166C30.921 16.3166 30.921 16.3166 30.921 16.3166C30.921 16.3166 30.921 16.3166 30.921 16.3166C30.921 16.3166 30.921 16.3166 30.921 16.3166C30.921 16.3166 30.921 16.3166 30.921 16.3166C30.921 16.3166 30.921 16.3166 30.921 16.3166C30.921 16.3166 30.921 16.3166 30.921 16.3166C30.921 16.3166 30.921 16.3166 30.921 16.3166C30.921 16.3166 30.921 16.3166 30.921 16.3166C30.921 16.3166 30.921 16.3166 30.921 16.3166C30.921 16.3166 30.921 16.3166 30.921 16.3166C30.921 16.3166 30.921 16.3166 30.921 16.3166C30.921 16.3166 30.921 16.3166 30.921 16.3166C30.921 16.3166 30.921 16.3166 30.921 16.3166C30.921 16.3166 30.921 16.3166 30.921 16.3166C30.921 16.3166 30.921 16.3166 30.921 16.3166C30.921 16.3166 30.921 16.3166 30.921 16.3166C30.921 16.3166 30.921 16.3166 30.921 16.3166C30.921 16.3166 30.921 16.3166 30.921 16.3166C30.921 16.3166 30.921 16.3166 30.921 16.3166C30.921 16.3166 30.921 16.3166 30.921 16.3166C30.921 16.3166 30.921 16.3166 30.921 16.3166C30.921 16.3166 30.921 16.3166 30.921 16.3166C30.921 16.3166 30.921 16.3166 30.921 16.3166C30.921 16.3166 30.921 16.3166 30.921 16.3166C30.921 16.3166 30.921 16.3166 30.921 16.3166C30.921 16.3166 30.921 16.3166 30.921 16.3166C30.921 16.3166 30.921 16.3166 30.921 16.3166C30.921 16.3166 30.921 16.3166 30.921 16.3166C30.921 16.3166 30.921 16.3166 30.921 16.3166C30.921 16.3166 30.921 16.3166 30.921 16.3166C30.921 16.3166 30.921 16.3166 30.921 16.3166C30.921 16.3166 30.921 16.3166 30.921 16.3166C30.921 16.3166 30.921 16.3166 30.921 16.3166C30.921 16.3166 30.921 16.3166 30.921 16.3166C30.921 16.3166 30.921 16.3166 30.921 16.3166C30.921 16.3166 30.921 16.3166 30.921 16.3166C30.921 16.3166 30.921 16.3166 30.921 16.3166C30.921 16.3166 30.921 16.3166 30.921 16.3166C30.921 16.3166 30.921 16.3166 30.921 16.3166C30.921 16.3166 30.921 16.3166 30.921 16.3166C30.921 16.3166 30.921 16.3166 30.921 16.3166C30.921 16.3166 30.921 16.3166 30.921 16.3166C30.921 16.3166 30.921 16.3166 30.921 16.3166C30.921 16.3166 30.921 16.3166 30.921 16.3166C30.921 16.3166 30.921 16.3166 30.921 16.3166C30.921 16.3166 30.921 16.3166 30.921 16.3166C30.921 16.3166 30.921 16.3166 30.921 16.3166C30.921 16.3166 30.921 16.3166 30.921 16.3166C30.921 16.3166 30.921 16.3166 30.921 16.3166C30.921 16.3166 30.921 16.3166 30.921 16.3166C30.921 16.3166 30.921 16.3166 30.921 16.3166C30.921 16.3166 30.921 16.3166 30.921 16.3166C30.921 16.3166 30.921 16.3166 30.921 16.3166C30.921 16.3166 30.921 16.3166 30.921 16.3166C30.921 16.3166 30.921 16.3166 30.921 16.3166C30.921 16.3166 30.921 16.3166 30.921 16.3166C30.921 16.3166 30.921 16.3166 30.921 16.3166C30.921 16.3166 30.921 16.3166 30.921 16.3166C30.921 16.3166 30.921 16.3166 30.921 16.3166C30.921 16.3166 30.921 16.3166 30.921 16.3166C30.921 16.3166 30.921 16.3166 30.921 16.3166C30.921 16.3166 30.921 16.3166 30.921 16.3166C30.921 16.3166 30.921 16.3166 30.921 16.3166C30.921 16.3166 30.921 16.3166 30.921 16.3166C30.921 16.3166 30.921 16.3166 30.921 16.3166C30.921 16.3166 30.921 16.3166 30.921 16.3166C30.921 16.3166 30.921 16.3166 30.921 16.3166C30.921 16.3166 30.921 16.3166 30.921 16.3166C30.921 16.3166 30.921 16.3166 30.921 16.3166C30.921 16.3166 30.921 16.3166 30.921 16.3166C30.921 16.3166 30.921 16.3166 30.921 16.3166C30.921 16.3166 30.921 16.3166 30.921 16.3166C30.921 16.3166 30.921 16.3166 30.921 16.3166C30.921 16.3166 30.921 16.3166 30.921 16.3166C30.921 16.3166 30.921 16.3166 30.921 16.3166C30.921 16.3166 30.921 16.3166 30.921 16.3166C30.921 16.3166 30.921 16.3166 30.921 16.3166C30.921 16.3166 30.921 16.3166 30.921 16.3166C30.921 16.3166 30.921 16.3166 30.921 16.3166C30.921 16.3166 30.921 16.3166 30.921 16.3166C30.921 16.3166 30.921 16.3166 30.921 16.3166C30.921 16.3166 30.921 16.3166 30.921 16.3166C30.921 16.3166 30.921 16.3166 30.921 16.3166C30.921 16.3166 30.921 16.3166 30.921 16.3166C30.921 16.3166 30.921 16.3166 30.921 16.3166C30.921 16.3166 30.921 16.3166 30.921 16.3166C30.921 16.3166 30.921 16.3166 30.921 16.3166C30.921 16.3166 30.921 16.3166 30.921 16.3166C30.921 16.3166 30.921 16.3166 30.921 16.3166C30.921 16.3166 30.921 16.3166 30.921 16.3166C30.921 16.3166 30.921 16.3166 30.921 16.3166C30.921 16.3166 30.921 16.3166 30.921 16.3166C30.921 16.3166 30.921 16.3166 30.921 16.3166C30.921 16.3166 30.921 16.3166 30.921 16.3166C30.921 16.3166 30.921 16.3166 30.921 16.3166C30.921 16.3166 30.921 16.3166 30.921 16.3166C30.921 16.3166 30.921 16.3166 30.921 16.3166C30.921 16.3166 30.921 16.3166 30.921 16.3166C30.921 16.3166 30.921 16.3166 30.921 16.3166C30.921 16.3166 30.921 16.3166 30.921 16.3166C30.921 16.3166 30.921 16.3166 30.921 16.3166C30.921 16.3166 30.921 16.3166 30.921 16.3166C30.921 16.3166 30.921 16.3166 30.921 16.3166C30.921 16.3166 30.921 16.3166 30.921 16.3166C30.921 16.3166 30.921 16.3166 30.921 16.3166C30.921 16.3166 30.921 16.3166 30.921 16.3166C30.921 16.3166 30.921 16.3166 30.921 16.3166C30.921 16.3166 30.921 16.3166 30.921 16.3166C30.921 16.3166 30.921 16.3166 30.921 16.3166C30.921 16.3166 30.921 16.3166 30.921 16.3166C30.921 16.3166 30.921 16.3166 30.921 16.3166C30.921 16.3166 30.921 16.3166 30.921 16.3166C30.921 16.3166 30.921 16.3166 30.921 16.3166C30.921 16.3166 30.921 16.3166 30.921 16.3166C30.921 16.3166 30.921 16.3166 30.921 16.3166C30.921 16.3166 30.921 16.3166 30.921 16.3166C30.921 16.3166 30.921 16.3166 30.921 16.3166C30.921 16.3166 30.921 16.3166 30.921 16.3166C30.921 16.3166 30.921 16.3166 30.921 16.3166C30.921 16.3166 30.921 16.3166 30.921 16.3166C30.921 16.3166 30.921 16.3166 30.921 16.3166C30.921 16.3166 30.921 16.3166 30.921 16.3166C30.921 16.3166 30.921 16.3166 30.921 16.3166C30.921 16.3166 30.921 16.3166 30.921 16.3166C30.921 16.3166 30.921 16.3166 30.921 16.3166C30.921 16.3166 30.921 16.3166 30.921 16.3166C30.921 16.3166 30.921 16.3166 30.921 16.3166C30.921 16.3166 30.921 16.3166 30.921 16.3166C30.921 16.3166 30.921 16.3166 30.921 16.3166C30.921 16.3166 30.921 16.3166 30.921 16.3166C30.921 16.3166 30.921 16.3166 30.921 16.3166C30.921 16.3166 30.921 16.3166 30.921 16.3166C30.921 16.3166 30.921 16.3166 30.921 16.3166C30.921 16.3166 30.921 16.3166 30.921 16.3166C30.921 16.3166 30.921 16.3166 30.921 16.3166C30.921 16.3166 30.921 16.3166 30.921 16.3166C30.921 16.3166 30.921 16.3166 30.921 16.3166C30.921 16.3166 30.921 16.3166 30.921 16.3166C30.921 16.3166 30.921 16.3166 30.921 16.3166C30.921 16.3166 30.921 16.3166 30.921 16.3166C30.921 16.3166 30.921 16.3166 30.921 16.3166C30.921 16.3166 30.921 16.3166 30.921 16.3166C30.921 16.3166 30.921 16.3166 30.921 16.3166C30.921 16.3166 30.921 16.3166 30.921 16.3166C30.921 16.3166 30.921 16.3166 30.921 16.3166C30.921 16.3166 30.921 16.3166 30.921 16.3166C30.921 16.3166 30.921 16.3166 30.921 16.3166C30.921 16.3166 30.921 16.3166 30.921 16.3166C30.921 16.3166 30.921 16.3166 30.921 16.3166C30.921 16.3166 30.921 16.3166 30.921 16.3166C30.921 16.3166 30.921 16.3166 30.921 16.3166C30.921 16.3166 30.921 16.3166 30.921 16.3166C30.921 16.3166 30.921 16.3166 30.921 16.3166C30.921 16.3166 30.921 16.3166 30.921 16.3166C30.921 16.3166 30.921 16.3166 30.921 16.3166C30.921 16.3166 30.921 16.3166 30.921 16.3166C30.921 16.3166 30.921 16.3166 30.921 16.3166C30.921 16.3166 30.921 16.3166 30.921 16.3166C30.921 16.3166 30.921 16.3166 30.921 16.3166C30.921 16.3166 30.921 16.3166 30.921 16.3166C30.921 16.3166 30.921 16.3166 30.921 16.3166C30.921 16.3166 30.921 16.3166 30.921 16.3166C30.921 16.3166 30.921 16.3166 30.921 16.3166C30.921 16.3166 30.921 16.3166 30.921 16.3166C30.921 16.3166 30.921 16.3166 30.921 16.3166C30.921 16.3166 30.921 16.3166 30.921 16.3166C30.921 16.3166 30.921 16.3166 30.921 16.3166C30.921 16.3166 30.921 16.3166 30.921 16.3166C30.921 16.3166 30.921 16.3166 30.921 16.3166C30.921 16.3166 30.921 16.3166 30.921 16.3166C30.921 16.3166 30.921 16.3166 30.921 16.3166C30.921 16.3166 30.921 16.3166 30.921 16.3166C30.921 16.3166 30.921 16.3166 30.921 16.3166C30.921 16.3166 30.921 16.3166 30.921 16.3166C30.921 16.3166 30.921 16.3166 30.921 16.3166C30.921 16.3166 30.921 16.3166 30.921 16.3166C30.921 16.3166 30.921 16.3166 30.921 16.3166C30.921 16.3166 30.921 16.3166 30.921 16.3166C30.921 16.3166 30.921 16.3166 30.921 16.3166C30.921 16.3166 30.921 16.3166 30.921 16.3166C30.921 16.3166 30.921 16.3166 30.921 16.3166C30.921 16.3166 30.921 16.3166 30.921 16.3166C30.921 16.3166 30.921 16.3166 30.921 16.3166C30.921 16.3166 30.921 16.3166 30.921 16.3166C30.921 16.3166 30.921 16.3166 30.921 16.3166C30.921 16.3166 30.921 16.3166 30.921 16.3166C30.921 16.3166 30.921 16.3166 30.921 16.3166C30.921 16.3166 30.921 16.3166 30.921 16.3166C30.921 16.3166 30.921 16.3166 30.921 16.3166C30.921 16.3166 30.921 16.3166 30.921 16.3166C30.921 16.3166 30.921 16.3166 30.921 16.3166C30.921 16.3166 30.921 16.3166 30.921 16.3166C30.921 16.3166 30.921 16.3166 30.921 16.3166C30.921 16.3166 30.921 16.3166 30.921 16.3166C30.921 16.3166 30.921 16.3166 30.921 16.3166C30.921 16.3166 30.921 16.3166 30.921 16.3166C30.921 16.3166 30.921 16.3166 30.921 16.3166C30.921 16.3166 30.921 16.3166 30.921 16.3166C30.921 16.3166 30.921 16.3166 30.921 16.3166C30.921 16.3166 30.921 16.3166 30.921 16.3166C30.921 16.3166 30.921 16.3166 30.921 16.3166C30.921 16.3166 30.921 16.3166 30.921 16.3166C30.921 16.3166 30.921 16.3166 30.921 16.3166C30.921 16.3166 30.921 16.3166 30.921 16.3166C30.921 16.3166 30.921 16.3166 30.921 16.3166C30.921 16.3166 30.921 16.3166 30.921 16.3166C30.921 16.3166 30.921 16.3166 30.921 16.3166C30.921 16.3166 30.921 16.3166 30.921 16.3166C30.921 16.3166 30.921 16.3166 30.921 16.3166C30.921 16.3166 30.921 16.3166 30.921 16.3166C30.921 16.3166 30.921 16.3166 30.921 16.3166C30.921 16.3166 30.921 16.3166 30.921 16.3166C30.921 16.3166 30.921 16.3166 30.921 16.3166C30.921 16.3166 30.921 16.3166 30.921 16.3166C30.921 16.3166 30.921 16.3166 30.921 16.3166C30.921 16.3166 30.921 16.3166 30.921 16.3166C30.921 16.3166 30.921 16.3166 30.921 16.3166C30.921 16.3166 30.921 16.3166 30.921 16.3166C30.921 16.3166 30.921 16.3166 30.921 16.3166C30.921 16.3166 30.921 16.3166 30.921 16.3166C30.921 16.3166 30.921 16.3166 30.921 16.3166C30.921 16.3166 30.921 16.3166 30.921 16.3166C30.921 16.3166 30.921 16.3166 30.921 16.3166C30.921 16.3166 30.921 16.3166 30.921 16.3166C30.921 16.3166 30.921 16.3166 30.921 16.3166C30.921 16.3166 30.921 16.3166 30.921 16.3166C30.921 16.3166 30.921 16.3166 30.921 16.3166C30.921 16.3166 30.921 16.3166 30.921 16.3166C30.921 16.3166 30.921 16.3166 30.921 16.3166C30.921 16.3166 30.921 16.3166 30.921 16.3166C30.921 16.3166 30.921 16.3166 30.921 16.3166C30.921 16.3166 30.921 16.3166 30.921 16.3166C30.921 16.3166 30.921 16.3166 30.921 16.3166C30.921 16.3166 30.921 16.3166 30.921 16.3166C30.921 16.3166 30.921 16.3166 30.921 16.3166C30.921 16.3166 30.921 16.3166 30.921 16.3166C30.921 16.3166 30.921 16.3166 30.921 16.3166C30.921 16.3166 30.921 16.3166 30.921 16.3166C30.921 16.3166 30.921 16.3166 30.921 16.3166C30.921 16.3166 30.921 16.3166 30.921 16.3166C30.921 16.3166 30.921 16.3166 30.921 16.3166C30.921 16.3166 30.921 16.3166 30.921 16.3166C30.921 16.3166 30.921 16.3166 30.921 16.3166C30.921 16.3166 30.921 16.3166 30.921 16.3166C30.921 16.3166 30.921 16.3166 30.921 16.3166C30.921 16.3166 30.921 16.3166 30.921 16.3166C30.921 16.3166 30.921 16.3166 30.921 16.3166C30.921 16.3166 30.921 16.3166 30.921 16.3166C30.921 16.3166 30.921 16.3166 30.921 16.3166C30.921 16.3166 30.921 16.3166 30.921 16.3166C30.921 16.3166 30.921 16.3166 30.921 16.3166C30.921 16.3166 30.921 16.3166 30.921 16.3166C30.921 16.3166 30.921 16.3166 30.921 16.3166C30.921 16.3166 30.921 16.3166 30.921 16.3166C30.921 16.3166 30.921 16.3166 30.921 16.3166C30.921 16.3166 30.921 16.3166 30.921 16.3166C30.921 16.3166 30.921 16.3166 30.921 16.3166C30.921 16.3166 30.921 16.3166 30.921 16.3166C30.921 16.3166 30.921 16.3166 30.921 16.3166C30.921 16.3166 30.921 16.3166 30.921 16.3166C30.921 16.3166 30.921 16.3166 30.921 16.3166C30.921 16.3166 30.921 16.3166 30.921 16.3166C30.921 16.3166 30.921 16.3166 30.921 16.3166C30.921 16.3166 30.921 16.3166 30.921 16.3166C30.921 16.3166 30.921 16.3166 30.921 16.3166C30.921 16.3166 30.921 16.3166 30.921 16.3166C30.921 16.3166 30.921 16.3166 30.921 16.3166C30.921 16.3166 30.921 16.3166 30.921 16.3166C30.921 16.3166 30.921 16.3166 30.921 16.3166C30.921 16.3166 30.921 16.3166 30.921 16.3166C30.921 16.3166 30.921 16.3166 30.921 16.3166C30.921 16.3166 30.921 16.3166 30.921 16.3166C30.921 16.3166 30.921 16.3166 30.921 16.3166C30.921 16.3166 30.921 16.3166 30.921 16.3166C30.921 16.3166 30.921 16.3166 30.921 16.3166C30.921 16.3166 30.921 16.3166 30.921 16.3166C30.921 16.3166 30.921 16.3166 30.921 16.3166C30.921 16.3166 30.921 16.3166 30.921 16.3166C30.921 16.3166 30.921 16.3166 30.921 16.3166C30.921 16.3166 30.921 16.3166 30.921 16.3166C30.921 16.3166 30.921 16.3166 30.921 16.3166C30.921 16.3166 30.921 16.3166 30.921 16.3166C30.921 16.3166 30.921 16.3166 30.921 16.3166C30.921 16.3166 30.921 16.3166 30.921 16.3166C30.921 16.3166 30.921 16.3166 30.921 16.3166C30.921 16.3166 30.921 16.3166 30.921 16.3166C30.921 16.3166 30.921 16.3166 30.921 16.3166C30.921 16.3166 30.921 16.3166 30.921 16.3166C30.921 16.3166 30.921 16.3166 30.921 16.3166C30.921 16.3166 30.921 16.3166 30.921 16.3166C30.921 16.3166 30.921 16.3166 30.921 16.3166C30.921 16.3166 30.921 16.3166 30.921 16.3166C30.921 16.3166 30.921 16.3166 30.921 16.3166C30.921 16.3166 30.921 16.3166 30.921 16.3166C30.921 16.3166 30.921 16.3166 30.921 16.3166C30.921 16.3166 30.921 16.3166 30.921 16.3166C30.921 16.3166 30.921 16.3166 30.921 16.3166C30.921 16.3166 30.921 16.3166 30.921 16.3166C30.921 16.3166 30.921 16.3166 30.921 16.3166C30.921 16.3166 30.921 16.3166 30.921 16.3166C30.921 16.3166 30.921 16.3166 30.921 16.3166C30.921 16.3166 30.921 16.3166 30.921 16.3166C30.921 16.3166 30.921 16.3166 30.921 16.3166C30.921 16.3166 30.921 16.3166 30.921 16.3166C30.921 16.3166 30.921 16.3166 30.921 16.3166C30.921 16.3166 30.921 16.3166 30.921 16.3166C30.921 16.3166 30.921 16.3166 30.921 16.3166C30.921 16.3166 30.921 16.3166 30.921 16.3166C30.921 16.3166 30.921 16.3166 30.921 16.3166C30.921 16.3166 30.921 16.3166 30.921 16.3166C30.921 16.3166 30.921 16.3166 30.921 16.3166C30.921 16.3166 30.921 16.3166 30.921 16.3166C30.921 16.3166 30.921 16.3166 30.921 16.3166C30.921 16.3166 30.921 16.3166 30.921 16.3166C30.921 16.3166 30.921 16.3166 30.921 16.3166C30.921 16.3166 30.921 16.3166 30.921 16.3166C30.921 16.3166 30.921 16.3166 30.921 16.3166C30.921 16.3166 30.921 16.3166 30.921 16.3166C30.921 16.3166 30.921 16.3166 30.921 16.3166C30.921 16.3166 30.921 16.3166 30.921 16.3166C30.921 16.3166 30.921 16.3166 30.921 16.3166C30.921 16.3166 30.921 16.3166 30.921 16.3166C30.921 16.3166 30.921 16.3166 30.921 16.3166C30.921 16.3166 30.921 16.3166 30.921 16.3166C30.921 16.3166 30.921 16.3166 30.921 16.3166C30.921 16.3166 30.921 16.3166 30.921 16.3166C30.921 16.3166 30.921 16.3166 30.921 16.3166C30.921 16.3166 30.921 16.3166 30.921 16.3166C30.921 16.3166 30.921 16.3166 30.921 16.3166C30.921 16.3166 30.921 16.3166 30.921 16.3166C30.921 16.3166 30.921 16.3166 30.921 16.3166C30.921 16.3166 30.921 16.3166 30.921 16.3166C30.921 16.3166 30.921 16.3166 30.921 16.3166C30.921 16.3166 30.921 16.3166 30.921 16.3166C30.921 16.3166 30.921 16.3166 30.921 16.3166C30.921 16.3166 30.921 16.3166 30.921 16.3166C30.921 16.3166 30.921 16.3166 30.921 16.3166C30.921 16.3166 30.921 16.3166 30.921 16.3166C30.921 16.3166 30.921 16.3166 30.921 16.3166C30.921 16.3166 30.921 16.3166 30.921 16.3166C30.921 16.3166 30.921 16.3166 30.921 16.3166C30.921 16.3166 30.921 16.3166 30.921 16.3166C30.921 16.3166 30.921 16.3166 30.921 16.3166C30.921 16.3166 30.921 16.3166 30.921 16.3166C30.921 16.3166 30.921 16.3166 30.921 16.3166C30.921 16.3166 30.921 16.3166 30.921 16.3166C30.921 16.3166 30.921 16.3166 30.921 16.3166C30.921 16.3166 30.921 16.3166 30.921 16.3166C30.921 16.3166 30.921 16.3166 30.921 16.3166C30.921 16.3166 30.921 16.3166 30.921 16.3166C30.921 16.3166 30.921 16.3166 30.921 16.3166C30.921 16.3166 30.921 16.3166 30.921 16.3166C30.921 16.3166 30.921 16.3166 30.921 16.3166C30.921 16.3166 30.921 16.3166 30.921 16.3166C30.921 16.3166 30.921 16.3166 30.921 16.3166C30.921 16.3166 30.921 16.3166 30.921 16.3166C30.921 16.3166 30.921 16.3166 30.921 16.3166C30.921 16.3166 30.921 16.3166 30.921 16.3166C30.921 16.3166 30.921 16.3166 30.921 16.3166C30.921 16.3166 30.921 16.3166 30.921 16.3166C30.921 16.3166 30.921 16.3166 30.921 16.3166C30.921 16.3166 30.921 16.3166 30.921 16.3166C30.921 16.3166 30.921 16.3166 30.921 16.3166C30.921 16.3166 30.921 16.3166 30.921 16.3166C30.921 16.3166 30.921 16.3166 30.921 16.3166C30.921 16.3166 30.921 16.3166 30.921 16.3166C30.921 16.3166 30.921 16.3166 30.921 16.3166C30.921 16.3166 30.921 16.3166 30.921 16.3166H26.921C26.921 16.3166 26.921 16.3166 26.921 16.3166C26.921 16.3166 26.921 16.3166 26.921 16.3166C26.921 16.3166 26.921 16.3166 26.921 16.3166C26.921 16.3166 26.921 16.3166 26.921 16.3166C26.921 16.3166 26.921 16.3166 26.921 16.3166C26.921 16.3166 26.921 16.3166 26.921 16.3166C26.921 16.3166 26.921 16.3166 26.921 16.3166C26.921 16.3166 26.921 16.3166 26.921 16.3166C26.921 16.3166 26.921 16.3166 26.921 16.3166C26.921 16.3166 26.921 16.3166 26.921 16.3166C26.921 16.3166 26.921 16.3166 26.921 16.3166C26.921 16.3166 26.921 16.3166 26.921 16.3166C26.921 16.3166 26.921 16.3166 26.921 16.3166C26.921 16.3166 26.921 16.3166 26.921 16.3166C26.921 16.3166 26.921 16.3166 26.921 16.3166C26.921 16.3166 26.921 16.3166 26.921 16.3166C26.921 16.3166 26.921 16.3166 26.921 16.3166C26.921 16.3166 26.921 16.3166 26.921 16.3166C26.921 16.3166 26.921 16.3166 26.921 16.3166C26.921 16.3166 26.921 16.3166 26.921 16.3166C26.921 16.3166 26.921 16.3166 26.921 16.3166C26.921 16.3166 26.921 16.3166 26.921 16.3166C26.921 16.3166 26.921 16.3166 26.921 16.3166C26.921 16.3166 26.921 16.3166 26.921 16.3166C26.921 16.3166 26.921 16.3166 26.921 16.3166C26.921 16.3166 26.921 16.3166 26.921 16.3166C26.921 16.3166 26.921 16.3166 26.921 16.3166C26.921 16.3166 26.921 16.3166 26.921 16.3166C26.921 16.3166 26.921 16.3166 26.921 16.3166C26.921 16.3166 26.921 16.3166 26.921 16.3166C26.921 16.3166 26.921 16.3166 26.921 16.3166C26.921 16.3166 26.921 16.3166 26.921 16.3166C26.921 16.3166 26.921 16.3166 26.921 16.3166C26.921 16.3166 26.921 16.3166 26.921 16.3166C26.921 16.3166 26.921 16.3166 26.921 16.3166C26.921 16.3166 26.921 16.3166 26.921 16.3166C26.921 16.3166 26.921 16.3166 26.921 16.3166C26.921 16.3166 26.921 16.3166 26.921 16.3166C26.921 16.3166 26.921 16.3166 26.921 16.3166C26.921 16.3166 26.921 16.3166 26.921 16.3166C26.921 16.3166 26.921 16.3166 26.921 16.3166C26.921 16.3166 26.921 16.3166 26.921 16.3166C26.921 16.3166 26.921 16.3166 26.921 16.3166C26.921 16.3166 26.921 16.3166 26.921 16.3166C26.921 16.3166 26.921 16.3166 26.921 16.3166C26.921 16.3166 26.921 16.3166 26.921 16.3166C26.921 16.3166 26.921 16.3166 26.921 16.3166C26.921 16.3166 26.921 16.3166 26.921 16.3166C26.921 16.3166 26.921 16.3166 26.921 16.3166C26.921 16.3166 26.921 16.3166 26.921 16.3166C26.921 16.3166 26.921 16.3166 26.921 16.3166C26.921 16.3166 26.921 16.3166 26.921 16.3166C26.921 16.3166 26.921 16.3166 26.921 16.3166C26.921 16.3166 26.921 16.3166 26.921 16.3166C26.921 16.3166 26.921 16.3166 26.921 16.3166C26.921 16.3166 26.921 16.3166 26.921 16.3166C26.921 16.3166 26.921 16.3166 26.921 16.3166C26.921 16.3166 26.921 16.3166 26.921 16.3166C26.921 16.3166 26.921 16.3166 26.921 16.3166C26.921 16.3166 26.921 16.3166 26.921 16.3166C26.921 16.3166 26.921 16.3166 26.921 16.3166C26.921 16.3166 26.921 16.3166 26.921 16.3166C26.921 16.3166 26.921 16.3166 26.921 16.3166C26.921 16.3166 26.921 16.3166 26.921 16.3166C26.921 16.3166 26.921 16.3166 26.921 16.3166C26.921 16.3166 26.921 16.3166 26.921 16.3166C26.921 16.3166 26.921 16.3166 26.921 16.3166C26.921 16.3166 26.921 16.3166 26.921 16.3166C26.921 16.3166 26.921 16.3166 26.921 16.3166C26.921 16.3166 26.921 16.3166 26.921 16.3166C26.921 16.3166 26.921 16.3166 26.921 16.3166C26.921 16.3166 26.921 16.3166 26.921 16.3166C26.921 16.3166 26.921 16.3166 26.921 16.3166C26.921 16.3166 26.921 16.3166 26.921 16.3166C26.921 16.3166 26.921 16.3166 26.921 16.3166C26.921 16.3166 26.921 16.3166 26.921 16.3166C26.921 16.3166 26.921 16.3166 26.921 16.3166C26.921 16.3166 26.921 16.3166 26.921 16.3166C26.921 16.3166 26.921 16.3166 26.921 16.3166C26.921 16.3166 26.921 16.3166 26.921 16.3166C26.921 16.3166 26.921 16.3166 26.921 16.3166C26.921 16.3166 26.921 16.3166 26.921 16.3166C26.921 16.3166 26.921 16.3166 26.921 16.3166C26.921 16.3166 26.921 16.3166 26.921 16.3166C26.921 16.3166 26.921 16.3166 26.921 16.3166C26.921 16.3166 26.921 16.3166 26.921 16.3166C26.921 16.3166 26.921 16.3166 26.921 16.3166C26.921 16.3166 26.921 16.3166 26.921 16.3166C26.921 16.3166 26.921 16.3166 26.921 16.3166C26.921 16.3166 26.921 16.3166 26.921 16.3166C26.921 16.3166 26.921 16.3166 26.921 16.3166C26.921 16.3166 26.921 16.3166 26.921 16.3166C26.921 16.3166 26.921 16.3166 26.921 16.3166C26.921 16.3166 26.921 16.3166 26.921 16.3166C26.921 16.3166 26.921 16.3166 26.921 16.3166C26.921 16.3166 26.921 16.3166 26.921 16.3166C26.921 16.3166 26.921 16.3166 26.921 16.3166C26.921 16.3166 26.921 16.3166 26.921 16.3166C26.921 16.3166 26.921 16.3166 26.921 16.3166C26.921 16.3166 26.921 16.3166 26.921 16.3166C26.921 16.3166 26.921 16.3166 26.921 16.3166C26.921 16.3166 26.921 16.3166 26.921 16.3166C26.921 16.3166 26.921 16.3166 26.921 16.3166C26.921 16.3166 26.921 16.3166 26.921 16.3166C26.921 16.3166 26.921 16.3166 26.921 16.3166C26.921 16.3166 26.921 16.3166 26.921 16.3166C26.921 16.3166 26.921 16.3166 26.921 16.3166C26.921 16.3166 26.921 16.3166 26.921 16.3166C26.921 16.3166 26.921 16.3166 26.921 16.3166C26.921 16.3166 26.921 16.3166 26.921 16.3166C26.921 16.3166 26.921 16.3166 26.921 16.3166C26.921 16.3166 26.921 16.3166 26.921 16.3166C26.921 16.3166 26.921 16.3166 26.921 16.3166C26.921 16.3166 26.921 16.3166 26.921 16.3166C26.921 16.3166 26.921 16.3166 26.921 16.3166C26.921 16.3166 26.921 16.3166 26.921 16.3166C26.921 16.3166 26.921 16.3166 26.921 16.3166C26.921 16.3166 26.921 16.3166 26.921 16.3166C26.921 16.3166 26.921 16.3166 26.921 16.3166C26.921 16.3166 26.921 16.3166 26.921 16.3166C26.921 16.3166 26.921 16.3166 26.921 16.3166C26.921 16.3166 26.921 16.3166 26.921 16.3166C26.921 16.3166 26.921 16.3166 26.921 16.3166C26.921 16.3166 26.921 16.3166 26.921 16.3166C26.921 16.3166 26.921 16.3166 26.921 16.3166C26.921 16.3166 26.921 16.3166 26.921 16.3166C26.921 16.3166 26.921 16.3166 26.921 16.3166C26.921 16.3166 26.921 16.3166 26.921 16.3166C26.921 16.3166 26.921 16.3166 26.921 16.3166C26.921 16.3166 26.921 16.3166 26.921 16.3166C26.921 16.3166 26.921 16.3166 26.921 16.3166C26.921 16.3166 26.921 16.3166 26.921 16.3166C26.921 16.3166 26.921 16.3166 26.921 16.3166C26.921 16.3166 26.921 16.3166 26.921 16.3166C26.921 16.3166 26.921 16.3166 26.921 16.3166C26.921 16.3166 26.921 16.3166 26.921 16.3166C26.921 16.3166 26.921 16.3166 26.921 16.3166C26.921 16.3166 26.921 16.3166 26.921 16.3166C26.921 16.3166 26.921 16.3166 26.921 16.3166C26.921 16.3166 26.921 16.3166 26.921 16.3166C26.921 16.3166 26.921 16.3166 26.921 16.3166C26.921 16.3166 26.921 16.3166 26.921 16.3166C26.921 16.3166 26.921 16.3166 26.921 16.3166C26.921 16.3166 26.921 16.3166 26.921 16.3166C26.921 16.3166 26.921 16.3166 26.921 16.3166C26.921 16.3166 26.921 16.3166 26.921 16.3166C26.921 16.3166 26.921 16.3166 26.921 16.3166C26.921 16.3166 26.921 16.3166 26.921 16.3166C26.921 16.3166 26.921 16.3166 26.921 16.3166C26.921 16.3166 26.921 16.3166 26.921 16.3166C26.921 16.3166 26.921 16.3166 26.921 16.3166C26.921 16.3166 26.921 16.3166 26.921 16.3166C26.921 16.3166 26.921 16.3166 26.921 16.3166C26.921 16.3166 26.921 16.3166 26.921 16.3166C26.921 16.3166 26.921 16.3166 26.921 16.3166C26.921 16.3166 26.921 16.3166 26.921 16.3166C26.921 16.3166 26.921 16.3166 26.921 16.3166C26.921 16.3166 26.921 16.3166 26.921 16.3166C26.921 16.3166 26.921 16.3166 26.921 16.3166C26.921 16.3166 26.921 16.3166 26.921 16.3166C26.921 16.3166 26.921 16.3166 26.921 16.3166C26.921 16.3166 26.921 16.3166 26.921 16.3166C26.921 16.3166 26.921 16.3166 26.921 16.3166C26.921 16.3166 26.921 16.3166 26.921 16.3166C26.921 16.3166 26.921 16.3166 26.921 16.3166C26.921 16.3166 26.921 16.3166 26.921 16.3166C26.921 16.3166 26.921 16.3166 26.921 16.3166C26.921 16.3166 26.921 16.3166 26.921 16.3166C26.921 16.3166 26.921 16.3166 26.921 16.3166C26.921 16.3166 26.921 16.3166 26.921 16.3166C26.921 16.3166 26.921 16.3166 26.921 16.3166C26.921 16.3166 26.921 16.3166 26.921 16.3166C26.921 16.3166 26.921 16.3166 26.921 16.3166C26.921 16.3166 26.921 16.3166 26.921 16.3166C26.921 16.3166 26.921 16.3166 26.921 16.3166C26.921 16.3166 26.921 16.3166 26.921 16.3166C26.921 16.3166 26.921 16.3166 26.921 16.3166C26.921 16.3166 26.921 16.3166 26.921 16.3166C26.921 16.3166 26.921 16.3166 26.921 16.3166C26.921 16.3166 26.921 16.3166 26.921 16.3166C26.921 16.3166 26.921 16.3166 26.921 16.3166C26.921 16.3166 26.921 16.3166 26.921 16.3166C26.921 16.3166 26.921 16.3166 26.921 16.3166C26.921 16.3166 26.921 16.3166 26.921 16.3166C26.921 16.3166 26.921 16.3166 26.921 16.3166C26.921 16.3166 26.921 16.3166 26.921 16.3166C26.921 16.3166 26.921 16.3166 26.921 16.3166C26.921 16.3166 26.921 16.3166 26.921 16.3166C26.921 16.3166 26.921 16.3166 26.921 16.3166C26.921 16.3166 26.921 16.3166 26.921 16.3166C26.921 16.3166 26.921 16.3166 26.921 16.3166C26.921 16.3166 26.921 16.3166 26.921 16.3166C26.921 16.3166 26.921 16.3166 26.921 16.3166C26.921 16.3166 26.921 16.3166 26.921 16.3166C26.921 16.3166 26.921 16.3166 26.921 16.3166C26.921 16.3166 26.921 16.3166 26.921 16.3166C26.921 16.3166 26.921 16.3166 26.921 16.3166C26.921 16.3166 26.921 16.3166 26.921 16.3166C26.921 16.3166 26.921 16.3166 26.921 16.3166C26.921 16.3166 26.921 16.3166 26.921 16.3166C26.921 16.3166 26.921 16.3166 26.921 16.3166C26.921 16.3166 26.921 16.3166 26.921 16.3166C26.921 16.3166 26.921 16.3166 26.921 16.3166C26.921 16.3166 26.921 16.3166 26.921 16.3166C26.921 16.3166 26.921 16.3166 26.921 16.3166C26.921 16.3166 26.921 16.3166 26.921 16.3166C26.921 16.3166 26.921 16.3166 26.921 16.3166C26.921 16.3166 26.921 16.3166 26.921 16.3166C26.921 16.3166 26.921 16.3166 26.921 16.3166C26.921 16.3166 26.921 16.3166 26.921 16.3166C26.921 16.3166 26.921 16.3166 26.921 16.3166C26.921 16.3166 26.921 16.3166 26.921 16.3166C26.921 16.3166 26.921 16.3166 26.921 16.3166C26.921 16.3166 26.921 16.3166 26.921 16.3166C26.921 16.3166 26.921 16.3166 26.921 16.3166C26.921 16.3166 26.921 16.3166 26.921 16.3166C26.921 16.3166 26.921 16.3166 26.921 16.3166C26.921 16.3166 26.921 16.3166 26.921 16.3166C26.921 16.3166 26.921 16.3166 26.921 16.3166C26.921 16.3166 26.921 16.3166 26.921 16.3166C26.921 16.3166 26.921 16.3166 26.921 16.3166C26.921 16.3166 26.921 16.3166 26.921 16.3166C26.921 16.3166 26.921 16.3166 26.921 16.3166C26.921 16.3166 26.921 16.3166 26.921 16.3166C26.921 16.3166 26.921 16.3166 26.921 16.3166C26.921 16.3166 26.921 16.3166 26.921 16.3166C26.921 16.3166 26.921 16.3166 26.921 16.3166C26.921 16.3166 26.921 16.3166 26.921 16.3166C26.921 16.3166 26.921 16.3166 26.921 16.3166C26.921 16.3166 26.921 16.3166 26.921 16.3166C26.921 16.3166 26.921 16.3166 26.921 16.3166C26.921 16.3166 26.921 16.3166 26.921 16.3166C26.921 16.3166 26.921 16.3166 26.921 16.3166C26.921 16.3166 26.921 16.3166 26.921 16.3166C26.921 16.3166 26.921 16.3166 26.921 16.3166C26.921 16.3166 26.921 16.3166 26.921 16.3166C26.921 16.3166 26.921 16.3166 26.921 16.3166C26.921 16.3166 26.921 16.3166 26.921 16.3166C26.921 16.3166 26.921 16.3166 26.921 16.3166C26.921 16.3166 26.921 16.3166 26.921 16.3166C26.921 16.3166 26.921 16.3166 26.921 16.3166C26.921 16.3166 26.921 16.3166 26.921 16.3166C26.921 16.3166 26.921 16.3166 26.921 16.3166C26.921 16.3166 26.921 16.3166 26.921 16.3166C26.921 16.3166 26.921 16.3166 26.921 16.3166C26.921 16.3166 26.921 16.3166 26.921 16.3166C26.921 16.3166 26.921 16.3166 26.921 16.3166C26.921 16.3166 26.921 16.3166 26.921 16.3166C26.921 16.3166 26.921 16.3166 26.921 16.3166C26.921 16.3166 26.921 16.3166 26.921 16.3166C26.921 16.3166 26.921 16.3166 26.921 16.3166C26.921 16.3166 26.921 16.3166 26.921 16.3166C26.921 16.3166 26.921 16.3166 26.921 16.3166C26.921 16.3166 26.921 16.3166 26.921 16.3166C26.921 16.3166 26.921 16.3166 26.921 16.3166C26.921 16.3166 26.921 16.3166 26.921 16.3166C26.921 16.3166 26.921 16.3166 26.921 16.3166C26.921 16.3166 26.921 16.3166 26.921 16.3166C26.921 16.3166 26.921 16.3166 26.921 16.3166C26.921 16.3166 26.921 16.3166 26.921 16.3166C26.921 16.3166 26.921 16.3166 26.921 16.3166C26.921 16.3166 26.921 16.3166 26.921 16.3166C26.921 16.3166 26.921 16.3166 26.921 16.3166C26.921 16.3166 26.921 16.3166 26.921 16.3166C26.921 16.3166 26.921 16.3166 26.921 16.3166C26.921 16.3166 26.921 16.3166 26.921 16.3166C26.921 16.3166 26.921 16.3166 26.921 16.3166C26.921 16.3166 26.921 16.3166 26.921 16.3166C26.921 16.3166 26.921 16.3166 26.921 16.3166C26.921 16.3166 26.921 16.3166 26.921 16.3166C26.921 16.3166 26.921 16.3166 26.921 16.3166C26.921 16.3166 26.921 16.3166 26.921 16.3166C26.921 16.3166 26.921 16.3166 26.921 16.3166C26.921 16.3166 26.921 16.3166 26.921 16.3166C26.921 16.3166 26.921 16.3166 26.921 16.3166C26.921 16.3166 26.921 16.3166 26.921 16.3166C26.921 16.3166 26.921 16.3166 26.921 16.3166C26.921 16.3166 26.921 16.3166 26.921 16.3166C26.921 16.3166 26.921 16.3166 26.921 16.3166C26.921 16.3166 26.921 16.3166 26.921 16.3166C26.921 16.3166 26.921 16.3166 26.921 16.3166C26.921 16.3166 26.921 16.3166 26.921 16.3166C26.921 16.3166 26.921 16.3166 26.921 16.3166C26.921 16.3166 26.921 16.3166 26.921 16.3166C26.921 16.3166 26.921 16.3166 26.921 16.3166C26.921 16.3166 26.921 16.3166 26.921 16.3166C26.921 16.3166 26.921 16.3166 26.921 16.3166C26.921 16.3166 26.921 16.3166 26.921 16.3166C26.921 16.3166 26.921 16.3166 26.921 16.3166C26.921 16.3166 26.921 16.3166 26.921 16.3166C26.921 16.3166 26.921 16.3166 26.921 16.3166C26.921 16.3166 26.921 16.3166 26.921 16.3166C26.921 16.3166 26.921 16.3166 26.921 16.3166C26.921 16.3166 26.921 16.3166 26.921 16.3166C26.921 16.3166 26.921 16.3166 26.921 16.3166C26.921 16.3166 26.921 16.3166 26.921 16.3166C26.921 16.3166 26.921 16.3166 26.921 16.3166C26.921 16.3166 26.921 16.3166 26.921 16.3166C26.921 16.3166 26.921 16.3166 26.921 16.3166C26.921 16.3166 26.921 16.3166 26.921 16.3166C26.921 16.3166 26.921 16.3166 26.921 16.3166C26.921 16.3166 26.921 16.3166 26.921 16.3166C26.921 16.3166 26.921 16.3166 26.921 16.3166C26.921 16.3166 26.921 16.3166 26.921 16.3166C26.921 16.3166 26.921 16.3166 26.921 16.3166C26.921 16.3166 26.921 16.3166 26.921 16.3166C26.921 16.3166 26.921 16.3166 26.921 16.3166C26.921 16.3166 26.921 16.3166 26.921 16.3166C26.921 16.3166 26.921 16.3166 26.921 16.3166C26.921 16.3166 26.921 16.3166 26.921 16.3166C26.921 16.3166 26.921 16.3166 26.921 16.3166C26.921 16.3166 26.921 16.3166 26.921 16.3166C26.921 16.3166 26.921 16.3166 26.921 16.3166C26.921 16.3166 26.921 16.3166 26.921 16.3166C26.921 16.3166 26.921 16.3166 26.921 16.3166C26.921 16.3166 26.921 16.3166 26.921 16.3166C26.921 16.3166 26.921 16.3166 26.921 16.3166C26.921 16.3166 26.921 16.3166 26.921 16.3166C26.921 16.3166 26.921 16.3166 26.921 16.3166C26.921 16.3166 26.921 16.3166 26.921 16.3166C26.921 16.3166 26.921 16.3166 26.921 16.3166C26.921 16.3166 26.921 16.3166 26.921 16.3166C26.921 16.3166 26.921 16.3166 26.921 16.3166C26.921 16.3166 26.921 16.3166 26.921 16.3166C26.921 16.3166 26.921 16.3166 26.921 16.3166C26.921 16.3166 26.921 16.3166 26.921 16.3166C26.921 16.3166 26.921 16.3166 26.921 16.3166C26.921 16.3166 26.921 16.3166 26.921 16.3166C26.921 16.3166 26.921 16.3166 26.921 16.3166C26.921 16.3166 26.921 16.3166 26.921 16.3166C26.921 16.3166 26.921 16.3166 26.921 16.3166C26.921 16.3166 26.921 16.3166 26.921 16.3166C26.921 16.3166 26.921 16.3166 26.921 16.3166C26.921 16.3166 26.921 16.3166 26.921 16.3166C26.921 16.3166 26.921 16.3166 26.921 16.3166C26.921 16.3166 26.921 16.3166 26.921 16.3166C26.921 16.3166 26.921 16.3166 26.921 16.3166C26.921 16.3166 26.921 16.3166 26.921 16.3166C26.921 16.3166 26.921 16.3166 26.921 16.3166C26.921 16.3166 26.921 16.3166 26.921 16.3166C26.921 16.3166 26.921 16.3166 26.921 16.3166C26.921 16.3166 26.921 16.3166 26.921 16.3166C26.921 16.3166 26.921 16.3166 26.921 16.3166C26.921 16.3166 26.921 16.3166 26.921 16.3166C26.921 16.3166 26.921 16.3166 26.921 16.3166C26.921 16.3166 26.921 16.3166 26.921 16.3166C26.921 16.3166 26.921 16.3166 26.921 16.3166C26.921 16.3166 26.921 16.3166 26.921 16.3166C26.921 16.3166 26.921 16.3166 26.921 16.3166C26.921 16.3166 26.921 16.3166 26.921 16.3166C26.921 16.3166 26.921 16.3166 26.921 16.3166C26.921 16.3166 26.921 16.3166 26.921 16.3166C26.921 16.3166 26.921 16.3166 26.921 16.3166C26.921 16.3166 26.921 16.3166 26.921 16.3166C26.921 16.3166 26.921 16.3166 26.921 16.3166C26.921 16.3166 26.921 16.3166 26.921 16.3166C26.921 16.3166 26.921 16.3166 26.921 16.3166C26.921 16.3166 26.921 16.3166 26.921 16.3166C26.921 16.3166 26.921 16.3166 26.921 16.3166C26.921 16.3166 26.921 16.3166 26.921 16.3166C26.921 16.3166 26.921 16.3166 26.921 16.3166C26.921 16.3166 26.921 16.3166 26.921 16.3166C26.921 16.3166 26.921 16.3166 26.921 16.3166C26.921 16.3166 26.921 16.3166 26.921 16.3166C26.921 16.3166 26.921 16.3166 26.921 16.3166C26.921 16.3166 26.921 16.3166 26.921 16.3166C26.921 16.3166 26.921 16.3166 26.921 16.3166C26.921 16.3166 26.921 16.3166 26.921 16.3166C26.921 16.3166 26.921 16.3166 26.921 16.3166C26.921 16.3166 26.921 16.3166 26.921 16.3166C26.921 16.3166 26.921 16.3166 26.921 16.3166C26.921 16.3166 26.921 16.3166 26.921 16.3166C26.921 16.3166 26.921 16.3166 26.921 16.3166C26.921 16.3166 26.921 16.3166 26.921 16.3166C26.921 16.3166 26.921 16.3166 26.921 16.3166C26.921 16.3166 26.921 16.3166 26.921 16.3166C26.921 16.3166 26.921 16.3166 26.921 16.3166C26.921 16.3166 26.921 16.3166 26.921 16.3166C26.921 16.3166 26.921 16.3166 26.921 16.3166C26.921 16.3166 26.921 16.3166 26.921 16.3166C26.921 16.3166 26.921 16.3166 26.921 16.3166C26.921 16.3166 26.921 16.3166 26.921 16.3166C26.921 16.3166 26.921 16.3166 26.921 16.3166C26.921 16.3166 26.921 16.3166 26.921 16.3166C26.921 16.3166 26.921 16.3166 26.921 16.3166C26.921 16.3166 26.921 16.3166 26.921 16.3166C26.921 16.3166 26.921 16.3166 26.921 16.3166C26.921 16.3166 26.921 16.3166 26.921 16.3166C26.921 16.3166 26.921 16.3166 26.921 16.3166C26.921 16.3166 26.921 16.3166 26.921 16.3166C26.921 16.3166 26.921 16.3166 26.921 16.3166C26.921 16.3166 26.921 16.3166 26.921 16.3166C26.921 16.3166 26.921 16.3166 26.921 16.3166C26.921 16.3166 26.921 16.3166 26.921 16.3166C26.921 16.3166 26.921 16.3166 26.921 16.3166C26.921 16.3166 26.921 16.3166 26.921 16.3166C26.921 16.3166 26.921 16.3166 26.921 16.3166C26.921 16.3166 26.921 16.3166 26.921 16.3166C26.921 16.3166 26.921 16.3166 26.921 16.3166C26.921 16.3166 26.921 16.3166 26.921 16.3166C26.921 16.3166 26.921 16.3166 26.921 16.3166C26.921 16.3166 26.921 16.3166 26.921 16.3166C26.921 16.3166 26.921 16.3166 26.921 16.3166C26.921 16.3166 26.921 16.3166 26.921 16.3166C26.921 16.3166 26.921 16.3166 26.921 16.3166C26.921 16.3166 26.921 16.3166 26.921 16.3166C26.921 16.3166 26.921 16.3166 26.921 16.3166C26.921 16.3166 26.921 16.3166 26.921 16.3166C26.921 16.3166 26.921 16.3166 26.921 16.3166C26.921 16.3166 26.921 16.3166 26.921 16.3166C26.921 16.3166 26.921 16.3166 26.921 16.3166C26.921 16.3166 26.921 16.3166 26.921 16.3166C26.921 16.3166 26.921 16.3166 26.921 16.3166C26.921 16.3166 26.921 16.3166 26.921 16.3166C26.921 16.3166 26.921 16.3166 26.921 16.3166C26.921 16.3166 26.921 16.3166 26.921 16.3166C26.921 16.3166 26.921 16.3166 26.921 16.3166C26.921 16.3166 26.921 16.3166 26.921 16.3166C26.921 16.3166 26.921 16.3166 26.921 16.3166C26.921 16.3166 26.921 16.3166 26.921 16.3166C26.921 16.3166 26.921 16.3166 26.921 16.3166C26.921 16.3166 26.921 16.3166 26.921 16.3166C26.921 16.3166 26.921 16.3166 26.921 16.3166C26.921 16.3166 26.921 16.3166 26.921 16.3166C26.921 16.3166 26.921 16.3166 26.921 16.3166C26.921 16.3166 26.921 16.3166 26.921 16.3166C26.921 16.3166 26.921 16.3166 26.921 16.3166C26.921 16.3166 26.921 16.3166 26.921 16.3166C26.921 16.3166 26.921 16.3166 26.921 16.3166C26.921 16.3166 26.921 16.3166 26.921 16.3166C26.921 16.3166 26.921 16.3166 26.921 16.3166C26.921 16.3166 26.921 16.3166 26.921 16.3166C26.921 16.3166 26.921 16.3166 26.921 16.3166C26.921 16.3166 26.921 16.3166 26.921 16.3166C26.921 16.3166 26.921 16.3166 26.921 16.3166C26.921 16.3166 26.921 16.3166 26.921 16.3166C26.921 16.3166 26.921 16.3166 26.921 16.3166C26.921 16.3166 26.921 16.3166 26.921 16.3166C26.921 16.3166 26.921 16.3166 26.921 16.3166C26.921 16.3166 26.921 16.3166 26.921 16.3166C26.921 16.3166 26.921 16.3166 26.921 16.3166C26.921 16.3166 26.921 16.3166 26.921 16.3166C26.921 16.3166 26.921 16.3166 26.921 16.3166C26.921 16.3166 26.921 16.3166 26.921 16.3166C26.921 16.3166 26.921 16.3166 26.921 16.3166C26.921 16.3166 26.921 16.3166 26.921 16.3166C26.921 16.3166 26.921 16.3166 26.921 16.3166C26.921 16.3166 26.921 16.3166 26.921 16.3166C26.921 16.3166 26.921 16.3166 26.921 16.3166C26.921 16.3166 26.921 16.3166 26.921 16.3166C26.921 16.3166 26.921 16.3166 26.921 16.3166C26.921 16.3166 26.921 16.3166 26.921 16.3166C26.921 16.3166 26.921 16.3166 26.921 16.3166C26.921 16.3166 26.921 16.3166 26.921 16.3166C26.921 16.3166 26.921 16.3166 26.921 16.3166C26.921 16.3166 26.921 16.3166 26.921 16.3166C26.921 16.3166 26.921 16.3166 26.921 16.3166C26.921 16.3166 26.921 16.3166 26.921 16.3166C26.921 16.3166 26.921 16.3166 26.921 16.3166C26.921 16.3166 26.921 16.3166 26.921 16.3166C26.921 16.3166 26.921 16.3166 26.921 16.3166C26.921 16.3166 26.921 16.3166 26.921 16.3166C26.921 16.3166 26.921 16.3166 26.921 16.3166C26.921 16.3166 26.921 16.3166 26.921 16.3166C26.921 16.3166 26.921 16.3166 26.921 16.3166C26.921 16.3166 26.921 16.3166 26.921 16.3166C26.921 16.3166 26.921 16.3166 26.921 16.3166C26.921 16.3166 26.921 16.3166 26.921 16.3166C26.921 16.3166 26.921 16.3166 26.921 16.3166C26.921 16.3166 26.921 16.3166 26.921 16.3166C26.921 16.3166 26.921 16.3166 26.921 16.3166C26.921 16.3166 26.921 16.3166 26.921 16.3166C26.921 16.3166 26.921 16.3166 26.921 16.3166C26.921 16.3166 26.921 16.3166 26.921 16.3166C26.921 16.3166 26.921 16.3166 26.921 16.3166C26.921 16.3166 26.921 16.3166 26.921 16.3166C26.921 16.3166 26.921 16.3166 26.921 16.3166C26.921 16.3166 26.921 16.3166 26.921 16.3166C26.921 16.3166 26.921 16.3166 26.921 16.3166C26.921 16.3166 26.921 16.3166 26.921 16.3166C26.921 16.3166 26.921 16.3166 26.921 16.3166C26.921 16.3166 26.921 16.3166 26.921 16.3166C26.921 16.3166 26.921 16.3166 26.921 16.3166C26.921 16.3166 26.921 16.3166 26.921 16.3166C26.921 16.3166 26.921 16.3166 26.921 16.3166C26.921 16.3166 26.921 16.3166 26.921 16.3166C26.921 16.3166 26.921 16.3166 26.921 16.3166C26.921 16.3166 26.921 16.3166 26.921 16.3166C26.921 16.3166 26.921 16.3166 26.921 16.3166C26.921 16.3166 26.921 16.3166 26.921 16.3166C26.921 16.3166 26.921 16.3166 26.921 16.3166C26.921 16.3166 26.921 16.3166 26.921 16.3166C26.921 16.3166 26.921 16.3166 26.921 16.3166C26.921 16.3166 26.921 16.3166 26.921 16.3166C26.921 16.3166 26.921 16.3166 26.921 16.3166C26.921 16.3166 26.921 16.3166 26.921 16.3166C26.921 16.3166 26.921 16.3166 26.921 16.3166C26.921 16.3166 26.921 16.3166 26.921 16.3166C26.921 16.3166 26.921 16.3166 26.921 16.3166C26.921 16.3166 26.921 16.3166 26.921 16.3166C26.921 16.3166 26.921 16.3166 26.921 16.3166C26.921 16.3166 26.921 16.3166 26.921 16.3166C26.921 16.3166 26.921 16.3166 26.921 16.3166C26.921 16.3166 26.921 16.3166 26.921 16.3166C26.921 16.3166 26.921 16.3166 26.921 16.3166C26.921 16.3166 26.921 16.3166 26.921 16.3166C26.921 16.3166 26.921 16.3166 26.921 16.3166C26.921 16.3166 26.921 16.3166 26.921 16.3166C26.921 16.3166 26.921 16.3166 26.921 16.3166C26.921 16.3166 26.921 16.3166 26.921 16.3166C26.921 16.3166 26.921 16.3166 26.921 16.3166C26.921 16.3166 26.921 16.3166 26.921 16.3166H30.921ZM28.9789 14.3166H28.921V18.3166H28.9789V14.3166ZM34.6316 9.54442C30.7861 9.54442 27.5434 12.3229 27.0001 16.0263L30.9577 16.607C31.206 14.9141 32.7233 13.5444 34.6316 13.5444V9.54442ZM42.3421 17.112C42.3421 12.885 38.8419 9.54442 34.6316 9.54442V13.5444C36.7289 13.5444 38.3421 15.1892 38.3421 17.112H42.3421ZM34.6316 24.6796C38.8419 24.6796 42.3421 21.339 42.3421 17.112H38.3421C38.3421 19.0348 36.7289 20.6796 34.6316 20.6796V24.6796ZM32.1612 24.2823C32.9397 24.5406 33.7713 24.6796 34.6316 24.6796V20.6796C34.2038 20.6796 33.7973 20.6107 33.4208 20.4858L32.1612 24.2823ZM31.4501 24.6796C32.2267 24.6796 32.9685 24.5074 33.6349 24.1973L31.9471 20.5708C31.7985 20.64 31.6317 20.6796 31.4501 20.6796V24.6796ZM10.892 24.6796H31.4501V20.6796H10.892V24.6796ZM8.7072 24.1973C9.37356 24.5074 10.1154 24.6796 10.892 24.6796V20.6796C10.7104 20.6796 10.5436 20.64 10.395 20.5708L8.7072 24.1973ZM7.71053 24.6796C8.57076 24.6796 9.40238 24.5406 10.1809 24.2823L8.92134 20.4858C8.54483 20.6107 8.13826 20.6796 7.71053 20.6796V24.6796ZM0 17.112C0 21.339 3.50022 24.6796 7.71053 24.6796V20.6796C5.61316 20.6796 4 19.0348 4 17.112H0ZM7.71053 9.54442C3.50022 9.54442 0 12.885 0 17.112H4C4 15.1892 5.61316 13.5444 7.71053 13.5444V9.54442ZM8.0795 9.55297C7.95708 9.54729 7.83407 9.54442 7.71053 9.54442V13.5444C7.77218 13.5444 7.83334 13.5459 7.89397 13.5487L8.0795 9.55297ZM12.6053 6.36295C9.62844 6.36295 7.06153 8.22265 6.10548 10.8719L9.86799 12.2297C10.2521 11.1653 11.3148 10.3629 12.6053 10.3629V6.36295ZM19.3941 11.9481C18.8152 8.73826 15.966 6.36295 12.6053 6.36295V10.3629C14.0689 10.3629 15.2289 11.39 15.4576 12.6581L19.3941 11.9481ZM15.5 11.5444C15.5 11.6726 15.4874 11.796 15.464 11.9144L19.3877 12.6918C19.4616 12.319 19.5 11.9352 19.5 11.5444H15.5ZM14.0035 9.64578C14.8996 9.89368 15.5 10.6776 15.5 11.5444H19.5C19.5 8.77286 17.5947 6.48904 15.0701 5.79059L14.0035 9.64578ZM24.0263 0C19.1136 0 14.8362 2.75571 12.7576 6.80481L16.3161 8.63156C17.7184 5.89982 20.6323 4 24.0263 4V0ZM36.4825 10.4377C35.541 4.48831 30.2908 0 24.0263 0V4C28.3673 4 31.9046 7.10053 32.5316 11.0629L36.4825 10.4377Z" fill="black" />
</g>
<g id="Drops">
<path id="Drops_2" fill-rule="evenodd" clip-rule="evenodd" d="M11.5195 28.1056C11.7003 28.7638 11.3093 29.2639 10.8162 29.3928C10.323 29.5216 9.70525 29.1968 9.54699 28.6209C9.4468 28.2564 9.66938 27.5248 9.84622 27.037C9.93807 26.7837 10.2435 26.699 10.4561 26.8699C10.8538 27.1896 11.4063 27.6938 11.5195 28.1056ZM21.8433 29.3928C22.3364 29.2639 22.7274 28.7638 22.5466 28.1056C22.4334 27.6938 21.8809 27.1896 21.4832 26.8699C21.2706 26.699 20.9652 26.7837 20.8733 27.037C20.6965 27.5248 20.4739 28.2564 20.5741 28.6209C20.7323 29.1968 21.3501 29.5216 21.8433 29.3928ZM16.0956 29.012C16.4408 28.9218 16.7204 28.5929 16.6041 28.1698C16.5288 27.8958 16.1273 27.5643 15.8537 27.3648C15.7178 27.2656 15.5315 27.3176 15.4677 27.4711C15.3358 27.7883 15.1569 28.2884 15.2234 28.5305C15.3251 28.9007 15.7505 29.1021 16.0956 29.012ZM30.0115 32.9719C30.5046 32.8431 30.8956 32.3429 30.7148 31.6848C30.6016 31.273 30.0491 30.7688 29.6514 30.449C29.4388 30.2781 29.1334 30.3628 29.0415 30.6162C28.8647 31.104 28.6421 31.8355 28.7423 32.2001C28.9005 32.7759 29.5183 33.1008 30.0115 32.9719ZM14.5621 31.3513C14.6783 31.7744 14.3988 32.1033 14.0536 32.1934C13.7084 32.2836 13.2831 32.0822 13.1813 31.712C13.1148 31.4699 13.2938 30.9697 13.4256 30.6526C13.4894 30.4991 13.6757 30.447 13.8117 30.5462C14.0852 30.7458 14.4867 31.0773 14.5621 31.3513ZM24.9765 31.3513C25.0928 31.7744 24.8132 32.1033 24.4681 32.1934C24.1229 32.2836 23.6976 32.0822 23.5958 31.712C23.5293 31.4699 23.7083 30.9697 23.8401 30.6526C23.9039 30.4991 24.0902 30.447 24.2262 30.5462C24.4997 30.7458 24.9012 31.0773 24.9765 31.3513ZM19.8919 31.6848C20.0728 32.3429 19.6817 32.8431 19.1886 32.9719C18.6955 33.1008 18.0777 32.7759 17.9194 32.2001C17.8192 31.8355 18.0418 31.104 18.2186 30.6162C18.3105 30.3628 18.6159 30.2781 18.8285 30.449C19.2262 30.7688 19.7787 31.273 19.8919 31.6848ZM27.0186 28.1698C27.1349 28.5929 26.8553 28.9218 26.5101 29.012C26.1649 29.1021 25.7396 28.9007 25.6378 28.5305C25.5713 28.2884 25.7503 27.7883 25.8821 27.4711C25.946 27.3176 26.1322 27.2656 26.2682 27.3648C26.5418 27.5643 26.9433 27.8958 27.0186 28.1698ZM32.6661 29.3928C33.1592 29.2639 33.5503 28.7638 33.3694 28.1056C33.2563 27.6938 32.7037 27.1896 32.3061 26.8699C32.0935 26.699 31.788 26.7837 31.6962 27.037C31.5194 27.5248 31.2968 28.2564 31.397 28.6209C31.5552 29.1968 32.173 29.5216 32.6661 29.3928Z" fill="black"/>
</g>
</g>
</svg>
