<svg type="icon" width="48" height="48" viewBox="0 0 48 48" fill="none" xmlns="http://www.w3.org/2000/svg">
<rect width="48" height="48" fill="white"/>
<rect fill="white" y="8" width="49" height="30"/>
<path fill-rule="evenodd" clip-rule="evenodd" d="M37.2528 34.9573C37.9387 35.211 38.6773 35.3492 39.4468 35.3492C43.0661 35.3492 46 32.2936 46 28.5244C46 24.7552 43.0661 21.6996 39.4468 21.6996C36.1454 21.6996 33.4143 24.242 32.96 27.5494H32.8936C32.8937 23.83 35.7507 20.8055 39.3039 20.7263C38.404 14.6513 33.3619 10 27.2766 10C22.5104 10 18.3841 12.8534 16.3868 17.0094C18.3495 17.5894 19.7872 19.4697 19.7872 21.6996C19.7872 22.0177 19.758 22.3286 19.7021 22.6296C19.2388 19.8851 16.9383 17.7997 14.1702 17.7997C11.7217 17.7997 9.6391 19.4313 8.87014 21.7075C8.76512 21.7023 8.65945 21.6996 8.55319 21.6996C4.93396 21.6996 2 24.7552 2 28.5244C2 32.2936 4.93396 35.3492 8.55319 35.3492C9.32271 35.3492 10.0613 35.211 10.7472 34.9573C11.2625 35.2083 11.8413 35.3492 12.4531 35.3492H27.2699C27.2721 35.3492 27.2744 35.3492 27.2766 35.3492C27.2789 35.3492 27.2811 35.3492 27.2834 35.3492H35.5469C36.1587 35.3492 36.7375 35.2083 37.2528 34.9573Z"/>
<path d="M37.2528 34.9573L37.9467 33.0815L37.1452 32.785L36.3768 33.1593L37.2528 34.9573ZM32.96 27.5494V29.5494H34.7041L34.9414 27.8216L32.96 27.5494ZM32.8936 27.5494L30.8936 27.5494L30.8936 29.5494H32.8936V27.5494ZM39.3039 20.7263L39.3485 22.7258L41.6145 22.6753L41.2823 20.4332L39.3039 20.7263ZM16.3868 17.0094L14.5841 16.1431L13.5661 18.2614L15.82 18.9274L16.3868 17.0094ZM19.7021 22.6296L17.7301 22.9626L21.6686 22.9943L19.7021 22.6296ZM8.87014 21.7075L8.77108 23.705L10.2811 23.7799L10.7649 22.3476L8.87014 21.7075ZM10.7472 34.9573L11.6231 33.1593L10.8548 32.785L10.0533 33.0815L10.7472 34.9573ZM36.5589 36.833C37.4628 37.1674 38.436 37.3492 39.4468 37.3492V33.3492C38.9186 33.3492 38.4147 33.2547 37.9467 33.0815L36.5589 36.833ZM39.4468 37.3492C44.2464 37.3492 48 33.3209 48 28.5244H44C44 31.2664 41.8857 33.3492 39.4468 33.3492V37.3492ZM48 28.5244C48 23.7279 44.2464 19.6996 39.4468 19.6996V23.6996C41.8857 23.6996 44 25.7824 44 28.5244H48ZM39.4468 19.6996C35.0713 19.6996 31.5584 23.0557 30.9786 27.2773L34.9414 27.8216C35.2701 25.4284 37.2196 23.6996 39.4468 23.6996V19.6996ZM32.96 25.5494H32.8936V29.5494H32.96V25.5494ZM34.8936 27.5494C34.8937 24.8448 36.9531 22.7792 39.3485 22.7258L39.2594 18.7268C34.5483 18.8317 30.8937 22.8151 30.8936 27.5494L34.8936 27.5494ZM41.2823 20.4332C40.2483 13.4531 34.4278 8 27.2766 8V12C32.2959 12 36.5597 15.8494 37.3255 21.0194L41.2823 20.4332ZM27.2766 8C21.6803 8 16.8871 11.3511 14.5841 16.1431L18.1894 17.8757C19.8811 14.3557 23.3404 12 27.2766 12V8ZM15.82 18.9274C16.9105 19.2497 17.7872 20.3325 17.7872 21.6996H21.7872C21.7872 18.6069 19.7886 15.9292 16.9536 15.0914L15.82 18.9274ZM17.7872 21.6996C17.7872 21.8949 17.7693 22.0837 17.7357 22.2649L21.6686 22.9943C21.7467 22.5735 21.7872 22.1405 21.7872 21.6996H17.7872ZM21.6742 22.2967C21.0611 18.6647 17.9886 15.7997 14.1702 15.7997V19.7997C15.8881 19.7997 17.4165 21.1055 17.7301 22.9626L21.6742 22.2967ZM14.1702 15.7997C10.7953 15.7997 7.99628 18.0453 6.97535 21.0673L10.7649 22.3476C11.2819 20.8173 12.6481 19.7997 14.1702 19.7997V15.7997ZM8.9692 19.7099C8.83121 19.7031 8.69251 19.6996 8.55319 19.6996V23.6996C8.62639 23.6996 8.69903 23.7014 8.77108 23.705L8.9692 19.7099ZM8.55319 19.6996C3.75363 19.6996 0 23.7279 0 28.5244H4C4 25.7824 6.1143 23.6996 8.55319 23.6996V19.6996ZM0 28.5244C0 33.3209 3.75363 37.3492 8.55319 37.3492V33.3492C6.1143 33.3492 4 31.2664 4 28.5244H0ZM8.55319 37.3492C9.56398 37.3492 10.5372 37.1674 11.4411 36.833L10.0533 33.0815C9.58527 33.2547 9.08144 33.3492 8.55319 33.3492V37.3492ZM9.87126 36.7553C10.6534 37.1363 11.5312 37.3492 12.4531 37.3492V33.3492C12.1514 33.3492 11.8715 33.2803 11.6231 33.1593L9.87126 36.7553ZM12.4531 37.3492H27.2699V33.3492H12.4531V37.3492ZM27.2699 37.3492C27.2705 37.3492 27.2712 37.3492 27.2724 37.3492C27.2734 37.3492 27.275 37.3492 27.2766 37.3492V33.3492C27.276 33.3492 27.2753 33.3492 27.2741 33.3492C27.273 33.3492 27.2715 33.3492 27.2699 33.3492V37.3492ZM27.2766 37.3492C27.2782 37.3492 27.2798 37.3492 27.2808 37.3492C27.282 37.3492 27.2827 37.3492 27.2834 37.3492V33.3492C27.2817 33.3492 27.2802 33.3492 27.2791 33.3492C27.2779 33.3492 27.2772 33.3492 27.2766 33.3492V37.3492ZM27.2834 37.3492H35.5469V33.3492H27.2834V37.3492ZM35.5469 37.3492C36.4688 37.3492 37.3466 37.1363 38.1287 36.7553L36.3768 33.1593C36.1285 33.2803 35.8486 33.3492 35.5469 33.3492V37.3492Z" fill="black"/>
<path fill-rule="evenodd" clip-rule="evenodd" d="M12.9242 42.0005C13.1317 42.8073 12.683 43.4204 12.1171 43.5783C11.5512 43.7362 10.8423 43.3381 10.6607 42.6322C10.5412 42.1679 10.8216 41.2178 11.0276 40.6219C11.1202 40.3539 11.4374 40.2599 11.6499 40.4397C12.1086 40.8278 12.7891 41.4755 12.9242 42.0005ZM24.7714 43.5783C25.3373 43.4204 25.786 42.8073 25.5785 42.0005C25.4434 41.4755 24.7629 40.8278 24.3042 40.4397C24.0917 40.2599 23.7745 40.3539 23.6819 40.6219C23.4759 41.2178 23.1955 42.1679 23.315 42.6322C23.4966 43.3381 24.2055 43.7362 24.7714 43.5783ZM18.1756 43.1116C18.5718 43.001 18.8926 42.5979 18.7592 42.0793C18.6697 41.7314 18.1788 41.3081 17.8652 41.067C17.7289 40.9622 17.5352 41.0196 17.4707 41.1827C17.3185 41.5681 17.0956 42.2142 17.1747 42.5214C17.2914 42.9752 17.7795 43.2221 18.1756 43.1116ZM34.1449 47.9657C34.7108 47.8078 35.1596 47.1947 34.952 46.388C34.8169 45.8629 34.1364 45.2153 33.6777 44.8271C33.4653 44.6473 33.148 44.7413 33.0554 45.0093C32.8495 45.6052 32.569 46.5553 32.6885 47.0196C32.8701 47.7255 33.579 48.1236 34.1449 47.9657ZM16.4157 45.9791C16.5492 46.4977 16.2283 46.9009 15.8322 47.0114C15.4361 47.1219 14.948 46.875 14.8313 46.4212C14.7522 46.1141 14.9751 45.4679 15.1273 45.0825C15.1918 44.9194 15.3854 44.862 15.5218 44.9668C15.8354 45.2079 16.3262 45.6313 16.4157 45.9791ZM28.367 45.9791C28.5005 46.4977 28.1796 46.9009 27.7835 47.0114C27.3874 47.1219 26.8993 46.875 26.7826 46.4212C26.7035 46.1141 26.9264 45.4679 27.0786 45.0825C27.1431 44.9194 27.3367 44.862 27.4731 44.9668C27.7867 45.2079 28.2776 45.6313 28.367 45.9791ZM22.5321 46.388C22.7396 47.1947 22.2909 47.8078 21.725 47.9657C21.1591 48.1236 20.4502 47.7255 20.2685 47.0196C20.1491 46.5553 20.4295 45.6052 20.6355 45.0093C20.7281 44.7413 21.0453 44.6473 21.2578 44.8271C21.7165 45.2153 22.397 45.8629 22.5321 46.388ZM30.7104 42.0793C30.8439 42.5979 30.523 43.001 30.1269 43.1116C29.7308 43.2221 29.2427 42.9752 29.1259 42.5214C29.0469 42.2142 29.2698 41.5681 29.422 41.1827C29.4864 41.0196 29.6801 40.9622 29.8165 41.067C30.1301 41.3081 30.6209 41.7314 30.7104 42.0793ZM37.1914 43.5783C37.7572 43.4204 38.206 42.8073 37.9984 42.0005C37.8634 41.4755 37.1828 40.8278 36.7241 40.4397C36.5117 40.2599 36.1945 40.3539 36.1018 40.6219C35.8959 41.2178 35.6154 42.1679 35.7349 42.6322C35.9165 43.3381 36.6255 43.7362 37.1914 43.5783Z" fill="black"/>
</svg>
