<svg width="43" height="32" viewBox="0 0 43 32" fill="none" xmlns="http://www.w3.org/2000/svg">
<g id="Cloudy">
<g id="Cloud">
<rect fill="white" x="1.9567" y="6.3194" width="42" height="26"/>
<path fill-rule="evenodd" clip-rule="evenodd" d="M35.3626 17.4721C32.3711 17.5397 29.9658 20.1205 29.9658 23.2943L30.0217 23.2943C30.4041 20.4722 32.7035 18.3027 35.4829 18.3027C38.5299 18.3027 41 20.91 41 24.1263C41 27.3426 38.5299 29.9499 35.4829 29.9499C34.8298 29.9499 34.2031 29.8301 33.6216 29.6102C33.1792 29.8277 32.6814 29.9499 32.1551 29.9499L25.2369 29.9499L12.8016 29.9499C12.2752 29.9499 11.7775 29.8277 11.3351 29.6102C10.7536 29.8301 10.1269 29.9499 9.47378 29.9499C6.42678 29.9499 3.9567 27.3426 3.9567 24.1263C3.9567 20.91 6.42678 18.3027 9.47378 18.3027C9.56325 18.3027 9.65221 18.305 9.74064 18.3094C10.388 16.3672 12.1413 14.9749 14.2027 14.9749C16.5332 14.9749 18.4699 16.7544 18.86 19.0963C18.907 18.8394 18.9316 18.5741 18.9316 18.3027C18.9316 16.3999 17.7212 14.7955 16.0688 14.3005C17.7503 10.7542 21.2242 8.3194 25.2369 8.3194C30.36 8.3194 34.6049 12.2883 35.3626 17.4721Z"/>
<path d="M29.9658 23.2943H27.9658V25.2944L29.9659 25.2943L29.9658 23.2943ZM35.3626 17.4721L35.4078 19.4716L37.6686 19.4205L37.3416 17.1829L35.3626 17.4721ZM30.0217 23.2943L30.0218 25.2943L31.769 25.2943L32.0036 23.5629L30.0217 23.2943ZM33.6216 29.6102L34.3291 27.7395L33.5177 27.4326L32.7391 27.8154L33.6216 29.6102ZM32.1551 29.9499L32.1551 31.9499H32.1551V29.9499ZM25.2369 29.9499L25.2369 27.9499L25.2369 27.9499L25.2369 29.9499ZM12.8016 29.9499L12.8016 31.9499L12.8016 31.9499L12.8016 29.9499ZM11.3351 29.6102L12.2176 27.8154L11.439 27.4326L10.6276 27.7395L11.3351 29.6102ZM9.74064 18.3094L9.64022 20.3069L11.1576 20.3832L11.638 18.9418L9.74064 18.3094ZM18.86 19.0963L16.8872 19.4249L20.8273 19.4563L18.86 19.0963ZM16.0688 14.3005L14.2617 13.4437L13.2638 15.5482L15.495 16.2165L16.0688 14.3005ZM31.9658 23.2943C31.9658 21.1101 33.5978 19.5125 35.4078 19.4716L35.3174 15.4726C31.1445 15.5669 27.9658 19.1309 27.9658 23.2943H31.9658ZM30.0216 21.2943L29.9658 21.2943L29.9659 25.2943L30.0218 25.2943L30.0216 21.2943ZM35.4829 16.3027C31.608 16.3027 28.5435 19.3088 28.0398 23.0258L32.0036 23.5629C32.2648 21.6356 33.7991 20.3027 35.4829 20.3027V16.3027ZM43 24.1263C43 19.9087 39.735 16.3027 35.4829 16.3027V20.3027C37.3248 20.3027 39 21.9113 39 24.1263H43ZM35.4829 31.9499C39.735 31.9499 43 28.3439 43 24.1263H39C39 26.3413 37.3248 27.9499 35.4829 27.9499V31.9499ZM32.9141 31.4808C33.7169 31.7845 34.583 31.9499 35.4829 31.9499V27.9499C35.0765 27.9499 34.6893 27.8757 34.3291 27.7395L32.9141 31.4808ZM32.1551 31.9499C32.9941 31.9499 33.7932 31.7545 34.5041 31.4049L32.7391 27.8154C32.5652 27.9009 32.3687 27.9499 32.1551 27.9499V31.9499ZM25.2369 31.9499L32.1551 31.9499L32.1551 27.9499L25.2369 27.9499L25.2369 31.9499ZM12.8016 31.9499L25.2369 31.9499L25.2369 27.9499L12.8016 27.9499L12.8016 31.9499ZM10.4526 31.4049C11.1635 31.7545 11.9625 31.9499 12.8016 31.9499V27.9499C12.5879 27.9499 12.3915 27.9009 12.2176 27.8154L10.4526 31.4049ZM9.47378 31.9499C10.3737 31.9499 11.2397 31.7845 12.0426 31.4808L10.6276 27.7395C10.2674 27.8757 9.88022 27.9499 9.47378 27.9499V31.9499ZM1.9567 24.1263C1.9567 28.3439 5.2217 31.9499 9.47378 31.9499V27.9499C7.63186 27.9499 5.9567 26.3413 5.9567 24.1263H1.9567ZM9.47378 16.3027C5.2217 16.3027 1.9567 19.9087 1.9567 24.1263H5.9567C5.9567 21.9113 7.63186 20.3027 9.47378 20.3027V16.3027ZM9.84105 16.3119C9.7192 16.3058 9.59675 16.3027 9.47378 16.3027V20.3027C9.52974 20.3027 9.58522 20.3041 9.64022 20.3069L9.84105 16.3119ZM14.2027 12.9749C11.1977 12.9749 8.73574 14.9994 7.84326 17.677L11.638 18.9418C12.0403 17.7349 13.085 16.9749 14.2027 16.9749V12.9749ZM20.8328 18.7677C20.2979 15.5562 17.6041 12.9749 14.2027 12.9749V16.9749C15.4623 16.9749 16.6419 17.9525 16.8872 19.4249L20.8328 18.7677ZM16.9316 18.3027C16.9316 18.4529 16.918 18.5978 16.8927 18.7363L20.8273 19.4563C20.896 19.081 20.9316 18.6952 20.9316 18.3027H16.9316ZM15.495 16.2165C16.2644 16.4469 16.9316 17.2446 16.9316 18.3027H20.9316C20.9316 15.5552 19.1781 13.144 16.6427 12.3846L15.495 16.2165ZM25.2369 6.3194C20.3794 6.3194 16.2421 9.26695 14.2617 13.4437L17.876 15.1574C19.2586 12.2415 22.0691 10.3194 25.2369 10.3194V6.3194ZM37.3416 17.1829C36.4544 11.1129 31.4471 6.3194 25.2369 6.3194V10.3194C29.2729 10.3194 32.7555 13.4637 33.3836 17.7614L37.3416 17.1829Z" fill="black"/>
</g>
<g id="Sun">
<path id="Oval 16" fill-rule="evenodd" clip-rule="evenodd" d="M6.58512 17.588C6.65982 17.5591 6.73641 17.5351 6.81442 17.5161L7.85562 17.2628L8.08846 17.225C8.10016 17.2231 8.11185 17.2212 8.12352 17.2191C7.97607 16.636 7.89748 16.0231 7.89748 15.3909C7.89748 11.4854 10.8969 8.3194 14.5968 8.3194C15.99 8.3194 17.2839 8.7683 18.3557 9.53655L19.668 8.61424C19.6957 8.59474 19.7238 8.57572 19.7521 8.55719C18.338 7.36694 16.5461 6.65555 14.5968 6.65555C10.0263 6.65555 6.32117 10.5665 6.32117 15.3909C6.32117 16.1498 6.41284 16.886 6.58512 17.588Z" fill="black"/>
<path id="Rectangle 69" fill-rule="evenodd" clip-rule="evenodd" d="M14.9909 0C14.5556 0 14.2027 0.352869 14.2027 0.788155V3.37155C14.2027 3.80684 14.5556 4.15971 14.9909 4.15971C15.4262 4.15971 15.779 3.80684 15.779 3.37155V0.788155C15.779 0.352869 15.4262 0 14.9909 0ZM22.4863 2.11998C22.1093 1.89024 21.632 2.01798 21.4202 2.40529L20.2169 4.60514C20.0051 4.99245 20.1389 5.49265 20.5159 5.72239C20.8929 5.95212 21.3702 5.82439 21.5821 5.43708L22.7853 3.23723C22.9971 2.84992 22.8633 2.34971 22.4863 2.11998ZM0.831942 16.6557C0.372473 16.6557 0 16.2832 0 15.8238C0 15.3643 0.372473 14.9918 0.831942 14.9918H3.10883C3.5683 14.9918 3.94078 15.3643 3.94078 15.8238C3.94078 16.2832 3.5683 16.6557 3.10883 16.6557H0.831942ZM2.00839 7.91182C1.79075 8.30973 1.92827 8.82364 2.31557 9.05967L4.32587 10.2848C4.71316 10.5208 5.20356 10.3896 5.4212 9.99168C5.63885 9.59377 5.50132 9.07986 5.11403 8.84383L3.10372 7.6187C2.71643 7.38268 2.22603 7.51391 2.00839 7.91182ZM7.19645 3.23722C6.9846 2.84991 7.11846 2.3497 7.49543 2.11997C7.8724 1.89023 8.34973 2.01797 8.56157 2.40527L9.76481 4.60513C9.97665 4.99243 9.84279 5.49264 9.46582 5.72238C9.08885 5.95211 8.61153 5.82438 8.39968 5.43707L7.19645 3.23722Z" fill="black"/>
</g>
</g>
</svg>
