<svg type="icon" width="52" height="38" viewBox="0 0 52 38" fill="none" xmlns="http://www.w3.org/2000/svg">
<g id="Cloudy">
<g id="Cloud">
<rect fill="white" x="2.75598" y="7.99997" width="49" height="31"/>
<path fill-rule="evenodd" clip-rule="evenodd" d="M40.4134 35.5916C41.1124 35.856 41.8656 36 42.6507 36C46.3132 36 49.2823 32.866 49.2823 29C49.2823 25.134 46.3132 22 42.6507 22C39.3098 22 36.546 24.6077 36.0863 28H36.0191C36.0191 24.185 38.9104 21.0828 42.5061 21.0016C41.5954 14.7706 36.493 9.99997 30.3349 9.99997C25.5117 9.99997 21.336 12.9266 19.3148 17.1894C21.3011 17.7843 22.756 19.7128 22.756 22C22.756 22.3262 22.7264 22.6451 22.6699 22.9539C22.201 20.1389 19.873 18 17.0718 18C14.594 18 12.4865 19.6734 11.7083 22.008C11.602 22.0027 11.4951 22 11.3876 22C7.72504 22 4.75598 25.134 4.75598 29C4.75598 32.866 7.72504 36 11.3876 36C12.1727 36 12.9259 35.856 13.6248 35.5916C14.1566 35.8531 14.7549 36 15.3876 36L30.3349 36L38.6507 36C39.2833 36 39.8817 35.8531 40.4134 35.5916Z"/>
<path d="M40.4134 35.5916L41.121 33.7209L40.3095 33.414L39.5309 33.7969L40.4134 35.5916ZM36.0863 28V30H37.8336L38.0682 28.2685L36.0863 28ZM36.0191 28L34.0191 28L34.0191 30H36.0191V28ZM42.5061 21.0016L42.5513 23.0011L44.8121 22.9501L44.4851 20.7124L42.5061 21.0016ZM19.3148 17.1894L17.5077 16.3325L16.5098 18.437L18.741 19.1053L19.3148 17.1894ZM22.6699 22.9539L20.6971 23.2825L24.6372 23.3139L22.6699 22.9539ZM11.7083 22.008L11.6079 24.0055L13.1253 24.0818L13.6057 22.6405L11.7083 22.008ZM13.6248 35.5916L14.5073 33.7969L13.7288 33.414L12.9173 33.7209L13.6248 35.5916ZM15.3876 36L15.3876 38L15.3876 38L15.3876 36ZM30.3349 36L30.3349 34L30.3349 34L30.3349 36ZM38.6507 36L38.6507 38H38.6507V36ZM39.7059 37.4623C40.6262 37.8104 41.6189 38 42.6507 38V34C42.1123 34 41.5985 33.9016 41.121 33.7209L39.7059 37.4623ZM42.6507 38C47.5183 38 51.2823 33.8673 51.2823 29H47.2823C47.2823 31.8647 45.1082 34 42.6507 34V38ZM51.2823 29C51.2823 24.1327 47.5183 20 42.6507 20V24C45.1082 24 47.2823 26.1353 47.2823 29H51.2823ZM42.6507 20C38.2143 20 34.6854 23.4443 34.1044 27.7314L38.0682 28.2685C38.4066 25.7711 40.4054 24 42.6507 24V20ZM36.0863 26H36.0191V30H36.0863V26ZM38.0191 28C38.0191 25.1746 40.1371 23.0556 42.5513 23.0011L42.461 19.0021C37.6837 19.11 34.0191 23.1954 34.0191 28L38.0191 28ZM44.4851 20.7124C43.4448 13.5952 37.5801 7.99997 30.3349 7.99997V12C35.4059 12 39.7459 15.9461 40.5271 21.2909L44.4851 20.7124ZM30.3349 7.99997C24.6668 7.99997 19.8278 11.4394 17.5077 16.3325L21.122 18.0462C22.8443 14.4139 26.3565 12 30.3349 12V7.99997ZM18.741 19.1053C19.8442 19.4357 20.756 20.5575 20.756 22H24.756C24.756 18.8681 22.7579 16.1328 19.8887 15.2734L18.741 19.1053ZM20.756 22C20.756 22.2051 20.7374 22.4035 20.7026 22.5939L24.6372 23.3139C24.7154 22.8868 24.756 22.4474 24.756 22H20.756ZM24.6427 22.6253C24.029 18.9407 20.944 16 17.0718 16V20C18.8021 20 20.373 21.3371 20.6971 23.2825L24.6427 22.6253ZM17.0718 16C13.6503 16 10.8342 18.3057 9.81095 21.3756L13.6057 22.6405C14.1388 21.0412 15.5376 20 17.0718 20V16ZM11.8087 20.0105C11.669 20.0035 11.5286 20 11.3876 20V24C11.4616 24 11.5351 24.0018 11.6079 24.0055L11.8087 20.0105ZM11.3876 20C6.51996 20 2.75598 24.1327 2.75598 29H6.75598C6.75598 26.1353 8.93012 24 11.3876 24V20ZM2.75598 29C2.75598 33.8673 6.51996 38 11.3876 38V34C8.93012 34 6.75598 31.8647 6.75598 29H2.75598ZM11.3876 38C12.4194 38 13.412 37.8104 14.3323 37.4623L12.9173 33.7209C12.4397 33.9016 11.9259 34 11.3876 34V38ZM12.7423 37.3864C13.5426 37.7799 14.4422 38 15.3876 38V34C15.0676 34 14.7706 33.9263 14.5073 33.7969L12.7423 37.3864ZM15.3876 38L30.3349 38L30.3349 34L15.3876 34L15.3876 38ZM30.3349 38L38.6507 38L38.6507 34L30.3349 34L30.3349 38ZM38.6507 38C39.596 38 40.4956 37.7799 41.2959 37.3864L39.5309 33.7969C39.2677 33.9263 38.9706 34 38.6507 34V38Z" fill="black"/>
</g>
<g id="Sun">
<path id="Oval 16" fill-rule="evenodd" clip-rule="evenodd" d="M7.91535 21.1409C8.00515 21.1062 8.09721 21.0773 8.19098 21.0545L9.4425 20.75L9.76457 20.6978C9.5873 19.9967 9.49281 19.26 9.49281 18.5C9.49281 13.8056 13.0981 9.99998 17.5454 9.99998C19.2201 9.99998 20.7753 10.5396 22.0636 11.463L23.7258 10.2948C23.7307 10.2914 23.7357 10.2879 23.7406 10.2845C22.041 8.85459 19.8878 8.00003 17.5455 8.00003C12.0517 8.00003 7.59808 12.701 7.59808 18.5C7.59808 19.4122 7.70827 20.2971 7.91535 21.1409Z" fill="black"/>
<path id="Rectangle 69" fill-rule="evenodd" clip-rule="evenodd" d="M18.0192 0C17.4959 0 17.0718 0.424151 17.0718 0.947369V4.05263C17.0718 4.57585 17.4959 5 18.0192 5C18.5424 5 18.9665 4.57585 18.9665 4.05263V0.947369C18.9665 0.424151 18.5424 0 18.0192 0ZM27.0287 2.54823C26.5756 2.27209 26.0018 2.42563 25.7472 2.89118L24.3009 5.53542C24.0463 6.00096 24.2072 6.60222 24.6603 6.87836C25.1134 7.1545 25.6871 7.00096 25.9418 6.53542L27.3881 3.89118C27.6427 3.42563 27.4818 2.82437 27.0287 2.54823ZM1 20.0203C0.447715 20.0203 0 19.5726 0 19.0203C0 18.468 0.447715 18.0203 0.999999 18.0203H3.73684C4.28913 18.0203 4.73684 18.468 4.73684 19.0203C4.73684 19.5726 4.28913 20.0203 3.73684 20.0203H1ZM2.41411 9.51005C2.1525 9.98835 2.31781 10.6061 2.78333 10.8898L5.19974 12.3624C5.66527 12.6461 6.25472 12.4883 6.51633 12.0101C6.77794 11.5318 6.61263 10.914 6.14711 10.6303L3.7307 9.15772C3.26517 8.87402 2.67572 9.03176 2.41411 9.51005ZM8.65017 3.89114C8.39554 3.42559 8.55644 2.82434 9.00956 2.54819C9.46268 2.27205 10.0364 2.42559 10.2911 2.89114L11.7374 5.53538C11.992 6.00092 11.8311 6.60218 11.378 6.87832C10.9249 7.15446 10.3511 7.00092 10.0965 6.53538L8.65017 3.89114Z" fill="black"/>
</g>
</g>
</svg>
