<svg type="icon" width="48" height="48" viewBox="0 0 48 48" fill="none" xmlns="http://www.w3.org/2000/svg">
<rect width="48" height="48" fill="white"/>
<rect fill="white" x="2.34271" y="10.131" width="45" height="28"/>
<path fill-rule="evenodd" clip-rule="evenodd" d="M38.8126 22.1767C35.5293 22.2509 32.8893 25.0835 32.8893 28.567L32.9506 28.567C33.3704 25.4695 35.8941 23.0884 38.9447 23.0884C42.2889 23.0884 45 25.9501 45 29.4801C45 33.0102 42.2889 35.8719 38.9447 35.8719C38.2278 35.8719 37.54 35.7404 36.9018 35.499C36.4162 35.7378 35.8699 35.8719 35.2922 35.8719H14.0504C13.4728 35.8719 12.9265 35.7378 12.4409 35.499C11.8027 35.7404 11.1149 35.8719 10.3981 35.8719C7.05378 35.8719 4.34271 33.0102 4.34271 29.4801C4.34271 25.95 7.05378 23.0884 10.3981 23.0884C10.4962 23.0884 10.5939 23.0908 10.6909 23.0957C11.4015 20.964 13.3258 19.436 15.5883 19.436C18.1461 19.436 20.2718 21.389 20.7 23.9594C20.7516 23.6775 20.7786 23.3862 20.7786 23.0884C20.7786 20.9999 19.4501 19.239 17.6365 18.6957C19.4821 14.8034 23.2949 12.131 27.6991 12.131C33.322 12.131 37.9811 16.4872 38.8126 22.1767Z"/>
<path d="M32.8893 28.567H30.8893V30.5669L32.8892 30.567L32.8893 28.567ZM38.8126 22.1767L38.8578 24.1762L41.1187 24.1252L40.7916 21.8875L38.8126 22.1767ZM32.9506 28.567L32.9505 30.567L34.6979 30.5671L34.9325 28.8356L32.9506 28.567ZM36.9018 35.499L37.6093 33.6283L36.7978 33.3214L36.0192 33.7042L36.9018 35.499ZM12.4409 35.499L13.3234 33.7042L12.5449 33.3214L11.7334 33.6283L12.4409 35.499ZM10.6909 23.0957L10.5905 25.0932L12.1079 25.1695L12.5883 23.7282L10.6909 23.0957ZM20.7 23.9594L18.7272 24.288L22.6673 24.3195L20.7 23.9594ZM17.6365 18.6957L15.8294 17.8389L14.8315 19.9434L17.0627 20.6116L17.6365 18.6957ZM34.8893 28.567C34.8893 26.0731 36.756 24.2237 38.8578 24.1762L38.7675 20.1773C34.3027 20.2781 30.8893 24.0939 30.8893 28.567H34.8893ZM32.9508 26.567L32.8894 26.567L32.8892 30.567L32.9505 30.567L32.9508 26.567ZM38.9447 21.0884C34.7985 21.0884 31.5098 24.3061 30.9687 28.2984L34.9325 28.8356C35.231 26.6329 36.9896 25.0884 38.9447 25.0884V21.0884ZM47 29.4801C47 24.9488 43.494 21.0884 38.9447 21.0884V25.0884C41.0838 25.0884 43 26.9514 43 29.4801H47ZM38.9447 37.8719C43.494 37.8719 47 34.0115 47 29.4801H43C43 32.0089 41.0838 33.8719 38.9447 33.8719V37.8719ZM36.1942 37.3697C37.0538 37.6948 37.981 37.8719 38.9447 37.8719V33.8719C38.4745 33.8719 38.0262 33.786 37.6093 33.6283L36.1942 37.3697ZM35.2922 37.8719C36.1826 37.8719 37.0302 37.6646 37.7843 37.2938L36.0192 33.7042C35.8022 33.811 35.5572 33.8719 35.2922 33.8719V37.8719ZM14.0504 37.8719H35.2922V33.8719H14.0504V37.8719ZM11.5584 37.2938C12.3125 37.6646 13.1601 37.8719 14.0504 37.8719V33.8719C13.7855 33.8719 13.5405 33.811 13.3234 33.7042L11.5584 37.2938ZM10.3981 37.8719C11.3616 37.8719 12.2888 37.6948 13.1484 37.3697L11.7334 33.6283C11.3165 33.786 10.8682 33.8719 10.3981 33.8719V37.8719ZM2.34271 29.4801C2.34271 34.0115 5.8487 37.8719 10.3981 37.8719V33.8719C8.25886 33.8719 6.34271 32.0089 6.34271 29.4801H2.34271ZM10.3981 21.0884C5.8487 21.0884 2.34271 24.9487 2.34271 29.4801H6.34271C6.34271 26.9513 8.25886 25.0884 10.3981 25.0884V21.0884ZM10.7913 21.0982C10.6609 21.0917 10.5297 21.0884 10.3981 21.0884V25.0884C10.4627 25.0884 10.5269 25.09 10.5905 25.0932L10.7913 21.0982ZM15.5883 17.436C12.3822 17.436 9.74922 19.5963 8.79356 22.4632L12.5883 23.7282C13.0538 22.3318 14.2695 21.436 15.5883 21.436V17.436ZM22.6728 23.6308C22.0998 20.1909 19.2171 17.436 15.5883 17.436V21.436C17.0752 21.436 18.4439 22.5872 18.7272 24.288L22.6728 23.6308ZM18.7786 23.0884C18.7786 23.2651 18.7626 23.4358 18.7327 23.5994L22.6673 24.3195C22.7406 23.9191 22.7786 23.5074 22.7786 23.0884H18.7786ZM17.0627 20.6116C17.9933 20.8904 18.7786 21.8446 18.7786 23.0884H22.7786C22.7786 20.1552 20.907 17.5875 18.2104 16.7798L17.0627 20.6116ZM27.6991 10.131C22.4501 10.131 17.9738 13.3161 15.8294 17.8389L19.4437 19.5526C20.9903 16.2907 24.1398 14.131 27.6991 14.131V10.131ZM40.7916 21.8875C39.8305 15.3118 34.4091 10.131 27.6991 10.131V14.131C32.2349 14.131 36.1316 17.6626 36.8337 22.466L40.7916 21.8875Z" fill="black"/>
<path fill-rule="evenodd" clip-rule="evenodd" d="M7.22755 22.3039C7.30955 22.2722 7.39362 22.2458 7.47924 22.2249L8.62202 21.9469L8.91609 21.8992C8.75423 21.2591 8.66795 20.5864 8.66795 19.8925C8.66795 15.606 11.96 12.1311 16.0209 12.1311C17.55 12.1311 18.9701 12.6238 20.1464 13.4669L21.6277 12.4259C21.6444 12.4141 21.6612 12.4026 21.6781 12.3912C20.1261 11.0854 18.1599 10.3049 16.0209 10.3049C11.0045 10.3049 6.93787 14.5975 6.93787 19.8926C6.93787 20.7254 7.03847 21.5334 7.22755 22.3039Z" fill="black"/>
<path fill-rule="evenodd" clip-rule="evenodd" d="M16.4534 3C15.9757 3 15.5884 3.3873 15.5884 3.86505V6.70049C15.5884 7.17824 15.9757 7.56554 16.4534 7.56554C16.9312 7.56554 17.3185 7.17824 17.3185 6.70049V3.86505C17.3185 3.3873 16.9312 3 16.4534 3ZM24.6801 5.3268C24.2664 5.07466 23.7425 5.21486 23.51 5.63995L22.1894 8.05442C21.9569 8.47952 22.1038 9.02853 22.5175 9.28067C22.9313 9.53282 23.4552 9.39262 23.6877 8.96753L25.0083 6.55305C25.2408 6.12796 25.0939 5.57895 24.6801 5.3268ZM0.913107 21.2806C0.408812 21.2806 0 20.8718 0 20.3675C0 19.8632 0.408812 19.4544 0.913108 19.4544H3.41214C3.91643 19.4544 4.32524 19.8632 4.32524 20.3675C4.32524 20.8718 3.91643 21.2806 3.41214 21.2806H0.913107ZM2.20433 11.6837C1.96545 12.1205 2.11639 12.6845 2.54147 12.9436L4.74791 14.2882C5.17298 14.5473 5.71122 14.4032 5.9501 13.9665C6.18897 13.5298 6.03803 12.9657 5.61296 12.7067L3.40652 11.362C2.98144 11.103 2.4432 11.247 2.20433 11.6837ZM7.89848 6.55307C7.66597 6.12798 7.81289 5.57897 8.22664 5.32682C8.64038 5.07467 9.16428 5.21487 9.39679 5.63996L10.7174 8.05444C10.9499 8.47953 10.803 9.02854 10.3893 9.28069C9.97551 9.53284 9.45162 9.39264 9.21911 8.96755L7.89848 6.55307Z" fill="black"/>
</svg>
