<svg type="icon" width="48" height="49" viewBox="0 0 48 49" fill="none" xmlns="http://www.w3.org/2000/svg">
<g id="Foggy">
<rect id="Rectangle" width="48" height="48" fill="white"/>
<g id="Foggy_2">
<g id="Cloud">
<rect fill="white" y="8" width="48" height="30"/>
<path fill-rule="evenodd" clip-rule="evenodd" d="M39.3039 20.7348C35.7507 20.8141 32.8936 23.841 32.8936 27.5635H32.96C33.4142 24.2534 36.1454 21.709 39.4468 21.709C43.066 21.709 46 24.767 46 28.5392C46 32.3115 43.066 35.3695 39.4468 35.3695C38.6769 35.3695 37.938 35.2311 37.2518 34.9769C36.7359 35.2284 36.1563 35.3695 35.5438 35.3695H27.2766H12.4562C11.8437 35.3695 11.2641 35.2284 10.7482 34.9769C10.062 35.2311 9.32309 35.3695 8.55319 35.3695C4.93396 35.3695 2 32.3115 2 28.5392C2 24.767 4.93396 21.709 8.55319 21.709C8.65946 21.709 8.76513 21.7116 8.87016 21.7168C9.63912 19.4389 11.7217 17.806 14.1702 17.806C16.9384 17.806 19.2388 19.893 19.7022 22.6397C19.758 22.3384 19.7872 22.0273 19.7872 21.709C19.7872 19.4772 18.3495 17.5955 16.3868 17.015C18.3841 12.8557 22.5104 10 27.2766 10C33.3618 10 38.4039 14.655 39.3039 20.7348Z"/>
<path d="M32.8936 27.5635H30.8936V29.5635H32.8936V27.5635ZM39.3039 20.7348L39.3485 22.7343L41.6142 22.6838L41.2823 20.442L39.3039 20.7348ZM32.96 27.5635V29.5635H34.7043L34.9414 27.8354L32.96 27.5635ZM37.2518 34.9769L37.9465 33.1014L37.1444 32.8043L36.3755 33.1791L37.2518 34.9769ZM10.7482 34.9769L11.6245 33.1791L10.8556 32.8043L10.0535 33.1014L10.7482 34.9769ZM8.87016 21.7168L8.77101 23.7144L10.2814 23.7893L10.7651 22.3565L8.87016 21.7168ZM19.7022 22.6397L17.73 22.9724L21.6687 23.0042L19.7022 22.6397ZM16.3868 17.015L14.5839 16.1493L13.5671 18.2667L15.8196 18.9329L16.3868 17.015ZM34.8936 27.5635C34.8936 24.8544 36.9545 22.7877 39.3485 22.7343L39.2593 18.7353C34.5468 18.8404 30.8936 22.8277 30.8936 27.5635H34.8936ZM32.96 25.5635H32.8936V29.5635H32.96V25.5635ZM39.4468 19.709C35.07 19.709 31.5581 23.0684 30.9786 27.2915L34.9414 27.8354C35.2704 25.4385 37.2209 23.709 39.4468 23.709V19.709ZM48 28.5392C48 23.7413 44.2478 19.709 39.4468 19.709V23.709C41.8842 23.709 44 25.7927 44 28.5392H48ZM39.4468 37.3695C44.2478 37.3695 48 33.3372 48 28.5392H44C44 31.2857 41.8842 33.3695 39.4468 33.3695V37.3695ZM36.5571 36.8524C37.4614 37.1873 38.4353 37.3695 39.4468 37.3695V33.3695C38.9185 33.3695 38.4146 33.2748 37.9465 33.1014L36.5571 36.8524ZM35.5438 37.3695C36.4666 37.3695 37.3453 37.1563 38.1281 36.7747L36.3755 33.1791C36.1266 33.3004 35.8461 33.3695 35.5438 33.3695V37.3695ZM27.2766 37.3695H35.5438V33.3695H27.2766V37.3695ZM12.4562 37.3695H27.2766V33.3695H12.4562V37.3695ZM9.87186 36.7747C10.6547 37.1563 11.5334 37.3695 12.4562 37.3695V33.3695C12.1539 33.3695 11.8734 33.3004 11.6245 33.1791L9.87186 36.7747ZM8.55319 37.3695C9.56468 37.3695 10.5386 37.1873 11.4429 36.8524L10.0535 33.1014C9.58538 33.2748 9.08149 33.3695 8.55319 33.3695V37.3695ZM0 28.5392C0 33.3372 3.75215 37.3695 8.55319 37.3695V33.3695C6.11578 33.3695 4 31.2857 4 28.5392H0ZM8.55319 19.709C3.75215 19.709 0 23.7413 0 28.5392H4C4 25.7927 6.11578 23.709 8.55319 23.709V19.709ZM8.9693 19.7193C8.83128 19.7124 8.69255 19.709 8.55319 19.709V23.709C8.62636 23.709 8.69898 23.7108 8.77101 23.7144L8.9693 19.7193ZM14.1702 15.806C10.7943 15.806 7.99574 18.054 6.97521 21.0772L10.7651 22.3565C11.2825 20.8238 12.6492 19.806 14.1702 19.806V15.806ZM21.6743 22.3071C21.0614 18.6739 17.9898 15.806 14.1702 15.806V19.806C15.8869 19.806 17.4162 21.1121 17.73 22.9724L21.6743 22.3071ZM17.7872 21.709C17.7872 21.9046 17.7693 22.0937 17.7356 22.2753L21.6687 23.0042C21.7467 22.5832 21.7872 22.15 21.7872 21.709H17.7872ZM15.8196 18.9329C16.9094 19.2552 17.7872 20.3389 17.7872 21.709H21.7872C21.7872 18.6155 19.7896 15.9358 16.954 15.0971L15.8196 18.9329ZM27.2766 8C21.6794 8 16.8864 11.3542 14.5839 16.1493L18.1897 17.8808C19.8817 14.3571 23.3413 12 27.2766 12V8ZM41.2823 20.442C40.2486 13.4582 34.429 8 27.2766 8V12C32.2946 12 36.5593 15.8518 37.3255 21.0277L41.2823 20.442Z" fill="black"/>
</g>
<g id="Line">
<path d="M3.87234 44.097C6.93827 44.097 6.38991 45.0727 8.89961 45.0727C11.4093 45.0727 11.2658 44.097 13.9274 44.097C16.5891 44.097 16.9185 45.0727 18.955 45.0727C20.9915 45.0727 21.3702 44.097 23.9822 44.097C26.5942 44.097 26.3977 45.0727 29.0097 45.0727C31.6216 45.0727 31.4251 44.097 34.0371 44.097C36.6491 44.097 36.4526 45.0727 39.0646 45.0727C41.6766 45.0727 40.5439 44.097 44.092 44.097" fill="black"/>
<path d="M3.87234 44.097C6.93827 44.097 6.38991 45.0727 8.89961 45.0727C11.4093 45.0727 11.2658 44.097 13.9274 44.097C16.5891 44.097 16.9185 45.0727 18.955 45.0727C20.9915 45.0727 21.3702 44.097 23.9822 44.097C26.5942 44.097 26.3977 45.0727 29.0097 45.0727C31.6216 45.0727 31.4251 44.097 34.0371 44.097C36.6491 44.097 36.4526 45.0727 39.0646 45.0727C41.6766 45.0727 40.5439 44.097 44.092 44.097" stroke="white" stroke-linecap="square"/>
</g>
<g id="Line_2">
<path d="M3.87234 47.0242C6.93827 47.0242 6.38991 48 8.89961 48C11.4093 48 11.2658 47.0242 13.9274 47.0242C16.5891 47.0242 16.9185 48 18.955 48C20.9915 48 21.3702 47.0242 23.9822 47.0242C26.5942 47.0242 26.3977 48 29.0097 48C31.6216 48 31.4251 47.0242 34.0371 47.0242C36.6491 47.0242 36.4526 48 39.0646 48C41.6766 48 40.5439 47.0242 44.092 47.0242" fill="black"/>
<path d="M3.87234 47.0242C6.93827 47.0242 6.38991 48 8.89961 48C11.4093 48 11.2658 47.0242 13.9274 47.0242C16.5891 47.0242 16.9185 48 18.955 48C20.9915 48 21.3702 47.0242 23.9822 47.0242C26.5942 47.0242 26.3977 48 29.0097 48C31.6216 48 31.4251 47.0242 34.0371 47.0242C36.6491 47.0242 36.4526 48 39.0646 48C41.6766 48 40.5439 47.0242 44.092 47.0242" stroke="white" stroke-linecap="square"/>
</g>
</g>
</g>
</svg>
