<svg type="icon" width="48" height="40" viewBox="0 0 48 40" fill="none" xmlns="http://www.w3.org/2000/svg">
<g id="Rainy">
<rect id="Rectangle" width="48" height="40" fill="white"/>
<g id="Rainy_2">
<g id="Cloud">
<rect fill="white" x="0.0869446" y="0.105286" width="48" height="29"/>
<path fill-rule="evenodd" clip-rule="evenodd" d="M37.2761 26.6234C37.955 26.8682 38.6851 27.0013 39.4456 27.0013C43.0563 27.0013 45.9834 24.0003 45.9834 20.2985C45.9834 16.5967 43.0563 13.5958 39.4456 13.5958C36.152 13.5958 33.4273 16.0927 32.9741 19.3409H32.9078C32.9079 15.6879 35.7582 12.7175 39.303 12.6397C38.4052 6.67336 33.375 2.10529 27.304 2.10529C22.549 2.10529 18.4325 4.90767 16.4399 8.98937C18.398 9.55902 19.8323 11.4056 19.8323 13.5957C19.8323 13.908 19.8031 14.2134 19.7474 14.509C19.2852 11.8136 16.9901 9.7655 14.2285 9.7655C11.7857 9.7655 9.70804 11.3679 8.94091 13.6034C8.83614 13.5983 8.73071 13.5957 8.62471 13.5957C5.014 13.5957 2.08694 16.5967 2.08694 20.2985C2.08694 24.0003 5.014 27.0012 8.62471 27.0012C9.38517 27.0012 10.1153 26.8681 10.7942 26.6234C11.2965 26.8655 11.8599 27.0012 12.4549 27.0012H27.2681C27.2801 27.0012 27.2921 27.0012 27.304 27.0012C27.316 27.0012 27.328 27.0012 27.34 27.0012H35.6155C36.2105 27.0012 36.7738 26.8655 37.2761 26.6234Z"/>
<path d="M37.2761 26.6234L37.9545 24.7419L37.1644 24.4571L36.4079 24.8217L37.2761 26.6234ZM32.9741 19.3409V21.3409H34.7144L34.9549 19.6173L32.9741 19.3409ZM32.9078 19.3409L30.9078 19.3409L30.9078 21.3409H32.9078V19.3409ZM39.303 12.6397L39.3469 14.6393L41.619 14.5894L41.2808 12.3421L39.303 12.6397ZM16.4399 8.98937L14.6426 8.11198L13.6007 10.2463L15.8812 10.9098L16.4399 8.98937ZM19.7474 14.509L17.7762 14.8471L21.7129 14.8793L19.7474 14.509ZM8.94091 13.6034L8.84338 15.6011L10.3447 15.6744L10.8326 14.2526L8.94091 13.6034ZM10.7942 26.6234L11.6624 24.8217L10.9059 24.4571L10.1158 24.7419L10.7942 26.6234ZM27.2681 27.0012L27.2741 25.0012H27.2681V27.0012ZM27.34 27.0012L27.34 25.0012L27.3339 25.0012L27.34 27.0012ZM36.5978 28.5049C37.4906 28.8267 38.45 29.0013 39.4456 29.0013V25.0013C38.9202 25.0013 38.4194 24.9096 37.9545 24.7419L36.5978 28.5049ZM39.4456 29.0013C44.2076 29.0013 47.9834 25.0576 47.9834 20.2985H43.9834C43.9834 22.9431 41.905 25.0013 39.4456 25.0013V29.0013ZM47.9834 20.2985C47.9834 15.5394 44.2076 11.5958 39.4456 11.5958V15.5958C41.905 15.5958 43.9834 17.654 43.9834 20.2985H47.9834ZM39.4456 11.5958C35.1029 11.5958 31.5771 14.8798 30.9932 19.0645L34.9549 19.6173C35.2774 17.3055 37.2012 15.5958 39.4456 15.5958V11.5958ZM32.9741 17.3409H32.9078V21.3409H32.9741V17.3409ZM34.9078 19.3409C34.9079 16.732 36.9321 14.6922 39.3469 14.6393L39.2592 10.6402C34.5843 10.7428 30.9079 14.6438 30.9078 19.3409L34.9078 19.3409ZM41.2808 12.3421C40.2435 5.44903 34.4162 0.105286 27.304 0.105286V4.10529C32.3337 4.10529 36.5669 7.89769 37.3253 12.9374L41.2808 12.3421ZM27.304 0.105286C21.7361 0.105286 16.9487 3.38814 14.6426 8.11198L18.2371 9.86676C19.9163 6.4272 23.362 4.10529 27.304 4.10529V0.105286ZM15.8812 10.9098C16.9801 11.2294 17.8323 12.2896 17.8323 13.5957H21.8323C21.8323 10.5217 19.8159 7.8886 16.9985 7.06898L15.8812 10.9098ZM17.8323 13.5957C17.8323 13.7833 17.8148 13.9647 17.782 14.1388L21.7129 14.8793C21.7915 14.4621 21.8323 14.0328 21.8323 13.5957H17.8323ZM21.7187 14.171C21.1007 10.5676 18.0162 7.7655 14.2285 7.7655V11.7655C15.964 11.7655 17.4697 13.0596 17.7762 14.8471L21.7187 14.171ZM14.2285 7.7655C10.8793 7.7655 8.07634 9.96107 7.04919 12.9543L10.8326 14.2526C11.3397 12.7748 12.6922 11.7655 14.2285 11.7655V7.7655ZM9.03844 11.6058C8.90119 11.5991 8.76325 11.5957 8.62471 11.5957V15.5957C8.69818 15.5957 8.77108 15.5975 8.84338 15.6011L9.03844 11.6058ZM8.62471 11.5957C3.86273 11.5957 0.0869446 15.5394 0.0869446 20.2985H4.08694C4.08694 17.654 6.16527 15.5957 8.62471 15.5957V11.5957ZM0.0869446 20.2985C0.0869446 25.0576 3.86273 29.0012 8.62471 29.0012V25.0012C6.16527 25.0012 4.08694 22.943 4.08694 20.2985H0.0869446ZM8.62471 29.0012C9.62026 29.0012 10.5797 28.8267 11.4725 28.5048L10.1158 24.7419C9.65091 24.9095 9.15008 25.0012 8.62471 25.0012V29.0012ZM9.9259 28.4251C10.6933 28.7949 11.5528 29.0012 12.4549 29.0012V25.0012C12.1669 25.0012 11.8998 24.9361 11.6624 24.8217L9.9259 28.4251ZM12.4549 29.0012H27.2681V25.0012H12.4549V29.0012ZM27.262 29.0012C27.2761 29.0012 27.2902 29.0012 27.304 29.0012V25.0012C27.294 25.0012 27.284 25.0012 27.2741 25.0012L27.262 29.0012ZM27.304 29.0012C27.3179 29.0012 27.3319 29.0012 27.346 29.0012L27.3339 25.0012C27.3241 25.0012 27.3141 25.0012 27.304 25.0012V29.0012ZM27.34 29.0012H35.6155V25.0012H27.34V29.0012ZM35.6155 29.0012C36.5175 29.0012 37.377 28.7949 38.1444 28.4251L36.4079 24.8217C36.1705 24.9361 35.9034 25.0012 35.6155 25.0012V29.0012Z" fill="black"/>
</g>
<g id="Drops">
<path id="Drops_2" fill-rule="evenodd" clip-rule="evenodd" d="M12.9854 33.5337C13.1925 34.326 12.7448 34.9281 12.1802 35.0832C11.6157 35.2383 10.9084 34.8473 10.7272 34.154C10.608 33.6978 10.888 32.7643 11.0935 32.1791C11.1863 31.9147 11.5007 31.8229 11.7135 32.0002C12.1712 32.3814 12.8506 33.0178 12.9854 33.5337ZM24.8047 35.0832C25.3693 34.9281 25.817 34.326 25.6099 33.5337C25.4751 33.0178 24.7956 32.3814 24.338 32.0002C24.1252 31.8229 23.8108 31.9147 23.7179 32.1791C23.5125 32.7643 23.2325 33.6978 23.3517 34.154C23.5329 34.8473 24.2402 35.2383 24.8047 35.0832ZM18.2245 34.6248C18.6197 34.5162 18.9397 34.1203 18.8066 33.6109C18.7173 33.2692 18.2271 32.8531 17.9143 32.6164C17.7778 32.5131 17.586 32.5692 17.5215 32.7299C17.3696 33.1084 17.147 33.7434 17.2259 34.0452C17.3424 34.4909 17.8293 34.7334 18.2245 34.6248ZM34.1562 39.3922C34.7207 39.2371 35.1684 38.6349 34.9614 37.8426C34.8265 37.3267 34.1471 36.6904 33.6895 36.3092C33.4767 36.1319 33.1623 36.2237 33.0694 36.4881C32.864 37.0732 32.5839 38.0068 32.7032 38.463C32.8844 39.1562 33.5916 39.5473 34.1562 39.3922ZM16.4687 37.4411C16.6018 37.9504 16.2818 38.3464 15.8866 38.4549C15.4914 38.5635 15.0044 38.321 14.888 37.8753C14.8091 37.5735 15.0316 36.9385 15.1835 36.56C15.248 36.3993 15.4399 36.3433 15.5763 36.4465C15.8892 36.6833 16.3794 37.0993 16.4687 37.4411ZM28.3919 37.4411C28.525 37.9504 28.205 38.3464 27.8098 38.4549C27.4146 38.5635 26.9277 38.321 26.8112 37.8753C26.7323 37.5735 26.9549 36.9385 27.1067 36.56C27.1712 36.3993 27.3631 36.3433 27.4996 36.4465C27.8124 36.6833 28.3026 37.0993 28.3919 37.4411ZM22.5707 37.8426C22.7777 38.6349 22.33 39.2371 21.7655 39.3922C21.2009 39.5473 20.4937 39.1562 20.3125 38.463C20.1932 38.0068 20.4733 37.0732 20.6787 36.4881C20.7716 36.2237 21.086 36.1319 21.2988 36.3092C21.7564 36.6904 22.4358 37.3267 22.5707 37.8426ZM30.7298 33.6109C30.8629 34.1203 30.5428 34.5162 30.1476 34.6248C29.7525 34.7334 29.2655 34.4909 29.149 34.0452C29.0702 33.7434 29.2927 33.1084 29.4446 32.7299C29.5091 32.5692 29.701 32.5131 29.8374 32.6164C30.1502 32.8531 30.6405 33.2692 30.7298 33.6109ZM37.1954 35.0832C37.76 34.9281 38.2077 34.326 38.0006 33.5337C37.8658 33.0178 37.1864 32.3814 36.7287 32.0002C36.5159 31.8229 36.2015 31.9147 36.1087 32.1791C35.9032 32.7643 35.6232 33.6978 35.7424 34.154C35.9236 34.8473 36.6309 35.2383 37.1954 35.0832Z" fill="black"/>
</g>
</g>
</g>
</svg>
