<svg type="icon" width="48" height="48" viewBox="0 0 48 48" fill="none" xmlns="http://www.w3.org/2000/svg">
<g id="Group">
<rect id="Rectangle" width="48" height="48" fill="white"/>
<g id="Rainy">
<rect id="Rectangle_2" y="4" width="48" height="40" fill="white"/>
<g id="Rainy_2">
<g id="Cloud">
<rect fill="white" x="0.0869446" y="4.10529" width="48" height="29"/>
<path fill-rule="evenodd" clip-rule="evenodd" d="M37.2761 30.6234C37.955 30.8682 38.6851 31.0013 39.4456 31.0013C43.0563 31.0013 45.9834 28.0003 45.9834 24.2985C45.9834 20.5967 43.0563 17.5958 39.4456 17.5958C36.152 17.5958 33.4273 20.0927 32.9741 23.3409H32.9078C32.9079 19.6879 35.7582 16.7175 39.303 16.6397C38.4052 10.6734 33.375 6.10529 27.304 6.10529C22.549 6.10529 18.4325 8.90767 16.4399 12.9894C18.398 13.559 19.8323 15.4056 19.8323 17.5957C19.8323 17.908 19.8031 18.2134 19.7474 18.509C19.2852 15.8136 16.9901 13.7655 14.2285 13.7655C11.7857 13.7655 9.70804 15.3679 8.94091 17.6034C8.83614 17.5983 8.73071 17.5957 8.62471 17.5957C5.014 17.5957 2.08694 20.5967 2.08694 24.2985C2.08694 28.0003 5.014 31.0012 8.62471 31.0012C9.38517 31.0012 10.1153 30.8681 10.7942 30.6234C11.2965 30.8655 11.8599 31.0012 12.4549 31.0012H27.2681C27.2801 31.0012 27.2921 31.0012 27.304 31.0012C27.316 31.0012 27.328 31.0012 27.34 31.0012H35.6155C36.2105 31.0012 36.7738 30.8655 37.2761 30.6234Z"/>
<path d="M37.2761 30.6234L37.9544 28.7419L37.1644 28.4571L36.4079 28.8217L37.2761 30.6234ZM32.9741 23.3409V25.3409H34.7144L34.9549 23.6173L32.9741 23.3409ZM32.9078 23.3409L30.9078 23.3409L30.9078 25.3409H32.9078V23.3409ZM39.303 16.6397L39.3469 18.6393L41.6189 18.5894L41.2808 16.3421L39.303 16.6397ZM16.4399 12.9894L14.6426 12.112L13.6007 14.2463L15.8812 14.9098L16.4399 12.9894ZM19.7474 18.509L17.7762 18.8471L21.7129 18.8793L19.7474 18.509ZM8.94091 17.6034L8.84338 19.6011L10.3447 19.6744L10.8326 18.2526L8.94091 17.6034ZM10.7942 30.6234L11.6624 28.8217L10.9059 28.4571L10.1158 28.7419L10.7942 30.6234ZM27.2681 31.0012L27.2741 29.0012H27.2681V31.0012ZM27.34 31.0012V29.0012L27.3339 29.0012L27.34 31.0012ZM36.5978 32.5049C37.4906 32.8267 38.45 33.0013 39.4456 33.0013V29.0013C38.9202 29.0013 38.4194 28.9096 37.9544 28.7419L36.5978 32.5049ZM39.4456 33.0013C44.2076 33.0013 47.9834 29.0576 47.9834 24.2985H43.9834C43.9834 26.9431 41.905 29.0013 39.4456 29.0013V33.0013ZM47.9834 24.2985C47.9834 19.5394 44.2076 15.5958 39.4456 15.5958V19.5958C41.905 19.5958 43.9834 21.654 43.9834 24.2985H47.9834ZM39.4456 15.5958C35.1029 15.5958 31.5771 18.8798 30.9932 23.0645L34.9549 23.6173C35.2774 21.3055 37.2012 19.5958 39.4456 19.5958V15.5958ZM32.9741 21.3409H32.9078V25.3409H32.9741V21.3409ZM34.9078 23.3409C34.9079 20.732 36.9321 18.6922 39.3469 18.6393L39.2592 14.6402C34.5843 14.7428 30.9079 18.6438 30.9078 23.3409L34.9078 23.3409ZM41.2808 16.3421C40.2435 9.44903 34.4162 4.10529 27.304 4.10529V8.10529C32.3337 8.10529 36.5669 11.8977 37.3253 16.9374L41.2808 16.3421ZM27.304 4.10529C21.7361 4.10529 16.9487 7.38814 14.6426 12.112L18.2371 13.8668C19.9163 10.4272 23.362 8.10529 27.304 8.10529V4.10529ZM15.8812 14.9098C16.9801 15.2294 17.8323 16.2896 17.8323 17.5957H21.8323C21.8323 14.5217 19.8159 11.8886 16.9985 11.069L15.8812 14.9098ZM17.8323 17.5957C17.8323 17.7833 17.8148 17.9647 17.782 18.1388L21.7129 18.8793C21.7915 18.4621 21.8323 18.0328 21.8323 17.5957H17.8323ZM21.7187 18.171C21.1007 14.5676 18.0162 11.7655 14.2285 11.7655V15.7655C15.964 15.7655 17.4697 17.0596 17.7762 18.8471L21.7187 18.171ZM14.2285 11.7655C10.8793 11.7655 8.07634 13.9611 7.04919 16.9543L10.8326 18.2526C11.3397 16.7748 12.6922 15.7655 14.2285 15.7655V11.7655ZM9.03844 15.6058C8.90119 15.5991 8.76325 15.5957 8.62471 15.5957V19.5957C8.69818 19.5957 8.77108 19.5975 8.84338 19.6011L9.03844 15.6058ZM8.62471 15.5957C3.86273 15.5957 0.0869446 19.5394 0.0869446 24.2985H4.08694C4.08694 21.654 6.16527 19.5957 8.62471 19.5957V15.5957ZM0.0869446 24.2985C0.0869446 29.0576 3.86273 33.0012 8.62471 33.0012V29.0012C6.16527 29.0012 4.08694 26.943 4.08694 24.2985H0.0869446ZM8.62471 33.0012C9.62026 33.0012 10.5797 32.8267 11.4725 32.5048L10.1158 28.7419C9.65091 28.9095 9.15008 29.0012 8.62471 29.0012V33.0012ZM9.9259 32.4251C10.6933 32.7949 11.5528 33.0012 12.4549 33.0012V29.0012C12.1669 29.0012 11.8998 28.9361 11.6624 28.8217L9.9259 32.4251ZM12.4549 33.0012H27.2681V29.0012H12.4549V33.0012ZM27.262 33.0012C27.2761 33.0012 27.2902 33.0012 27.304 33.0012V29.0012C27.294 29.0012 27.284 29.0012 27.2741 29.0012L27.262 33.0012ZM27.304 33.0012C27.3179 33.0012 27.3319 33.0012 27.346 33.0012L27.3339 29.0012C27.3241 29.0012 27.3141 29.0012 27.304 29.0012V33.0012ZM27.34 33.0012H35.6155V29.0012H27.34V33.0012ZM35.6155 33.0012C36.5175 33.0012 37.377 32.7949 38.1444 32.4251L36.4079 28.8217C36.1705 28.9361 35.9034 29.0012 35.6155 29.0012V33.0012Z" fill="black" />
</g>
<g id="Drops">
<path id="Drops_2" fill-rule="evenodd" clip-rule="evenodd" d="M12.9854 37.5337C13.1925 38.326 12.7448 38.9281 12.1802 39.0832C11.6157 39.2383 10.9084 38.8473 10.7272 38.154C10.608 37.6978 10.888 36.7643 11.0935 36.1791C11.1863 35.9147 11.5007 35.8229 11.7135 36.0002C12.1712 36.3814 12.8506 37.0178 12.9854 37.5337ZM24.8047 39.0832C25.3693 38.9281 25.817 38.326 25.6099 37.5337C25.4751 37.0178 24.7956 36.3814 24.338 36.0002C24.1252 35.8229 23.8108 35.9147 23.7179 36.1791C23.5125 36.7643 23.2325 37.6978 23.3517 38.154C23.5329 38.8473 24.2402 39.2383 24.8047 39.0832ZM18.2245 38.6248C18.6197 38.5162 18.9397 38.1203 18.8066 37.6109C18.7173 37.2692 18.2271 36.8531 17.9143 36.6164C17.7778 36.5131 17.586 36.5692 17.5215 36.7299C17.3696 37.1084 17.147 37.7434 17.2259 38.0452C17.3424 38.4909 17.8293 38.7334 18.2245 38.6248ZM34.1562 43.3922C34.7207 43.2371 35.1684 42.6349 34.9614 41.8426C34.8265 41.3267 34.1471 40.6904 33.6895 40.3092C33.4767 40.1319 33.1623 40.2237 33.0694 40.4881C32.864 41.0732 32.5839 42.0068 32.7032 42.463C32.8844 43.1562 33.5916 43.5473 34.1562 43.3922ZM16.4687 41.4411C16.6018 41.9504 16.2818 42.3464 15.8866 42.4549C15.4914 42.5635 15.0044 42.321 14.888 41.8753C14.8091 41.5735 15.0316 40.9385 15.1835 40.56C15.248 40.3993 15.4399 40.3433 15.5763 40.4465C15.8892 40.6832 16.3794 41.0993 16.4687 41.4411ZM28.3919 41.4411C28.525 41.9504 28.205 42.3464 27.8098 42.4549C27.4146 42.5635 26.9277 42.321 26.8112 41.8753C26.7323 41.5735 26.9549 40.9385 27.1067 40.56C27.1712 40.3993 27.3631 40.3433 27.4996 40.4465C27.8124 40.6832 28.3026 41.0993 28.3919 41.4411ZM22.5707 41.8426C22.7777 42.6349 22.33 43.2371 21.7655 43.3922C21.2009 43.5473 20.4937 43.1562 20.3125 42.463C20.1932 42.0068 20.4733 41.0732 20.6787 40.4881C20.7716 40.2237 21.086 40.1319 21.2988 40.3092C21.7564 40.6904 22.4358 41.3267 22.5707 41.8426ZM30.7298 37.6109C30.8629 38.1203 30.5428 38.5162 30.1476 38.6248C29.7525 38.7334 29.2655 38.4909 29.149 38.0452C29.0702 37.7434 29.2927 37.1084 29.4446 36.7299C29.5091 36.5692 29.701 36.5131 29.8374 36.6164C30.1502 36.8531 30.6405 37.2692 30.7298 37.6109ZM37.1954 39.0832C37.76 38.9281 38.2077 38.326 38.0006 37.5337C37.8658 37.0178 37.1864 36.3814 36.7287 36.0002C36.5159 35.8229 36.2015 35.9147 36.1087 36.1791C35.9032 36.7643 35.6232 37.6978 35.7424 38.154C35.9236 38.8473 36.6309 39.2383 37.1954 39.0832Z" fill="black"/>
</g>
<g id="Drops_3">
<path id="Drops_2_2" fill-rule="evenodd" clip-rule="evenodd" d="M13.2867 40.6249C13.4938 41.4171 13.0461 42.0193 12.4816 42.1744C11.917 42.3295 11.2097 41.9385 11.0285 41.2452C10.9093 40.789 11.1893 39.8555 11.3948 39.2703C11.4876 39.0059 11.802 38.9141 12.0149 39.0914C12.4725 39.4726 13.1519 40.1089 13.2867 40.6249ZM25.106 42.1744C25.6706 42.0193 26.1183 41.4171 25.9112 40.6249C25.7764 40.1089 25.097 39.4726 24.6394 39.0914C24.4265 38.9141 24.1121 39.0059 24.0193 39.2703C23.8138 39.8555 23.5338 40.789 23.653 41.2452C23.8342 41.9385 24.5415 42.3295 25.106 42.1744ZM18.5258 41.716C18.921 41.6074 19.2411 41.2115 19.108 40.7021C19.0186 40.3603 18.5284 39.9443 18.2156 39.7076C18.0791 39.6043 17.8873 39.6604 17.8228 39.8211C17.6709 40.1996 17.4483 40.8346 17.5272 41.1364C17.6437 41.582 18.1306 41.8246 18.5258 41.716ZM34.4575 46.4834C35.0221 46.3283 35.4698 45.7261 35.2627 44.9338C35.1279 44.4179 34.4484 43.7816 33.9908 43.4004C33.778 43.2231 33.4636 43.3148 33.3707 43.5793C33.1653 44.1644 32.8853 45.098 33.0045 45.5542C33.1857 46.2474 33.893 46.6385 34.4575 46.4834ZM16.77 44.5323C16.9032 45.0416 16.5831 45.4376 16.1879 45.5461C15.7927 45.6547 15.3058 45.4122 15.1893 44.9665C15.1104 44.6647 15.333 44.0297 15.4849 43.6512C15.5494 43.4905 15.7412 43.4345 15.8777 43.5377C16.1905 43.7744 16.6807 44.1905 16.77 44.5323ZM28.6933 44.5323C28.8264 45.0416 28.5063 45.4376 28.1111 45.5461C27.7159 45.6547 27.229 45.4122 27.1125 44.9665C27.0336 44.6647 27.2562 44.0297 27.4081 43.6512C27.4726 43.4905 27.6644 43.4345 27.8009 43.5377C28.1137 43.7744 28.6039 44.1905 28.6933 44.5323ZM22.872 44.9338C23.0791 45.7261 22.6314 46.3283 22.0668 46.4834C21.5023 46.6385 20.795 46.2474 20.6138 45.5542C20.4946 45.098 20.7746 44.1644 20.98 43.5793C21.0729 43.3148 21.3873 43.2231 21.6001 43.4004C22.0577 43.7816 22.7372 44.4179 22.872 44.9338ZM31.0311 40.7021C31.1642 41.2115 30.8442 41.6074 30.449 41.716C30.0538 41.8246 29.5668 41.582 29.4504 41.1364C29.3715 40.8346 29.594 40.1996 29.7459 39.8211C29.8104 39.6604 30.0023 39.6043 30.1387 39.7076C30.4516 39.9443 30.9418 40.3603 31.0311 40.7021ZM37.4968 42.1744C38.0613 42.0193 38.509 41.4171 38.302 40.6249C38.1671 40.1089 37.4877 39.4726 37.0301 39.0914C36.8172 38.9141 36.5029 39.0059 36.41 39.2703C36.2045 39.8555 35.9245 40.789 36.0438 41.2452C36.2249 41.9385 36.9322 42.3295 37.4968 42.1744Z" fill="black"/>
</g>
</g>
</g>
</g>
</svg>
