<svg type="icon" width="55" height="38" viewBox="0 0 55 38" fill="none" xmlns="http://www.w3.org/2000/svg">
<rect fill="white" x="3.03339" y="8" width="51" height="30"/>
<path fill-rule="evenodd" clip-rule="evenodd" d="M44.8807 21.0016C41.0852 21.0828 38.0334 24.185 38.0334 28H38.1043C38.5895 24.6077 41.5069 22 45.0334 22C48.8994 22 52.0334 25.134 52.0334 29C52.0334 32.866 48.8994 36 45.0334 36C44.2315 36 43.4612 35.8652 42.7437 35.6169C42.2251 35.8626 41.6453 36 41.0334 36H32.0334H16.0334C15.4215 36 14.8416 35.8626 14.3231 35.6169C13.6056 35.8652 12.8353 36 12.0334 36C8.1674 36 5.03339 32.866 5.03339 29C5.03339 25.134 8.1674 22 12.0334 22C12.1469 22 12.2598 22.0027 12.372 22.008C13.1934 19.6735 15.4179 18 18.0334 18C20.9903 18 23.4476 20.1389 23.9425 22.9539C24.0022 22.6451 24.0334 22.3262 24.0334 22C24.0334 19.7128 22.4977 17.7843 20.4011 17.1894C22.5346 12.9267 26.9422 10 32.0334 10C38.5335 10 43.9194 14.7707 44.8807 21.0016Z"/>
<path d="M38.0334 28H36.0334V30H38.0334V28ZM44.8807 21.0016L44.9235 23.0012L47.2054 22.9524L46.8574 20.6967L44.8807 21.0016ZM38.1043 28V30H39.8386L40.0841 28.2832L38.1043 28ZM42.7437 35.6169L43.3976 33.7269L42.6257 33.4598L41.8875 33.8095L42.7437 35.6169ZM14.3231 35.6169L15.1793 33.8095L14.4411 33.4598L13.6692 33.7269L14.3231 35.6169ZM12.372 22.008L12.2768 24.0058L13.7643 24.0766L14.2586 22.6718L12.372 22.008ZM23.9425 22.9539L21.9727 23.3002L25.9062 23.3332L23.9425 22.9539ZM20.4011 17.1894L18.6126 16.2942L17.5316 18.4541L19.8551 19.1134L20.4011 17.1894ZM40.0334 28C40.0334 25.2753 42.2133 23.0592 44.9235 23.0012L44.838 19.0021C39.9572 19.1065 36.0334 23.0948 36.0334 28H40.0334ZM38.1043 26H38.0334V30H38.1043V26ZM45.0334 20C40.4976 20 36.7486 23.3534 36.1244 27.7168L40.0841 28.2832C40.4305 25.862 42.5162 24 45.0334 24V20ZM54.0334 29C54.0334 24.0294 50.004 20 45.0334 20V24C47.7948 24 50.0334 26.2386 50.0334 29H54.0334ZM45.0334 38C50.004 38 54.0334 33.9706 54.0334 29H50.0334C50.0334 31.7614 47.7948 34 45.0334 34V38ZM42.0898 37.507C43.0147 37.827 44.006 38 45.0334 38V34C44.4571 34 43.9076 33.9033 43.3976 33.7269L42.0898 37.507ZM41.0334 38C41.9476 38 42.8194 37.7942 43.5999 37.4244L41.8875 33.8095C41.6309 33.931 41.343 34 41.0334 34V38ZM32.0334 38H41.0334V34H32.0334V38ZM16.0334 38H32.0334V34H16.0334V38ZM13.4669 37.4244C14.2474 37.7942 15.1192 38 16.0334 38V34C15.7238 34 15.4359 33.931 15.1793 33.8095L13.4669 37.4244ZM12.0334 38C13.0608 38 14.0521 37.827 14.977 37.507L13.6692 33.7269C13.1592 33.9033 12.6097 34 12.0334 34V38ZM3.03339 29C3.03339 33.9706 7.06283 38 12.0334 38V34C9.27197 34 7.03339 31.7614 7.03339 29H3.03339ZM12.0334 20C7.06283 20 3.03339 24.0294 3.03339 29H7.03339C7.03339 26.2386 9.27197 24 12.0334 24V20ZM12.4671 20.0103C12.3232 20.0035 12.1786 20 12.0334 20V24C12.1152 24 12.1963 24.0019 12.2768 24.0058L12.4671 20.0103ZM18.0334 16C14.543 16 11.5796 18.2341 10.4853 21.3443L14.2586 22.6718C14.8071 21.1128 16.2929 20 18.0334 20V16ZM25.9123 22.6075C25.2521 18.8528 21.978 16 18.0334 16V20C20.0026 20 21.643 21.4249 21.9727 23.3002L25.9123 22.6075ZM22.0334 22C22.0334 22.1982 22.0144 22.3901 21.9788 22.5746L25.9062 23.3332C25.9899 22.9001 26.0334 22.4542 26.0334 22H22.0334ZM19.8551 19.1134C21.1141 19.4707 22.0334 20.6306 22.0334 22H26.0334C26.0334 18.795 23.8812 16.0979 20.947 15.2653L19.8551 19.1134ZM32.0334 8C26.156 8 21.0719 11.3806 18.6126 16.2942L22.1896 18.0845C23.9973 14.4727 27.7284 12 32.0334 12V8ZM46.8574 20.6967C45.7479 13.5054 39.5354 8 32.0334 8V12C37.5317 12 42.091 16.0359 42.9041 21.3066L46.8574 20.6967Z" fill="black" mask="url(#path-1-outside-1)"/>
<path fill-rule="evenodd" clip-rule="evenodd" d="M8.3679 21.1394C8.45472 21.1076 8.54353 21.0811 8.63383 21.0603L9.9803 20.75L10.3203 20.6978C10.1331 19.9967 10.0334 19.26 10.0334 18.5C10.0334 13.8056 13.839 10 18.5334 10C20.3011 10 21.9427 10.5396 23.3026 11.463L25.0727 10.2844C23.2787 8.85456 21.0058 8 18.5334 8C12.7344 8 8.03339 12.701 8.03339 18.5C8.03339 19.4116 8.14956 20.296 8.3679 21.1394Z" fill="black"/>
<path fill-rule="evenodd" clip-rule="evenodd" d="M19.0334 0C18.4811 0 18.0334 0.447715 18.0334 1V4C18.0334 4.55228 18.4811 5 19.0334 5C19.5857 5 20.0334 4.55228 20.0334 4V1C20.0334 0.447715 19.5857 0 19.0334 0ZM28.5435 2.54822C28.0652 2.27208 27.4536 2.43596 27.1775 2.91425L25.6775 5.51233C25.4013 5.99062 25.5652 6.60221 26.0435 6.87835C26.5218 7.15449 27.1334 6.99062 27.4095 6.51233L28.9095 3.91425C29.1857 3.43596 29.0218 2.82437 28.5435 2.54822ZM1.01318 20.0202C0.460899 20.0202 0.0131836 19.5725 0.0131836 19.0202C0.0131836 18.4679 0.460899 18.0202 1.01318 18.0202H4.01318C4.56547 18.0202 5.01318 18.4679 5.01318 19.0202C5.01318 19.5725 4.56547 20.0202 4.01318 20.0202H1.01318ZM2.56141 9.51011C2.28527 9.9884 2.44914 10.6 2.92743 10.8761L5.52551 12.3761C6.0038 12.6523 6.61539 12.4884 6.89154 12.0101C7.16768 11.5318 7.0038 10.9202 6.52551 10.6441L3.92743 9.14408C3.44914 8.86794 2.83755 9.03181 2.56141 9.51011ZM9.15726 3.91425C8.88112 3.43596 9.045 2.82437 9.52329 2.54822C10.0016 2.27208 10.6132 2.43596 10.8893 2.91425L12.3893 5.51233C12.6655 5.99062 12.5016 6.60221 12.0233 6.87835C11.545 7.15449 10.9334 6.99062 10.6573 6.51233L9.15726 3.91425Z" fill="black"/>
</svg>
