<svg type="icon" width="39" height="39" viewBox="0 0 39 39" fill="none" xmlns="http://www.w3.org/2000/svg">
<path d="M19.0334 29C24.5562 29 29.0334 24.5228 29.0334 19C29.0334 13.4772 24.5562 9 19.0334 9C13.5105 9 9.03339 13.4772 9.03339 19C9.03339 24.5228 13.5105 29 19.0334 29Z" stroke="black" stroke-width="2"/>
<path fill-rule="evenodd" clip-rule="evenodd" d="M18.0334 1C18.0334 0.447715 18.4811 0 19.0334 0C19.5857 0 20.0334 0.447715 20.0334 1V4C20.0334 4.55228 19.5857 5 19.0334 5C18.4811 5 18.0334 4.55228 18.0334 4V1ZM27.1775 2.91425C27.4536 2.43596 28.0652 2.27208 28.5435 2.54822C29.0218 2.82437 29.1857 3.43596 28.9095 3.91425L27.4095 6.51233C27.1334 6.99062 26.5218 7.15449 26.0435 6.87835C25.5652 6.60221 25.4013 5.99062 25.6775 5.51233L27.1775 2.91425ZM35.5054 9.5101C35.2292 9.03181 34.6176 8.86794 34.1394 9.14408L31.5413 10.6441C31.063 10.9202 30.8991 11.5318 31.1753 12.0101C31.4514 12.4884 32.063 12.6523 32.5413 12.3761L35.1394 10.8761C35.6176 10.6 35.7815 9.9884 35.5054 9.5101ZM37.0536 18.0202C37.6059 18.0202 38.0536 18.4679 38.0536 19.0202C38.0536 19.5725 37.6059 20.0202 37.0536 20.0202H34.0536C33.5013 20.0202 33.0536 19.5725 33.0536 19.0202C33.0536 18.4679 33.5013 18.0202 34.0536 18.0202H37.0536ZM35.5054 28.5303C35.7815 28.052 35.6176 27.4404 35.1394 27.1643L32.5413 25.6643C32.063 25.3881 31.4514 25.552 31.1753 26.0303C30.8991 26.5086 31.063 27.1202 31.5413 27.3963L34.1394 28.8963C34.6176 29.1725 35.2292 29.0086 35.5054 28.5303ZM28.9095 34.1262C29.1857 34.6045 29.0218 35.2161 28.5435 35.4922C28.0652 35.7683 27.4536 35.6045 27.1775 35.1262L25.6775 32.5281C25.4013 32.0498 25.5652 31.4382 26.0435 31.1621C26.5218 30.8859 27.1334 31.0498 27.4095 31.5281L28.9095 34.1262ZM19.0334 38.0404C19.5857 38.0404 20.0334 37.5927 20.0334 37.0404V34.0404C20.0334 33.4881 19.5857 33.0404 19.0334 33.0404C18.4811 33.0404 18.0334 33.4881 18.0334 34.0404V37.0404C18.0334 37.5927 18.4811 38.0404 19.0334 38.0404ZM10.8893 35.1262C10.6132 35.6045 10.0016 35.7683 9.52329 35.4922C9.045 35.2161 8.88112 34.6045 9.15726 34.1262L10.6573 31.5281C10.9334 31.0498 11.545 30.8859 12.0233 31.1621C12.5016 31.4382 12.6655 32.0498 12.3893 32.5281L10.8893 35.1262ZM2.56141 28.5303C2.83755 29.0086 3.44914 29.1725 3.92743 28.8963L6.52551 27.3963C7.0038 27.1202 7.16768 26.5086 6.89154 26.0303C6.61539 25.552 6.0038 25.3881 5.52551 25.6643L2.92743 27.1643C2.44914 27.4404 2.28527 28.052 2.56141 28.5303ZM1.01318 20.0202C0.460899 20.0202 0.0131836 19.5725 0.0131836 19.0202C0.0131836 18.4679 0.460899 18.0202 1.01318 18.0202H4.01318C4.56547 18.0202 5.01318 18.4679 5.01318 19.0202C5.01318 19.5725 4.56547 20.0202 4.01318 20.0202H1.01318ZM2.56141 9.51011C2.28527 9.9884 2.44914 10.6 2.92743 10.8761L5.52551 12.3761C6.0038 12.6523 6.61539 12.4884 6.89154 12.0101C7.16768 11.5318 7.0038 10.9202 6.52551 10.6441L3.92743 9.14408C3.44914 8.86794 2.83755 9.03181 2.56141 9.51011ZM9.15726 3.91425C8.88112 3.43596 9.045 2.82437 9.52329 2.54822C10.0016 2.27208 10.6132 2.43596 10.8893 2.91425L12.3893 5.51233C12.6655 5.99062 12.5016 6.60221 12.0233 6.87835C11.545 7.15449 10.9334 6.99062 10.6573 6.51233L9.15726 3.91425Z" fill="black"/>
</svg>
