<svg type="icon" width="53" height="42" viewBox="0 0 53 42" fill="none" xmlns="http://www.w3.org/2000/svg">
<rect fill="white" width="53" height="31"/>
<path fill-rule="evenodd" clip-rule="evenodd" d="M42.8946 13.2908C38.9994 13.3741 35.8673 16.5578 35.8673 20.4731H35.9401C36.4381 16.9916 39.4321 14.3154 43.0513 14.3154C47.0189 14.3154 50.2353 17.5318 50.2353 21.4994C50.2353 25.467 47.0189 28.6833 43.0513 28.6833C42.2284 28.6833 41.4377 28.545 40.7014 28.2902C40.1692 28.5423 39.5742 28.6833 38.9462 28.6833H29.7096H13.2891C12.6611 28.6833 12.066 28.5423 11.5338 28.2902C10.7975 28.545 10.0069 28.6833 9.18398 28.6833C5.21638 28.6833 2 25.467 2 21.4994C2 17.5318 5.21638 14.3154 9.18398 14.3154C9.30047 14.3154 9.41631 14.3182 9.53145 14.3236C10.3744 11.9277 12.6575 10.2103 15.3417 10.2103C18.3763 10.2103 20.8981 12.4054 21.4061 15.2943C21.4673 14.9774 21.4994 14.6502 21.4994 14.3154C21.4994 11.9681 19.9233 9.98886 17.7716 9.37831C19.9611 5.00357 24.4846 2 29.7096 2C36.3806 2 41.9081 6.89604 42.8946 13.2908Z"/>
<path d="M35.8673 20.4731H33.8673V22.4731H35.8673V20.4731ZM42.8946 13.2908L42.9374 15.2903L45.2193 15.2415L44.8713 12.9858L42.8946 13.2908ZM35.9401 20.4731V22.4731H37.6743L37.9199 20.7563L35.9401 20.4731ZM40.7014 28.2902L41.3553 26.4001L40.5834 26.1331L39.8452 26.4828L40.7014 28.2902ZM11.5338 28.2902L12.39 26.4828L11.6518 26.1331L10.8799 26.4001L11.5338 28.2902ZM9.53145 14.3236L9.43632 16.3214L10.9238 16.3922L11.4181 14.9874L9.53145 14.3236ZM21.4061 15.2943L19.4363 15.6407L23.3698 15.6737L21.4061 15.2943ZM17.7716 9.37831L15.9831 8.48317L14.9021 10.643L17.2256 11.3024L17.7716 9.37831ZM37.8673 20.4731C37.8673 17.6481 40.1275 15.3504 42.9374 15.2903L42.8519 11.2912C37.8713 11.3978 33.8673 15.4676 33.8673 20.4731H37.8673ZM35.9401 18.4731H35.8673V22.4731H35.9401V18.4731ZM43.0513 12.3154C38.4229 12.3154 34.5971 15.7374 33.9602 20.1899L37.9199 20.7563C38.279 18.2459 40.4414 16.3154 43.0513 16.3154V12.3154ZM52.2353 21.4994C52.2353 16.4272 48.1235 12.3154 43.0513 12.3154V16.3154C45.9143 16.3154 48.2353 18.6363 48.2353 21.4994H52.2353ZM43.0513 30.6833C48.1235 30.6833 52.2353 26.5715 52.2353 21.4994H48.2353C48.2353 24.3624 45.9143 26.6833 43.0513 26.6833V30.6833ZM40.0475 30.1803C40.9913 30.5068 42.0028 30.6833 43.0513 30.6833V26.6833C42.4539 26.6833 41.8841 26.5831 41.3553 26.4001L40.0475 30.1803ZM38.9462 30.6833C39.8765 30.6833 40.7634 30.4739 41.5576 30.0977L39.8452 26.4828C39.575 26.6108 39.2719 26.6833 38.9462 26.6833V30.6833ZM29.7096 30.6833H38.9462V26.6833H29.7096V30.6833ZM13.2891 30.6833H29.7096V26.6833H13.2891V30.6833ZM10.6776 30.0977C11.4718 30.4739 12.3588 30.6833 13.2891 30.6833V26.6833C12.9634 26.6833 12.6602 26.6108 12.39 26.4828L10.6776 30.0977ZM9.18398 30.6833C10.2325 30.6833 11.244 30.5068 12.1878 30.1803L10.8799 26.4001C10.3511 26.5831 9.78136 26.6833 9.18398 26.6833V30.6833ZM0 21.4994C0 26.5715 4.11181 30.6833 9.18398 30.6833V26.6833C6.32094 26.6833 4 24.3624 4 21.4994H0ZM9.18398 12.3154C4.11181 12.3154 0 16.4272 0 21.4994H4C4 18.6363 6.32094 16.3154 9.18398 16.3154V12.3154ZM9.62658 12.3259C9.47978 12.3189 9.33222 12.3154 9.18398 12.3154V16.3154C9.26872 16.3154 9.35285 16.3174 9.43632 16.3214L9.62658 12.3259ZM15.3417 8.21026C11.7825 8.21026 8.76066 10.4884 7.64482 13.6599L11.4181 14.9874C11.9882 13.367 13.5324 12.2103 15.3417 12.2103V8.21026ZM23.3759 14.948C22.7027 11.1193 19.3639 8.21026 15.3417 8.21026V12.2103C17.3886 12.2103 19.0936 13.6914 19.4363 15.6407L23.3759 14.948ZM19.4994 14.3154C19.4994 14.5222 19.4796 14.7225 19.4424 14.915L23.3698 15.6737C23.455 15.2324 23.4994 14.7781 23.4994 14.3154H19.4994ZM17.2256 11.3024C18.5398 11.6752 19.4994 12.8858 19.4994 14.3154H23.4994C23.4994 11.0503 21.3068 8.30248 18.3175 7.45427L17.2256 11.3024ZM29.7096 0C23.6984 0 18.4984 3.45751 15.9831 8.48317L19.5601 10.2735C21.4239 6.54964 25.2708 4 29.7096 4V0ZM44.8713 12.9858C43.7365 5.63074 37.3825 0 29.7096 0V4C35.3787 4 40.0796 8.16133 40.918 13.5957L44.8713 12.9858Z" fill="black" mask="url(#path-1-outside-1)"/>
<path fill-rule="evenodd" clip-rule="evenodd" d="M13.9757 35.6847C14.2032 36.5339 13.7113 37.1793 13.0909 37.3455C12.4706 37.5118 11.6934 37.0927 11.4943 36.3496C11.3595 35.8466 11.6891 34.802 11.916 34.1797C12.0102 33.9214 12.3196 33.8332 12.5339 34.0055C13.036 34.4091 13.8231 35.1153 13.9757 35.6847ZM26.9633 37.3455C27.5836 37.1793 28.0756 36.5339 27.848 35.6847C27.6955 35.1153 26.9084 34.4091 26.4063 34.0055C26.192 33.8332 25.8826 33.9214 25.7884 34.1797C25.5614 34.802 25.2318 35.8466 25.3666 36.3496C25.5657 37.0927 26.3429 37.5118 26.9633 37.3455ZM19.7326 36.8542C20.1669 36.7379 20.5186 36.3135 20.3723 35.7676C20.2715 35.3914 19.7063 34.9313 19.3645 34.6816C19.2274 34.5815 19.0383 34.6352 18.9731 34.7919C18.8063 35.193 18.5464 35.901 18.6353 36.233C18.7633 36.7107 19.2984 36.9706 19.7326 36.8542ZM37.2391 41.9638C37.8594 41.7976 38.3514 41.1522 38.1238 40.303C37.9713 39.7336 37.1842 39.0273 36.682 38.6238C36.4678 38.4515 36.1584 38.5397 36.0642 38.798C35.8372 39.4203 35.5076 40.4649 35.6424 40.9679C35.8415 41.7109 36.6187 42.13 37.2391 41.9638ZM17.8034 39.8727C17.9496 40.4186 17.5979 40.843 17.1637 40.9594C16.7294 41.0757 16.1944 40.8158 16.0664 40.3381C15.9774 40.0062 16.2373 39.2981 16.4041 38.8971C16.4693 38.7404 16.6585 38.6866 16.7955 38.7867C17.1373 39.0365 17.7026 39.4965 17.8034 39.8727ZM30.905 39.8727C31.0513 40.4186 30.6996 40.843 30.2653 40.9594C29.8311 41.0757 29.296 40.8158 29.168 40.3381C29.0791 40.0062 29.339 39.2981 29.5058 38.8971C29.571 38.7404 29.7601 38.6866 29.8972 38.7867C30.239 39.0365 30.8042 39.4965 30.905 39.8727ZM24.5084 40.303C24.7359 41.1522 24.244 41.7976 23.6236 41.9638C23.0033 42.13 22.2261 41.7109 22.027 40.9679C21.8922 40.4649 22.2218 39.4203 22.4487 38.798C22.5429 38.5397 22.8523 38.4515 23.0666 38.6238C23.5687 39.0273 24.3558 39.7336 24.5084 40.303ZM33.474 35.7676C33.6202 36.3135 33.2685 36.7379 32.8343 36.8542C32.4 36.9706 31.865 36.7107 31.737 36.233C31.648 35.901 31.9079 35.193 32.0747 34.7919C32.1399 34.6352 32.3291 34.5815 32.4661 34.6816C32.8079 34.9313 33.3732 35.3914 33.474 35.7676ZM40.5787 37.3455C41.1991 37.1793 41.691 36.5339 41.4635 35.6847C41.3109 35.1153 40.5238 34.4091 40.0217 34.0055C39.8074 33.8332 39.498 33.9214 39.4038 34.1797C39.1768 34.802 38.8473 35.8466 38.9821 36.3496C39.1812 37.0927 39.9584 37.5118 40.5787 37.3455Z" fill="black"/>
</svg>
