<svg type="icon" width="27" height="26" viewBox="0 0 27 26" fill="none" xmlns="http://www.w3.org/2000/svg">
<path fill-rule="evenodd" clip-rule="evenodd" d="M13.5548 2.16667C7.27262 2.16667 2.17985 7.01692 2.17985 13C2.17985 17.5895 5.17809 21.5129 9.40948 23.0914C9.31008 22.2343 9.22019 20.9161 9.44892 19.9803C9.65564 19.1348 10.7828 14.5955 10.7828 14.5955C10.7828 14.5955 10.4425 13.9465 10.4425 12.9871C10.4425 11.4807 11.3593 10.3561 12.5008 10.3561C13.4713 10.3561 13.94 11.05 13.94 11.8821C13.94 12.8116 13.3186 14.2013 12.998 15.4891C12.73 16.5674 13.5657 17.4467 14.6824 17.4467C16.7041 17.4467 18.2582 15.4165 18.2582 12.4859C18.2582 9.89202 16.3012 8.07848 13.5068 8.07848C10.2702 8.07848 8.37047 10.3904 8.37047 12.7798C8.37047 13.7109 8.74708 14.7093 9.21702 15.2521C9.30989 15.3594 9.3236 15.4533 9.29591 15.5628C9.20956 15.905 9.01767 16.6408 8.98 16.7914C8.93039 16.9897 8.81514 17.0318 8.59957 16.9363C7.17891 16.3065 6.29067 14.3283 6.29067 12.7394C6.29067 9.32199 8.89776 6.18368 13.8066 6.18368C17.7524 6.18368 20.819 8.86164 20.819 12.4405C20.819 16.1741 18.3472 19.1788 14.9164 19.1788C13.7638 19.1788 12.6802 18.6085 12.3093 17.9348C12.3093 17.9348 11.7389 20.0033 11.6006 20.5101C11.3438 21.4511 10.6505 22.6306 10.1868 23.3502C11.2511 23.664 12.3822 23.8332 13.5548 23.8332C19.8371 23.8332 24.9298 18.983 24.9298 13C24.9298 7.01692 19.8371 2.16667 13.5548 2.16667" fill="#C1C7D0"/>
</svg>
