<svg type="icon" width="24" height="24" viewBox="0 0 24 24" fill="none" xmlns="http://www.w3.org/2000/svg">
<path id="Fill 1" fill-rule="evenodd" clip-rule="evenodd" d="M12.1798 0.166656C5.55244 0.166656 0.179848 5.53927 0.179848 12.1667C0.179848 17.2505 3.34283 21.5964 7.80671 23.3449C7.70185 22.3955 7.60703 20.9353 7.84832 19.8988C8.0664 18.9623 9.25546 13.934 9.25546 13.934C9.25546 13.934 8.89652 13.2152 8.89652 12.1524C8.89652 10.4838 9.86366 9.23807 11.0679 9.23807C12.0917 9.23807 12.5862 10.0067 12.5862 10.9284C12.5862 11.958 11.9306 13.4974 11.5924 14.9239C11.3096 16.1183 12.1913 17.0923 13.3693 17.0923C15.5021 17.0923 17.1416 14.8434 17.1416 11.5972C17.1416 8.72401 15.0771 6.71515 12.1291 6.71515C8.71473 6.71515 6.71061 9.27604 6.71061 11.9228C6.71061 12.9542 7.10791 14.0601 7.60368 14.6613C7.70165 14.7802 7.71611 14.8842 7.6869 15.0055C7.59581 15.3845 7.39337 16.1996 7.35363 16.3664C7.3013 16.5861 7.17972 16.6327 6.9523 16.5269C5.45358 15.8293 4.51654 13.638 4.51654 11.878C4.51654 8.09259 7.26687 4.61629 12.4454 4.61629C16.6081 4.61629 19.8432 7.58265 19.8432 11.5469C19.8432 15.6826 17.2356 19.0109 13.6162 19.0109C12.4002 19.0109 11.2571 18.3792 10.8658 17.633C10.8658 17.633 10.2641 19.9242 10.1182 20.4857C9.84733 21.528 9.11597 22.8345 8.62679 23.6315C9.74955 23.9792 10.9427 24.1667 12.1798 24.1667C18.8073 24.1667 24.1798 18.794 24.1798 12.1667C24.1798 5.53927 18.8073 0.166656 12.1798 0.166656" fill="#C1C7D0"/>
</svg>
