<svg type="icon" width="27" height="26" viewBox="0 0 27 26" fill="none" xmlns="http://www.w3.org/2000/svg">
<path fill-rule="evenodd" clip-rule="evenodd" d="M4.90047 4.88722C5.44259 4.34512 5.98627 4.01128 6.62746 3.76246C7.24758 3.52144 7.95585 3.35686 8.99407 3.30928C10.0339 3.26092 10.3654 3.25 13.0144 3.25C15.6626 3.25 15.9949 3.2617 17.0339 3.30928C18.0713 3.35608 18.7796 3.52144 19.4005 3.76246C20.0409 4.01128 20.5846 4.34512 21.1267 4.88722C21.6688 5.42932 22.0019 5.97298 22.2515 6.61414C22.4925 7.23424 22.6571 7.94248 22.7047 8.98066C22.7523 10.0196 22.7632 10.3527 22.7632 13C22.7632 15.6473 22.7523 15.9788 22.7047 17.0193C22.6579 18.0575 22.4925 18.7658 22.2515 19.3859C22.0019 20.027 21.6688 20.5707 21.1267 21.1128C20.5846 21.6549 20.0409 21.9879 19.3997 22.2375C18.7796 22.4786 18.0713 22.6431 17.0331 22.6907C15.9941 22.7391 15.6626 22.75 13.0136 22.75C10.3661 22.75 10.0346 22.7383 8.99407 22.6907C7.95585 22.6431 7.24836 22.4786 6.62746 22.2375C5.98549 21.9879 5.44259 21.6549 4.90047 21.1128C4.35757 20.5715 4.02449 20.027 3.77566 19.3859C3.53463 18.7658 3.37005 18.0575 3.32247 17.0193C3.2741 15.9804 3.26318 15.6481 3.26318 13C3.26318 10.3519 3.2741 10.0196 3.32169 8.97988C3.36927 7.9417 3.53385 7.23346 3.77488 6.61336C4.02371 5.97142 4.35757 5.42854 4.90047 4.88722ZM9.07442 20.9365C8.12356 20.8928 7.60718 20.7353 7.26396 20.6011C6.80843 20.424 6.48393 20.2127 6.14228 19.8718C5.8014 19.5309 5.58924 19.2065 5.41295 18.7509C5.27878 18.4077 5.12044 17.8906 5.07754 16.9406C5.02995 15.9125 5.02059 15.6044 5.02059 13.0008C5.02059 10.3971 5.03073 10.089 5.07754 9.061C5.12122 8.11018 5.27956 7.5946 5.41295 7.25062C5.59002 6.7951 5.8014 6.47062 6.14228 6.12898C6.48315 5.78812 6.80765 5.57596 7.26396 5.39968C7.60718 5.26552 8.12434 5.10718 9.07442 5.06428C10.1025 5.0167 10.4106 5.00734 13.0136 5.00734C15.6173 5.00734 15.9254 5.01748 16.9535 5.06428C17.9044 5.10796 18.42 5.2663 18.764 5.39968C19.2195 5.57596 19.544 5.78812 19.8856 6.12898C20.2265 6.46984 20.4379 6.7951 20.615 7.25062C20.7491 7.59382 20.9075 8.11096 20.9504 9.061C20.998 10.0898 21.0073 10.3971 21.0073 13.0008C21.0073 15.6036 20.998 15.9125 20.9504 16.9406C20.9067 17.8914 20.7484 18.4077 20.615 18.7509C20.4379 19.2065 20.2265 19.5309 19.8856 19.8718C19.5448 20.2127 19.2195 20.424 18.764 20.6011C18.4208 20.7353 17.9036 20.8936 16.9535 20.9365C15.9254 20.9841 15.6173 20.9934 13.0136 20.9934C10.4106 20.9927 10.1017 20.9833 9.07442 20.9365ZM18.2187 8.96507C17.5721 8.96507 17.0487 8.4409 17.0487 7.79506C17.0487 7.14922 17.5721 6.62584 18.2187 6.62584C18.8654 6.62584 19.3888 7.14922 19.3888 7.79506C19.3888 8.4409 18.8646 8.96507 18.2187 8.96507ZM8.00655 13C8.00655 15.7651 10.2484 18.0068 13.0136 18.0068C15.7788 18.0068 18.0206 15.7651 18.0206 13C18.0206 10.2349 15.7788 7.99318 13.0136 7.99318C10.2484 7.99318 8.00655 10.2349 8.00655 13ZM9.76396 13C9.76396 11.2052 11.2187 9.74974 13.0136 9.74974C14.8084 9.74974 16.264 11.2052 16.264 13C16.264 14.7948 14.8084 16.2503 13.0136 16.2503C11.2187 16.2503 9.76396 14.7948 9.76396 13Z" fill="#C1C7D0"/>
</svg>
