<svg type="element" width="304" height="22" viewBox="0 0 304 22" fill="none" xmlns="http://www.w3.org/2000/svg">
<path d="M38.6565 10H264.912" stroke="#AEACB2" stroke-width="2"/>
<path d="M278.982 9.35742C278.982 9.99544 278.802 10.5173 278.442 10.9229C278.086 11.3285 277.581 11.5996 276.924 11.7363V11.791C277.726 11.8913 278.321 12.1465 278.708 12.5566C279.096 12.9668 279.289 13.5046 279.289 14.1699C279.289 15.1224 278.959 15.8561 278.298 16.3711C277.637 16.8815 276.699 17.1367 275.482 17.1367C274.953 17.1367 274.468 17.0957 274.026 17.0137C273.588 16.9362 273.162 16.7972 272.747 16.5967V15.5166C273.18 15.7308 273.641 15.8949 274.128 16.0088C274.621 16.1182 275.085 16.1729 275.523 16.1729C277.25 16.1729 278.114 15.4961 278.114 14.1426C278.114 12.9303 277.161 12.3242 275.256 12.3242H274.272V11.3467H275.27C276.049 11.3467 276.667 11.1758 277.122 10.834C277.578 10.4876 277.806 10.0091 277.806 9.39844C277.806 8.91081 277.637 8.52799 277.3 8.25C276.968 7.97201 276.514 7.83301 275.94 7.83301C275.502 7.83301 275.09 7.89225 274.703 8.01074C274.315 8.12923 273.873 8.34798 273.376 8.66699L272.802 7.90137C273.212 7.5778 273.684 7.32487 274.217 7.14258C274.755 6.95573 275.32 6.8623 275.913 6.8623C276.883 6.8623 277.637 7.08561 278.175 7.53223C278.713 7.97428 278.982 8.58268 278.982 9.35742ZM281.156 16.2754C281.156 15.9701 281.224 15.7399 281.361 15.585C281.502 15.4255 281.703 15.3457 281.962 15.3457C282.227 15.3457 282.432 15.4255 282.578 15.585C282.728 15.7399 282.803 15.9701 282.803 16.2754C282.803 16.5716 282.728 16.7995 282.578 16.959C282.427 17.1185 282.222 17.1982 281.962 17.1982C281.73 17.1982 281.536 17.1276 281.381 16.9863C281.231 16.8405 281.156 16.6035 281.156 16.2754ZM281.156 10.2393C281.156 9.62402 281.425 9.31641 281.962 9.31641C282.523 9.31641 282.803 9.62402 282.803 10.2393C282.803 10.5355 282.728 10.7633 282.578 10.9229C282.427 11.0824 282.222 11.1621 281.962 11.1621C281.73 11.1621 281.536 11.0915 281.381 10.9502C281.231 10.8044 281.156 10.5674 281.156 10.2393ZM291.574 14.7031H290.09V17H289.003V14.7031H284.143V13.7119L288.887 6.95117H290.09V13.6709H291.574V14.7031ZM289.003 13.6709V10.3486C289.003 9.69694 289.026 8.96094 289.072 8.14062H289.017C288.798 8.57812 288.593 8.94043 288.402 9.22754L285.278 13.6709H289.003ZM292.661 12.7275C292.661 10.7633 293.041 9.2959 293.802 8.3252C294.568 7.34993 295.698 6.8623 297.193 6.8623C297.708 6.8623 298.113 6.9056 298.41 6.99219V7.96973C298.059 7.85579 297.658 7.79883 297.206 7.79883C296.136 7.79883 295.317 8.13379 294.752 8.80371C294.187 9.46908 293.877 10.5173 293.823 11.9482H293.905C294.406 11.1644 295.199 10.7725 296.284 10.7725C297.181 10.7725 297.888 11.0436 298.403 11.5859C298.922 12.1283 299.182 12.8643 299.182 13.7939C299.182 14.833 298.897 15.651 298.328 16.248C297.762 16.8405 296.997 17.1367 296.031 17.1367C294.996 17.1367 294.176 16.7493 293.57 15.9746C292.964 15.1953 292.661 14.113 292.661 12.7275ZM296.017 16.1729C296.664 16.1729 297.165 15.9701 297.521 15.5645C297.881 15.1543 298.061 14.5641 298.061 13.7939C298.061 13.1331 297.895 12.6136 297.562 12.2354C297.229 11.8571 296.733 11.668 296.072 11.668C295.662 11.668 295.286 11.7523 294.944 11.9209C294.602 12.0895 294.329 12.3219 294.123 12.6182C293.923 12.9144 293.823 13.222 293.823 13.541C293.823 14.0104 293.914 14.4479 294.096 14.8535C294.278 15.2591 294.536 15.5804 294.869 15.8174C295.206 16.0544 295.589 16.1729 296.017 16.1729Z" fill="#5B86E5"/>
<path d="M4.8877 15H3.78027V7.87695C3.78027 7.28451 3.7985 6.72396 3.83496 6.19531C3.73926 6.29102 3.63216 6.39128 3.51367 6.49609C3.39518 6.60091 2.85286 7.04525 1.88672 7.8291L1.28516 7.0498L3.93066 5.00586H4.8877V15ZM9.05078 14.2754C9.05078 13.9701 9.11914 13.7399 9.25586 13.585C9.39714 13.4255 9.59766 13.3457 9.85742 13.3457C10.1217 13.3457 10.3268 13.4255 10.4727 13.585C10.623 13.7399 10.6982 13.9701 10.6982 14.2754C10.6982 14.5716 10.623 14.7995 10.4727 14.959C10.3223 15.1185 10.1172 15.1982 9.85742 15.1982C9.625 15.1982 9.43132 15.1276 9.27637 14.9863C9.12598 14.8405 9.05078 14.6035 9.05078 14.2754ZM9.05078 8.23926C9.05078 7.62402 9.31966 7.31641 9.85742 7.31641C10.418 7.31641 10.6982 7.62402 10.6982 8.23926C10.6982 8.53548 10.623 8.76335 10.4727 8.92285C10.3223 9.08236 10.1172 9.16211 9.85742 9.16211C9.625 9.16211 9.43132 9.09147 9.27637 8.9502C9.12598 8.80436 9.05078 8.56738 9.05078 8.23926ZM18.6211 7.35742C18.6211 7.99544 18.4411 8.51725 18.0811 8.92285C17.7256 9.32845 17.2197 9.59961 16.5635 9.73633V9.79102C17.3656 9.89128 17.9603 10.1465 18.3477 10.5566C18.735 10.9668 18.9287 11.5046 18.9287 12.1699C18.9287 13.1224 18.5983 13.8561 17.9375 14.3711C17.2767 14.8815 16.3379 15.1367 15.1211 15.1367C14.5924 15.1367 14.1071 15.0957 13.665 15.0137C13.2275 14.9362 12.8014 14.7972 12.3867 14.5967V13.5166C12.8197 13.7308 13.2799 13.8949 13.7676 14.0088C14.2598 14.1182 14.7246 14.1729 15.1621 14.1729C16.8893 14.1729 17.7529 13.4961 17.7529 12.1426C17.7529 10.9303 16.8005 10.3242 14.8955 10.3242H13.9111V9.34668H14.9092C15.6885 9.34668 16.306 9.17578 16.7617 8.83398C17.2174 8.48763 17.4453 8.00911 17.4453 7.39844C17.4453 6.91081 17.2767 6.52799 16.9395 6.25C16.6068 5.97201 16.1533 5.83301 15.5791 5.83301C15.1416 5.83301 14.7292 5.89225 14.3418 6.01074C13.9544 6.12923 13.5124 6.34798 13.0156 6.66699L12.4414 5.90137C12.8516 5.5778 13.3232 5.32487 13.8564 5.14258C14.3942 4.95573 14.9593 4.8623 15.5518 4.8623C16.5225 4.8623 17.2767 5.08561 17.8145 5.53223C18.3522 5.97428 18.6211 6.58268 18.6211 7.35742ZM27.0635 9.98926C27.0635 11.7165 26.79 13.0062 26.2432 13.8584C25.7008 14.7106 24.8691 15.1367 23.748 15.1367C22.6725 15.1367 21.8545 14.7015 21.2939 13.8311C20.7334 12.9561 20.4531 11.6755 20.4531 9.98926C20.4531 8.24837 20.7243 6.95638 21.2666 6.11328C21.8089 5.27018 22.6361 4.84863 23.748 4.84863C24.8327 4.84863 25.6553 5.28841 26.2158 6.16797C26.7809 7.04753 27.0635 8.32129 27.0635 9.98926ZM21.6016 9.98926C21.6016 11.443 21.7725 12.5026 22.1143 13.168C22.4561 13.8288 23.0007 14.1592 23.748 14.1592C24.5046 14.1592 25.0514 13.8242 25.3887 13.1543C25.7305 12.4798 25.9014 11.4248 25.9014 9.98926C25.9014 8.55371 25.7305 7.50326 25.3887 6.83789C25.0514 6.16797 24.5046 5.83301 23.748 5.83301C23.0007 5.83301 22.4561 6.16341 22.1143 6.82422C21.7725 7.48047 21.6016 8.53548 21.6016 9.98926Z" fill="#5B86E5"/>
<path d="M37.8754 10.5H117.147" stroke="#5B86E5" stroke-width="2"/>
<g filter="url(#filter0_d)">
<path d="M117.613 17C120.704 17 123.209 14.3137 123.209 11C123.209 7.68629 120.704 5 117.613 5C114.523 5 112.018 7.68629 112.018 11C112.018 14.3137 114.523 17 117.613 17Z" fill="#5B86E5"/>
</g>
<defs>
<filter id="filter0_d" x="107.018" y="0" width="21.1913" height="22" filterUnits="userSpaceOnUse" color-interpolation-filters="sRGB">
<feFlood flood-opacity="0" result="BackgroundImageFix"/>
<feColorMatrix in="SourceAlpha" type="matrix" values="0 0 0 0 0 0 0 0 0 0 0 0 0 0 0 0 0 0 127 0"/>
<feOffset/>
<feGaussianBlur stdDeviation="2.5"/>
<feColorMatrix type="matrix" values="0 0 0 0 0.356863 0 0 0 0 0.52549 0 0 0 0 0.898039 0 0 0 1 0"/>
<feBlend mode="normal" in2="BackgroundImageFix" result="effect1_dropShadow"/>
<feBlend mode="normal" in="SourceGraphic" in2="effect1_dropShadow" result="shape"/>
</filter>
</defs>
</svg>
