<svg type="element" width="304" height="23" viewBox="0 0 304 23" fill="none" xmlns="http://www.w3.org/2000/svg">
<path d="M33.3208 11H270.731" stroke="#AEACB2" stroke-width="2"/>
<path d="M33.3208 11H116.071" stroke="#5B86E5" stroke-width="2"/>
<g filter="url(#filter0_d)">
<path d="M117.242 17C120.468 17 123.083 14.3137 123.083 11C123.083 7.68629 120.468 5 117.242 5C114.016 5 111.401 7.68629 111.401 11C111.401 14.3137 114.016 17 117.242 17Z" fill="#5B86E5"/>
</g>
<path d="M9.68334 0.0743213C9.29393 -0.0856787 8.82664 0.0209863 8.51511 0.31432L3.5047 5.59432H1.03843C0.467293 5.59432 0 6.07432 0 6.66099V15.7277C0 16.3143 0.467293 16.7943 1.03843 16.7943H3.5047L8.48916 22.0743C8.69684 22.2876 8.95645 22.3943 9.24202 22.3943C9.37182 22.3943 9.55354 22.3677 9.68334 22.3143C10.0728 22.1543 10.3843 21.7543 10.3843 21.3277V1.06099C10.3843 0.63432 10.0728 0.234321 9.68334 0.0743213ZM8.30743 18.7143L4.72485 15.0076C4.51717 14.7943 4.20564 14.6877 3.92007 14.6877H2.07686V7.75432H3.94603C4.2316 7.75432 4.54312 7.62099 4.75081 7.43432L8.33339 3.72765V18.7143H8.30743ZM22.0407 14.3943C22.4301 14.821 22.4301 15.4877 22.0147 15.9143C21.807 16.1277 21.5474 16.2076 21.2878 16.2076C21.0282 16.2076 20.7426 16.101 20.5349 15.8877L17.5494 12.741L14.564 15.8877C14.3563 16.101 14.0967 16.2076 13.8111 16.2076C13.5515 16.2076 13.2919 16.101 13.0842 15.9143C12.6688 15.5143 12.6688 14.821 13.0582 14.3943L16.0956 11.1943L13.0582 7.99432C12.6688 7.56765 12.6688 6.90099 13.0842 6.47432C13.4996 6.07432 14.1486 6.07432 14.564 6.50099L17.5494 9.64766L20.5349 6.50099C20.9243 6.07432 21.5993 6.07432 22.0147 6.47432C22.4301 6.87432 22.4301 7.56765 22.0407 7.99432L19.0032 11.1943L22.0407 14.3943Z" fill="#5B86E5"/>
<path d="M294.029 0.0800008C293.64 -0.0799992 293.198 -8.26518e-07 292.913 0.319999L287.825 5.6H285.306C284.735 5.6 284.268 6.08 284.268 6.66667V15.7333C284.268 16.32 284.735 16.8 285.306 16.8H287.825L292.939 22.08C293.146 22.2933 293.406 22.4 293.666 22.4C293.795 22.4 293.899 22.3733 294.029 22.32C294.419 22.16 294.652 21.76 294.652 21.3333V1.06667C294.652 0.64 294.419 0.240001 294.029 0.0800008ZM292.575 18.7467L288.967 14.9867C288.759 14.7733 288.525 14.6667 288.266 14.6667H286.345V7.73333H288.266C288.551 7.73333 288.785 7.62667 288.967 7.41333L292.575 3.65333V18.7467ZM298.053 15.7067C297.845 15.9467 297.56 16.0533 297.274 16.0533C297.041 16.0533 296.781 15.9733 296.573 15.7867C296.132 15.3867 296.106 14.72 296.495 14.2933C299.091 11.3067 296.755 8.42667 296.495 8.10667C296.106 7.65333 296.158 6.98667 296.599 6.61333C297.041 6.21333 297.69 6.26667 298.053 6.69334C299.403 8.24 301.142 12.1333 298.053 15.7067ZM301.168 18.56C300.961 18.8 300.675 18.9067 300.389 18.9067C300.156 18.9067 299.896 18.8267 299.689 18.64C299.247 18.24 299.221 17.5733 299.611 17.1467C304.699 11.3067 299.818 5.49333 299.611 5.25333C299.221 4.8 299.273 4.13334 299.689 3.76C300.13 3.36 300.779 3.41333 301.142 3.84C301.246 3.89333 307.503 11.28 301.168 18.56Z" fill="#5B86E5"/>
<defs>
<filter id="filter0_d" x="106.401" y="0" width="21.6823" height="22" filterUnits="userSpaceOnUse" color-interpolation-filters="sRGB">
<feFlood flood-opacity="0" result="BackgroundImageFix"/>
<feColorMatrix in="SourceAlpha" type="matrix" values="0 0 0 0 0 0 0 0 0 0 0 0 0 0 0 0 0 0 127 0"/>
<feOffset/>
<feGaussianBlur stdDeviation="2.5"/>
<feColorMatrix type="matrix" values="0 0 0 0 0.356863 0 0 0 0 0.52549 0 0 0 0 0.898039 0 0 0 1 0"/>
<feBlend mode="normal" in2="BackgroundImageFix" result="effect1_dropShadow"/>
<feBlend mode="normal" in="SourceGraphic" in2="effect1_dropShadow" result="shape"/>
</filter>
</defs>
</svg>
