<svg width="24" height="24" viewBox="0 0 24 24" fill="none" xmlns="http://www.w3.org/2000/svg">
<path d="M1.1568 23.7354C0.808324 23.5395 0.516524 23.2463 0.312721 22.8871C0.108919 22.5279 0.000810024 22.1165 0 21.6968L0 2.30339C0.000217588 1.88374 0.108125 1.47214 0.312059 1.11307C0.515993 0.753999 0.808198 0.461114 1.15709 0.26607C1.50599 0.0710256 1.8983 -0.0187594 2.29163 0.0064187C2.68496 0.0315968 3.06436 0.170781 3.3888 0.408927L16.6243 10.1031C16.752 10.1967 16.8698 10.3046 16.9757 10.4251V3.74084C16.9757 2.74884 17.3457 1.79747 18.0044 1.09601C18.663 0.39456 19.5564 0.000488281 20.4878 0.000488281C21.4193 0.000488281 22.3127 0.39456 22.9713 1.09601C23.63 1.79747 24 2.74884 24 3.74084V19.9485C24 20.9405 23.63 21.8919 22.9713 22.5934C22.3127 23.2948 21.4193 23.6889 20.4878 23.6889C19.5564 23.6889 18.663 23.2948 18.0044 22.5934C17.3457 21.8919 16.9757 20.9405 16.9757 19.9485V13.5751C16.8698 13.6956 16.752 13.8035 16.6243 13.8971L3.3888 23.5943C3.06422 23.8323 2.68475 23.9713 2.29138 23.9964C1.89801 24.0214 1.5057 23.9315 1.1568 23.7364V23.7354Z" fill="#AEACB2"/>
</svg>
