<svg width="92" height="92" viewBox="0 0 92 92" fill="none" xmlns="http://www.w3.org/2000/svg">
<path d="M91.5 46C91.5 71.129 71.129 91.5 46 91.5C20.871 91.5 0.5 71.129 0.5 46C0.5 20.871 20.871 0.5 46 0.5C71.129 0.5 91.5 20.871 91.5 46Z" fill="white" stroke="#AEACB2"/>
<path d="M63.524 47.7799C63.2883 48.2281 62.952 48.6153 62.5419 48.9114L62.4811 48.9532L39.3676 64.8539L39.3674 64.854C38.8756 65.1927 38.3005 65.3905 37.7043 65.426C37.1082 65.4615 36.5137 65.3335 35.9851 65.0556C35.4565 64.7777 35.0139 64.3607 34.7051 63.8495C34.3964 63.3383 34.2333 62.7524 34.2333 62.1553V62.1552V30.3538V30.3538C34.2333 29.7566 34.3964 29.1707 34.7051 28.6596C35.0139 28.1484 35.4565 27.7313 35.9851 27.4534C36.5137 27.1756 37.1082 27.0475 37.7043 27.083C38.3005 27.1186 38.8756 27.3164 39.3674 27.655L39.3676 27.6552L62.4811 43.5558L62.4811 43.5558C62.9188 43.8569 63.2767 44.26 63.524 44.7302C63.7713 45.2004 63.9005 45.7237 63.9005 46.255C63.9005 46.7863 63.7713 47.3096 63.524 47.7799Z" fill="#5B86E5" stroke="#AEACB2"/>
</svg>
