<svg width="24" height="24" viewBox="0 0 24 24" fill="none" xmlns="http://www.w3.org/2000/svg">
<path d="M22.8432 0.265067C23.1917 0.460963 23.4835 0.754232 23.6873 1.11339C23.8911 1.47255 23.9992 1.88404 24 2.30368L24 21.6971C23.9998 22.1167 23.8919 22.5283 23.6879 22.8874C23.484 23.2465 23.1918 23.5394 22.8429 23.7344C22.494 23.9295 22.1017 24.0192 21.7084 23.9941C21.315 23.9689 20.9356 23.8297 20.6112 23.5916L7.37568 13.8974C7.24803 13.8038 7.13023 13.6959 7.02432 13.5754V20.2596C7.02432 21.2516 6.65429 22.203 5.99563 22.9045C5.33697 23.6059 4.44364 24 3.51216 24C2.58068 24 1.68735 23.6059 1.02869 22.9045C0.37003 22.203 -7.15256e-07 21.2516 -7.15256e-07 20.2596L-7.15256e-07 4.05194C-7.15256e-07 3.05994 0.37003 2.10856 1.02869 1.40711C1.68735 0.705658 2.58068 0.311587 3.51216 0.311587C4.44364 0.311587 5.33697 0.705658 5.99563 1.40711C6.65429 2.10856 7.02432 3.05994 7.02432 4.05194L7.02432 10.4254C7.13022 10.3049 7.24802 10.1969 7.37568 10.1034L20.6112 0.406156C20.9358 0.168174 21.3153 0.0291521 21.7086 0.00410667C22.102 -0.0209388 22.4943 0.0699647 22.8432 0.265067Z" fill="#AEACB2"/>
</svg>
