<svg width="26" height="27" viewBox="0 0 26 27" fill="none" xmlns="http://www.w3.org/2000/svg">
<path d="M22.3439 21.1925H20.5765C20.4065 21.1925 20.2434 21.2561 20.1232 21.3694C20.003 21.4826 19.9354 21.6362 19.9354 21.7964C19.9354 21.9565 20.003 22.1101 20.1232 22.2234C20.2434 22.3366 20.4065 22.4002 20.5765 22.4002H22.3428C23.0472 22.399 23.7222 22.1349 24.2203 21.6658C24.7183 21.1967 24.9987 20.5608 25 19.8974V6.10936C24.9987 5.44596 24.7183 4.8101 24.2203 4.341C23.7222 3.87191 23.0472 3.60781 22.3428 3.60654H10.2282L11.9059 2.02632C11.9651 1.97066 12.0121 1.90456 12.0442 1.83178C12.0763 1.75901 12.0929 1.68099 12.093 1.60219C12.0931 1.52338 12.0767 1.44533 12.0447 1.37248C12.0128 1.29964 11.966 1.23344 11.9069 1.17765C11.8478 1.12186 11.7776 1.07758 11.7003 1.04734C11.6231 1.0171 11.5403 1.00149 11.4566 1.0014C11.3729 1.00132 11.2901 1.01675 11.2127 1.04682C11.1354 1.0769 11.0651 1.12103 11.0059 1.17669L8.23762 3.78415C8.17821 3.83974 8.13104 3.90585 8.09887 3.97868C8.06669 4.0515 8.05013 4.12961 8.05013 4.20849C8.05013 4.28737 8.06669 4.36547 8.09887 4.4383C8.13104 4.51112 8.17821 4.57723 8.23762 4.63282L11.0059 7.24028C11.1253 7.35359 11.2877 7.41754 11.4573 7.41808C11.6268 7.41862 11.7896 7.3557 11.9099 7.24316C12.0302 7.13062 12.0981 6.97768 12.0987 6.81798C12.0993 6.65829 12.0325 6.50492 11.913 6.39161L10.2353 4.81139H22.351C22.7171 4.8119 23.0681 4.94911 23.327 5.19296C23.5859 5.43681 23.7315 5.76739 23.7321 6.11224V19.8916C23.7294 20.237 23.582 20.5675 23.3221 20.8111C23.0621 21.0547 22.7106 21.1917 22.3439 21.1925V21.1925Z" fill="#AEACB2" stroke="#AEACB2" stroke-width="2"/>
<path d="M14.0901 24.8243C14.1496 24.8805 14.2203 24.925 14.2981 24.9554C14.376 24.9858 14.4594 25.0014 14.5436 25.0014C14.6279 25.0014 14.7113 24.9858 14.7891 24.9554C14.867 24.925 14.9377 24.8805 14.9972 24.8243L17.7644 22.2178C17.8238 22.1622 17.871 22.0961 17.9032 22.0233C17.9353 21.9505 17.9519 21.8724 17.9519 21.7935C17.9519 21.7146 17.9353 21.6365 17.9032 21.5637C17.871 21.4908 17.8238 21.4247 17.7644 21.3691L14.9972 18.7626C14.8777 18.6501 14.7157 18.5869 14.5467 18.5869C14.3777 18.5869 14.2157 18.6501 14.0962 18.7626C13.9767 18.8752 13.9096 19.0278 13.9096 19.187C13.9096 19.3461 13.9767 19.4988 14.0962 19.6113L15.7739 21.1915H3.65715C3.29104 21.191 2.94007 21.0538 2.68119 20.81C2.4223 20.5661 2.27662 20.2355 2.27609 19.8907V6.10936C2.27662 5.76451 2.4223 5.43393 2.68119 5.19008C2.94007 4.94623 3.29104 4.80902 3.65715 4.80851H5.42349C5.59352 4.80851 5.75659 4.74489 5.87682 4.63164C5.99705 4.5184 6.06459 4.3648 6.06459 4.20465C6.06459 4.04449 5.99705 3.8909 5.87682 3.77765C5.75659 3.66441 5.59352 3.60078 5.42349 3.60078H3.65715C2.95267 3.60205 2.27744 3.86628 1.77939 4.33558C1.28134 4.80488 1.00108 5.44099 1 6.10456V19.8868C1.00135 20.5502 1.28173 21.1861 1.77975 21.6552C2.27777 22.1243 2.95285 22.3884 3.65715 22.3897H15.7728L14.0952 23.9699C13.9753 24.0831 13.9076 24.2362 13.9067 24.3961C13.9057 24.556 13.9716 24.7098 14.0901 24.8243V24.8243Z" fill="#AEACB2" stroke="#AEACB2" stroke-width="2"/>
</svg>
