<svg width="27" height="27" viewBox="0 0 27 27" fill="none" xmlns="http://www.w3.org/2000/svg">
<path d="M11.5217 17.348L12.2559 16.0239C12.2974 15.9488 12.3252 15.8653 12.3378 15.7782C12.3504 15.691 12.3476 15.602 12.3294 15.5161C12.3112 15.4302 12.2781 15.3492 12.2319 15.2776C12.1857 15.206 12.1273 15.1453 12.0601 15.099C11.993 15.0526 11.9183 15.0215 11.8403 15.0074C11.7624 14.9933 11.6828 14.9966 11.6059 15.0169C11.5291 15.0372 11.4566 15.0742 11.3926 15.1259C11.3286 15.1775 11.2743 15.2428 11.2328 15.3179L10.4986 16.6419C9.16738 19.0444 7.26703 20.4242 5.27934 20.4242H2.59677C2.43704 20.4242 2.28385 20.4951 2.1709 20.6214C2.05796 20.7477 1.99451 20.9189 1.99451 21.0975C1.99451 21.2761 2.05796 21.4473 2.1709 21.5736C2.28385 21.6999 2.43704 21.7708 2.59677 21.7708H5.28414C7.69893 21.7622 9.96592 20.1527 11.5217 17.348Z" fill="#5B86E5" stroke="#5B86E5" stroke-width="2"/>
<path d="M25.8128 4.45281L22.9046 1.1963C22.7912 1.07748 22.6408 1.01264 22.4854 1.01547C22.33 1.0183 22.1816 1.08859 22.0717 1.21149C21.9618 1.33438 21.8989 1.50024 21.8964 1.67401C21.8938 1.84778 21.9518 2.01584 22.0581 2.14267L23.9479 4.25538H21.1646C18.7555 4.25538 16.4789 5.86486 14.926 8.66643L14.4759 9.4819C14.434 9.55665 14.4057 9.63993 14.3926 9.72695C14.3796 9.81397 14.382 9.90302 14.3999 9.98897C14.4177 10.0749 14.4506 10.1561 14.4965 10.2278C14.5425 10.2995 14.6008 10.3603 14.6679 10.4068C14.7622 10.4709 14.8704 10.505 14.9807 10.5055C15.0832 10.5049 15.1838 10.475 15.273 10.4187C15.3622 10.3623 15.437 10.2814 15.4904 10.1836L15.9405 9.36816C17.2717 6.96575 19.1721 5.59125 21.1598 5.59125H23.9431L22.0524 7.70503C21.9448 7.83244 21.8861 8.00175 21.8887 8.17688C21.8912 8.35201 21.9548 8.5191 22.066 8.64253C22.1771 8.76596 22.327 8.83597 22.4837 8.83763C22.6404 8.83929 22.7914 8.77246 22.9046 8.65141L25.8176 5.39489C25.9272 5.26842 25.9882 5.09891 25.9873 4.92276C25.9864 4.74661 25.9237 4.57788 25.8128 4.45281V4.45281ZM24.5353 4.93458V4.91527L24.5449 4.926L24.5353 4.93458Z" fill="#5B86E5" stroke="#5B86E5" stroke-width="2"/>
<path d="M22.0533 24.8181C22.1664 24.9444 22.3196 25.0154 22.4795 25.0154C22.6393 25.0154 22.7926 24.9444 22.9056 24.8181L25.8185 21.5616C25.8743 21.4996 25.9186 21.4258 25.9488 21.3446C25.979 21.2634 25.9945 21.1763 25.9945 21.0884C25.9945 21.0004 25.979 20.9134 25.9488 20.8322C25.9186 20.751 25.8743 20.6772 25.8185 20.6152L22.9056 17.3641C22.8507 17.2985 22.7846 17.246 22.7112 17.2097C22.6378 17.1733 22.5586 17.1538 22.4783 17.1523C22.398 17.1509 22.3183 17.1675 22.2439 17.2012C22.1694 17.2348 22.1018 17.2849 22.045 17.3484C21.9883 17.4118 21.9435 17.4874 21.9134 17.5706C21.8833 17.6538 21.8684 17.743 21.8697 17.8327C21.871 17.9225 21.8885 18.011 21.921 18.0931C21.9535 18.1751 22.0005 18.2491 22.0591 18.3104L23.9489 20.4231H21.25C19.2671 20.4231 17.3629 19.0444 16.0307 16.6409L11.6158 8.66643C10.0619 5.8595 7.78627 4.25539 5.37819 4.25539H2.59677C2.43704 4.25539 2.28385 4.32632 2.1709 4.45259C2.05796 4.57886 1.99451 4.75011 1.99451 4.92868C1.99451 5.10725 2.05796 5.27851 2.1709 5.40477C2.28385 5.53104 2.43704 5.60198 2.59677 5.60198H5.37339C7.35629 5.60198 9.26048 6.98077 10.5927 9.3789L15.0076 17.3533C16.5596 20.1613 18.8362 21.7708 21.2462 21.7708H23.9441L22.0543 23.8835C21.944 24.0077 21.8821 24.1756 21.8819 24.3506C21.8817 24.5256 21.9433 24.6936 22.0533 24.8181V24.8181ZM24.5353 21.0798L24.5449 21.0905L24.5353 21.1013V21.0798V21.0798Z" fill="#5B86E5" stroke="#5B86E5" stroke-width="2"/>
</svg>
