<svg type="icon" xmlns="http://www.w3.org/2000/svg" width="87.921" height="88.234" viewBox="0 0 87.921 88.234">
  <g id="C_Compass" transform="translate(0.5 0.5)">
    <path id="Path_46" data-name="Path 46" d="M43.461,0A43.617,43.617,0,1,1,0,43.617,43.539,43.539,0,0,1,43.461,0Z" fill="rgba(0,0,0,0)" stroke="#000" stroke-linecap="round" stroke-width="1"/>
    <text id="N" transform="translate(39.941 12.303)" font-size="8" font-family="Lato-Regular, Lato"><tspan x="0" y="0">N</tspan></text>
    <text id="S" transform="translate(41.398 78.014)" font-size="8" font-family="Lato-Regular, Lato"><tspan x="0" y="0">S</tspan></text>
    <text id="W" transform="translate(5.008 46.318)" font-size="9" font-family="Lato-Regular, Lato"><tspan x="0" y="0">W</tspan></text>
    <text id="E" transform="translate(74.746 46.156)" font-size="9" font-family="Lato-Regular, Lato"><tspan x="0" y="0">E</tspan></text>
    <path id="Path_40" data-name="Path 40" d="M967.9,378.2c.156-.156,6.566,7.035,6.566,7.035" transform="translate(-954.299 -366.163)" fill="rgba(0,0,0,0)" stroke="#000" stroke-linecap="round" stroke-linejoin="round" stroke-miterlimit="10" stroke-width="1"/>
    <path id="Path_41" data-name="Path 41" d="M1008.466,421.135c-.156.156-6.566-7.035-6.566-7.035" transform="translate(-935.146 -345.939)" fill="rgba(0,0,0,0)" stroke="#000" stroke-linecap="round" stroke-linejoin="round" stroke-miterlimit="10" stroke-width="1"/>
    <path id="Path_42" data-name="Path 42" d="M1009.735,379.2c.156.156-7.035,6.566-7.035,6.566" transform="translate(-934.695 -365.599)" fill="rgba(0,0,0,0)" stroke="#000" stroke-linecap="round" stroke-linejoin="round" stroke-miterlimit="10" stroke-width="1"/>
    <path id="Path_43" data-name="Path 43" d="M966.8,419.966c-.156-.156,7.035-6.566,7.035-6.566" transform="translate(-954.92 -346.333)" fill="rgba(0,0,0,0)" stroke="#000" stroke-linecap="round" stroke-linejoin="round" stroke-miterlimit="10" stroke-width="1"/>
    <path id="Path_44" data-name="Path 44" d="M991.95,384.2l-.313,33.143L979.6,424.69Z" transform="translate(-947.708 -362.782)" fill="#d5d5d5" stroke="#000" stroke-linecap="round" stroke-linejoin="round" stroke-miterlimit="10" stroke-width="1"/>
    <path id="Path_45" data-name="Path 45" d="M999.338,424.69,987.3,417.343l.313-33.143Z" transform="translate(-943.37 -362.782)" fill="rgba(0,0,0,0)" stroke="#000" stroke-linecap="round" stroke-linejoin="round" stroke-miterlimit="10" stroke-width="1"/>
  </g>
</svg>
