<svg type="icon" xmlns="http://www.w3.org/2000/svg" width="91" height="87" viewBox="0 0 91 87">
  <g id="C_Thermometer" transform="translate(28.289 0.459)">
    <g id="Rectangle_18" data-name="Rectangle 18" transform="translate(-28.289 -0.459)" fill="#fff" stroke="#707070" stroke-width="1">
      <rect width="91" height="87" stroke="none"/>
      <rect x="0.5" y="0.5" width="90" height="86" fill="none"/>
    </g>
    <path id="Path_38" data-name="Path 38" d="M890.7,424.78a12.363,12.363,0,0,1-24.474,2.559,12.277,12.277,0,0,1,5.451-13.015V373.386a6.719,6.719,0,0,1,6.675-6.786,6.649,6.649,0,0,1,6.675,6.786v40.938A12.436,12.436,0,0,1,890.7,424.78Z" transform="translate(-860.959 -358.6)" fill="rgba(0,0,0,0)" stroke="#000" stroke-linecap="round" stroke-linejoin="round" stroke-miterlimit="10" stroke-width="1"/>
    <path id="Path_39" data-name="Path 39" d="M883.837,422.076a6.118,6.118,0,1,1-7.453-6.007V395.6h2.781v20.469A6.209,6.209,0,0,1,883.837,422.076Z" transform="translate(-860.324 -355.339)" fill="#d5d5d5" stroke="#000" stroke-width="1"/>
    <line id="Line_61" data-name="Line 61" x1="5.228" transform="translate(18.84 38.703)" fill="none" stroke="#000" stroke-linecap="round" stroke-linejoin="round" stroke-miterlimit="10" stroke-width="1"/>
    <line id="Line_62" data-name="Line 62" x1="5.228" transform="translate(18.84 30.471)" fill="none" stroke="#000" stroke-linecap="round" stroke-linejoin="round" stroke-miterlimit="10" stroke-width="1"/>
    <line id="Line_63" data-name="Line 63" x1="5.228" transform="translate(18.84 22.128)" fill="none" stroke="#000" stroke-linecap="round" stroke-linejoin="round" stroke-miterlimit="10" stroke-width="1"/>
  </g>
</svg>
