<svg width="188" height="35" data-type="label" viewBox="0 0 188 35" fill="none" xmlns="http://www.w3.org/2000/svg">
<path d="M10.7744 27.3831H7.50488V5.70923L0.948242 8.11743V5.16431L10.2646 1.66626H10.7744V27.3831ZM37.0713 27.3831H20.3018V25.0452L29.1611 15.2014C30.4736 13.7131 31.376 12.5061 31.8682 11.5803C32.3721 10.6428 32.624 9.67603 32.624 8.67993C32.624 7.34399 32.2197 6.24829 31.4111 5.39282C30.6025 4.53735 29.5244 4.10962 28.1768 4.10962C26.5596 4.10962 25.2998 4.57251 24.3975 5.49829C23.5068 6.41235 23.0615 7.6897 23.0615 9.33032H19.8096C19.8096 6.97485 20.5654 5.07056 22.0771 3.61743C23.6006 2.16431 25.6338 1.43774 28.1768 1.43774C30.5557 1.43774 32.4365 2.0647 33.8193 3.3186C35.2021 4.56079 35.8936 6.21899 35.8936 8.29321C35.8936 10.8127 34.2881 13.8127 31.0771 17.2932L24.2217 24.7288H37.0713V27.3831ZM65.8467 18.0842C65.8467 20.9788 65.1846 23.3108 63.8604 25.0803C62.5361 26.8499 60.7432 27.7346 58.4814 27.7346C56.1729 27.7346 54.3564 27.0022 53.0322 25.5374V34.6956H49.7803V8.36353H52.751L52.9092 10.4729C54.2334 8.83228 56.0732 8.01196 58.4287 8.01196C60.7139 8.01196 62.5186 8.87329 63.8428 10.5959C65.1787 12.3186 65.8467 14.7151 65.8467 17.7854V18.0842ZM62.5947 17.7151C62.5947 15.5706 62.1377 13.8772 61.2236 12.635C60.3096 11.3928 59.0557 10.7717 57.4619 10.7717C55.4932 10.7717 54.0166 11.6448 53.0322 13.3909V22.4788C54.0049 24.2131 55.4932 25.0803 57.4971 25.0803C59.0557 25.0803 60.292 24.4651 61.2061 23.2346C62.1318 21.9924 62.5947 20.1526 62.5947 17.7151ZM79.1885 11.2815C78.6963 11.1995 78.1631 11.1584 77.5889 11.1584C75.4561 11.1584 74.0088 12.0667 73.2471 13.8831V27.3831H69.9951V8.36353H73.1592L73.2119 10.5608C74.2783 8.86157 75.79 8.01196 77.7471 8.01196C78.3799 8.01196 78.8604 8.09399 79.1885 8.25806V11.2815ZM80.9814 17.6975C80.9814 15.8342 81.3447 14.1584 82.0713 12.6702C82.8096 11.1819 83.8291 10.0334 85.1299 9.22485C86.4424 8.41626 87.9365 8.01196 89.6123 8.01196C92.2021 8.01196 94.2939 8.90845 95.8877 10.7014C97.4932 12.4944 98.2959 14.8792 98.2959 17.8557V18.0842C98.2959 19.9358 97.9385 21.5999 97.2236 23.0764C96.5205 24.5413 95.5068 25.6838 94.1826 26.5042C92.8701 27.3245 91.3584 27.7346 89.6475 27.7346C87.0693 27.7346 84.9775 26.8381 83.3721 25.0452C81.7783 23.2522 80.9814 20.8792 80.9814 17.926V17.6975ZM84.251 18.0842C84.251 20.1936 84.7373 21.887 85.71 23.1643C86.6943 24.4417 88.0068 25.0803 89.6475 25.0803C91.2998 25.0803 92.6123 24.4358 93.585 23.1467C94.5576 21.8459 95.0439 20.0295 95.0439 17.6975C95.0439 15.6116 94.5459 13.9241 93.5498 12.635C92.5654 11.3342 91.2529 10.6838 89.6123 10.6838C88.0068 10.6838 86.7119 11.3225 85.7275 12.5999C84.7432 13.8772 84.251 15.7053 84.251 18.0842ZM101.583 17.7151C101.583 14.7971 102.274 12.4534 103.657 10.6838C105.04 8.90259 106.851 8.01196 109.089 8.01196C111.315 8.01196 113.079 8.77368 114.38 10.2971V0.383057H117.632V27.3831H114.644L114.485 25.344C113.185 26.9377 111.374 27.7346 109.054 27.7346C106.851 27.7346 105.052 26.8323 103.657 25.0276C102.274 23.2229 101.583 20.8674 101.583 17.9612V17.7151ZM104.835 18.0842C104.835 20.2405 105.28 21.928 106.171 23.1467C107.062 24.3655 108.292 24.9749 109.862 24.9749C111.925 24.9749 113.431 24.0491 114.38 22.1975V13.4612C113.407 11.6682 111.913 10.7717 109.897 10.7717C108.304 10.7717 107.062 11.387 106.171 12.6174C105.28 13.8479 104.835 15.6702 104.835 18.0842ZM134.437 25.5022C133.171 26.9905 131.313 27.7346 128.864 27.7346C126.837 27.7346 125.29 27.1487 124.224 25.9768C123.169 24.7932 122.636 23.0471 122.624 20.7385V8.36353H125.876V20.6506C125.876 23.5334 127.048 24.9749 129.392 24.9749C131.876 24.9749 133.528 24.0491 134.349 22.1975V8.36353H137.601V27.3831H134.507L134.437 25.5022ZM150.187 25.0803C151.347 25.0803 152.36 24.7288 153.228 24.0256C154.095 23.3225 154.575 22.4436 154.669 21.3889H157.745C157.687 22.4788 157.312 23.5159 156.62 24.5002C155.929 25.4846 155.003 26.2698 153.843 26.8557C152.694 27.4417 151.476 27.7346 150.187 27.7346C147.597 27.7346 145.534 26.8733 143.999 25.1506C142.476 23.4163 141.714 21.0491 141.714 18.0491V17.5042C141.714 15.6526 142.054 14.0061 142.733 12.5647C143.413 11.1233 144.386 10.0042 145.651 9.20728C146.929 8.4104 148.435 8.01196 150.169 8.01196C152.302 8.01196 154.071 8.65063 155.478 9.92798C156.896 11.2053 157.651 12.8635 157.745 14.9026H154.669C154.575 13.6721 154.106 12.6643 153.263 11.8792C152.431 11.0823 151.399 10.6838 150.169 10.6838C148.517 10.6838 147.233 11.2815 146.319 12.4768C145.417 13.6604 144.966 15.3772 144.966 17.6272V18.2424C144.966 20.4338 145.417 22.1213 146.319 23.3049C147.222 24.4885 148.511 25.0803 150.187 25.0803ZM165.813 3.75806V8.36353H169.364V10.8772H165.813V22.6721C165.813 23.4338 165.972 24.0081 166.288 24.3948C166.604 24.7698 167.144 24.9573 167.905 24.9573C168.28 24.9573 168.796 24.887 169.452 24.7463V27.3831C168.597 27.6174 167.765 27.7346 166.956 27.7346C165.503 27.7346 164.407 27.2952 163.669 26.4163C162.931 25.5374 162.562 24.2893 162.562 22.6721V10.8772H159.099V8.36353H162.562V3.75806H165.813ZM184.253 22.3381C184.253 21.4592 183.919 20.7795 183.251 20.2991C182.595 19.8069 181.44 19.385 179.788 19.0334C178.147 18.6819 176.841 18.26 175.868 17.7678C174.907 17.2756 174.192 16.6897 173.724 16.01C173.267 15.3303 173.038 14.5217 173.038 13.5842C173.038 12.0256 173.694 10.7073 175.007 9.62915C176.331 8.55103 178.019 8.01196 180.069 8.01196C182.226 8.01196 183.972 8.5686 185.308 9.68188C186.655 10.7952 187.329 12.219 187.329 13.9534H184.06C184.06 13.0627 183.679 12.2952 182.917 11.6506C182.167 11.0061 181.218 10.6838 180.069 10.6838C178.886 10.6838 177.96 10.9417 177.292 11.4573C176.624 11.9729 176.29 12.6467 176.29 13.4788C176.29 14.2639 176.601 14.8557 177.222 15.2542C177.843 15.6526 178.962 16.0334 180.579 16.3967C182.208 16.76 183.526 17.1936 184.534 17.6975C185.542 18.2014 186.286 18.8108 186.767 19.5256C187.259 20.2288 187.505 21.0901 187.505 22.1096C187.505 23.8088 186.825 25.1741 185.466 26.2053C184.106 27.2249 182.343 27.7346 180.175 27.7346C178.651 27.7346 177.304 27.4651 176.132 26.926C174.96 26.387 174.04 25.637 173.372 24.676C172.716 23.7034 172.388 22.6545 172.388 21.5295H175.64C175.698 22.6194 176.132 23.4866 176.94 24.1311C177.761 24.7639 178.839 25.0803 180.175 25.0803C181.405 25.0803 182.39 24.8342 183.128 24.342C183.878 23.8381 184.253 23.1702 184.253 22.3381Z" fill="#7E848C"/>
</svg>
