<svg width="213" height="52" data-type="label" viewBox="0 0 213 52" fill="none" xmlns="http://www.w3.org/2000/svg">
<path d="M29.9624 27.7024C29.4878 31.7629 27.9849 34.9006 25.4536 37.1155C22.9399 39.3127 19.5913 40.4114 15.4077 40.4114C10.8726 40.4114 7.23389 38.7854 4.4917 35.5334C1.76709 32.2815 0.404785 27.9309 0.404785 22.4817V18.7903C0.404785 15.2219 1.0376 12.0842 2.30322 9.3772C3.58643 6.67017 5.39697 4.59595 7.73486 3.15454C10.0728 1.69556 12.7798 0.966064 15.856 0.966064C19.9341 0.966064 23.2036 2.10864 25.6646 4.3938C28.1255 6.66138 29.5581 9.80786 29.9624 13.8333H24.8735C24.4341 10.7747 23.4761 8.55981 21.9995 7.18872C20.5405 5.81763 18.4927 5.13208 15.856 5.13208C12.6216 5.13208 10.0815 6.32739 8.23584 8.71802C6.40771 11.1086 5.49365 14.51 5.49365 18.9221V22.6399C5.49365 26.8059 6.36377 30.1194 8.104 32.5803C9.84424 35.0413 12.2788 36.2717 15.4077 36.2717C18.2202 36.2717 20.3735 35.6389 21.8677 34.3733C23.3794 33.0901 24.3813 30.8665 24.8735 27.7024H29.9624ZM53.7456 39.884C53.4644 39.3215 53.2358 38.3196 53.0601 36.8782C50.7925 39.2336 48.0854 40.4114 44.939 40.4114C42.1265 40.4114 39.8149 39.6204 38.0044 38.0383C36.2114 36.4387 35.3149 34.4172 35.3149 31.9739C35.3149 29.0032 36.4399 26.7004 38.6899 25.0657C40.9575 23.4133 44.1392 22.5872 48.2349 22.5872H52.981V20.3459C52.981 18.6409 52.4712 17.2874 51.4517 16.2854C50.4321 15.2659 48.9292 14.7561 46.9429 14.7561C45.2026 14.7561 43.7437 15.1956 42.5659 16.0745C41.3882 16.9534 40.7993 18.0168 40.7993 19.2649H35.895C35.895 17.8411 36.396 16.47 37.3979 15.1516C38.4175 13.8157 39.7886 12.761 41.5112 11.9875C43.2515 11.2141 45.1587 10.8274 47.2329 10.8274C50.52 10.8274 53.0952 11.6536 54.9585 13.3059C56.8218 14.9407 57.7886 17.1995 57.8589 20.0823V33.2131C57.8589 35.8323 58.1929 37.9153 58.8608 39.4622V39.884H53.7456ZM45.6509 36.1663C47.1802 36.1663 48.6304 35.7708 50.0015 34.9797C51.3726 34.1887 52.3657 33.1604 52.981 31.8948V26.0413H49.1577C43.1812 26.0413 40.1929 27.7903 40.1929 31.2883C40.1929 32.8176 40.7026 34.0129 41.7222 34.8743C42.7417 35.7356 44.0513 36.1663 45.6509 36.1663ZM72.1235 4.44653V11.3547H77.4497V15.1252H72.1235V32.8176C72.1235 33.9602 72.3608 34.8215 72.8354 35.4016C73.3101 35.9641 74.1187 36.2454 75.2612 36.2454C75.8237 36.2454 76.5972 36.1399 77.5815 35.929V39.884C76.2983 40.2356 75.0503 40.4114 73.8374 40.4114C71.6577 40.4114 70.0142 39.7522 68.9067 38.4338C67.7993 37.1155 67.2456 35.2434 67.2456 32.8176V15.1252H62.0513V11.3547H67.2456V4.44653H72.1235ZM95.0103 40.4114C91.1431 40.4114 87.9966 39.1458 85.5708 36.6145C83.145 34.0657 81.9321 30.6643 81.9321 26.4104V25.5139C81.9321 22.6838 82.4683 20.1614 83.5405 17.9465C84.6304 15.7141 86.1421 13.9739 88.0757 12.7258C90.0269 11.4602 92.1362 10.8274 94.4038 10.8274C98.1128 10.8274 100.996 12.0491 103.052 14.4924C105.109 16.9358 106.137 20.4338 106.137 24.9866V27.0168H86.8101C86.8804 29.8293 87.6978 32.1057 89.2622 33.8459C90.8442 35.5686 92.8481 36.4299 95.2739 36.4299C96.9966 36.4299 98.4556 36.0784 99.6509 35.3752C100.846 34.6721 101.892 33.7405 102.789 32.5803L105.768 34.9006C103.377 38.5745 99.7915 40.4114 95.0103 40.4114ZM94.4038 14.8352C92.4351 14.8352 90.7827 15.5559 89.4468 16.9973C88.1108 18.4211 87.2847 20.425 86.9683 23.009H101.259V22.6399C101.119 20.1614 100.451 18.2454 99.2554 16.8918C98.0601 15.5208 96.4429 14.8352 94.4038 14.8352ZM110.646 25.3821C110.646 20.9348 111.674 17.4016 113.731 14.7825C115.788 12.1458 118.512 10.8274 121.905 10.8274C125.385 10.8274 128.101 12.0579 130.052 14.5188L130.29 11.3547H134.746V39.1985C134.746 42.8899 133.647 45.7991 131.45 47.926C129.27 50.053 126.334 51.1165 122.643 51.1165C120.586 51.1165 118.574 50.677 116.605 49.7981C114.636 48.9192 113.133 47.7151 112.096 46.1858L114.627 43.259C116.719 45.843 119.277 47.135 122.3 47.135C124.673 47.135 126.519 46.467 127.837 45.1311C129.173 43.7952 129.841 41.9143 129.841 39.4885V37.0364C127.89 39.2864 125.227 40.4114 121.852 40.4114C118.512 40.4114 115.805 39.0667 113.731 36.3772C111.674 33.6877 110.646 30.0227 110.646 25.3821ZM115.55 25.9358C115.55 29.1526 116.209 31.6838 117.528 33.5295C118.846 35.3577 120.692 36.2717 123.065 36.2717C126.141 36.2717 128.4 34.8743 129.841 32.0793V19.054C128.347 16.3293 126.106 14.967 123.118 14.967C120.745 14.967 118.89 15.8899 117.554 17.7356C116.218 19.5813 115.55 22.3147 115.55 25.9358ZM140.836 25.3557C140.836 22.5608 141.381 20.0471 142.471 17.8147C143.579 15.5823 145.108 13.8596 147.059 12.6467C149.028 11.4338 151.269 10.8274 153.783 10.8274C157.667 10.8274 160.805 12.1721 163.196 14.8616C165.604 17.551 166.808 21.1282 166.808 25.593V25.9358C166.808 28.7131 166.272 31.2092 165.2 33.4241C164.145 35.6213 162.625 37.3352 160.638 38.5657C158.669 39.7961 156.402 40.4114 153.835 40.4114C149.968 40.4114 146.831 39.0667 144.422 36.3772C142.032 33.6877 140.836 30.1282 140.836 25.6985V25.3557ZM145.741 25.9358C145.741 29.0999 146.47 31.6399 147.929 33.5559C149.406 35.4719 151.375 36.4299 153.835 36.4299C156.314 36.4299 158.283 35.4631 159.742 33.5295C161.201 31.5784 161.93 28.8538 161.93 25.3557C161.93 22.2268 161.183 19.6956 159.689 17.762C158.212 15.8108 156.244 14.8352 153.783 14.8352C151.375 14.8352 149.432 15.7932 147.956 17.7092C146.479 19.6252 145.741 22.3674 145.741 25.9358ZM186.715 15.7317C185.977 15.6086 185.177 15.5471 184.316 15.5471C181.117 15.5471 178.946 16.9094 177.803 19.634V39.884H172.925V11.3547H177.671L177.75 14.6506C179.35 12.1018 181.618 10.8274 184.553 10.8274C185.502 10.8274 186.223 10.9504 186.715 11.1965V15.7317ZM201.033 32.7385L207.677 11.3547H212.898L201.428 44.2874C199.653 49.0334 196.832 51.4065 192.964 51.4065L192.042 51.3274L190.222 50.9846V47.0295L191.541 47.135C193.193 47.135 194.476 46.801 195.39 46.1331C196.322 45.4651 197.086 44.2434 197.684 42.468L198.765 39.5676L188.587 11.3547H193.914L201.033 32.7385Z" fill="#474A4F"/>
</svg>
