<svg height="640" version="1.1" width="360" xmlns="http://www.w3.org/2000/svg" fill="#ffffff" style=""><desc>Created with Snap</desc><defs></defs><rect width="360" height="640" fill="#ffffff" style=""></rect><g transform="matrix(1.5094,0,0,1.5,184,520)"><svg type="text" width="106" height="28" viewBox="0 0 106 28" fill="none" xmlns="http://www.w3.org/2000/svg">
<text fill="#383B41" xml:space="preserve" style="white-space: pre" font-family="Avenir" font-size="32" font-weight="900" letter-spacing="0px"><tspan x="0.3125" y="25">Seattle</tspan></text>
</svg></g><g transform="matrix(1.3559,0,0,1.3077,184,472)"><svg type="text" width="118" height="13" viewBox="0 0 118 13" fill="none" xmlns="http://www.w3.org/2000/svg">
<text fill="#383B41" xml:space="preserve" style="white-space: pre" font-family="Avenir" font-size="12" font-weight="800" letter-spacing="0.2px"><tspan x="-0.145409" y="10">Monday, March 11th</tspan></text>
</svg></g><g transform="matrix(0.5479,0,0,1,184,592)"><svg type="separator" width="292" height="4" viewBox="0 0 292 4" fill="none" xmlns="http://www.w3.org/2000/svg">
  <rect width="100%" height="100%" rx="2.5" fill="#838992"></rect>
</svg></g><g transform="matrix(2.3881,0,0,2.3881,16,464)"><svg type="image" width="67" height="67" viewBox="0 0 67 67" fill="none" xmlns="http://www.w3.org/2000/svg">
<rect x="0.5" y="0.5" width="66" height="66" rx="9.5" stroke="#383B41"></rect>
<rect fill="white" x="7.95947" y="12.0338" width="51" height="30"></rect>
<path fill-rule="evenodd" clip-rule="evenodd" d="M49.7627 25.0233C45.9714 25.1044 42.9229 28.2031 42.9229 32.0139L42.9937 32.0139C43.4784 28.6253 46.3926 26.0205 49.9151 26.0205C53.7768 26.0205 56.9074 29.151 56.9074 33.0128C56.9074 36.8745 53.7768 40.005 49.9151 40.005C49.1142 40.005 48.3447 39.8703 47.628 39.6224C47.11 39.8678 46.5308 40.005 45.9196 40.005H20.9473C20.336 40.005 19.7568 39.8678 19.2388 39.6224C18.5222 39.8703 17.7527 40.005 16.9517 40.005C13.09 40.005 9.95947 36.8745 9.95947 33.0128C9.95947 29.151 13.09 26.0205 16.9517 26.0205C17.0651 26.0205 17.1778 26.0232 17.2899 26.0285C18.1104 23.6965 20.3325 22.0249 22.9451 22.0249C25.8987 22.0249 28.3533 24.1615 28.8476 26.9734C28.9072 26.6649 28.9384 26.3464 28.9384 26.0205C28.9384 23.7358 27.4044 21.8095 25.3101 21.2152C27.4412 16.9572 31.844 14.0338 36.9295 14.0338C43.4225 14.0338 48.8024 18.7992 49.7627 25.0233Z"></path>
<path d="M42.9229 32.0139H40.9229V34.0138L42.9228 34.0139L42.9229 32.0139ZM49.7627 25.0233L49.8054 27.0228L52.0873 26.974L51.7393 24.7183L49.7627 25.0233ZM42.9937 32.0139L42.9936 34.0139L44.728 34.014L44.9735 32.2971L42.9937 32.0139ZM47.628 39.6224L48.2819 37.7323L47.51 37.4652L46.7718 37.8149L47.628 39.6224ZM19.2388 39.6224L20.095 37.8149L19.3568 37.4652L18.5849 37.7323L19.2388 39.6224ZM17.2899 26.0285L17.1948 28.0263L18.6823 28.0971L19.1765 26.6923L17.2899 26.0285ZM28.8476 26.9734L26.8778 27.3197L30.8113 27.3527L28.8476 26.9734ZM25.3101 21.2152L23.5216 20.3201L22.4406 22.4799L24.7642 23.1392L25.3101 21.2152ZM44.9229 32.0139C44.9229 29.2934 47.0994 27.0807 49.8054 27.0228L49.7199 23.0237C44.8433 23.1281 40.9229 27.1129 40.9229 32.0139H44.9229ZM42.9938 30.0139L42.923 30.0139L42.9228 34.0139L42.9936 34.0139L42.9938 30.0139ZM49.9151 24.0205C45.3833 24.0205 41.6374 27.3711 41.0138 31.7307L44.9735 32.2971C45.3193 29.8796 47.4019 28.0205 49.9151 28.0205V24.0205ZM58.9074 33.0128C58.9074 28.0465 54.8814 24.0205 49.9151 24.0205V28.0205C52.6723 28.0205 54.9074 30.2556 54.9074 33.0128H58.9074ZM49.9151 42.005C54.8814 42.005 58.9074 37.979 58.9074 33.0128H54.9074C54.9074 35.7699 52.6723 38.005 49.9151 38.005V42.005ZM46.9741 41.5125C47.8982 41.8322 48.8886 42.005 49.9151 42.005V38.005C49.3397 38.005 48.7911 37.9084 48.2819 37.7323L46.9741 41.5125ZM45.9196 42.005C46.8331 42.005 47.7042 41.7993 48.4842 41.4298L46.7718 37.8149C46.5158 37.9362 46.2285 38.005 45.9196 38.005V42.005ZM20.9473 42.005H45.9196V38.005H20.9473V42.005ZM18.3826 41.4298C19.1626 41.7993 20.0337 42.005 20.9473 42.005V38.005C20.6383 38.005 20.351 37.9362 20.095 37.8149L18.3826 41.4298ZM16.9517 42.005C17.9782 42.005 18.9686 41.8322 19.8927 41.5125L18.5849 37.7323C18.0758 37.9085 17.5271 38.005 16.9517 38.005V42.005ZM7.95947 33.0128C7.95947 37.979 11.9854 42.005 16.9517 42.005V38.005C14.1946 38.005 11.9595 35.7699 11.9595 33.0128H7.95947ZM16.9517 24.0205C11.9854 24.0205 7.95947 28.0465 7.95947 33.0128H11.9595C11.9595 30.2556 14.1946 28.0205 16.9517 28.0205V24.0205ZM17.385 24.0308C17.2413 24.024 17.0968 24.0205 16.9517 24.0205V28.0205C17.0334 28.0205 17.1144 28.0225 17.1948 28.0263L17.385 24.0308ZM22.9451 20.0249C19.4576 20.0249 16.4966 22.2572 15.4033 25.3648L19.1765 26.6923C19.7242 25.1359 21.2074 24.0249 22.9451 24.0249V20.0249ZM30.8174 26.627C30.1578 22.8754 26.8864 20.0249 22.9451 20.0249V24.0249C24.911 24.0249 26.5487 25.4475 26.8778 27.3197L30.8174 26.627ZM26.9384 26.0205C26.9384 26.2184 26.9195 26.4099 26.8839 26.594L30.8113 27.3527C30.8949 26.9199 30.9384 26.4743 30.9384 26.0205H26.9384ZM24.7642 23.1392C26.0209 23.4958 26.9384 24.6536 26.9384 26.0205H30.9384C30.9384 22.8181 28.7879 20.1231 25.8561 19.2912L24.7642 23.1392ZM36.9295 12.0338C31.0578 12.0338 25.9785 15.4112 23.5216 20.3201L27.0986 22.1103C28.904 18.5033 32.6302 16.0338 36.9295 16.0338V12.0338ZM51.7393 24.7183C50.6309 17.5339 44.4244 12.0338 36.9295 12.0338V16.0338C42.4206 16.0338 46.974 20.0645 47.7861 25.3282L51.7393 24.7183Z" fill="black"></path>
<path fill-rule="evenodd" clip-rule="evenodd" d="M34.2565 48.4361C34.8603 48.2744 35.3391 47.6462 35.1176 46.8197C34.9703 46.2697 34.2147 45.5885 33.7255 45.1943C33.5115 45.0217 33.202 45.1098 33.1081 45.3681C32.8874 45.9753 32.5722 46.9808 32.7025 47.4668C32.8962 48.19 33.6527 48.5979 34.2565 48.4361ZM40.5934 46.9002C40.7358 47.4315 40.3935 47.8446 39.9708 47.9578C39.5482 48.0711 39.0274 47.8181 38.9028 47.3532C38.8168 47.0323 39.0657 46.3503 39.2282 45.9586C39.2932 45.8019 39.4824 45.7479 39.6193 45.8482C39.9526 46.0924 40.496 46.5365 40.5934 46.9002ZM27.2188 47.9578C27.6415 47.8446 27.9838 47.4315 27.8415 46.9002C27.744 46.5365 27.2007 46.0924 26.8674 45.8482C26.7304 45.7479 26.5412 45.8019 26.4762 45.9586C26.3137 46.3503 26.0648 47.0323 26.1508 47.3532C26.2754 47.8181 26.7962 48.0711 27.2188 47.9578ZM44.258 52.9311C44.8618 52.7693 45.3407 52.1411 45.1192 51.3146C44.9718 50.7646 44.2162 50.0835 43.7271 49.6892C43.513 49.5167 43.2036 49.6047 43.1096 49.8631C42.8889 50.4703 42.5738 51.4757 42.704 51.9618C42.8978 52.685 43.6542 53.0929 44.258 52.9311ZM25.3411 50.8958C25.4834 51.4271 25.1411 51.8402 24.7185 51.9534C24.2958 52.0667 23.775 51.8137 23.6504 51.3488C23.5645 51.0279 23.8134 50.3459 23.9758 49.9542C24.0409 49.7975 24.2301 49.7435 24.367 49.8438C24.7003 50.088 25.2436 50.5321 25.3411 50.8958ZM38.093 50.8958C38.2354 51.4271 37.8931 51.8402 37.4704 51.9534C37.0478 52.0667 36.527 51.8137 36.4024 51.3488C36.3164 51.0279 36.5653 50.3459 36.7278 49.9542C36.7928 49.7975 36.982 49.7435 37.1189 49.8438C37.4522 50.088 37.9956 50.5321 38.093 50.8958ZM31.8672 51.3146C32.0886 52.1411 31.6098 52.7693 31.006 52.9311C30.4022 53.0929 29.6457 52.685 29.452 51.9618C29.3217 51.4757 29.6369 50.4703 29.8576 49.8631C29.9515 49.6047 30.261 49.5167 30.475 49.6892C30.9642 50.0835 31.7198 50.7646 31.8672 51.3146ZM21.6156 46.8197C21.837 47.6462 21.3582 48.2744 20.7544 48.4361C20.1506 48.5979 19.3942 48.19 19.2004 47.4668C19.0702 46.9808 19.3853 45.9754 19.606 45.3681C19.6999 45.1098 20.0094 45.0217 20.2235 45.1943C20.7126 45.5885 21.4682 46.2697 21.6156 46.8197ZM47.5085 48.4361C48.1123 48.2744 48.5912 47.6462 48.3697 46.8197C48.2223 46.2697 47.4667 45.5885 46.9776 45.1943C46.7635 45.0217 46.4541 45.1098 46.3601 45.3681C46.1394 45.9753 45.8243 46.9808 45.9545 47.4668C46.1483 48.19 46.9047 48.5979 47.5085 48.4361Z" fill="black"></path>
</svg></g><g><g transform="matrix(2.5287,0,0,2.5366,92,232)"><svg type="text" width="87" height="41" viewBox="0 0 87 41" fill="none" xmlns="http://www.w3.org/2000/svg">
<text fill="#383B41" xml:space="preserve" style="white-space: pre" font-family="Avenir" font-size="56" font-weight="900" letter-spacing="0px"><tspan x="-0.703125" y="41">44°</tspan></text>
</svg></g><g transform="matrix(3.52,0,0,3.52,48,348)"><svg type="text" width="75" height="25" viewBox="0 0 75 25" fill="none" xmlns="http://www.w3.org/2000/svg">
<text fill="#383B41" xml:space="preserve" style="white-space: pre" font-family="Avenir" font-size="24" font-weight="300" letter-spacing="0px"><tspan x="-1.03125" y="19">Cloudy</tspan></text>
</svg></g></g><g transform="matrix(0.7882,0,0,0.7857,184,568)"><svg type="text" width="203" height="14" viewBox="0 0 203 14" fill="none" xmlns="http://www.w3.org/2000/svg">
<text id="Body" fill="#383B41" xml:space="preserve" style="white-space: pre" font-family="Avenir" font-size="16" font-weight="300" letter-spacing="0px"><tspan x="0.40625" y="13">Winds ENE at 10 to 15 km/h. </tspan></text>
</svg></g><g><g><g transform="matrix(1.1923,0,0,1.2,149,16)"><svg type="text" width="52" height="20" viewBox="0 0 52 20" fill="none" xmlns="http://www.w3.org/2000/svg">
<text id="TuesHeader" fill="#383B41" xml:space="preserve" style="white-space: pre" font-family="Avenir" font-size="24" font-weight="900" letter-spacing="0.5px"><tspan x="0.375" y="19">Tues</tspan></text>
</svg></g><g transform="matrix(1.1667,0,0,1.1667,152,44)"><svg type="icon" width="48" height="48" viewBox="0 0 48 48" fill="none" xmlns="http://www.w3.org/2000/svg">
<path d="M24 36.5926C30.9688 36.5926 36.6182 30.9433 36.6182 23.9745C36.6182 17.0057 30.9688 11.3563 24 11.3563C17.0312 11.3563 11.3818 17.0057 11.3818 23.9745C11.3818 30.9433 17.0312 36.5926 24 36.5926Z" stroke="black" stroke-width="2"></path>
<path fill-rule="evenodd" clip-rule="evenodd" d="M22.7382 1C22.7382 0.447715 23.1859 0 23.7382 0H24.2618C24.8141 0 25.2618 0.447715 25.2618 1V5.30908C25.2618 5.86136 24.8141 6.30908 24.2618 6.30908H23.7382C23.1859 6.30908 22.7382 5.86136 22.7382 5.30908V1ZM34.4072 3.4505C34.6834 2.97221 35.295 2.80833 35.7732 3.08447L36.2267 3.34629C36.705 3.62243 36.8689 4.23402 36.5927 4.71231L34.4382 8.44409C34.1621 8.92238 33.5505 9.08625 33.0722 8.81011L32.6187 8.5483C32.1404 8.27215 31.9765 7.66056 32.2527 7.18227L34.4072 3.4505ZM44.6537 11.7733C44.3775 11.295 43.766 11.1311 43.2877 11.4073L39.5559 13.5618C39.0776 13.8379 38.9137 14.4495 39.1899 14.9278L39.4517 15.3813C39.7278 15.8596 40.3394 16.0235 40.8177 15.7473L44.5495 13.5928C45.0278 13.3167 45.1916 12.7051 44.9155 12.2268L44.6537 11.7733ZM47 22.7382C47.5523 22.7382 48 23.1859 48 23.7382V24.2618C48 24.8141 47.5523 25.2618 47 25.2618H42.6909C42.1386 25.2618 41.6909 24.8141 41.6909 24.2618V23.7382C41.6909 23.1859 42.1386 22.7382 42.6909 22.7382H47ZM44.9155 35.7733C45.1917 35.295 45.0278 34.6834 44.5495 34.4073L40.8177 32.2527C40.3394 31.9766 39.7278 32.1404 39.4517 32.6187L39.1899 33.0722C38.9137 33.5505 39.0776 34.1621 39.5559 34.4382L43.2877 36.5928C43.766 36.8689 44.3776 36.7051 44.6537 36.2268L44.9155 35.7733ZM36.5928 43.2877C36.8689 43.766 36.705 44.3775 36.2267 44.6537L35.7733 44.9155C35.295 45.1916 34.6834 45.0278 34.4072 44.5495L32.2527 40.8177C31.9765 40.3394 32.1404 39.7278 32.6187 39.4517L33.0722 39.1899C33.5505 38.9137 34.1621 39.0776 34.4382 39.5559L36.5928 43.2877ZM24.2618 48C24.8141 48 25.2618 47.5523 25.2618 47V42.6909C25.2618 42.1386 24.8141 41.6909 24.2618 41.6909H23.7382C23.1859 41.6909 22.7382 42.1386 22.7382 42.6909V47C22.7382 47.5523 23.1859 48 23.7382 48H24.2618ZM13.5928 44.5495C13.3166 45.0278 12.705 45.1917 12.2267 44.9155L11.7733 44.6537C11.295 44.3776 11.1311 43.766 11.4072 43.2877L13.5618 39.5559C13.8379 39.0776 14.4495 38.9137 14.9278 39.1899L15.3813 39.4517C15.8596 39.7278 16.0234 40.3394 15.7473 40.8177L13.5928 44.5495ZM3.34629 36.2268C3.62243 36.7051 4.23402 36.8689 4.71231 36.5928L8.44409 34.4383C8.92238 34.1621 9.08625 33.5505 8.81011 33.0722L8.5483 32.6188C8.27215 32.1405 7.66056 31.9766 7.18227 32.2527L3.4505 34.4073C2.97221 34.6834 2.80833 35.295 3.08447 35.7733L3.34629 36.2268ZM1 25.2618C0.447715 25.2618 0 24.8141 0 24.2618V23.7382C0 23.1859 0.447715 22.7382 1 22.7382H5.30908C5.86136 22.7382 6.30908 23.1859 6.30908 23.7382V24.2618C6.30908 24.8141 5.86136 25.2618 5.30908 25.2618H1ZM3.08447 12.2268C2.80833 12.7051 2.97221 13.3167 3.4505 13.5928L7.18227 15.7473C7.66056 16.0235 8.27215 15.8596 8.5483 15.3813L8.81011 14.9278C9.08625 14.4495 8.92238 13.838 8.44409 13.5618L4.71231 11.4073C4.23402 11.1311 3.62243 11.295 3.34629 11.7733L3.08447 12.2268ZM11.4072 4.71231C11.1311 4.23402 11.295 3.62243 11.7733 3.34629L12.2267 3.08447C12.705 2.80833 13.3166 2.97221 13.5928 3.4505L15.7473 7.18227C16.0234 7.66056 15.8596 8.27215 15.3813 8.5483L14.9278 8.81011C14.4495 9.08625 13.8379 8.92238 13.5618 8.44409L11.4072 4.71231Z" fill="black"></path>
</svg></g></g><g><g transform="matrix(1.1923,0,0,1.2,275,16)"><svg type="text" width="52" height="20" viewBox="0 0 52 20" fill="none" xmlns="http://www.w3.org/2000/svg">
<text id="WedHeader" fill="#383B41" xml:space="preserve" style="white-space: pre" font-family="Avenir" font-size="24" font-weight="900" letter-spacing="0px"><tspan x="0.261719" y="19">Wed</tspan></text>
</svg></g><g transform="matrix(1.1667,0,0,1.1667,278,44)"><svg type="icon" width="48" height="48" viewBox="0 0 48 48" fill="none" xmlns="http://www.w3.org/2000/svg">
<rect width="48" height="48" fill="white"></rect>
<rect fill="white" y="8" width="49" height="30"></rect>
<path fill-rule="evenodd" clip-rule="evenodd" d="M37.2528 34.9573C37.9387 35.211 38.6773 35.3492 39.4468 35.3492C43.0661 35.3492 46 32.2936 46 28.5244C46 24.7552 43.0661 21.6996 39.4468 21.6996C36.1454 21.6996 33.4143 24.242 32.96 27.5494H32.8936C32.8937 23.83 35.7507 20.8055 39.3039 20.7263C38.404 14.6513 33.3619 10 27.2766 10C22.5104 10 18.3841 12.8534 16.3868 17.0094C18.3495 17.5894 19.7872 19.4697 19.7872 21.6996C19.7872 22.0177 19.758 22.3286 19.7021 22.6296C19.2388 19.8851 16.9383 17.7997 14.1702 17.7997C11.7217 17.7997 9.6391 19.4313 8.87014 21.7075C8.76512 21.7023 8.65945 21.6996 8.55319 21.6996C4.93396 21.6996 2 24.7552 2 28.5244C2 32.2936 4.93396 35.3492 8.55319 35.3492C9.32271 35.3492 10.0613 35.211 10.7472 34.9573C11.2625 35.2083 11.8413 35.3492 12.4531 35.3492H27.2699C27.2721 35.3492 27.2744 35.3492 27.2766 35.3492C27.2789 35.3492 27.2811 35.3492 27.2834 35.3492H35.5469C36.1587 35.3492 36.7375 35.2083 37.2528 34.9573Z"></path>
<path d="M37.2528 34.9573L37.9467 33.0815L37.1452 32.785L36.3768 33.1593L37.2528 34.9573ZM32.96 27.5494V29.5494H34.7041L34.9414 27.8216L32.96 27.5494ZM32.8936 27.5494L30.8936 27.5494L30.8936 29.5494H32.8936V27.5494ZM39.3039 20.7263L39.3485 22.7258L41.6145 22.6753L41.2823 20.4332L39.3039 20.7263ZM16.3868 17.0094L14.5841 16.1431L13.5661 18.2614L15.82 18.9274L16.3868 17.0094ZM19.7021 22.6296L17.7301 22.9626L21.6686 22.9943L19.7021 22.6296ZM8.87014 21.7075L8.77108 23.705L10.2811 23.7799L10.7649 22.3476L8.87014 21.7075ZM10.7472 34.9573L11.6231 33.1593L10.8548 32.785L10.0533 33.0815L10.7472 34.9573ZM36.5589 36.833C37.4628 37.1674 38.436 37.3492 39.4468 37.3492V33.3492C38.9186 33.3492 38.4147 33.2547 37.9467 33.0815L36.5589 36.833ZM39.4468 37.3492C44.2464 37.3492 48 33.3209 48 28.5244H44C44 31.2664 41.8857 33.3492 39.4468 33.3492V37.3492ZM48 28.5244C48 23.7279 44.2464 19.6996 39.4468 19.6996V23.6996C41.8857 23.6996 44 25.7824 44 28.5244H48ZM39.4468 19.6996C35.0713 19.6996 31.5584 23.0557 30.9786 27.2773L34.9414 27.8216C35.2701 25.4284 37.2196 23.6996 39.4468 23.6996V19.6996ZM32.96 25.5494H32.8936V29.5494H32.96V25.5494ZM34.8936 27.5494C34.8937 24.8448 36.9531 22.7792 39.3485 22.7258L39.2594 18.7268C34.5483 18.8317 30.8937 22.8151 30.8936 27.5494L34.8936 27.5494ZM41.2823 20.4332C40.2483 13.4531 34.4278 8 27.2766 8V12C32.2959 12 36.5597 15.8494 37.3255 21.0194L41.2823 20.4332ZM27.2766 8C21.6803 8 16.8871 11.3511 14.5841 16.1431L18.1894 17.8757C19.8811 14.3557 23.3404 12 27.2766 12V8ZM15.82 18.9274C16.9105 19.2497 17.7872 20.3325 17.7872 21.6996H21.7872C21.7872 18.6069 19.7886 15.9292 16.9536 15.0914L15.82 18.9274ZM17.7872 21.6996C17.7872 21.8949 17.7693 22.0837 17.7357 22.2649L21.6686 22.9943C21.7467 22.5735 21.7872 22.1405 21.7872 21.6996H17.7872ZM21.6742 22.2967C21.0611 18.6647 17.9886 15.7997 14.1702 15.7997V19.7997C15.8881 19.7997 17.4165 21.1055 17.7301 22.9626L21.6742 22.2967ZM14.1702 15.7997C10.7953 15.7997 7.99628 18.0453 6.97535 21.0673L10.7649 22.3476C11.2819 20.8173 12.6481 19.7997 14.1702 19.7997V15.7997ZM8.9692 19.7099C8.83121 19.7031 8.69251 19.6996 8.55319 19.6996V23.6996C8.62639 23.6996 8.69903 23.7014 8.77108 23.705L8.9692 19.7099ZM8.55319 19.6996C3.75363 19.6996 0 23.7279 0 28.5244H4C4 25.7824 6.1143 23.6996 8.55319 23.6996V19.6996ZM0 28.5244C0 33.3209 3.75363 37.3492 8.55319 37.3492V33.3492C6.1143 33.3492 4 31.2664 4 28.5244H0ZM8.55319 37.3492C9.56398 37.3492 10.5372 37.1674 11.4411 36.833L10.0533 33.0815C9.58527 33.2547 9.08144 33.3492 8.55319 33.3492V37.3492ZM9.87126 36.7553C10.6534 37.1363 11.5312 37.3492 12.4531 37.3492V33.3492C12.1514 33.3492 11.8715 33.2803 11.6231 33.1593L9.87126 36.7553ZM12.4531 37.3492H27.2699V33.3492H12.4531V37.3492ZM27.2699 37.3492C27.2705 37.3492 27.2712 37.3492 27.2724 37.3492C27.2734 37.3492 27.275 37.3492 27.2766 37.3492V33.3492C27.276 33.3492 27.2753 33.3492 27.2741 33.3492C27.273 33.3492 27.2715 33.3492 27.2699 33.3492V37.3492ZM27.2766 37.3492C27.2782 37.3492 27.2798 37.3492 27.2808 37.3492C27.282 37.3492 27.2827 37.3492 27.2834 37.3492V33.3492C27.2817 33.3492 27.2802 33.3492 27.2791 33.3492C27.2779 33.3492 27.2772 33.3492 27.2766 33.3492V37.3492ZM27.2834 37.3492H35.5469V33.3492H27.2834V37.3492ZM35.5469 37.3492C36.4688 37.3492 37.3466 37.1363 38.1287 36.7553L36.3768 33.1593C36.1285 33.2803 35.8486 33.3492 35.5469 33.3492V37.3492Z" fill="black"></path>
<path fill-rule="evenodd" clip-rule="evenodd" d="M12.9242 42.0005C13.1317 42.8073 12.683 43.4204 12.1171 43.5783C11.5512 43.7362 10.8423 43.3381 10.6607 42.6322C10.5412 42.1679 10.8216 41.2178 11.0276 40.6219C11.1202 40.3539 11.4374 40.2599 11.6499 40.4397C12.1086 40.8278 12.7891 41.4755 12.9242 42.0005ZM24.7714 43.5783C25.3373 43.4204 25.786 42.8073 25.5785 42.0005C25.4434 41.4755 24.7629 40.8278 24.3042 40.4397C24.0917 40.2599 23.7745 40.3539 23.6819 40.6219C23.4759 41.2178 23.1955 42.1679 23.315 42.6322C23.4966 43.3381 24.2055 43.7362 24.7714 43.5783ZM18.1756 43.1116C18.5718 43.001 18.8926 42.5979 18.7592 42.0793C18.6697 41.7314 18.1788 41.3081 17.8652 41.067C17.7289 40.9622 17.5352 41.0196 17.4707 41.1827C17.3185 41.5681 17.0956 42.2142 17.1747 42.5214C17.2914 42.9752 17.7795 43.2221 18.1756 43.1116ZM34.1449 47.9657C34.7108 47.8078 35.1596 47.1947 34.952 46.388C34.8169 45.8629 34.1364 45.2153 33.6777 44.8271C33.4653 44.6473 33.148 44.7413 33.0554 45.0093C32.8495 45.6052 32.569 46.5553 32.6885 47.0196C32.8701 47.7255 33.579 48.1236 34.1449 47.9657ZM16.4157 45.9791C16.5492 46.4977 16.2283 46.9009 15.8322 47.0114C15.4361 47.1219 14.948 46.875 14.8313 46.4212C14.7522 46.1141 14.9751 45.4679 15.1273 45.0825C15.1918 44.9194 15.3854 44.862 15.5218 44.9668C15.8354 45.2079 16.3262 45.6313 16.4157 45.9791ZM28.367 45.9791C28.5005 46.4977 28.1796 46.9009 27.7835 47.0114C27.3874 47.1219 26.8993 46.875 26.7826 46.4212C26.7035 46.1141 26.9264 45.4679 27.0786 45.0825C27.1431 44.9194 27.3367 44.862 27.4731 44.9668C27.7867 45.2079 28.2776 45.6313 28.367 45.9791ZM22.5321 46.388C22.7396 47.1947 22.2909 47.8078 21.725 47.9657C21.1591 48.1236 20.4502 47.7255 20.2685 47.0196C20.1491 46.5553 20.4295 45.6052 20.6355 45.0093C20.7281 44.7413 21.0453 44.6473 21.2578 44.8271C21.7165 45.2153 22.397 45.8629 22.5321 46.388ZM30.7104 42.0793C30.8439 42.5979 30.523 43.001 30.1269 43.1116C29.7308 43.2221 29.2427 42.9752 29.1259 42.5214C29.0469 42.2142 29.2698 41.5681 29.422 41.1827C29.4864 41.0196 29.6801 40.9622 29.8165 41.067C30.1301 41.3081 30.6209 41.7314 30.7104 42.0793ZM37.1914 43.5783C37.7572 43.4204 38.206 42.8073 37.9984 42.0005C37.8634 41.4755 37.1828 40.8278 36.7241 40.4397C36.5117 40.2599 36.1945 40.3539 36.1018 40.6219C35.8959 41.2178 35.6154 42.1679 35.7349 42.6322C35.9165 43.3381 36.6255 43.7362 37.1914 43.5783Z" fill="black"></path>
</svg></g></g><g><g transform="matrix(1.1923,0,0,1.2,23,20)"><svg type="text" width="52" height="20" viewBox="0 0 52 20" fill="none" xmlns="http://www.w3.org/2000/svg">
<text id="ThursHeader" fill="#383B41" xml:space="preserve" style="white-space: pre" font-family="Avenir" font-size="24" font-weight="900" letter-spacing="0px"><tspan x="0.441406" y="19">Thur</tspan></text>
</svg></g><g transform="matrix(1.2083,0,0,1.2,25,48)"><svg type="icon" width="48" height="40" viewBox="0 0 48 40" fill="none" xmlns="http://www.w3.org/2000/svg">
<g id="Foggy">
<rect id="Rectangle" width="48" height="38" fill="white"></rect>
<g id="Foggy_2">
<g id="Cloud">
<rect fill="white" width="48" height="29"></rect>
<path fill-rule="evenodd" clip-rule="evenodd" d="M39.3039 12.3581C35.7507 12.4346 32.8936 15.3553 32.8936 18.9472C32.8936 18.9472 32.8936 18.9472 32.8936 18.9472H32.96C33.4142 15.7533 36.1454 13.2981 39.4468 13.2981C43.066 13.2981 46 16.2488 46 19.8887C46 23.5286 43.066 26.4793 39.4468 26.4793C38.6935 26.4793 37.9699 26.3515 37.2962 26.1162C36.8067 26.349 36.2589 26.4793 35.6807 26.4793H12.3192C11.741 26.4793 11.1933 26.349 10.7037 26.1162C10.0301 26.3515 9.30649 26.4793 8.55319 26.4793C4.93396 26.4793 2 23.5286 2 19.8887C2 16.2488 4.93396 13.2981 8.55319 13.2981C8.65945 13.2981 8.76512 13.3007 8.87014 13.3057C9.6391 11.1077 11.7217 9.53209 14.1702 9.53209C16.9383 9.53209 19.2388 11.5459 19.7021 14.1963C19.758 13.9056 19.7872 13.6053 19.7872 13.2982C19.7872 11.1447 18.3495 9.329 16.3868 8.76888C18.3841 4.75549 22.5104 2 27.2766 2C33.3618 2 38.4039 6.4916 39.3039 12.3581Z"></path>
<path d="M39.3039 12.3581L39.3469 14.3576L41.6265 14.3086L41.2808 12.0548L39.3039 12.3581ZM32.8936 18.9472H30.8936V20.9472H32.8936V18.9472ZM32.96 18.9472V20.9472H34.6956L34.94 19.2288L32.96 18.9472ZM37.2962 26.1162L37.9557 24.228L37.1796 23.957L36.4373 24.3101L37.2962 26.1162ZM10.7037 26.1162L11.5627 24.3101L10.8204 23.957L10.0443 24.228L10.7037 26.1162ZM8.87014 13.3057L8.77446 15.3034L10.2651 15.3748L10.7579 13.9661L8.87014 13.3057ZM19.7021 14.1963L17.732 14.5407L21.6662 14.5735L19.7021 14.1963ZM16.3868 8.76888L14.5963 7.87781L13.5243 10.0318L15.8379 10.6921L16.3868 8.76888ZM34.8936 18.9472C34.8936 16.4351 36.8893 14.4105 39.3469 14.3576L39.2609 10.3586C34.6121 10.4586 30.8936 14.2755 30.8936 18.9472H34.8936ZM34.8936 18.9472C34.8936 18.9472 34.8936 18.9472 34.8936 18.9472C34.8936 18.9472 34.8936 18.9472 34.8936 18.9472C34.8936 18.9472 34.8936 18.9472 34.8936 18.9472C34.8936 18.9472 34.8936 18.9472 34.8936 18.9472C34.8936 18.9472 34.8936 18.9472 34.8936 18.9472C34.8936 18.9472 34.8936 18.9472 34.8936 18.9472C34.8936 18.9472 34.8936 18.9472 34.8936 18.9472C34.8936 18.9472 34.8936 18.9472 34.8936 18.9472C34.8936 18.9472 34.8936 18.9472 34.8936 18.9472C34.8936 18.9472 34.8936 18.9472 34.8936 18.9472C34.8936 18.9472 34.8936 18.9472 34.8936 18.9472C34.8936 18.9472 34.8936 18.9472 34.8936 18.9472C34.8936 18.9472 34.8936 18.9472 34.8936 18.9472C34.8936 18.9472 34.8936 18.9472 34.8936 18.9472C34.8936 18.9472 34.8936 18.9472 34.8936 18.9472C34.8936 18.9472 34.8936 18.9472 34.8936 18.9472C34.8936 18.9472 34.8936 18.9472 34.8936 18.9472C34.8936 18.9472 34.8936 18.9472 34.8936 18.9472C34.8936 18.9472 34.8936 18.9472 34.8936 18.9472C34.8936 18.9472 34.8936 18.9472 34.8936 18.9472C34.8936 18.9472 34.8936 18.9472 34.8936 18.9472C34.8936 18.9472 34.8936 18.9472 34.8936 18.9472C34.8936 18.9472 34.8936 18.9472 34.8936 18.9472C34.8936 18.9472 34.8936 18.9472 34.8936 18.9472C34.8936 18.9472 34.8936 18.9472 34.8936 18.9472C34.8936 18.9472 34.8936 18.9472 34.8936 18.9472C34.8936 18.9472 34.8936 18.9472 34.8936 18.9472C34.8936 18.9472 34.8936 18.9472 34.8936 18.9472C34.8936 18.9472 34.8936 18.9472 34.8936 18.9472C34.8936 18.9472 34.8936 18.9472 34.8936 18.9472C34.8936 18.9472 34.8936 18.9472 34.8936 18.9472C34.8936 18.9472 34.8936 18.9472 34.8936 18.9472C34.8936 18.9472 34.8936 18.9472 34.8936 18.9472C34.8936 18.9472 34.8936 18.9472 34.8936 18.9472C34.8936 18.9472 34.8936 18.9472 34.8936 18.9472C34.8936 18.9472 34.8936 18.9472 34.8936 18.9472C34.8936 18.9472 34.8936 18.9472 34.8936 18.9472C34.8936 18.9472 34.8936 18.9472 34.8936 18.9472C34.8936 18.9472 34.8936 18.9472 34.8936 18.9472C34.8936 18.9472 34.8936 18.9472 34.8936 18.9472C34.8936 18.9472 34.8936 18.9472 34.8936 18.9472C34.8936 18.9472 34.8936 18.9472 34.8936 18.9472C34.8936 18.9472 34.8936 18.9472 34.8936 18.9472C34.8936 18.9472 34.8936 18.9472 34.8936 18.9472C34.8936 18.9472 34.8936 18.9472 34.8936 18.9472C34.8936 18.9472 34.8936 18.9472 34.8936 18.9472C34.8936 18.9472 34.8936 18.9472 34.8936 18.9472C34.8936 18.9472 34.8936 18.9472 34.8936 18.9472C34.8936 18.9472 34.8936 18.9472 34.8936 18.9472C34.8936 18.9472 34.8936 18.9472 34.8936 18.9472C34.8936 18.9472 34.8936 18.9472 34.8936 18.9472C34.8936 18.9472 34.8936 18.9472 34.8936 18.9472C34.8936 18.9472 34.8936 18.9472 34.8936 18.9472C34.8936 18.9472 34.8936 18.9472 34.8936 18.9472C34.8936 18.9472 34.8936 18.9472 34.8936 18.9472C34.8936 18.9472 34.8936 18.9472 34.8936 18.9472C34.8936 18.9472 34.8936 18.9472 34.8936 18.9472C34.8936 18.9472 34.8936 18.9472 34.8936 18.9472C34.8936 18.9472 34.8936 18.9472 34.8936 18.9472C34.8936 18.9472 34.8936 18.9472 34.8936 18.9472C34.8936 18.9472 34.8936 18.9472 34.8936 18.9472C34.8936 18.9472 34.8936 18.9472 34.8936 18.9472C34.8936 18.9472 34.8936 18.9472 34.8936 18.9472C34.8936 18.9472 34.8936 18.9472 34.8936 18.9472C34.8936 18.9472 34.8936 18.9472 34.8936 18.9472C34.8936 18.9472 34.8936 18.9472 34.8936 18.9472C34.8936 18.9472 34.8936 18.9472 34.8936 18.9472C34.8936 18.9472 34.8936 18.9472 34.8936 18.9472C34.8936 18.9472 34.8936 18.9472 34.8936 18.9472C34.8936 18.9472 34.8936 18.9472 34.8936 18.9472C34.8936 18.9472 34.8936 18.9472 34.8936 18.9472C34.8936 18.9472 34.8936 18.9472 34.8936 18.9472C34.8936 18.9472 34.8936 18.9472 34.8936 18.9472C34.8936 18.9472 34.8936 18.9472 34.8936 18.9472C34.8936 18.9472 34.8936 18.9472 34.8936 18.9472C34.8936 18.9472 34.8936 18.9472 34.8936 18.9472C34.8936 18.9472 34.8936 18.9472 34.8936 18.9472C34.8936 18.9472 34.8936 18.9472 34.8936 18.9472C34.8936 18.9472 34.8936 18.9472 34.8936 18.9472C34.8936 18.9472 34.8936 18.9472 34.8936 18.9472C34.8936 18.9472 34.8936 18.9472 34.8936 18.9472C34.8936 18.9472 34.8936 18.9472 34.8936 18.9472C34.8936 18.9472 34.8936 18.9472 34.8936 18.9472C34.8936 18.9472 34.8936 18.9472 34.8936 18.9472C34.8936 18.9472 34.8936 18.9472 34.8936 18.9472C34.8936 18.9472 34.8936 18.9472 34.8936 18.9472C34.8936 18.9472 34.8936 18.9472 34.8936 18.9472C34.8936 18.9472 34.8936 18.9472 34.8936 18.9472C34.8936 18.9472 34.8936 18.9472 34.8936 18.9472C34.8936 18.9472 34.8936 18.9472 34.8936 18.9472C34.8936 18.9472 34.8936 18.9472 34.8936 18.9472C34.8936 18.9472 34.8936 18.9472 34.8936 18.9472C34.8936 18.9472 34.8936 18.9472 34.8936 18.9472C34.8936 18.9472 34.8936 18.9472 34.8936 18.9472C34.8936 18.9472 34.8936 18.9472 34.8936 18.9472C34.8936 18.9472 34.8936 18.9472 34.8936 18.9472C34.8936 18.9472 34.8936 18.9472 34.8936 18.9472C34.8936 18.9472 34.8936 18.9472 34.8936 18.9472C34.8936 18.9472 34.8936 18.9472 34.8936 18.9472C34.8936 18.9472 34.8936 18.9472 34.8936 18.9472C34.8936 18.9472 34.8936 18.9472 34.8936 18.9472C34.8936 18.9472 34.8936 18.9472 34.8936 18.9472C34.8936 18.9472 34.8936 18.9472 34.8936 18.9472C34.8936 18.9472 34.8936 18.9472 34.8936 18.9472C34.8936 18.9472 34.8936 18.9472 34.8936 18.9472C34.8936 18.9472 34.8936 18.9472 34.8936 18.9472C34.8936 18.9472 34.8936 18.9472 34.8936 18.9472C34.8936 18.9472 34.8936 18.9472 34.8936 18.9472C34.8936 18.9472 34.8936 18.9472 34.8936 18.9472C34.8936 18.9472 34.8936 18.9472 34.8936 18.9472C34.8936 18.9472 34.8936 18.9472 34.8936 18.9472C34.8936 18.9472 34.8936 18.9472 34.8936 18.9472C34.8936 18.9472 34.8936 18.9472 34.8936 18.9472C34.8936 18.9472 34.8936 18.9472 34.8936 18.9472C34.8936 18.9472 34.8936 18.9472 34.8936 18.9472C34.8936 18.9472 34.8936 18.9472 34.8936 18.9472C34.8936 18.9472 34.8936 18.9472 34.8936 18.9472C34.8936 18.9472 34.8936 18.9472 34.8936 18.9472C34.8936 18.9472 34.8936 18.9472 34.8936 18.9472C34.8936 18.9472 34.8936 18.9472 34.8936 18.9472C34.8936 18.9472 34.8936 18.9472 34.8936 18.9472C34.8936 18.9472 34.8936 18.9472 34.8936 18.9472C34.8936 18.9472 34.8936 18.9472 34.8936 18.9472C34.8936 18.9472 34.8936 18.9472 34.8936 18.9472C34.8936 18.9472 34.8936 18.9472 34.8936 18.9472C34.8936 18.9472 34.8936 18.9472 34.8936 18.9472C34.8936 18.9472 34.8936 18.9472 34.8936 18.9472C34.8936 18.9472 34.8936 18.9472 34.8936 18.9472C34.8936 18.9472 34.8936 18.9472 34.8936 18.9472C34.8936 18.9472 34.8936 18.9472 34.8936 18.9472C34.8936 18.9472 34.8936 18.9472 34.8936 18.9472C34.8936 18.9472 34.8936 18.9472 34.8936 18.9472C34.8936 18.9472 34.8936 18.9472 34.8936 18.9472C34.8936 18.9472 34.8936 18.9472 34.8936 18.9472C34.8936 18.9472 34.8936 18.9472 34.8936 18.9472C34.8936 18.9472 34.8936 18.9472 34.8936 18.9472C34.8936 18.9472 34.8936 18.9472 34.8936 18.9472C34.8936 18.9472 34.8936 18.9472 34.8936 18.9472C34.8936 18.9472 34.8936 18.9472 34.8936 18.9472C34.8936 18.9472 34.8936 18.9472 34.8936 18.9472C34.8936 18.9472 34.8936 18.9472 34.8936 18.9472C34.8936 18.9472 34.8936 18.9472 34.8936 18.9472C34.8936 18.9472 34.8936 18.9472 34.8936 18.9472C34.8936 18.9472 34.8936 18.9472 34.8936 18.9472C34.8936 18.9472 34.8936 18.9472 34.8936 18.9472C34.8936 18.9472 34.8936 18.9472 34.8936 18.9472C34.8936 18.9472 34.8936 18.9472 34.8936 18.9472C34.8936 18.9472 34.8936 18.9472 34.8936 18.9472C34.8936 18.9472 34.8936 18.9472 34.8936 18.9472C34.8936 18.9472 34.8936 18.9472 34.8936 18.9472C34.8936 18.9472 34.8936 18.9472 34.8936 18.9472C34.8936 18.9472 34.8936 18.9472 34.8936 18.9472C34.8936 18.9472 34.8936 18.9472 34.8936 18.9472C34.8936 18.9472 34.8936 18.9472 34.8936 18.9472C34.8936 18.9472 34.8936 18.9472 34.8936 18.9472C34.8936 18.9472 34.8936 18.9472 34.8936 18.9472C34.8936 18.9472 34.8936 18.9472 34.8936 18.9472C34.8936 18.9472 34.8936 18.9472 34.8936 18.9472C34.8936 18.9472 34.8936 18.9472 34.8936 18.9472C34.8936 18.9472 34.8936 18.9472 34.8936 18.9472C34.8936 18.9472 34.8936 18.9472 34.8936 18.9472C34.8936 18.9472 34.8936 18.9472 34.8936 18.9472C34.8936 18.9472 34.8936 18.9472 34.8936 18.9472C34.8936 18.9472 34.8936 18.9472 34.8936 18.9472C34.8936 18.9472 34.8936 18.9472 34.8936 18.9472C34.8936 18.9472 34.8936 18.9472 34.8936 18.9472C34.8936 18.9472 34.8936 18.9472 34.8936 18.9472C34.8936 18.9472 34.8936 18.9472 34.8936 18.9472C34.8936 18.9472 34.8936 18.9472 34.8936 18.9472C34.8936 18.9472 34.8936 18.9472 34.8936 18.9472C34.8936 18.9472 34.8936 18.9472 34.8936 18.9472C34.8936 18.9472 34.8936 18.9472 34.8936 18.9472C34.8936 18.9472 34.8936 18.9472 34.8936 18.9472C34.8936 18.9472 34.8936 18.9472 34.8936 18.9472C34.8936 18.9472 34.8936 18.9472 34.8936 18.9472C34.8936 18.9472 34.8936 18.9472 34.8936 18.9472C34.8936 18.9472 34.8936 18.9472 34.8936 18.9472C34.8936 18.9472 34.8936 18.9472 34.8936 18.9472C34.8936 18.9472 34.8936 18.9472 34.8936 18.9472C34.8936 18.9472 34.8936 18.9472 34.8936 18.9472C34.8936 18.9472 34.8936 18.9472 34.8936 18.9472C34.8936 18.9472 34.8936 18.9472 34.8936 18.9472C34.8936 18.9472 34.8936 18.9472 34.8936 18.9472C34.8936 18.9472 34.8936 18.9472 34.8936 18.9472C34.8936 18.9472 34.8936 18.9472 34.8936 18.9472C34.8936 18.9472 34.8936 18.9472 34.8936 18.9472C34.8936 18.9472 34.8936 18.9472 34.8936 18.9472C34.8936 18.9472 34.8936 18.9472 34.8936 18.9472C34.8936 18.9472 34.8936 18.9472 34.8936 18.9472C34.8936 18.9472 34.8936 18.9472 34.8936 18.9472C34.8936 18.9472 34.8936 18.9472 34.8936 18.9472C34.8936 18.9472 34.8936 18.9472 34.8936 18.9472C34.8936 18.9472 34.8936 18.9472 34.8936 18.9472C34.8936 18.9472 34.8936 18.9472 34.8936 18.9472C34.8936 18.9472 34.8936 18.9472 34.8936 18.9472C34.8936 18.9472 34.8936 18.9472 34.8936 18.9472C34.8936 18.9472 34.8936 18.9472 34.8936 18.9472C34.8936 18.9472 34.8936 18.9472 34.8936 18.9472C34.8936 18.9472 34.8936 18.9472 34.8936 18.9472C34.8936 18.9472 34.8936 18.9472 34.8936 18.9472C34.8936 18.9472 34.8936 18.9472 34.8936 18.9472C34.8936 18.9472 34.8936 18.9472 34.8936 18.9472C34.8936 18.9472 34.8936 18.9472 34.8936 18.9472C34.8936 18.9472 34.8936 18.9472 34.8936 18.9472C34.8936 18.9472 34.8936 18.9472 34.8936 18.9472C34.8936 18.9472 34.8936 18.9472 34.8936 18.9472C34.8936 18.9472 34.8936 18.9472 34.8936 18.9472C34.8936 18.9472 34.8936 18.9472 34.8936 18.9472C34.8936 18.9472 34.8936 18.9472 34.8936 18.9472C34.8936 18.9472 34.8936 18.9472 34.8936 18.9472C34.8936 18.9472 34.8936 18.9472 34.8936 18.9472C34.8936 18.9472 34.8936 18.9472 34.8936 18.9472C34.8936 18.9472 34.8936 18.9472 34.8936 18.9472C34.8936 18.9472 34.8936 18.9472 34.8936 18.9472C34.8936 18.9472 34.8936 18.9472 34.8936 18.9472C34.8936 18.9472 34.8936 18.9472 34.8936 18.9472C34.8936 18.9472 34.8936 18.9472 34.8936 18.9472C34.8936 18.9472 34.8936 18.9472 34.8936 18.9472C34.8936 18.9472 34.8936 18.9472 34.8936 18.9472C34.8936 18.9472 34.8936 18.9472 34.8936 18.9472C34.8936 18.9472 34.8936 18.9472 34.8936 18.9472C34.8936 18.9472 34.8936 18.9472 34.8936 18.9472C34.8936 18.9472 34.8936 18.9472 34.8936 18.9472C34.8936 18.9472 34.8936 18.9472 34.8936 18.9472C34.8936 18.9472 34.8936 18.9472 34.8936 18.9472C34.8936 18.9472 34.8936 18.9472 34.8936 18.9472C34.8936 18.9472 34.8936 18.9472 34.8936 18.9472C34.8936 18.9472 34.8936 18.9472 34.8936 18.9472C34.8936 18.9472 34.8936 18.9472 34.8936 18.9472C34.8936 18.9472 34.8936 18.9472 34.8936 18.9472C34.8936 18.9472 34.8936 18.9472 34.8936 18.9472C34.8936 18.9472 34.8936 18.9472 34.8936 18.9472C34.8936 18.9472 34.8936 18.9472 34.8936 18.9472C34.8936 18.9472 34.8936 18.9472 34.8936 18.9472C34.8936 18.9472 34.8936 18.9472 34.8936 18.9472C34.8936 18.9472 34.8936 18.9472 34.8936 18.9472C34.8936 18.9472 34.8936 18.9472 34.8936 18.9472C34.8936 18.9472 34.8936 18.9472 34.8936 18.9472C34.8936 18.9472 34.8936 18.9472 34.8936 18.9472C34.8936 18.9472 34.8936 18.9472 34.8936 18.9472C34.8936 18.9472 34.8936 18.9472 34.8936 18.9472C34.8936 18.9472 34.8936 18.9472 34.8936 18.9472C34.8936 18.9472 34.8936 18.9472 34.8936 18.9472C34.8936 18.9472 34.8936 18.9472 34.8936 18.9472C34.8936 18.9472 34.8936 18.9472 34.8936 18.9472C34.8936 18.9472 34.8936 18.9472 34.8936 18.9472C34.8936 18.9472 34.8936 18.9472 34.8936 18.9472C34.8936 18.9472 34.8936 18.9472 34.8936 18.9472C34.8936 18.9472 34.8936 18.9472 34.8936 18.9472C34.8936 18.9472 34.8936 18.9472 34.8936 18.9472C34.8936 18.9472 34.8936 18.9472 34.8936 18.9472C34.8936 18.9472 34.8936 18.9472 34.8936 18.9472C34.8936 18.9472 34.8936 18.9472 34.8936 18.9472C34.8936 18.9472 34.8936 18.9472 34.8936 18.9472C34.8936 18.9472 34.8936 18.9472 34.8936 18.9472C34.8936 18.9472 34.8936 18.9472 34.8936 18.9472C34.8936 18.9472 34.8936 18.9472 34.8936 18.9472C34.8936 18.9472 34.8936 18.9472 34.8936 18.9472C34.8936 18.9472 34.8936 18.9472 34.8936 18.9472C34.8936 18.9472 34.8936 18.9472 34.8936 18.9472C34.8936 18.9472 34.8936 18.9472 34.8936 18.9472C34.8936 18.9472 34.8936 18.9472 34.8936 18.9472C34.8936 18.9472 34.8936 18.9472 34.8936 18.9472C34.8936 18.9472 34.8936 18.9472 34.8936 18.9472C34.8936 18.9472 34.8936 18.9472 34.8936 18.9472C34.8936 18.9472 34.8936 18.9472 34.8936 18.9472C34.8936 18.9472 34.8936 18.9472 34.8936 18.9472C34.8936 18.9472 34.8936 18.9472 34.8936 18.9472C34.8936 18.9472 34.8936 18.9472 34.8936 18.9472C34.8936 18.9472 34.8936 18.9472 34.8936 18.9472C34.8936 18.9472 34.8936 18.9472 34.8936 18.9472C34.8936 18.9472 34.8936 18.9472 34.8936 18.9472C34.8936 18.9472 34.8936 18.9472 34.8936 18.9472C34.8936 18.9472 34.8936 18.9472 34.8936 18.9472C34.8936 18.9472 34.8936 18.9472 34.8936 18.9472C34.8936 18.9472 34.8936 18.9472 34.8936 18.9472C34.8936 18.9472 34.8936 18.9472 34.8936 18.9472C34.8936 18.9472 34.8936 18.9472 34.8936 18.9472C34.8936 18.9472 34.8936 18.9472 34.8936 18.9472C34.8936 18.9472 34.8936 18.9472 34.8936 18.9472C34.8936 18.9472 34.8936 18.9472 34.8936 18.9472C34.8936 18.9472 34.8936 18.9472 34.8936 18.9472C34.8936 18.9472 34.8936 18.9472 34.8936 18.9472C34.8936 18.9472 34.8936 18.9472 34.8936 18.9472C34.8936 18.9472 34.8936 18.9472 34.8936 18.9472C34.8936 18.9472 34.8936 18.9472 34.8936 18.9472C34.8936 18.9472 34.8936 18.9472 34.8936 18.9472C34.8936 18.9472 34.8936 18.9472 34.8936 18.9472C34.8936 18.9472 34.8936 18.9472 34.8936 18.9472C34.8936 18.9472 34.8936 18.9472 34.8936 18.9472C34.8936 18.9472 34.8936 18.9472 34.8936 18.9472C34.8936 18.9472 34.8936 18.9472 34.8936 18.9472C34.8936 18.9472 34.8936 18.9472 34.8936 18.9472C34.8936 18.9472 34.8936 18.9472 34.8936 18.9472C34.8936 18.9472 34.8936 18.9472 34.8936 18.9472C34.8936 18.9472 34.8936 18.9472 34.8936 18.9472C34.8936 18.9472 34.8936 18.9472 34.8936 18.9472C34.8936 18.9472 34.8936 18.9472 34.8936 18.9472C34.8936 18.9472 34.8936 18.9472 34.8936 18.9472C34.8936 18.9472 34.8936 18.9472 34.8936 18.9472C34.8936 18.9472 34.8936 18.9472 34.8936 18.9472C34.8936 18.9472 34.8936 18.9472 34.8936 18.9472C34.8936 18.9472 34.8936 18.9472 34.8936 18.9472C34.8936 18.9472 34.8936 18.9472 34.8936 18.9472C34.8936 18.9472 34.8936 18.9472 34.8936 18.9472C34.8936 18.9472 34.8936 18.9472 34.8936 18.9472C34.8936 18.9472 34.8936 18.9472 34.8936 18.9472C34.8936 18.9472 34.8936 18.9472 34.8936 18.9472C34.8936 18.9472 34.8936 18.9472 34.8936 18.9472C34.8936 18.9472 34.8936 18.9472 34.8936 18.9472C34.8936 18.9472 34.8936 18.9472 34.8936 18.9472C34.8936 18.9472 34.8936 18.9472 34.8936 18.9472C34.8936 18.9472 34.8936 18.9472 34.8936 18.9472C34.8936 18.9472 34.8936 18.9472 34.8936 18.9472C34.8936 18.9472 34.8936 18.9472 34.8936 18.9472C34.8936 18.9472 34.8936 18.9472 34.8936 18.9472C34.8936 18.9472 34.8936 18.9472 34.8936 18.9472C34.8936 18.9472 34.8936 18.9472 34.8936 18.9472C34.8936 18.9472 34.8936 18.9472 34.8936 18.9472C34.8936 18.9472 34.8936 18.9472 34.8936 18.9472C34.8936 18.9472 34.8936 18.9472 34.8936 18.9472C34.8936 18.9472 34.8936 18.9472 34.8936 18.9472C34.8936 18.9472 34.8936 18.9472 34.8936 18.9472C34.8936 18.9472 34.8936 18.9472 34.8936 18.9472C34.8936 18.9472 34.8936 18.9472 34.8936 18.9472C34.8936 18.9472 34.8936 18.9472 34.8936 18.9472C34.8936 18.9472 34.8936 18.9472 34.8936 18.9472C34.8936 18.9472 34.8936 18.9472 34.8936 18.9472C34.8936 18.9472 34.8936 18.9472 34.8936 18.9472C34.8936 18.9472 34.8936 18.9472 34.8936 18.9472C34.8936 18.9472 34.8936 18.9472 34.8936 18.9472C34.8936 18.9472 34.8936 18.9472 34.8936 18.9472C34.8936 18.9472 34.8936 18.9472 34.8936 18.9472C34.8936 18.9472 34.8936 18.9472 34.8936 18.9472C34.8936 18.9472 34.8936 18.9472 34.8936 18.9472C34.8936 18.9472 34.8936 18.9472 34.8936 18.9472C34.8936 18.9472 34.8936 18.9472 34.8936 18.9472C34.8936 18.9472 34.8936 18.9472 34.8936 18.9472C34.8936 18.9472 34.8936 18.9472 34.8936 18.9472C34.8936 18.9472 34.8936 18.9472 34.8936 18.9472C34.8936 18.9472 34.8936 18.9472 34.8936 18.9472C34.8936 18.9472 34.8936 18.9472 34.8936 18.9472C34.8936 18.9472 34.8936 18.9472 34.8936 18.9472C34.8936 18.9472 34.8936 18.9472 34.8936 18.9472C34.8936 18.9472 34.8936 18.9472 34.8936 18.9472C34.8936 18.9472 34.8936 18.9472 34.8936 18.9472C34.8936 18.9472 34.8936 18.9472 34.8936 18.9472C34.8936 18.9472 34.8936 18.9472 34.8936 18.9472C34.8936 18.9472 34.8936 18.9472 34.8936 18.9472C34.8936 18.9472 34.8936 18.9472 34.8936 18.9472C34.8936 18.9472 34.8936 18.9472 34.8936 18.9472C34.8936 18.9472 34.8936 18.9472 34.8936 18.9472C34.8936 18.9472 34.8936 18.9472 34.8936 18.9472C34.8936 18.9472 34.8936 18.9472 34.8936 18.9472C34.8936 18.9472 34.8936 18.9472 34.8936 18.9472C34.8936 18.9472 34.8936 18.9472 34.8936 18.9472C34.8936 18.9472 34.8936 18.9472 34.8936 18.9472C34.8936 18.9472 34.8936 18.9472 34.8936 18.9472C34.8936 18.9472 34.8936 18.9472 34.8936 18.9472C34.8936 18.9472 34.8936 18.9472 34.8936 18.9472C34.8936 18.9472 34.8936 18.9472 34.8936 18.9472C34.8936 18.9472 34.8936 18.9472 34.8936 18.9472C34.8936 18.9472 34.8936 18.9472 34.8936 18.9472C34.8936 18.9472 34.8936 18.9472 34.8936 18.9472C34.8936 18.9472 34.8936 18.9472 34.8936 18.9472C34.8936 18.9472 34.8936 18.9472 34.8936 18.9472C34.8936 18.9472 34.8936 18.9472 34.8936 18.9472C34.8936 18.9472 34.8936 18.9472 34.8936 18.9472C34.8936 18.9472 34.8936 18.9472 34.8936 18.9472C34.8936 18.9472 34.8936 18.9472 34.8936 18.9472C34.8936 18.9472 34.8936 18.9472 34.8936 18.9472C34.8936 18.9472 34.8936 18.9472 34.8936 18.9472C34.8936 18.9472 34.8936 18.9472 34.8936 18.9472C34.8936 18.9472 34.8936 18.9472 34.8936 18.9472C34.8936 18.9472 34.8936 18.9472 34.8936 18.9472C34.8936 18.9472 34.8936 18.9472 34.8936 18.9472C34.8936 18.9472 34.8936 18.9472 34.8936 18.9472C34.8936 18.9472 34.8936 18.9472 34.8936 18.9472C34.8936 18.9472 34.8936 18.9472 34.8936 18.9472C34.8936 18.9472 34.8936 18.9472 34.8936 18.9472C34.8936 18.9472 34.8936 18.9472 34.8936 18.9472C34.8936 18.9472 34.8936 18.9472 34.8936 18.9472C34.8936 18.9472 34.8936 18.9472 34.8936 18.9472C34.8936 18.9472 34.8936 18.9472 34.8936 18.9472C34.8936 18.9472 34.8936 18.9472 34.8936 18.9472C34.8936 18.9472 34.8936 18.9472 34.8936 18.9472C34.8936 18.9472 34.8936 18.9472 34.8936 18.9472C34.8936 18.9472 34.8936 18.9472 34.8936 18.9472C34.8936 18.9472 34.8936 18.9472 34.8936 18.9472C34.8936 18.9472 34.8936 18.9472 34.8936 18.9472C34.8936 18.9472 34.8936 18.9472 34.8936 18.9472C34.8936 18.9472 34.8936 18.9472 34.8936 18.9472C34.8936 18.9472 34.8936 18.9472 34.8936 18.9472C34.8936 18.9472 34.8936 18.9472 34.8936 18.9472C34.8936 18.9472 34.8936 18.9472 34.8936 18.9472C34.8936 18.9472 34.8936 18.9472 34.8936 18.9472C34.8936 18.9472 34.8936 18.9472 34.8936 18.9472C34.8936 18.9472 34.8936 18.9472 34.8936 18.9472C34.8936 18.9472 34.8936 18.9472 34.8936 18.9472C34.8936 18.9472 34.8936 18.9472 34.8936 18.9472C34.8936 18.9472 34.8936 18.9472 34.8936 18.9472C34.8936 18.9472 34.8936 18.9472 34.8936 18.9472C34.8936 18.9472 34.8936 18.9472 34.8936 18.9472C34.8936 18.9472 34.8936 18.9472 34.8936 18.9472C34.8936 18.9472 34.8936 18.9472 34.8936 18.9472C34.8936 18.9472 34.8936 18.9472 34.8936 18.9472C34.8936 18.9472 34.8936 18.9472 34.8936 18.9472C34.8936 18.9472 34.8936 18.9472 34.8936 18.9472C34.8936 18.9472 34.8936 18.9472 34.8936 18.9472C34.8936 18.9472 34.8936 18.9472 34.8936 18.9472C34.8936 18.9472 34.8936 18.9472 34.8936 18.9472C34.8936 18.9472 34.8936 18.9472 34.8936 18.9472C34.8936 18.9472 34.8936 18.9472 34.8936 18.9472C34.8936 18.9472 34.8936 18.9472 34.8936 18.9472C34.8936 18.9472 34.8936 18.9472 34.8936 18.9472C34.8936 18.9472 34.8936 18.9472 34.8936 18.9472C34.8936 18.9472 34.8936 18.9472 34.8936 18.9472C34.8936 18.9472 34.8936 18.9472 34.8936 18.9472C34.8936 18.9472 34.8936 18.9472 34.8936 18.9472C34.8936 18.9472 34.8936 18.9472 34.8936 18.9472C34.8936 18.9472 34.8936 18.9472 34.8936 18.9472C34.8936 18.9472 34.8936 18.9472 34.8936 18.9472C34.8936 18.9472 34.8936 18.9472 34.8936 18.9472C34.8936 18.9472 34.8936 18.9472 34.8936 18.9472C34.8936 18.9472 34.8936 18.9472 34.8936 18.9472C34.8936 18.9472 34.8936 18.9472 34.8936 18.9472C34.8936 18.9472 34.8936 18.9472 34.8936 18.9472C34.8936 18.9472 34.8936 18.9472 34.8936 18.9472C34.8936 18.9472 34.8936 18.9472 34.8936 18.9472C34.8936 18.9472 34.8936 18.9472 34.8936 18.9472C34.8936 18.9472 34.8936 18.9472 34.8936 18.9472C34.8936 18.9472 34.8936 18.9472 34.8936 18.9472C34.8936 18.9472 34.8936 18.9472 34.8936 18.9472C34.8936 18.9472 34.8936 18.9472 34.8936 18.9472C34.8936 18.9472 34.8936 18.9472 34.8936 18.9472C34.8936 18.9472 34.8936 18.9472 34.8936 18.9472C34.8936 18.9472 34.8936 18.9472 34.8936 18.9472C34.8936 18.9472 34.8936 18.9472 34.8936 18.9472C34.8936 18.9472 34.8936 18.9472 34.8936 18.9472C34.8936 18.9472 34.8936 18.9472 34.8936 18.9472C34.8936 18.9472 34.8936 18.9472 34.8936 18.9472C34.8936 18.9472 34.8936 18.9472 34.8936 18.9472C34.8936 18.9472 34.8936 18.9472 34.8936 18.9472C34.8936 18.9472 34.8936 18.9472 34.8936 18.9472C34.8936 18.9472 34.8936 18.9472 34.8936 18.9472C34.8936 18.9472 34.8936 18.9472 34.8936 18.9472C34.8936 18.9472 34.8936 18.9472 34.8936 18.9472C34.8936 18.9472 34.8936 18.9472 34.8936 18.9472C34.8936 18.9472 34.8936 18.9472 34.8936 18.9472C34.8936 18.9472 34.8936 18.9472 34.8936 18.9472C34.8936 18.9472 34.8936 18.9472 34.8936 18.9472C34.8936 18.9472 34.8936 18.9472 34.8936 18.9472C34.8936 18.9472 34.8936 18.9472 34.8936 18.9472C34.8936 18.9472 34.8936 18.9472 34.8936 18.9472C34.8936 18.9472 34.8936 18.9472 34.8936 18.9472C34.8936 18.9472 34.8936 18.9472 34.8936 18.9472C34.8936 18.9472 34.8936 18.9472 34.8936 18.9472C34.8936 18.9472 34.8936 18.9472 34.8936 18.9472C34.8936 18.9472 34.8936 18.9472 34.8936 18.9472C34.8936 18.9472 34.8936 18.9472 34.8936 18.9472C34.8936 18.9472 34.8936 18.9472 34.8936 18.9472C34.8936 18.9472 34.8936 18.9472 34.8936 18.9472C34.8936 18.9472 34.8936 18.9472 34.8936 18.9472C34.8936 18.9472 34.8936 18.9472 34.8936 18.9472C34.8936 18.9472 34.8936 18.9472 34.8936 18.9472C34.8936 18.9472 34.8936 18.9472 34.8936 18.9472C34.8936 18.9472 34.8936 18.9472 34.8936 18.9472C34.8936 18.9472 34.8936 18.9472 34.8936 18.9472C34.8936 18.9472 34.8936 18.9472 34.8936 18.9472C34.8936 18.9472 34.8936 18.9472 34.8936 18.9472C34.8936 18.9472 34.8936 18.9472 34.8936 18.9472C34.8936 18.9472 34.8936 18.9472 34.8936 18.9472C34.8936 18.9472 34.8936 18.9472 34.8936 18.9472C34.8936 18.9472 34.8936 18.9472 34.8936 18.9472C34.8936 18.9472 34.8936 18.9472 34.8936 18.9472C34.8936 18.9472 34.8936 18.9472 34.8936 18.9472C34.8936 18.9472 34.8936 18.9472 34.8936 18.9472C34.8936 18.9472 34.8936 18.9472 34.8936 18.9472C34.8936 18.9472 34.8936 18.9472 34.8936 18.9472C34.8936 18.9472 34.8936 18.9472 34.8936 18.9472C34.8936 18.9472 34.8936 18.9472 34.8936 18.9472C34.8936 18.9472 34.8936 18.9472 34.8936 18.9472C34.8936 18.9472 34.8936 18.9472 34.8936 18.9472C34.8936 18.9472 34.8936 18.9472 34.8936 18.9472C34.8936 18.9472 34.8936 18.9472 34.8936 18.9472C34.8936 18.9472 34.8936 18.9472 34.8936 18.9472C34.8936 18.9472 34.8936 18.9472 34.8936 18.9472C34.8936 18.9472 34.8936 18.9472 34.8936 18.9472C34.8936 18.9472 34.8936 18.9472 34.8936 18.9472C34.8936 18.9472 34.8936 18.9472 34.8936 18.9472C34.8936 18.9472 34.8936 18.9472 34.8936 18.9472C34.8936 18.9472 34.8936 18.9472 34.8936 18.9472C34.8936 18.9472 34.8936 18.9472 34.8936 18.9472C34.8936 18.9472 34.8936 18.9472 34.8936 18.9472C34.8936 18.9472 34.8936 18.9472 34.8936 18.9472C34.8936 18.9472 34.8936 18.9472 34.8936 18.9472C34.8936 18.9472 34.8936 18.9472 34.8936 18.9472C34.8936 18.9472 34.8936 18.9472 34.8936 18.9472C34.8936 18.9472 34.8936 18.9472 34.8936 18.9472C34.8936 18.9472 34.8936 18.9472 34.8936 18.9472C34.8936 18.9472 34.8936 18.9472 34.8936 18.9472C34.8936 18.9472 34.8936 18.9472 34.8936 18.9472C34.8936 18.9472 34.8936 18.9472 34.8936 18.9472C34.8936 18.9472 34.8936 18.9472 34.8936 18.9472C34.8936 18.9472 34.8936 18.9472 34.8936 18.9472C34.8936 18.9472 34.8936 18.9472 34.8936 18.9472C34.8936 18.9472 34.8936 18.9472 34.8936 18.9472C34.8936 18.9472 34.8936 18.9472 34.8936 18.9472C34.8936 18.9472 34.8936 18.9472 34.8936 18.9472C34.8936 18.9472 34.8936 18.9472 34.8936 18.9472C34.8936 18.9472 34.8936 18.9472 34.8936 18.9472C34.8936 18.9472 34.8936 18.9472 34.8936 18.9472H30.8936C30.8936 18.9472 30.8936 18.9472 30.8936 18.9472C30.8936 18.9472 30.8936 18.9472 30.8936 18.9472C30.8936 18.9472 30.8936 18.9472 30.8936 18.9472C30.8936 18.9472 30.8936 18.9472 30.8936 18.9472C30.8936 18.9472 30.8936 18.9472 30.8936 18.9472C30.8936 18.9472 30.8936 18.9472 30.8936 18.9472C30.8936 18.9472 30.8936 18.9472 30.8936 18.9472C30.8936 18.9472 30.8936 18.9472 30.8936 18.9472C30.8936 18.9472 30.8936 18.9472 30.8936 18.9472C30.8936 18.9472 30.8936 18.9472 30.8936 18.9472C30.8936 18.9472 30.8936 18.9472 30.8936 18.9472C30.8936 18.9472 30.8936 18.9472 30.8936 18.9472C30.8936 18.9472 30.8936 18.9472 30.8936 18.9472C30.8936 18.9472 30.8936 18.9472 30.8936 18.9472C30.8936 18.9472 30.8936 18.9472 30.8936 18.9472C30.8936 18.9472 30.8936 18.9472 30.8936 18.9472C30.8936 18.9472 30.8936 18.9472 30.8936 18.9472C30.8936 18.9472 30.8936 18.9472 30.8936 18.9472C30.8936 18.9472 30.8936 18.9472 30.8936 18.9472C30.8936 18.9472 30.8936 18.9472 30.8936 18.9472C30.8936 18.9472 30.8936 18.9472 30.8936 18.9472C30.8936 18.9472 30.8936 18.9472 30.8936 18.9472C30.8936 18.9472 30.8936 18.9472 30.8936 18.9472C30.8936 18.9472 30.8936 18.9472 30.8936 18.9472C30.8936 18.9472 30.8936 18.9472 30.8936 18.9472C30.8936 18.9472 30.8936 18.9472 30.8936 18.9472C30.8936 18.9472 30.8936 18.9472 30.8936 18.9472C30.8936 18.9472 30.8936 18.9472 30.8936 18.9472C30.8936 18.9472 30.8936 18.9472 30.8936 18.9472C30.8936 18.9472 30.8936 18.9472 30.8936 18.9472C30.8936 18.9472 30.8936 18.9472 30.8936 18.9472C30.8936 18.9472 30.8936 18.9472 30.8936 18.9472C30.8936 18.9472 30.8936 18.9472 30.8936 18.9472C30.8936 18.9472 30.8936 18.9472 30.8936 18.9472C30.8936 18.9472 30.8936 18.9472 30.8936 18.9472C30.8936 18.9472 30.8936 18.9472 30.8936 18.9472C30.8936 18.9472 30.8936 18.9472 30.8936 18.9472C30.8936 18.9472 30.8936 18.9472 30.8936 18.9472C30.8936 18.9472 30.8936 18.9472 30.8936 18.9472C30.8936 18.9472 30.8936 18.9472 30.8936 18.9472C30.8936 18.9472 30.8936 18.9472 30.8936 18.9472C30.8936 18.9472 30.8936 18.9472 30.8936 18.9472C30.8936 18.9472 30.8936 18.9472 30.8936 18.9472C30.8936 18.9472 30.8936 18.9472 30.8936 18.9472C30.8936 18.9472 30.8936 18.9472 30.8936 18.9472C30.8936 18.9472 30.8936 18.9472 30.8936 18.9472C30.8936 18.9472 30.8936 18.9472 30.8936 18.9472C30.8936 18.9472 30.8936 18.9472 30.8936 18.9472C30.8936 18.9472 30.8936 18.9472 30.8936 18.9472C30.8936 18.9472 30.8936 18.9472 30.8936 18.9472C30.8936 18.9472 30.8936 18.9472 30.8936 18.9472C30.8936 18.9472 30.8936 18.9472 30.8936 18.9472C30.8936 18.9472 30.8936 18.9472 30.8936 18.9472C30.8936 18.9472 30.8936 18.9472 30.8936 18.9472C30.8936 18.9472 30.8936 18.9472 30.8936 18.9472C30.8936 18.9472 30.8936 18.9472 30.8936 18.9472C30.8936 18.9472 30.8936 18.9472 30.8936 18.9472C30.8936 18.9472 30.8936 18.9472 30.8936 18.9472C30.8936 18.9472 30.8936 18.9472 30.8936 18.9472C30.8936 18.9472 30.8936 18.9472 30.8936 18.9472C30.8936 18.9472 30.8936 18.9472 30.8936 18.9472C30.8936 18.9472 30.8936 18.9472 30.8936 18.9472C30.8936 18.9472 30.8936 18.9472 30.8936 18.9472C30.8936 18.9472 30.8936 18.9472 30.8936 18.9472C30.8936 18.9472 30.8936 18.9472 30.8936 18.9472C30.8936 18.9472 30.8936 18.9472 30.8936 18.9472C30.8936 18.9472 30.8936 18.9472 30.8936 18.9472C30.8936 18.9472 30.8936 18.9472 30.8936 18.9472C30.8936 18.9472 30.8936 18.9472 30.8936 18.9472C30.8936 18.9472 30.8936 18.9472 30.8936 18.9472C30.8936 18.9472 30.8936 18.9472 30.8936 18.9472C30.8936 18.9472 30.8936 18.9472 30.8936 18.9472C30.8936 18.9472 30.8936 18.9472 30.8936 18.9472C30.8936 18.9472 30.8936 18.9472 30.8936 18.9472C30.8936 18.9472 30.8936 18.9472 30.8936 18.9472C30.8936 18.9472 30.8936 18.9472 30.8936 18.9472C30.8936 18.9472 30.8936 18.9472 30.8936 18.9472C30.8936 18.9472 30.8936 18.9472 30.8936 18.9472C30.8936 18.9472 30.8936 18.9472 30.8936 18.9472C30.8936 18.9472 30.8936 18.9472 30.8936 18.9472C30.8936 18.9472 30.8936 18.9472 30.8936 18.9472C30.8936 18.9472 30.8936 18.9472 30.8936 18.9472C30.8936 18.9472 30.8936 18.9472 30.8936 18.9472C30.8936 18.9472 30.8936 18.9472 30.8936 18.9472C30.8936 18.9472 30.8936 18.9472 30.8936 18.9472C30.8936 18.9472 30.8936 18.9472 30.8936 18.9472C30.8936 18.9472 30.8936 18.9472 30.8936 18.9472C30.8936 18.9472 30.8936 18.9472 30.8936 18.9472C30.8936 18.9472 30.8936 18.9472 30.8936 18.9472C30.8936 18.9472 30.8936 18.9472 30.8936 18.9472C30.8936 18.9472 30.8936 18.9472 30.8936 18.9472C30.8936 18.9472 30.8936 18.9472 30.8936 18.9472C30.8936 18.9472 30.8936 18.9472 30.8936 18.9472C30.8936 18.9472 30.8936 18.9472 30.8936 18.9472C30.8936 18.9472 30.8936 18.9472 30.8936 18.9472C30.8936 18.9472 30.8936 18.9472 30.8936 18.9472C30.8936 18.9472 30.8936 18.9472 30.8936 18.9472C30.8936 18.9472 30.8936 18.9472 30.8936 18.9472C30.8936 18.9472 30.8936 18.9472 30.8936 18.9472C30.8936 18.9472 30.8936 18.9472 30.8936 18.9472C30.8936 18.9472 30.8936 18.9472 30.8936 18.9472C30.8936 18.9472 30.8936 18.9472 30.8936 18.9472C30.8936 18.9472 30.8936 18.9472 30.8936 18.9472C30.8936 18.9472 30.8936 18.9472 30.8936 18.9472C30.8936 18.9472 30.8936 18.9472 30.8936 18.9472C30.8936 18.9472 30.8936 18.9472 30.8936 18.9472C30.8936 18.9472 30.8936 18.9472 30.8936 18.9472C30.8936 18.9472 30.8936 18.9472 30.8936 18.9472C30.8936 18.9472 30.8936 18.9472 30.8936 18.9472C30.8936 18.9472 30.8936 18.9472 30.8936 18.9472C30.8936 18.9472 30.8936 18.9472 30.8936 18.9472C30.8936 18.9472 30.8936 18.9472 30.8936 18.9472C30.8936 18.9472 30.8936 18.9472 30.8936 18.9472C30.8936 18.9472 30.8936 18.9472 30.8936 18.9472C30.8936 18.9472 30.8936 18.9472 30.8936 18.9472C30.8936 18.9472 30.8936 18.9472 30.8936 18.9472C30.8936 18.9472 30.8936 18.9472 30.8936 18.9472C30.8936 18.9472 30.8936 18.9472 30.8936 18.9472C30.8936 18.9472 30.8936 18.9472 30.8936 18.9472C30.8936 18.9472 30.8936 18.9472 30.8936 18.9472C30.8936 18.9472 30.8936 18.9472 30.8936 18.9472C30.8936 18.9472 30.8936 18.9472 30.8936 18.9472C30.8936 18.9472 30.8936 18.9472 30.8936 18.9472C30.8936 18.9472 30.8936 18.9472 30.8936 18.9472C30.8936 18.9472 30.8936 18.9472 30.8936 18.9472C30.8936 18.9472 30.8936 18.9472 30.8936 18.9472C30.8936 18.9472 30.8936 18.9472 30.8936 18.9472C30.8936 18.9472 30.8936 18.9472 30.8936 18.9472C30.8936 18.9472 30.8936 18.9472 30.8936 18.9472C30.8936 18.9472 30.8936 18.9472 30.8936 18.9472C30.8936 18.9472 30.8936 18.9472 30.8936 18.9472C30.8936 18.9472 30.8936 18.9472 30.8936 18.9472C30.8936 18.9472 30.8936 18.9472 30.8936 18.9472C30.8936 18.9472 30.8936 18.9472 30.8936 18.9472C30.8936 18.9472 30.8936 18.9472 30.8936 18.9472C30.8936 18.9472 30.8936 18.9472 30.8936 18.9472C30.8936 18.9472 30.8936 18.9472 30.8936 18.9472C30.8936 18.9472 30.8936 18.9472 30.8936 18.9472C30.8936 18.9472 30.8936 18.9472 30.8936 18.9472C30.8936 18.9472 30.8936 18.9472 30.8936 18.9472C30.8936 18.9472 30.8936 18.9472 30.8936 18.9472C30.8936 18.9472 30.8936 18.9472 30.8936 18.9472C30.8936 18.9472 30.8936 18.9472 30.8936 18.9472C30.8936 18.9472 30.8936 18.9472 30.8936 18.9472C30.8936 18.9472 30.8936 18.9472 30.8936 18.9472C30.8936 18.9472 30.8936 18.9472 30.8936 18.9472C30.8936 18.9472 30.8936 18.9472 30.8936 18.9472C30.8936 18.9472 30.8936 18.9472 30.8936 18.9472C30.8936 18.9472 30.8936 18.9472 30.8936 18.9472C30.8936 18.9472 30.8936 18.9472 30.8936 18.9472C30.8936 18.9472 30.8936 18.9472 30.8936 18.9472C30.8936 18.9472 30.8936 18.9472 30.8936 18.9472C30.8936 18.9472 30.8936 18.9472 30.8936 18.9472C30.8936 18.9472 30.8936 18.9472 30.8936 18.9472C30.8936 18.9472 30.8936 18.9472 30.8936 18.9472C30.8936 18.9472 30.8936 18.9472 30.8936 18.9472C30.8936 18.9472 30.8936 18.9472 30.8936 18.9472C30.8936 18.9472 30.8936 18.9472 30.8936 18.9472C30.8936 18.9472 30.8936 18.9472 30.8936 18.9472C30.8936 18.9472 30.8936 18.9472 30.8936 18.9472C30.8936 18.9472 30.8936 18.9472 30.8936 18.9472C30.8936 18.9472 30.8936 18.9472 30.8936 18.9472C30.8936 18.9472 30.8936 18.9472 30.8936 18.9472C30.8936 18.9472 30.8936 18.9472 30.8936 18.9472C30.8936 18.9472 30.8936 18.9472 30.8936 18.9472C30.8936 18.9472 30.8936 18.9472 30.8936 18.9472C30.8936 18.9472 30.8936 18.9472 30.8936 18.9472C30.8936 18.9472 30.8936 18.9472 30.8936 18.9472C30.8936 18.9472 30.8936 18.9472 30.8936 18.9472C30.8936 18.9472 30.8936 18.9472 30.8936 18.9472C30.8936 18.9472 30.8936 18.9472 30.8936 18.9472C30.8936 18.9472 30.8936 18.9472 30.8936 18.9472C30.8936 18.9472 30.8936 18.9472 30.8936 18.9472C30.8936 18.9472 30.8936 18.9472 30.8936 18.9472C30.8936 18.9472 30.8936 18.9472 30.8936 18.9472C30.8936 18.9472 30.8936 18.9472 30.8936 18.9472C30.8936 18.9472 30.8936 18.9472 30.8936 18.9472C30.8936 18.9472 30.8936 18.9472 30.8936 18.9472C30.8936 18.9472 30.8936 18.9472 30.8936 18.9472C30.8936 18.9472 30.8936 18.9472 30.8936 18.9472C30.8936 18.9472 30.8936 18.9472 30.8936 18.9472C30.8936 18.9472 30.8936 18.9472 30.8936 18.9472C30.8936 18.9472 30.8936 18.9472 30.8936 18.9472C30.8936 18.9472 30.8936 18.9472 30.8936 18.9472C30.8936 18.9472 30.8936 18.9472 30.8936 18.9472C30.8936 18.9472 30.8936 18.9472 30.8936 18.9472C30.8936 18.9472 30.8936 18.9472 30.8936 18.9472C30.8936 18.9472 30.8936 18.9472 30.8936 18.9472C30.8936 18.9472 30.8936 18.9472 30.8936 18.9472C30.8936 18.9472 30.8936 18.9472 30.8936 18.9472C30.8936 18.9472 30.8936 18.9472 30.8936 18.9472C30.8936 18.9472 30.8936 18.9472 30.8936 18.9472C30.8936 18.9472 30.8936 18.9472 30.8936 18.9472C30.8936 18.9472 30.8936 18.9472 30.8936 18.9472C30.8936 18.9472 30.8936 18.9472 30.8936 18.9472C30.8936 18.9472 30.8936 18.9472 30.8936 18.9472C30.8936 18.9472 30.8936 18.9472 30.8936 18.9472C30.8936 18.9472 30.8936 18.9472 30.8936 18.9472C30.8936 18.9472 30.8936 18.9472 30.8936 18.9472C30.8936 18.9472 30.8936 18.9472 30.8936 18.9472C30.8936 18.9472 30.8936 18.9472 30.8936 18.9472C30.8936 18.9472 30.8936 18.9472 30.8936 18.9472C30.8936 18.9472 30.8936 18.9472 30.8936 18.9472C30.8936 18.9472 30.8936 18.9472 30.8936 18.9472C30.8936 18.9472 30.8936 18.9472 30.8936 18.9472C30.8936 18.9472 30.8936 18.9472 30.8936 18.9472C30.8936 18.9472 30.8936 18.9472 30.8936 18.9472C30.8936 18.9472 30.8936 18.9472 30.8936 18.9472C30.8936 18.9472 30.8936 18.9472 30.8936 18.9472C30.8936 18.9472 30.8936 18.9472 30.8936 18.9472C30.8936 18.9472 30.8936 18.9472 30.8936 18.9472C30.8936 18.9472 30.8936 18.9472 30.8936 18.9472C30.8936 18.9472 30.8936 18.9472 30.8936 18.9472C30.8936 18.9472 30.8936 18.9472 30.8936 18.9472C30.8936 18.9472 30.8936 18.9472 30.8936 18.9472C30.8936 18.9472 30.8936 18.9472 30.8936 18.9472C30.8936 18.9472 30.8936 18.9472 30.8936 18.9472C30.8936 18.9472 30.8936 18.9472 30.8936 18.9472C30.8936 18.9472 30.8936 18.9472 30.8936 18.9472C30.8936 18.9472 30.8936 18.9472 30.8936 18.9472C30.8936 18.9472 30.8936 18.9472 30.8936 18.9472C30.8936 18.9472 30.8936 18.9472 30.8936 18.9472C30.8936 18.9472 30.8936 18.9472 30.8936 18.9472C30.8936 18.9472 30.8936 18.9472 30.8936 18.9472C30.8936 18.9472 30.8936 18.9472 30.8936 18.9472C30.8936 18.9472 30.8936 18.9472 30.8936 18.9472C30.8936 18.9472 30.8936 18.9472 30.8936 18.9472C30.8936 18.9472 30.8936 18.9472 30.8936 18.9472C30.8936 18.9472 30.8936 18.9472 30.8936 18.9472C30.8936 18.9472 30.8936 18.9472 30.8936 18.9472C30.8936 18.9472 30.8936 18.9472 30.8936 18.9472C30.8936 18.9472 30.8936 18.9472 30.8936 18.9472C30.8936 18.9472 30.8936 18.9472 30.8936 18.9472C30.8936 18.9472 30.8936 18.9472 30.8936 18.9472C30.8936 18.9472 30.8936 18.9472 30.8936 18.9472C30.8936 18.9472 30.8936 18.9472 30.8936 18.9472C30.8936 18.9472 30.8936 18.9472 30.8936 18.9472C30.8936 18.9472 30.8936 18.9472 30.8936 18.9472C30.8936 18.9472 30.8936 18.9472 30.8936 18.9472C30.8936 18.9472 30.8936 18.9472 30.8936 18.9472C30.8936 18.9472 30.8936 18.9472 30.8936 18.9472C30.8936 18.9472 30.8936 18.9472 30.8936 18.9472C30.8936 18.9472 30.8936 18.9472 30.8936 18.9472C30.8936 18.9472 30.8936 18.9472 30.8936 18.9472C30.8936 18.9472 30.8936 18.9472 30.8936 18.9472C30.8936 18.9472 30.8936 18.9472 30.8936 18.9472C30.8936 18.9472 30.8936 18.9472 30.8936 18.9472C30.8936 18.9472 30.8936 18.9472 30.8936 18.9472C30.8936 18.9472 30.8936 18.9472 30.8936 18.9472C30.8936 18.9472 30.8936 18.9472 30.8936 18.9472C30.8936 18.9472 30.8936 18.9472 30.8936 18.9472C30.8936 18.9472 30.8936 18.9472 30.8936 18.9472C30.8936 18.9472 30.8936 18.9472 30.8936 18.9472C30.8936 18.9472 30.8936 18.9472 30.8936 18.9472C30.8936 18.9472 30.8936 18.9472 30.8936 18.9472C30.8936 18.9472 30.8936 18.9472 30.8936 18.9472C30.8936 18.9472 30.8936 18.9472 30.8936 18.9472C30.8936 18.9472 30.8936 18.9472 30.8936 18.9472C30.8936 18.9472 30.8936 18.9472 30.8936 18.9472C30.8936 18.9472 30.8936 18.9472 30.8936 18.9472C30.8936 18.9472 30.8936 18.9472 30.8936 18.9472C30.8936 18.9472 30.8936 18.9472 30.8936 18.9472C30.8936 18.9472 30.8936 18.9472 30.8936 18.9472C30.8936 18.9472 30.8936 18.9472 30.8936 18.9472C30.8936 18.9472 30.8936 18.9472 30.8936 18.9472C30.8936 18.9472 30.8936 18.9472 30.8936 18.9472C30.8936 18.9472 30.8936 18.9472 30.8936 18.9472C30.8936 18.9472 30.8936 18.9472 30.8936 18.9472C30.8936 18.9472 30.8936 18.9472 30.8936 18.9472C30.8936 18.9472 30.8936 18.9472 30.8936 18.9472C30.8936 18.9472 30.8936 18.9472 30.8936 18.9472C30.8936 18.9472 30.8936 18.9472 30.8936 18.9472C30.8936 18.9472 30.8936 18.9472 30.8936 18.9472C30.8936 18.9472 30.8936 18.9472 30.8936 18.9472C30.8936 18.9472 30.8936 18.9472 30.8936 18.9472C30.8936 18.9472 30.8936 18.9472 30.8936 18.9472C30.8936 18.9472 30.8936 18.9472 30.8936 18.9472C30.8936 18.9472 30.8936 18.9472 30.8936 18.9472C30.8936 18.9472 30.8936 18.9472 30.8936 18.9472C30.8936 18.9472 30.8936 18.9472 30.8936 18.9472C30.8936 18.9472 30.8936 18.9472 30.8936 18.9472C30.8936 18.9472 30.8936 18.9472 30.8936 18.9472C30.8936 18.9472 30.8936 18.9472 30.8936 18.9472C30.8936 18.9472 30.8936 18.9472 30.8936 18.9472C30.8936 18.9472 30.8936 18.9472 30.8936 18.9472C30.8936 18.9472 30.8936 18.9472 30.8936 18.9472C30.8936 18.9472 30.8936 18.9472 30.8936 18.9472C30.8936 18.9472 30.8936 18.9472 30.8936 18.9472C30.8936 18.9472 30.8936 18.9472 30.8936 18.9472C30.8936 18.9472 30.8936 18.9472 30.8936 18.9472C30.8936 18.9472 30.8936 18.9472 30.8936 18.9472C30.8936 18.9472 30.8936 18.9472 30.8936 18.9472C30.8936 18.9472 30.8936 18.9472 30.8936 18.9472C30.8936 18.9472 30.8936 18.9472 30.8936 18.9472C30.8936 18.9472 30.8936 18.9472 30.8936 18.9472C30.8936 18.9472 30.8936 18.9472 30.8936 18.9472C30.8936 18.9472 30.8936 18.9472 30.8936 18.9472C30.8936 18.9472 30.8936 18.9472 30.8936 18.9472C30.8936 18.9472 30.8936 18.9472 30.8936 18.9472C30.8936 18.9472 30.8936 18.9472 30.8936 18.9472C30.8936 18.9472 30.8936 18.9472 30.8936 18.9472C30.8936 18.9472 30.8936 18.9472 30.8936 18.9472C30.8936 18.9472 30.8936 18.9472 30.8936 18.9472C30.8936 18.9472 30.8936 18.9472 30.8936 18.9472C30.8936 18.9472 30.8936 18.9472 30.8936 18.9472C30.8936 18.9472 30.8936 18.9472 30.8936 18.9472C30.8936 18.9472 30.8936 18.9472 30.8936 18.9472C30.8936 18.9472 30.8936 18.9472 30.8936 18.9472C30.8936 18.9472 30.8936 18.9472 30.8936 18.9472C30.8936 18.9472 30.8936 18.9472 30.8936 18.9472C30.8936 18.9472 30.8936 18.9472 30.8936 18.9472C30.8936 18.9472 30.8936 18.9472 30.8936 18.9472C30.8936 18.9472 30.8936 18.9472 30.8936 18.9472C30.8936 18.9472 30.8936 18.9472 30.8936 18.9472C30.8936 18.9472 30.8936 18.9472 30.8936 18.9472C30.8936 18.9472 30.8936 18.9472 30.8936 18.9472C30.8936 18.9472 30.8936 18.9472 30.8936 18.9472C30.8936 18.9472 30.8936 18.9472 30.8936 18.9472C30.8936 18.9472 30.8936 18.9472 30.8936 18.9472C30.8936 18.9472 30.8936 18.9472 30.8936 18.9472C30.8936 18.9472 30.8936 18.9472 30.8936 18.9472C30.8936 18.9472 30.8936 18.9472 30.8936 18.9472C30.8936 18.9472 30.8936 18.9472 30.8936 18.9472C30.8936 18.9472 30.8936 18.9472 30.8936 18.9472C30.8936 18.9472 30.8936 18.9472 30.8936 18.9472C30.8936 18.9472 30.8936 18.9472 30.8936 18.9472C30.8936 18.9472 30.8936 18.9472 30.8936 18.9472C30.8936 18.9472 30.8936 18.9472 30.8936 18.9472C30.8936 18.9472 30.8936 18.9472 30.8936 18.9472C30.8936 18.9472 30.8936 18.9472 30.8936 18.9472C30.8936 18.9472 30.8936 18.9472 30.8936 18.9472C30.8936 18.9472 30.8936 18.9472 30.8936 18.9472C30.8936 18.9472 30.8936 18.9472 30.8936 18.9472C30.8936 18.9472 30.8936 18.9472 30.8936 18.9472C30.8936 18.9472 30.8936 18.9472 30.8936 18.9472C30.8936 18.9472 30.8936 18.9472 30.8936 18.9472C30.8936 18.9472 30.8936 18.9472 30.8936 18.9472C30.8936 18.9472 30.8936 18.9472 30.8936 18.9472C30.8936 18.9472 30.8936 18.9472 30.8936 18.9472C30.8936 18.9472 30.8936 18.9472 30.8936 18.9472C30.8936 18.9472 30.8936 18.9472 30.8936 18.9472C30.8936 18.9472 30.8936 18.9472 30.8936 18.9472C30.8936 18.9472 30.8936 18.9472 30.8936 18.9472C30.8936 18.9472 30.8936 18.9472 30.8936 18.9472C30.8936 18.9472 30.8936 18.9472 30.8936 18.9472C30.8936 18.9472 30.8936 18.9472 30.8936 18.9472C30.8936 18.9472 30.8936 18.9472 30.8936 18.9472C30.8936 18.9472 30.8936 18.9472 30.8936 18.9472C30.8936 18.9472 30.8936 18.9472 30.8936 18.9472C30.8936 18.9472 30.8936 18.9472 30.8936 18.9472C30.8936 18.9472 30.8936 18.9472 30.8936 18.9472C30.8936 18.9472 30.8936 18.9472 30.8936 18.9472C30.8936 18.9472 30.8936 18.9472 30.8936 18.9472C30.8936 18.9472 30.8936 18.9472 30.8936 18.9472C30.8936 18.9472 30.8936 18.9472 30.8936 18.9472C30.8936 18.9472 30.8936 18.9472 30.8936 18.9472C30.8936 18.9472 30.8936 18.9472 30.8936 18.9472C30.8936 18.9472 30.8936 18.9472 30.8936 18.9472C30.8936 18.9472 30.8936 18.9472 30.8936 18.9472C30.8936 18.9472 30.8936 18.9472 30.8936 18.9472C30.8936 18.9472 30.8936 18.9472 30.8936 18.9472C30.8936 18.9472 30.8936 18.9472 30.8936 18.9472C30.8936 18.9472 30.8936 18.9472 30.8936 18.9472C30.8936 18.9472 30.8936 18.9472 30.8936 18.9472C30.8936 18.9472 30.8936 18.9472 30.8936 18.9472C30.8936 18.9472 30.8936 18.9472 30.8936 18.9472C30.8936 18.9472 30.8936 18.9472 30.8936 18.9472C30.8936 18.9472 30.8936 18.9472 30.8936 18.9472C30.8936 18.9472 30.8936 18.9472 30.8936 18.9472C30.8936 18.9472 30.8936 18.9472 30.8936 18.9472C30.8936 18.9472 30.8936 18.9472 30.8936 18.9472C30.8936 18.9472 30.8936 18.9472 30.8936 18.9472C30.8936 18.9472 30.8936 18.9472 30.8936 18.9472C30.8936 18.9472 30.8936 18.9472 30.8936 18.9472C30.8936 18.9472 30.8936 18.9472 30.8936 18.9472C30.8936 18.9472 30.8936 18.9472 30.8936 18.9472C30.8936 18.9472 30.8936 18.9472 30.8936 18.9472C30.8936 18.9472 30.8936 18.9472 30.8936 18.9472C30.8936 18.9472 30.8936 18.9472 30.8936 18.9472C30.8936 18.9472 30.8936 18.9472 30.8936 18.9472C30.8936 18.9472 30.8936 18.9472 30.8936 18.9472C30.8936 18.9472 30.8936 18.9472 30.8936 18.9472C30.8936 18.9472 30.8936 18.9472 30.8936 18.9472C30.8936 18.9472 30.8936 18.9472 30.8936 18.9472C30.8936 18.9472 30.8936 18.9472 30.8936 18.9472C30.8936 18.9472 30.8936 18.9472 30.8936 18.9472C30.8936 18.9472 30.8936 18.9472 30.8936 18.9472C30.8936 18.9472 30.8936 18.9472 30.8936 18.9472C30.8936 18.9472 30.8936 18.9472 30.8936 18.9472C30.8936 18.9472 30.8936 18.9472 30.8936 18.9472C30.8936 18.9472 30.8936 18.9472 30.8936 18.9472C30.8936 18.9472 30.8936 18.9472 30.8936 18.9472C30.8936 18.9472 30.8936 18.9472 30.8936 18.9472C30.8936 18.9472 30.8936 18.9472 30.8936 18.9472C30.8936 18.9472 30.8936 18.9472 30.8936 18.9472C30.8936 18.9472 30.8936 18.9472 30.8936 18.9472C30.8936 18.9472 30.8936 18.9472 30.8936 18.9472C30.8936 18.9472 30.8936 18.9472 30.8936 18.9472C30.8936 18.9472 30.8936 18.9472 30.8936 18.9472C30.8936 18.9472 30.8936 18.9472 30.8936 18.9472C30.8936 18.9472 30.8936 18.9472 30.8936 18.9472C30.8936 18.9472 30.8936 18.9472 30.8936 18.9472C30.8936 18.9472 30.8936 18.9472 30.8936 18.9472C30.8936 18.9472 30.8936 18.9472 30.8936 18.9472C30.8936 18.9472 30.8936 18.9472 30.8936 18.9472C30.8936 18.9472 30.8936 18.9472 30.8936 18.9472C30.8936 18.9472 30.8936 18.9472 30.8936 18.9472C30.8936 18.9472 30.8936 18.9472 30.8936 18.9472C30.8936 18.9472 30.8936 18.9472 30.8936 18.9472C30.8936 18.9472 30.8936 18.9472 30.8936 18.9472C30.8936 18.9472 30.8936 18.9472 30.8936 18.9472C30.8936 18.9472 30.8936 18.9472 30.8936 18.9472C30.8936 18.9472 30.8936 18.9472 30.8936 18.9472C30.8936 18.9472 30.8936 18.9472 30.8936 18.9472C30.8936 18.9472 30.8936 18.9472 30.8936 18.9472C30.8936 18.9472 30.8936 18.9472 30.8936 18.9472C30.8936 18.9472 30.8936 18.9472 30.8936 18.9472C30.8936 18.9472 30.8936 18.9472 30.8936 18.9472C30.8936 18.9472 30.8936 18.9472 30.8936 18.9472C30.8936 18.9472 30.8936 18.9472 30.8936 18.9472C30.8936 18.9472 30.8936 18.9472 30.8936 18.9472C30.8936 18.9472 30.8936 18.9472 30.8936 18.9472C30.8936 18.9472 30.8936 18.9472 30.8936 18.9472C30.8936 18.9472 30.8936 18.9472 30.8936 18.9472C30.8936 18.9472 30.8936 18.9472 30.8936 18.9472C30.8936 18.9472 30.8936 18.9472 30.8936 18.9472C30.8936 18.9472 30.8936 18.9472 30.8936 18.9472C30.8936 18.9472 30.8936 18.9472 30.8936 18.9472C30.8936 18.9472 30.8936 18.9472 30.8936 18.9472C30.8936 18.9472 30.8936 18.9472 30.8936 18.9472C30.8936 18.9472 30.8936 18.9472 30.8936 18.9472C30.8936 18.9472 30.8936 18.9472 30.8936 18.9472C30.8936 18.9472 30.8936 18.9472 30.8936 18.9472C30.8936 18.9472 30.8936 18.9472 30.8936 18.9472C30.8936 18.9472 30.8936 18.9472 30.8936 18.9472C30.8936 18.9472 30.8936 18.9472 30.8936 18.9472C30.8936 18.9472 30.8936 18.9472 30.8936 18.9472C30.8936 18.9472 30.8936 18.9472 30.8936 18.9472C30.8936 18.9472 30.8936 18.9472 30.8936 18.9472C30.8936 18.9472 30.8936 18.9472 30.8936 18.9472C30.8936 18.9472 30.8936 18.9472 30.8936 18.9472C30.8936 18.9472 30.8936 18.9472 30.8936 18.9472C30.8936 18.9472 30.8936 18.9472 30.8936 18.9472C30.8936 18.9472 30.8936 18.9472 30.8936 18.9472C30.8936 18.9472 30.8936 18.9472 30.8936 18.9472C30.8936 18.9472 30.8936 18.9472 30.8936 18.9472C30.8936 18.9472 30.8936 18.9472 30.8936 18.9472C30.8936 18.9472 30.8936 18.9472 30.8936 18.9472C30.8936 18.9472 30.8936 18.9472 30.8936 18.9472C30.8936 18.9472 30.8936 18.9472 30.8936 18.9472C30.8936 18.9472 30.8936 18.9472 30.8936 18.9472C30.8936 18.9472 30.8936 18.9472 30.8936 18.9472C30.8936 18.9472 30.8936 18.9472 30.8936 18.9472C30.8936 18.9472 30.8936 18.9472 30.8936 18.9472C30.8936 18.9472 30.8936 18.9472 30.8936 18.9472C30.8936 18.9472 30.8936 18.9472 30.8936 18.9472C30.8936 18.9472 30.8936 18.9472 30.8936 18.9472C30.8936 18.9472 30.8936 18.9472 30.8936 18.9472C30.8936 18.9472 30.8936 18.9472 30.8936 18.9472C30.8936 18.9472 30.8936 18.9472 30.8936 18.9472C30.8936 18.9472 30.8936 18.9472 30.8936 18.9472C30.8936 18.9472 30.8936 18.9472 30.8936 18.9472C30.8936 18.9472 30.8936 18.9472 30.8936 18.9472C30.8936 18.9472 30.8936 18.9472 30.8936 18.9472C30.8936 18.9472 30.8936 18.9472 30.8936 18.9472C30.8936 18.9472 30.8936 18.9472 30.8936 18.9472C30.8936 18.9472 30.8936 18.9472 30.8936 18.9472C30.8936 18.9472 30.8936 18.9472 30.8936 18.9472C30.8936 18.9472 30.8936 18.9472 30.8936 18.9472C30.8936 18.9472 30.8936 18.9472 30.8936 18.9472C30.8936 18.9472 30.8936 18.9472 30.8936 18.9472C30.8936 18.9472 30.8936 18.9472 30.8936 18.9472C30.8936 18.9472 30.8936 18.9472 30.8936 18.9472C30.8936 18.9472 30.8936 18.9472 30.8936 18.9472C30.8936 18.9472 30.8936 18.9472 30.8936 18.9472C30.8936 18.9472 30.8936 18.9472 30.8936 18.9472C30.8936 18.9472 30.8936 18.9472 30.8936 18.9472C30.8936 18.9472 30.8936 18.9472 30.8936 18.9472C30.8936 18.9472 30.8936 18.9472 30.8936 18.9472C30.8936 18.9472 30.8936 18.9472 30.8936 18.9472C30.8936 18.9472 30.8936 18.9472 30.8936 18.9472C30.8936 18.9472 30.8936 18.9472 30.8936 18.9472C30.8936 18.9472 30.8936 18.9472 30.8936 18.9472C30.8936 18.9472 30.8936 18.9472 30.8936 18.9472C30.8936 18.9472 30.8936 18.9472 30.8936 18.9472C30.8936 18.9472 30.8936 18.9472 30.8936 18.9472C30.8936 18.9472 30.8936 18.9472 30.8936 18.9472C30.8936 18.9472 30.8936 18.9472 30.8936 18.9472C30.8936 18.9472 30.8936 18.9472 30.8936 18.9472C30.8936 18.9472 30.8936 18.9472 30.8936 18.9472C30.8936 18.9472 30.8936 18.9472 30.8936 18.9472C30.8936 18.9472 30.8936 18.9472 30.8936 18.9472C30.8936 18.9472 30.8936 18.9472 30.8936 18.9472C30.8936 18.9472 30.8936 18.9472 30.8936 18.9472C30.8936 18.9472 30.8936 18.9472 30.8936 18.9472C30.8936 18.9472 30.8936 18.9472 30.8936 18.9472C30.8936 18.9472 30.8936 18.9472 30.8936 18.9472C30.8936 18.9472 30.8936 18.9472 30.8936 18.9472C30.8936 18.9472 30.8936 18.9472 30.8936 18.9472C30.8936 18.9472 30.8936 18.9472 30.8936 18.9472C30.8936 18.9472 30.8936 18.9472 30.8936 18.9472C30.8936 18.9472 30.8936 18.9472 30.8936 18.9472C30.8936 18.9472 30.8936 18.9472 30.8936 18.9472C30.8936 18.9472 30.8936 18.9472 30.8936 18.9472C30.8936 18.9472 30.8936 18.9472 30.8936 18.9472C30.8936 18.9472 30.8936 18.9472 30.8936 18.9472C30.8936 18.9472 30.8936 18.9472 30.8936 18.9472C30.8936 18.9472 30.8936 18.9472 30.8936 18.9472C30.8936 18.9472 30.8936 18.9472 30.8936 18.9472C30.8936 18.9472 30.8936 18.9472 30.8936 18.9472C30.8936 18.9472 30.8936 18.9472 30.8936 18.9472C30.8936 18.9472 30.8936 18.9472 30.8936 18.9472H34.8936ZM32.96 16.9472H32.8936V20.9472H32.96V16.9472ZM39.4468 11.2981C35.127 11.2981 31.5711 14.5084 30.9799 18.6656L34.94 19.2288C35.2573 16.9982 37.1638 15.2981 39.4468 15.2981V11.2981ZM48 19.8887C48 15.155 44.1813 11.2981 39.4468 11.2981V15.2981C41.9507 15.2981 44 17.3427 44 19.8887H48ZM39.4468 28.4793C44.1813 28.4793 48 24.6224 48 19.8887H44C44 22.4348 41.9507 24.4793 39.4468 24.4793V28.4793ZM36.6368 28.0044C37.5194 28.3126 38.4658 28.4793 39.4468 28.4793V24.4793C38.9212 24.4793 38.4203 24.3903 37.9557 24.228L36.6368 28.0044ZM35.6807 28.4793C36.5623 28.4793 37.403 28.2801 38.1552 27.9224L36.4373 24.3101C36.2104 24.418 35.9555 24.4793 35.6807 24.4793V28.4793ZM12.3192 28.4793H35.6807V24.4793H12.3192V28.4793ZM9.84478 27.9224C10.597 28.2801 11.4376 28.4793 12.3192 28.4793V24.4793C12.0444 24.4793 11.7896 24.418 11.5627 24.3101L9.84478 27.9224ZM8.55319 28.4793C9.53418 28.4793 10.4805 28.3126 11.3632 28.0044L10.0443 24.228C9.57964 24.3903 9.0788 24.4793 8.55319 24.4793V28.4793ZM0 19.8887C0 24.6224 3.81868 28.4793 8.55319 28.4793V24.4793C6.04925 24.4793 4 22.4348 4 19.8887H0ZM8.55319 11.2981C3.81868 11.2981 0 15.155 0 19.8887H4C4 17.3427 6.04925 15.2981 8.55319 15.2981V11.2981ZM8.96581 11.308C8.82894 11.3014 8.69137 11.2981 8.55319 11.2981V15.2981C8.62753 15.2981 8.70129 15.2999 8.77446 15.3034L8.96581 11.308ZM14.1702 7.53209C10.8396 7.53209 8.02122 9.67566 6.98233 12.6453L10.7579 13.9661C11.257 12.5397 12.6038 11.5321 14.1702 11.5321V7.53209ZM21.6723 13.8519C21.0459 10.2689 17.9348 7.53209 14.1702 7.53209V11.5321C15.9419 11.5321 17.4317 12.8229 17.732 14.5407L21.6723 13.8519ZM17.7872 13.2982C17.7872 13.478 17.7701 13.652 17.738 13.819L21.6662 14.5735C21.7458 14.1591 21.7872 13.7325 21.7872 13.2982H17.7872ZM15.8379 10.6921C16.9581 11.0118 17.7872 12.0548 17.7872 13.2982H21.7872C21.7872 10.2347 19.741 7.64624 16.9356 6.84566L15.8379 10.6921ZM27.2766 0C21.7181 0 16.9165 3.21539 14.5963 7.87781L18.1773 9.65995C19.8516 6.29558 23.3026 4 27.2766 4V0ZM41.2808 12.0548C40.2346 5.23558 34.3727 0 27.2766 0V4C32.351 4 36.5732 7.74761 37.3271 12.6614L41.2808 12.0548Z" fill="black"></path>
</g>
<g id="Line">
<path d="M3.87231 34.9006C6.93824 34.9006 6.38988 35.8421 8.89958 35.8421C11.4093 35.8421 11.2658 34.9006 13.9274 34.9006C16.589 34.9006 16.9185 35.8421 18.955 35.8421C20.9915 35.8421 21.3702 34.9006 23.9822 34.9006C26.5942 34.9006 26.3976 35.8421 29.0096 35.8421C31.6216 35.8421 31.4251 34.9006 34.0371 34.9006C36.6491 34.9006 36.4526 35.8421 39.0646 35.8421C41.6766 35.8421 40.5439 34.9006 44.092 34.9006" fill="black"></path>
<path d="M3.87231 34.9006C6.93824 34.9006 6.38988 35.8421 8.89958 35.8421C11.4093 35.8421 11.2658 34.9006 13.9274 34.9006C16.589 34.9006 16.9185 35.8421 18.955 35.8421C20.9915 35.8421 21.3702 34.9006 23.9822 34.9006C26.5942 34.9006 26.3976 35.8421 29.0096 35.8421C31.6216 35.8421 31.4251 34.9006 34.0371 34.9006C36.6491 34.9006 36.4526 35.8421 39.0646 35.8421C41.6766 35.8421 40.5439 34.9006 44.092 34.9006" stroke="white" stroke-linecap="square"></path>
</g>
<g id="Line_2">
<path d="M3.87231 37.7252C6.93824 37.7252 6.38988 38.6667 8.89958 38.6667C11.4093 38.6667 11.2658 37.7252 13.9274 37.7252C16.589 37.7252 16.9185 38.6667 18.955 38.6667C20.9915 38.6667 21.3702 37.7252 23.9822 37.7252C26.5942 37.7252 26.3976 38.6667 29.0096 38.6667C31.6216 38.6667 31.4251 37.7252 34.0371 37.7252C36.6491 37.7252 36.4526 38.6667 39.0646 38.6667C41.6766 38.6667 40.5439 37.7252 44.092 37.7252" fill="black"></path>
<path d="M3.87231 37.7252C6.93824 37.7252 6.38988 38.6667 8.89958 38.6667C11.4093 38.6667 11.2658 37.7252 13.9274 37.7252C16.589 37.7252 16.9185 38.6667 18.955 38.6667C20.9915 38.6667 21.3702 37.7252 23.9822 37.7252C26.5942 37.7252 26.3976 38.6667 29.0096 38.6667C31.6216 38.6667 31.4251 37.7252 34.0371 37.7252C36.6491 37.7252 36.4526 38.6667 39.0646 38.6667C41.6766 38.6667 40.5439 37.7252 44.092 37.7252" stroke="white" stroke-linecap="square"></path>
</g>
</g>
</g>
</svg></g></g></g></svg>