<svg xmlns="http://www.w3.org/2000/svg" viewBox="0 0 343 36">
  <defs>
    <style>
      .cls-1 {
        fill: rgba(142,142,147,0.24);
      }

      .cls-2, .cls-3, .cls-4 {
        fill: #8e8e93;
      }

      .cls-2 {
        font-size: 17px;
        font-family: Helvetica;
        letter-spacing: -0.011em;
      }

      .cls-3 {
        stroke: rgba(0,0,0,0);
      }

      .cls-3, .cls-4 {
        fill-rule: evenodd;
      }
    </style>
  </defs>
  <g id="search" transform="translate(-818 -1069)">
    <rect id="Search_Field" data-name="Search Field" class="cls-1" width="343" height="36" rx="10" transform="translate(818 1069)"/>
    <g id="Search-2" data-name="Search" transform="translate(-2 2)">
      <text id="Placeholder_Label" data-name="Placeholder Label" class="cls-2" transform="translate(850 1091)"><tspan x="0" y="0">Search</tspan></text>
      <g id="Search_Glyph" data-name="Search Glyph" transform="translate(828 1078)">
        <path id="Search-3" data-name="Search" class="cls-3" d="M13.743,12.574,9.91,8.74a5.425,5.425,0,0,0,1.05-3.232A5.531,5.531,0,0,0,5.461,0,5.436,5.436,0,0,0,0,5.468a5.532,5.532,0,0,0,5.5,5.508A5.409,5.409,0,0,0,8.742,9.915l0,0,3.83,3.832a.826.826,0,1,0,1.168-1.169ZM5.5,9.878A4.426,4.426,0,0,1,1.1,5.472,4.35,4.35,0,0,1,5.464,1.1,4.426,4.426,0,0,1,9.864,5.5,4.35,4.35,0,0,1,5.5,9.878Z"/>
      </g>
    </g>
    <g id="Dictation" transform="translate(-16 2)">
      <path id="Dictation-2" data-name="Dictation" class="cls-4" d="M6,0H6A3,3,0,0,1,9,3v7a3,3,0,0,1-3,3H6a3,3,0,0,1-3-3V3A3,3,0,0,1,6,0Zm5.25,6.5a.75.75,0,0,0-.75.75V10a4.5,4.5,0,0,1-9,0V7.25a.75.75,0,0,0-1.5,0V10a6,6,0,0,0,5.25,5.95V17.5h-2a.75.75,0,0,0,0,1.5h5.5a.75.75,0,0,0,0-1.5h-2V15.95A6,6,0,0,0,12,10V7.25a.75.75,0,0,0-.75-.75Z" transform="translate(1155 1076)"/>
    </g>
  </g>
</svg>
