
<svg width="116px" height="116px" viewBox="0 0 116 116" version="1.1" xmlns="http://www.w3.org/2000/svg" xmlns:xlink="http://www.w3.org/1999/xlink">
    <g id="Page-1" stroke="none" stroke-width="1" fill="none" fill-rule="evenodd">
        <g id="Artboard" transform="translate(-48.000000, -262.000000)">
            <g id="10%-+-Oval-14-+-Oval-16" transform="translate(48.000000, 262.000000)">
                <text id="45%" font-family="OpenSans-Bold, Open Sans" font-size="24" font-weight="bold" fill="#4387C5">
                    <tspan x="33.4902344" y="66">45%</tspan>
                </text>
                <path d="M57.5,1.50216639 C26.5261393,1.77066438 1.5,26.9627482 1.5,58 C1.5,89.2040884 26.7959116,114.5 58,114.5 C72.4325436,114.5 86.0044826,109.066472 96.3606575,99.4819778 L85.889028,89.0103484 C78.4314645,95.7115106 68.7622184,99.5 58.5,99.5 C35.8563253,99.5 17.5,81.1436747 17.5,58.5 C17.5,36.1906081 35.3183463,18.0429139 57.5,17.5119564 L57.5,1.50216639 Z" id="Oval-14" stroke="#4387C5" stroke-width="3" fill="#D2E4F4"></path>
                <path d="M60.5,1.54583743 L60.5,17.5394776 C82.2336389,18.583093 99.5,36.5377905 99.5,58.491553 C99.5,69.2485472 95.3352819,79.34561 88.0467626,86.9169952 L98.5083703,97.378603 C108.68617,86.9161455 114.5,72.9177077 114.5,57.991553 C114.5,27.6615373 90.5792237,2.8546032 60.5000058,1.54583768 Z" id="Oval-16" stroke="#4387C5" stroke-width="3" fill="#4387C5"></path>
            </g>
        </g>
    </g>
</svg>