<svg xmlns="http://www.w3.org/2000/svg" xmlns:xlink="http://www.w3.org/1999/xlink" viewBox="0 0 176 44">
  <defs>
    <style>
      .cls-1 {
        fill: #019ae8;
      }

      .cls-2 {
        fill: #fff;
        font-size: 14px;
        font-family: Helvetica;
        letter-spacing: 0.01em;
      }

      .cls-3 {
        filter: url(#Button_bg-2);
      }

      .cls-4 {
        filter: url(#Button_bg);
      }
    </style>
    <filter id="Button_bg" x="0" y="0" width="176" height="42" filterUnits="userSpaceOnUse">
      <feOffset input="SourceAlpha"/>
      <feGaussianBlur stdDeviation="1" result="blur"/>
      <feFlood flood-opacity="0.122"/>
      <feComposite operator="in" in2="blur"/>
      <feComposite in="SourceGraphic"/>
    </filter>
    <filter id="Button_bg-2" x="0" y="2" width="176" height="42" filterUnits="userSpaceOnUse">
      <feOffset dy="2" input="SourceAlpha"/>
      <feGaussianBlur stdDeviation="1" result="blur-2"/>
      <feFlood flood-opacity="0.239"/>
      <feComposite operator="in" in2="blur-2"/>
      <feComposite in="SourceGraphic"/>
    </filter>
  </defs>
  <g id="Button" transform="translate(3 3)">
    <g id="Button_bg-3" data-name="Button bg">
      <g class="cls-4" transform="matrix(1, 0, 0, 1, -3, -3)">
        <path id="Button_bg-4" data-name="Button bg" class="cls-1" d="M2,0H168a2.006,2.006,0,0,1,2,2V34a2.006,2.006,0,0,1-2,2H2a2.006,2.006,0,0,1-2-2V2A2.006,2.006,0,0,1,2,0Z" transform="translate(3 3)"/>
      </g>
      <g class="cls-3" transform="matrix(1, 0, 0, 1, -3, -3)">
        <path id="Button_bg-5" data-name="Button bg" class="cls-1" d="M2,0H168a2.006,2.006,0,0,1,2,2V34a2.006,2.006,0,0,1-2,2H2a2.006,2.006,0,0,1-2-2V2A2.006,2.006,0,0,1,2,0Z" transform="translate(3 3)"/>
      </g>
    </g>
    <text id="WHAT_DO_I_DO_NOW_" data-name="WHAT DO I DO NOW?" class="cls-2" transform="translate(16.137 24)"><tspan x="0" y="0">WHAT DO I DO NOW?</tspan></text>
  </g>
</svg>
