<svg xmlns="http://www.w3.org/2000/svg" viewBox="0 0 63.719 63.895">
  <defs>
    <style>
      .cls-1 {
        fill: #0081a1;
      }

      .cls-2 {
        fill: #009fc7;
      }

      .cls-3 {
        fill: #bbe7f2;
      }

      .cls-4 {
        fill: #e1f5fa;
      }

      .cls-5 {
        fill: #fff;
      }

      .cls-6 {
        fill: #0c333d;
      }

      .cls-7 {
        fill: #53bad4;
      }

      .cls-8 {
        fill: #81d2eb;
      }
    </style>
  </defs>
  <g id="Illustratioan" transform="translate(-0.1 -0.181)">
    <path id="Shape" class="cls-1" d="M32,4C19,4,7,17,7,37,7,61.7,24.8,60,32,60s25,1.7,25-23C57,17,45,4,32,4Z"/>
    <path id="Shape-2" data-name="Shape" class="cls-2" d="M7,37C7,61.7,24.8,60,32,60V4C19,4,7,17,7,37Z"/>
    <path id="Shape-3" data-name="Shape" class="cls-3" d="M41.7,14.9A10.535,10.535,0,0,0,32,21.3a10.5,10.5,0,1,0,0,8.2,10.513,10.513,0,1,0,9.7-14.6Z"/>
    <circle id="Shape-4" data-name="Shape" class="cls-4" cx="6.5" cy="6.5" r="6.5" transform="translate(25.5 34.1)"/>
    <path id="Shape-5" data-name="Shape" class="cls-5" d="M25.5,40.6A6.487,6.487,0,0,0,32,47.1v-13A6.487,6.487,0,0,0,25.5,40.6Z"/>
    <path id="Shape-6" data-name="Shape" class="cls-6" d="M27.7,16.4A10.3,10.3,0,0,1,32,21.3a11.244,11.244,0,0,1,4.4-5,4.7,4.7,0,0,0-2.6-3.6s-.4,1-.9,2.6c-.6-3.1-5.2-4.5-5.2-4.5A36.577,36.577,0,0,1,27.7,16.4Z"/>
    <path id="Shape-7" data-name="Shape" class="cls-3" d="M54.3,21.8c5.3-2.7,8.8-12,9.5-19.1A2.086,2.086,0,0,0,63.1.9,2.107,2.107,0,0,0,61.3.3C51.5,1.4,46.1,5,44.1,8.2A27.669,27.669,0,0,1,54.3,21.8Z"/>
    <path id="Shape-8" data-name="Shape" class="cls-7" d="M52.2,6c-.6-.5,7.2-4.1,8.5-2.9,2.2,2.1-5,12.6-5,12.6s3.2-7.9,2-9.4C56.8,5.1,53.2,6.9,52.2,6Z"/>
    <path id="Shape-9" data-name="Shape" class="cls-3" d="M9.7,21.8A30.79,30.79,0,0,1,19.8,8.1C17.9,4.9,12.4,1.4,2.6.2A2.333,2.333,0,0,0,.8.8,2.489,2.489,0,0,0,.1,2.7C.9,9.8,4.3,19,9.7,21.8Z"/>
    <path id="Shape-10" data-name="Shape" class="cls-5" d="M18.2,56c-14,0-8.5,10.1-4.5,6.1,1.1,2.5,6.3,2.8,7.9-.1a2.474,2.474,0,0,0,2.8,2C30.5,64,28.9,56,18.2,56Z"/>
    <path id="Shape-11" data-name="Shape" class="cls-5" d="M45.8,56c14,0,8.5,10.1,4.5,6.1-1.1,2.5-6.3,2.8-7.9-.1a2.474,2.474,0,0,1-2.8,2C33.5,64,35.1,56,45.8,56Z"/>
    <path id="Shape-12" data-name="Shape" class="cls-6" d="M36.5,40.7a4.5,4.5,0,0,1-9,0Z"/>
    <circle id="Shape-13" data-name="Shape" class="cls-5" cx="6.5" cy="6.5" r="6.5" transform="translate(16.1 18.4)"/>
    <path id="Shape-14" data-name="Shape" class="cls-6" d="M24.3,25.4A1.367,1.367,0,0,1,25.7,24h.2a3.4,3.4,0,0,0-3.1-2.1,3.3,3.3,0,1,0,0,6.6,3.279,3.279,0,0,0,2.8-1.6A1.514,1.514,0,0,1,24.3,25.4Z"/>
    <circle id="Shape-15" data-name="Shape" class="cls-5" cx="6.5" cy="6.5" r="6.5" transform="translate(35.4 18.4)"/>
    <path id="Shape-16" data-name="Shape" class="cls-6" d="M43.7,25.4A1.367,1.367,0,0,1,45.1,24h.2a3.4,3.4,0,0,0-3.1-2.1,3.3,3.3,0,1,0,0,6.6A3.279,3.279,0,0,0,45,26.9,1.514,1.514,0,0,1,43.7,25.4Z"/>
    <path id="Shape-17" data-name="Shape" class="cls-7" d="M11.8,6c.6-.5-7.2-4.1-8.5-2.9-2.2,2.1,5,12.6,5,12.6s-3.2-7.9-2-9.4C7.2,5.1,10.8,6.9,11.8,6Z"/>
    <path id="Shape-18" data-name="Shape" class="cls-8" d="M16.6,22.3h12a6.565,6.565,0,0,0-12,0Z"/>
    <path id="Shape-19" data-name="Shape" class="cls-8" d="M35.9,22.3h12a6.565,6.565,0,0,0-12,0Z"/>
  </g>
</svg>
