<svg height="640" version="1.1" width="360" xmlns="http://www.w3.org/2000/svg" fill="#ffffff" style=""><desc>Created with Snap</desc><defs></defs><rect width="360" height="640" fill="#ffffff" style=""></rect><g><g transform="matrix(1.4815,0,0,1.4783,54,36)"><svg type="text" xmlns="http://www.w3.org/2000/svg" width="108" height="46" viewBox="0 0 108 46">
  <text id="A_Seattle" transform="translate(0 42)" fill="#383b41" font-size="34" font-family="Avenir-Light, Avenir" font-weight="500"><tspan x="0" y="0">Seattle</tspan></text>
</svg></g><g transform="matrix(1.6364,0,0,1.6364,54,148)"><svg type="text" xmlns="http://www.w3.org/2000/svg" width="154" height="22" viewBox="0 0 154 22">
  <text id="B_Day" transform="translate(0 16)" fill="#383b41" font-size="16" font-family="Avenir-Light, Avenir" font-weight="500" letter-spacing="0.017em"><tspan x="0" y="0">Monday, March 11th</tspan></text>
</svg></g></g><g><g transform="matrix(1.589,0,0,1.6,36,276)"><svg type="text" xmlns="http://www.w3.org/2000/svg" width="73" height="40" viewBox="0 0 73 40">
  <text id="E_TodaysTemp" transform="translate(0 34)" fill="#383b41" font-size="48" font-family="Avenir-Light, Avenir" font-weight="500"><tspan x="0" y="0">44°</tspan></text>
</svg></g><g transform="matrix(1.5217,0,0,1.5238,168,276)"><svg type="text" xmlns="http://www.w3.org/2000/svg" width="92" height="42" viewBox="0 0 92 42">
  <text id="D_SunnyText" transform="translate(0 36)" fill="#383b41" font-size="34" font-family="Avenir-Light, Avenir" font-weight="300"><tspan x="0" y="0">Sunny</tspan></text>
</svg></g><g transform="matrix(1.0989,0,0,1.1034,36,356)"><svg type="icon" xmlns="http://www.w3.org/2000/svg" width="91" height="87" viewBox="0 0 91 87">
  <g id="C_SunnyImage" transform="translate(8.358 6.584)">
    <g id="Rectangle_18" data-name="Rectangle 18" transform="translate(-8.358 -6.584)" fill="#fff" stroke="#707070" stroke-width="1">
      <rect width="91" height="87" stroke="none"></rect>
      <rect x="0.5" y="0.5" width="90" height="86" fill="none"></rect>
    </g>
    <g id="Group_16" data-name="Group 16" transform="translate(7 7)">
      <circle id="Ellipse_1" data-name="Ellipse 1" cx="16.667" cy="16.667" r="16.667" transform="translate(13.356 13.576)" stroke-width="2" stroke="#58595b" stroke-linecap="round" stroke-linejoin="round" stroke-miterlimit="10" fill="none"></circle>
      <line id="Line_1" data-name="Line 1" y1="8.058" transform="translate(30.023)" fill="none" stroke="#58595b" stroke-linecap="round" stroke-linejoin="round" stroke-miterlimit="10" stroke-width="2"></line>
      <line id="Line_2" data-name="Line 2" x1="5.629" y1="5.74" transform="translate(8.83 8.83)" fill="none" stroke="#58595b" stroke-linecap="round" stroke-linejoin="round" stroke-miterlimit="10" stroke-width="2"></line>
      <line id="Line_3" data-name="Line 3" x1="5.629" y2="5.629" transform="translate(8.83 45.917)" fill="none" stroke="#58595b" stroke-linecap="round" stroke-linejoin="round" stroke-miterlimit="10" stroke-width="2"></line>
      <line id="Line_4" data-name="Line 4" x2="5.629" y2="5.629" transform="translate(45.696 45.917)" fill="none" stroke="#58595b" stroke-linecap="round" stroke-linejoin="round" stroke-miterlimit="10" stroke-width="2"></line>
      <line id="Line_5" data-name="Line 5" y1="5.74" x2="5.629" transform="translate(45.696 8.83)" fill="none" stroke="#58595b" stroke-linecap="round" stroke-linejoin="round" stroke-miterlimit="10" stroke-width="2"></line>
      <line id="Line_6" data-name="Line 6" x1="7.947" transform="translate(0 30.244)" fill="none" stroke="#58595b" stroke-linecap="round" stroke-linejoin="round" stroke-miterlimit="10" stroke-width="2"></line>
      <line id="Line_7" data-name="Line 7" y2="7.947" transform="translate(30.023 52.43)" fill="none" stroke="#58595b" stroke-linecap="round" stroke-linejoin="round" stroke-miterlimit="10" stroke-width="2"></line>
      <line id="Line_8" data-name="Line 8" x2="7.947" transform="translate(52.209 30.244)" fill="none" stroke="#58595b" stroke-linecap="round" stroke-linejoin="round" stroke-miterlimit="10" stroke-width="2"></line>
    </g>
  </g>
</svg></g><g transform="matrix(1.5926,0,0,1.6,152,420)"><svg type="text" xmlns="http://www.w3.org/2000/svg" width="108" height="20" viewBox="0 0 108 20">
  <text id="F_Body" transform="translate(0 15)" fill="#383b41" font-size="15" font-family="Avenir-Light, Avenir" font-weight="300"><tspan x="0" y="0">Winds, S 14mph</tspan></text>
</svg></g></g><g><g><g transform="matrix(1.6757,0,0,1.697,154,488)"><svg type="icon" xmlns="http://www.w3.org/2000/svg" width="37" height="33.176" viewBox="0 0 37 33.176">
  <g id="H_Rainy" transform="translate(0.5 0.5)">
    <line id="Line_29" data-name="Line 29" x2="3.266" y2="6.186" transform="translate(6.865 23.389)" fill="none" stroke="#58595b" stroke-linecap="round" stroke-linejoin="round" stroke-miterlimit="10" stroke-width="1"></line>
    <line id="Line_30" data-name="Line 30" x2="3.266" y2="6.186" transform="translate(12.536 25.814)" fill="none" stroke="#58595b" stroke-linecap="round" stroke-linejoin="round" stroke-miterlimit="10" stroke-width="1"></line>
    <line id="Line_31" data-name="Line 31" x2="3.266" y2="6.186" transform="translate(17.262 23.389)" fill="none" stroke="#58595b" stroke-linecap="round" stroke-linejoin="round" stroke-miterlimit="10" stroke-width="1"></line>
    <line id="Line_32" data-name="Line 32" x2="3.266" y2="6.186" transform="translate(23.68 25.814)" fill="none" stroke="#58595b" stroke-linecap="round" stroke-linejoin="round" stroke-miterlimit="10" stroke-width="1"></line>
    <line id="Line_33" data-name="Line 33" x2="3.266" y2="6.186" transform="translate(26.963 22.746)" fill="none" stroke="#58595b" stroke-linecap="round" stroke-linejoin="round" stroke-miterlimit="10" stroke-width="1"></line>
    <path id="Path_26" data-name="Path 26" d="M37.7,192.957a5.6,5.6,0,0,1-5.619,5.592H7.468a5.741,5.741,0,1,1,0-11.481h.249a5.726,5.726,0,0,1,5.519-4.058,6.235,6.235,0,0,1,2.884.742A7.175,7.175,0,0,1,29,182.763a6.794,6.794,0,0,1,.994,3.613,8.055,8.055,0,0,1-.1,1.089c.1.1.149.2.3.247a5,5,0,0,1,1.939-.346,5.167,5.167,0,0,1,2.983.891A5.528,5.528,0,0,1,37.7,192.957Z" transform="translate(-1.7 -179.2)" fill="none" stroke="#58595b" stroke-linecap="round" stroke-linejoin="round" stroke-miterlimit="10" stroke-width="1"></path>
  </g>
</svg></g><g transform="matrix(1.6863,0,0,1.697,142,548)"><svg type="text" xmlns="http://www.w3.org/2000/svg" width="51" height="33" viewBox="0 0 51 33">
  <text id="G_Tues" transform="translate(0 24)" fill="#383b41" font-size="24" font-family="Avenir-Light, Avenir" font-weight="500" letter-spacing="0.021em"><tspan x="0" y="0">Tues</tspan></text>
</svg></g></g><g><g transform="matrix(1.6757,0,0,1.697,57,488)"><svg type="icon" xmlns="http://www.w3.org/2000/svg" width="37" height="33.176" viewBox="0 0 37 33.176">
  <g id="I_PartiallyCloudy" transform="translate(0.5 0.5)">
    <g id="Group_11" data-name="Group 11">
      <line id="Line_19" data-name="Line 19" x2="3.025" y2="5.729" transform="translate(6.311 24.071)" fill="none" stroke="#58595b" stroke-linecap="round" stroke-linejoin="round" stroke-miterlimit="10" stroke-width="1"></line>
      <line id="Line_20" data-name="Line 20" x2="3.025" y2="5.683" transform="translate(11.524 26.317)" fill="none" stroke="#58595b" stroke-linecap="round" stroke-linejoin="round" stroke-miterlimit="10" stroke-width="1"></line>
      <line id="Line_21" data-name="Line 21" x2="3.025" y2="5.729" transform="translate(15.868 24.071)" fill="none" stroke="#58595b" stroke-linecap="round" stroke-linejoin="round" stroke-miterlimit="10" stroke-width="1"></line>
      <line id="Line_22" data-name="Line 22" x2="3.025" y2="5.683" transform="translate(21.767 26.317)" fill="none" stroke="#58595b" stroke-linecap="round" stroke-linejoin="round" stroke-miterlimit="10" stroke-width="1"></line>
      <line id="Line_23" data-name="Line 23" x2="3.025" y2="5.729" transform="translate(24.785 23.429)" fill="none" stroke="#58595b" stroke-linecap="round" stroke-linejoin="round" stroke-miterlimit="10" stroke-width="1"></line>
      <path id="Path_24" data-name="Path 24" d="M158.013,194.542a5.168,5.168,0,0,1-5.168,5.179H130.205a5.317,5.317,0,0,1,0-10.633h.229a5.271,5.271,0,0,1,5.077-3.758,5.7,5.7,0,0,1,2.653.688,6.58,6.58,0,0,1,11.846-.917,6.326,6.326,0,0,1,.915,3.346,7.509,7.509,0,0,1-.091,1.008c.091.092.137.183.274.229a4.573,4.573,0,0,1,1.784-.321,4.729,4.729,0,0,1,2.744.825A5.187,5.187,0,0,1,158.013,194.542Z" transform="translate(-124.9 -179.417)" fill="none" stroke="#58595b" stroke-linecap="round" stroke-linejoin="round" stroke-miterlimit="10" stroke-width="1"></path>
      <path id="Path_25" data-name="Path 25" d="M187.4,187.579a3.956,3.956,0,0,1-2.062,3.483,5.108,5.108,0,0,0-2.75-.825,4.59,4.59,0,0,0-1.787.321,1.215,1.215,0,0,1-.275-.229,6.866,6.866,0,0,0,.092-1.008,6.555,6.555,0,0,0-.917-3.346,3.951,3.951,0,0,1,3.667-2.475A4.139,4.139,0,0,1,187.4,187.579Z" transform="translate(-154.654 -180.338)" fill="none" stroke="#58595b" stroke-linecap="round" stroke-linejoin="round" stroke-miterlimit="10" stroke-width="1"></path>
      <line id="Line_24" data-name="Line 24" y1="1.925" transform="translate(28.758)" fill="#00adee" stroke="#58595b" stroke-linecap="round" stroke-linejoin="round" stroke-miterlimit="10" stroke-width="1"></line>
      <line id="Line_25" data-name="Line 25" x1="1.329" y1="1.375" transform="translate(23.644 2.108)" fill="#00adee" stroke="#58595b" stroke-linecap="round" stroke-linejoin="round" stroke-miterlimit="10" stroke-width="1"></line>
      <line id="Line_26" data-name="Line 26" x2="1.329" y2="1.329" transform="translate(32.517 11.183)" fill="#00adee" stroke="#58595b" stroke-linecap="round" stroke-linejoin="round" stroke-miterlimit="10" stroke-width="1"></line>
      <line id="Line_27" data-name="Line 27" y1="1.375" x2="1.329" transform="translate(32.517 2.108)" fill="#00adee" stroke="#58595b" stroke-linecap="round" stroke-linejoin="round" stroke-miterlimit="10" stroke-width="1"></line>
    </g>
    <line id="Line_28" data-name="Line 28" x2="1.925" transform="translate(34.075 7.328)" fill="#00adee" stroke="#58595b" stroke-linecap="round" stroke-linejoin="round" stroke-miterlimit="10" stroke-width="1"></line>
  </g>
</svg></g><g transform="matrix(1.68,0,0,1.697,46,548)"><svg type="text" xmlns="http://www.w3.org/2000/svg" width="50" height="33" viewBox="0 0 50 33">
  <text id="J_Wed" transform="translate(0 24)" fill="#383b41" font-size="24" font-family="Avenir-Light, Avenir" font-weight="500"><tspan x="0" y="0">Wed</tspan></text>
</svg></g></g><g><g transform="matrix(1.6757,0,0,1.75,251,488)"><svg type="icon" xmlns="http://www.w3.org/2000/svg" width="37" height="32.879" viewBox="0 0 37 32.879">
  <g id="M_Lightning" transform="translate(0.5 0.5)">
    <line id="Line_34" data-name="Line 34" x1="1.384" y1="1.384" transform="translate(24.876 3.532)" fill="#ccc" stroke="#ccc" stroke-miterlimit="10" stroke-width="1"></line>
    <line id="Line_35" data-name="Line 35" y1="2.005" transform="translate(28.506)" fill="none" stroke="#58595b" stroke-linecap="round" stroke-linejoin="round" stroke-miterlimit="10" stroke-width="1"></line>
    <line id="Line_36" data-name="Line 36" x1="1.384" y1="1.384" transform="translate(23.641 2.243)" fill="none" stroke="#58595b" stroke-linecap="round" stroke-linejoin="round" stroke-miterlimit="10" stroke-width="1"></line>
    <line id="Line_37" data-name="Line 37" y1="1.384" x2="1.384" transform="translate(32.42 2.243)" fill="none" stroke="#58595b" stroke-linecap="round" stroke-linejoin="round" stroke-miterlimit="10" stroke-width="1"></line>
    <path id="Path_29" data-name="Path 29" d="M703.94,196.17a5.273,5.273,0,0,1-5.157,5.394h-22.59a5.543,5.543,0,0,1,0-11.074h.228a5.293,5.293,0,0,1,5.066-3.914,5.506,5.506,0,0,1,2.647.716,6.453,6.453,0,0,1,11.82-.955,6.808,6.808,0,0,1,.913,3.485,8.151,8.151,0,0,1-.091,1.05c.091.1.137.191.274.239a4.393,4.393,0,0,1,1.78-.334,4.58,4.58,0,0,1,2.738.859A5.4,5.4,0,0,1,703.94,196.17Z" transform="translate(-670.9 -180.37)" fill="none" stroke="#58595b" stroke-linecap="round" stroke-linejoin="round" stroke-miterlimit="10" stroke-width="1"></path>
    <path id="Path_30" data-name="Path 30" d="M733.719,188.848a4.12,4.12,0,0,1-2.148,3.628,5.32,5.32,0,0,0-2.864-.859,4.782,4.782,0,0,0-1.862.334,1.266,1.266,0,0,1-.286-.239,7.142,7.142,0,0,0,.1-1.05,6.827,6.827,0,0,0-.955-3.485,4.115,4.115,0,0,1,3.819-2.578A4.279,4.279,0,0,1,733.719,188.848Z" transform="translate(-701.061 -181.259)" fill="none" stroke="#58595b" stroke-linecap="round" stroke-linejoin="round" stroke-miterlimit="10" stroke-width="1"></path>
    <path id="Path_31" data-name="Path 31" d="M706.633,210.6,699,217.187l1.957,3.532-4.153,6.11,7.112-6.11-1.527-3.246Z" transform="translate(-685.115 -194.829)" fill="#58595b" stroke="#707070" stroke-width="1"></path>
    <line id="Line_38" data-name="Line 38" x2="1.384" y2="1.432" transform="translate(32.42 11.511)" fill="none" stroke="#58595b" stroke-linecap="round" stroke-linejoin="round" stroke-miterlimit="10" stroke-width="1"></line>
    <line id="Line_39" data-name="Line 39" x2="1.957" transform="translate(34.043 7.594)" fill="none" stroke="#58595b" stroke-linecap="round" stroke-linejoin="round" stroke-miterlimit="10" stroke-width="1"></line>
  </g>
</svg></g><g transform="matrix(1.68,0,0,1.697,240,548)"><svg type="text" xmlns="http://www.w3.org/2000/svg" width="50" height="33" viewBox="0 0 50 33">
  <text id="L_Thur" transform="translate(0 24)" fill="#383b41" font-size="24" font-family="Avenir-Light, Avenir" font-weight="500"><tspan x="0" y="0">Thur</tspan></text>
</svg></g></g></g></svg>