
<svg width="122px" height="123px" viewBox="0 0 122 123" version="1.1" xmlns="http://www.w3.org/2000/svg" xmlns:xlink="http://www.w3.org/1999/xlink">
    <g id="Page-1" stroke="none" stroke-width="1" fill="none" fill-rule="evenodd">
        <g id="Artboard" transform="translate(-204.000000, -258.000000)" stroke="#4387C5" stroke-width="3">
            <g id="Oval-20-+-Oval-24-+-Oval-21" transform="translate(204.000000, 258.000000)">
                <path d="M106.43065,23.6906707 L66.6213203,63.5 L120.445707,63.5 C120.481867,62.6691473 120.5,61.8356883 120.5,61 C120.5,47.0608312 115.433557,33.9182779 106.43065,23.6906707 Z" id="Oval-20" fill="#FFFFFF"></path>
                <path d="M54.509921,8.60834066 C24.8799903,10.4325633 1.53890721,35.0531787 1.53890721,65 C1.53890721,96.2040884 26.8348188,121.5 58.0389072,121.5 C87.2516812,121.5 111.500235,99.2544778 114.274801,70.5000092 L54.5099278,70.5 L54.5099278,8.60834025 Z" id="Oval-24" fill="#D2E4F4"></path>
                <path d="M102.38856,18.4901195 C91.8425752,7.7076507 77.4203436,1.5 62,1.5 C61.8235748,1.5 61.6472472,1.50080816 61.4710206,1.50242355 L61.4710206,59.4076591 L102.38856,18.4901195 Z M59.9710206,60.9710206 L59.9710206,60.9076591 L60.3786797,60.5 L61,60.5 L61,62 L59.9710206,60.9710206 Z" id="Oval-21" fill="#4387C5"></path>
            </g>
        </g>
    </g>
</svg>