<svg viewBox="0 0 90 90" x="0px" xmlns="http://www.w3.org/2000/svg" y="0px" style="fill: #ffffff;">
	<title>design_process</title>
	<g data-name="Your Icon">
		<path d="M75.88,0H31.95a2.22,2.22,0,0,0-2.22,2.22V7.43H23a2.22,2.22,0,0,0-2.22,2.22v5.21H14.12a2.22,2.22,0,0,0-2.22,2.22V87.78A2.22,2.22,0,0,0,14.12,90H58.05a2.22,2.22,0,0,0,2.22-2.22V82.57H67a2.22,2.22,0,0,0,2.22-2.22V75.13h6.69a2.22,2.22,0,0,0,2.22-2.22V2.22A2.22,2.22,0,0,0,75.88,0Zm-.74,8.75-6,6v-3l6-6Zm0,6.1-6,6v-3l6-6Zm0,6.1-6,6v-3l6-6Zm0,6.1-6,6v-3l6-6Zm0,6.1-6,6v-3l6-6Zm0,6.1-6,6v-3l6-6Zm0,6.1-6,6v-3l6-6Zm0,6.1-6,6v-3l6-6Zm0,6.1-6,6v-3l6-6Zm0,6.1-6,6v-3l6-6Zm0,6.1-2.39,2.39h-3l5.35-5.35Zm-8.91,5.35V79.6h-6V17.09a2.25,2.25,0,0,0-2.22-2.22H23.77V10.39H66.23V75.13Zm-8.92,7.43V87H14.86V29.94H57.31V82.57ZM23.77,17.83H57.31V27H14.86V17.83h8.92ZM32.69,5.52,35.24,3h3L33.73,7.43h-1ZM69,8.78a2.23,2.23,0,0,0-1.65-1.31L71.87,3h3ZM64.25,7.43h-3L65.76,3h3Zm-6.1,0h-3L59.66,3h3Zm-6.1,0h-3L53.55,3h3Zm-6.1,0H43L47.45,3h3Zm-6.1,0h-3L41.35,3h3Z"/>
		<path d="M26.09,23.89h20a1.48,1.48,0,0,0,1.48-1.48,1.54,1.54,0,0,0-1.48-1.48h-20a1.48,1.48,0,0,0,0,3Z"/>
		<path d="M51.85,35.18a2.2,2.2,0,0,0-1.14-.32H21.46a2.19,2.19,0,0,0-.65.11,2.22,2.22,0,0,0-1.57,2.11V55.39a2.22,2.22,0,0,0,1.57,2.11,2.19,2.19,0,0,0,.65.11H50.71a2.22,2.22,0,0,0,2.22-2.22V37.08h0A2.22,2.22,0,0,0,51.85,35.18Zm-1.88,8V54.65H22.2V37.82H50v5.34Z"/>
		<path d="M50.71,73.66H21.46a2.19,2.19,0,0,0-.65.11,2.22,2.22,0,0,0-1.57,2.11v4.7a2.22,2.22,0,0,0,2.22,2.22H50.71a2.19,2.19,0,0,0,1-.24,2.22,2.22,0,0,0,1.17-1.48,2.19,2.19,0,0,0,.06-.5v-4.7a2.25,2.25,0,0,0-2.22-2.22ZM50,79.85H22.2V76.62H50v3.22Z"/>
		<path d="M20.72,63.49h17A1.48,1.48,0,0,0,39.23,62a1.46,1.46,0,0,0-.74-1.26,1.44,1.44,0,0,0-.74-.22h-17a1.48,1.48,0,1,0,0,3Z"/>
		<path d="M51.45,66.21H20.72a1.48,1.48,0,1,0,0,3H51.45a1.48,1.48,0,0,0,1.48-1.48s0-.06,0-.09A1.47,1.47,0,0,0,51.45,66.21Z"/>
	</g>
</svg>