<svg type="icon" xmlns="http://www.w3.org/2000/svg" width="37" height="32.879" viewBox="0 0 37 32.879">
  <g id="M_Lightning" transform="translate(0.5 0.5)">
    <line id="Line_34" data-name="Line 34" x1="1.384" y1="1.384" transform="translate(24.876 3.532)" fill="#ccc" stroke="#ccc" stroke-miterlimit="10" stroke-width="1"/>
    <line id="Line_35" data-name="Line 35" y1="2.005" transform="translate(28.506)" fill="none" stroke="#58595b" stroke-linecap="round" stroke-linejoin="round" stroke-miterlimit="10" stroke-width="1"/>
    <line id="Line_36" data-name="Line 36" x1="1.384" y1="1.384" transform="translate(23.641 2.243)" fill="none" stroke="#58595b" stroke-linecap="round" stroke-linejoin="round" stroke-miterlimit="10" stroke-width="1"/>
    <line id="Line_37" data-name="Line 37" y1="1.384" x2="1.384" transform="translate(32.42 2.243)" fill="none" stroke="#58595b" stroke-linecap="round" stroke-linejoin="round" stroke-miterlimit="10" stroke-width="1"/>
    <path id="Path_29" data-name="Path 29" d="M703.94,196.17a5.273,5.273,0,0,1-5.157,5.394h-22.59a5.543,5.543,0,0,1,0-11.074h.228a5.293,5.293,0,0,1,5.066-3.914,5.506,5.506,0,0,1,2.647.716,6.453,6.453,0,0,1,11.82-.955,6.808,6.808,0,0,1,.913,3.485,8.151,8.151,0,0,1-.091,1.05c.091.1.137.191.274.239a4.393,4.393,0,0,1,1.78-.334,4.58,4.58,0,0,1,2.738.859A5.4,5.4,0,0,1,703.94,196.17Z" transform="translate(-670.9 -180.37)" fill="none" stroke="#58595b" stroke-linecap="round" stroke-linejoin="round" stroke-miterlimit="10" stroke-width="1"/>
    <path id="Path_30" data-name="Path 30" d="M733.719,188.848a4.12,4.12,0,0,1-2.148,3.628,5.32,5.32,0,0,0-2.864-.859,4.782,4.782,0,0,0-1.862.334,1.266,1.266,0,0,1-.286-.239,7.142,7.142,0,0,0,.1-1.05,6.827,6.827,0,0,0-.955-3.485,4.115,4.115,0,0,1,3.819-2.578A4.279,4.279,0,0,1,733.719,188.848Z" transform="translate(-701.061 -181.259)" fill="none" stroke="#58595b" stroke-linecap="round" stroke-linejoin="round" stroke-miterlimit="10" stroke-width="1"/>
    <path id="Path_31" data-name="Path 31" d="M706.633,210.6,699,217.187l1.957,3.532-4.153,6.11,7.112-6.11-1.527-3.246Z" transform="translate(-685.115 -194.829)" fill="#58595b" stroke="#707070" stroke-width="1"/>
    <line id="Line_38" data-name="Line 38" x2="1.384" y2="1.432" transform="translate(32.42 11.511)" fill="none" stroke="#58595b" stroke-linecap="round" stroke-linejoin="round" stroke-miterlimit="10" stroke-width="1"/>
    <line id="Line_39" data-name="Line 39" x2="1.957" transform="translate(34.043 7.594)" fill="none" stroke="#58595b" stroke-linecap="round" stroke-linejoin="round" stroke-miterlimit="10" stroke-width="1"/>
  </g>
</svg>
