<svg width="32" height="32" viewBox="0 0 32 32" fill="none" xmlns="http://www.w3.org/2000/svg">
<path fill-rule="evenodd" clip-rule="evenodd" d="M24 23.985H20.685V18.797C20.685 17.56 20.663 15.969 18.962 15.969C17.237 15.969 16.974 17.317 16.974 18.709V23.985H13.662V13.317H16.84V14.776H16.886C17.328 13.937 18.41 13.052 20.023 13.052C23.38 13.052 24 15.261 24 18.134V23.985ZM9.924 11.86C8.859 11.86 8 10.998 8 9.937C8 8.876 8.859 8.014 9.924 8.014C10.984 8.014 11.845 8.876 11.845 9.937C11.845 10.998 10.984 11.86 9.924 11.86ZM11.582 23.985H8.263V13.317H11.582V23.985ZM16 0C7.163 0 0 7.163 0 16C0 24.836 7.163 32 16 32C24.837 32 32 24.836 32 16C32 7.163 24.837 0 16 0Z" fill="#4387C5"/>
</svg>
