<svg type="icon" width="160" height="160" viewBox="0 0 160 160" fill="none" xmlns="http://www.w3.org/2000/svg">
<path fill-rule="evenodd" clip-rule="evenodd" d="M2 0C0.895429 0 0 0.895431 0 2V80V158C0 159.105 0.895431 160 2 160H158C159.105 160 160 159.105 160 158V2C160 0.895429 159.105 0 158 0H2Z" fill="#E3E5E6"/>
<path fill-rule="evenodd" clip-rule="evenodd" d="M79.4131 98.5458C102.609 98.5458 121.413 79.7417 121.413 56.5458C121.413 33.3498 102.609 14.5458 79.4131 14.5458C56.2171 14.5458 37.4131 33.3498 37.4131 56.5458C37.4131 79.7417 56.2171 98.5458 79.4131 98.5458Z" fill="#CACCCC"/>
<mask id="mask1" mask-type="alpha" maskUnits="userSpaceOnUse" x="37" y="14" width="85" height="85">
<path fill-rule="evenodd" clip-rule="evenodd" d="M79.4131 98.5458C102.609 98.5458 121.413 79.7417 121.413 56.5458C121.413 33.3498 102.609 14.5458 79.4131 14.5458C56.2171 14.5458 37.4131 33.3498 37.4131 56.5458C37.4131 79.7417 56.2171 98.5458 79.4131 98.5458Z" fill="white"/>
</mask>
<g mask="url(#mask1)">
<path fill-rule="evenodd" clip-rule="evenodd" d="M110.913 103.795C110.913 84.948 96.8103 69.6697 79.4133 69.6697C62.0164 69.6697 47.9133 84.948 47.9133 103.795" fill="#F7FAFA"/>
<path fill-rule="evenodd" clip-rule="evenodd" d="M79.4133 72.2946C89.5616 72.2946 97.7883 63.4802 97.7883 52.6071C97.7883 41.734 89.5616 32.9196 79.4133 32.9196C69.2651 32.9196 61.0383 41.734 61.0383 52.6071C61.0383 63.4802 69.2651 72.2946 79.4133 72.2946Z" fill="#F7FAFA"/>
</g>
<path fill-rule="evenodd" clip-rule="evenodd" d="M55.1958 106.666C54.0912 106.666 53.1958 107.562 53.1958 108.666V119.212C53.1958 120.316 54.0912 121.212 55.1958 121.212H103.804C104.909 121.212 105.804 120.316 105.804 119.212V108.666C105.804 107.562 104.909 106.666 103.804 106.666H55.1958Z" fill="#F7FAFA"/>
<path fill-rule="evenodd" clip-rule="evenodd" d="M36.7825 130.91C35.6779 130.91 34.7825 131.805 34.7825 132.91V136.182C34.7825 137.287 35.6779 138.182 36.7825 138.182H122.217C123.322 138.182 124.217 137.287 124.217 136.182V132.91C124.217 131.805 123.322 130.91 122.217 130.91H36.7825Z" fill="#F0F2F2"/>
</svg>
