<svg type="icon" width="52" height="41" viewBox="0 0 52 41" fill="none" xmlns="http://www.w3.org/2000/svg">
<rect fill="white" x="0.0131836" width="51" height="30"/>
<path fill-rule="evenodd" clip-rule="evenodd" d="M41.8605 13.0016C38.065 13.0828 35.0132 16.185 35.0132 20H35.0841C35.5693 16.6077 38.4867 14 42.0132 14C45.8792 14 49.0132 17.134 49.0132 21C49.0132 24.866 45.8792 28 42.0132 28C41.2113 28 40.4409 27.8652 39.7235 27.6169C39.2049 27.8626 38.6251 28 38.0132 28H29.0132H13.0132C12.4013 28 11.8214 27.8626 11.3029 27.6169C10.5854 27.8652 9.81505 28 9.01318 28C5.14719 28 2.01318 24.866 2.01318 21C2.01318 17.134 5.14719 14 9.01318 14C9.12669 14 9.23957 14.0027 9.35176 14.008C10.1732 11.6735 12.3977 10 15.0132 10C17.9701 10 20.4274 12.1389 20.9223 14.9539C20.9819 14.6451 21.0132 14.3262 21.0132 14C21.0132 11.7128 19.4774 9.78427 17.3809 9.18936C19.5144 4.92665 23.922 2 29.0132 2C35.5133 2 40.8992 6.77065 41.8605 13.0016Z"/>
<path d="M35.0132 20H33.0132V22H35.0132V20ZM41.8605 13.0016L41.9033 15.0012L44.1852 14.9524L43.8372 12.6967L41.8605 13.0016ZM35.0841 20V22H36.8184L37.0639 20.2832L35.0841 20ZM39.7235 27.6169L40.3774 25.7269L39.6055 25.4598L38.8673 25.8095L39.7235 27.6169ZM11.3029 27.6169L12.1591 25.8095L11.4209 25.4598L10.6489 25.7269L11.3029 27.6169ZM9.35176 14.008L9.25662 16.0058L10.7441 16.0766L11.2384 14.6718L9.35176 14.008ZM20.9223 14.9539L18.9525 15.3002L22.886 15.3332L20.9223 14.9539ZM17.3809 9.18936L15.5924 8.29422L14.5114 10.4541L16.8349 11.1134L17.3809 9.18936ZM37.0132 20C37.0132 17.2753 39.1931 15.0592 41.9033 15.0012L41.8178 11.0021C36.9369 11.1065 33.0132 15.0948 33.0132 20H37.0132ZM35.0841 18H35.0132V22H35.0841V18ZM42.0132 12C37.4774 12 33.7284 15.3534 33.1042 19.7168L37.0639 20.2832C37.4103 17.862 39.496 16 42.0132 16V12ZM51.0132 21C51.0132 16.0294 46.9837 12 42.0132 12V16C44.7746 16 47.0132 18.2386 47.0132 21H51.0132ZM42.0132 30C46.9837 30 51.0132 25.9706 51.0132 21H47.0132C47.0132 23.7614 44.7746 26 42.0132 26V30ZM39.0696 29.507C39.9945 29.827 40.9858 30 42.0132 30V26C41.4369 26 40.8874 25.9033 40.3774 25.7269L39.0696 29.507ZM38.0132 30C38.9274 30 39.7991 29.7942 40.5797 29.4244L38.8673 25.8095C38.6107 25.931 38.3228 26 38.0132 26V30ZM29.0132 30H38.0132V26H29.0132V30ZM13.0132 30H29.0132V26H13.0132V30ZM10.4467 29.4244C11.2272 29.7942 12.0989 30 13.0132 30V26C12.7036 26 12.4156 25.931 12.1591 25.8095L10.4467 29.4244ZM9.01318 30C10.0406 30 11.0318 29.827 11.9568 29.507L10.6489 25.7269C10.139 25.9033 9.58949 26 9.01318 26V30ZM0.0131836 21C0.0131836 25.9706 4.04262 30 9.01318 30V26C6.25176 26 4.01318 23.7614 4.01318 21H0.0131836ZM9.01318 12C4.04262 12 0.0131836 16.0294 0.0131836 21H4.01318C4.01318 18.2386 6.25176 16 9.01318 16V12ZM9.44689 12.0103C9.30303 12.0035 9.15843 12 9.01318 12V16C9.09495 16 9.17611 16.0019 9.25662 16.0058L9.44689 12.0103ZM15.0132 8C11.5228 8 8.55939 10.2341 7.46513 13.3443L11.2384 14.6718C11.7869 13.1128 13.2727 12 15.0132 12V8ZM22.8921 14.6075C22.2319 10.8528 18.9577 8 15.0132 8V12C16.9824 12 18.6228 13.4249 18.9525 15.3002L22.8921 14.6075ZM19.0132 14C19.0132 14.1982 18.9942 14.3901 18.9586 14.5746L22.886 15.3332C22.9697 14.9001 23.0132 14.4542 23.0132 14H19.0132ZM16.8349 11.1134C18.0939 11.4707 19.0132 12.6306 19.0132 14H23.0132C23.0132 10.795 20.8609 8.09789 17.9268 7.26532L16.8349 11.1134ZM29.0132 0C23.1358 0 18.0516 3.38059 15.5924 8.29422L19.1694 10.0845C20.9771 6.47272 24.7082 4 29.0132 4V0ZM43.8372 12.6967C42.7277 5.50536 36.5152 0 29.0132 0V4C34.5115 4 39.0708 8.03594 39.8839 13.3066L43.8372 12.6967Z" fill="black" mask="url(#path-1-outside-1)"/>
<path fill-rule="evenodd" clip-rule="evenodd" d="M13.6822 34.8221C13.9039 35.6495 13.4246 36.2784 12.8201 36.4404C12.2156 36.6023 11.4583 36.194 11.2643 35.47C11.1339 34.9833 11.4497 33.9762 11.6706 33.3684C11.7646 33.11 12.074 33.022 12.2881 33.1945C12.7778 33.5892 13.5346 34.2713 13.6822 34.8221ZM26.3372 36.4404C26.9416 36.2784 27.421 35.6495 27.1993 34.8221C27.0517 34.2713 26.2948 33.5892 25.8052 33.1945C25.5911 33.022 25.2816 33.11 25.1877 33.3684C24.9667 33.9762 24.651 34.9833 24.7814 35.47C24.9754 36.194 25.7327 36.6023 26.3372 36.4404ZM19.2917 35.9617C19.7148 35.8483 20.0575 35.4348 19.915 34.9029C19.8174 34.5387 19.2732 34.0939 18.9396 33.8495C18.8026 33.7492 18.6134 33.8032 18.5484 33.9599C18.3858 34.352 18.1364 35.035 18.2225 35.3564C18.3472 35.8218 18.8686 36.0751 19.2917 35.9617ZM36.3498 40.9404C36.9543 40.7784 37.4336 40.1495 37.2119 39.3221C37.0643 38.7713 36.3075 38.0892 35.8178 37.6945C35.6037 37.522 35.2943 37.61 35.2003 37.8684C34.9794 38.4762 34.6636 39.4833 34.7941 39.97C34.9881 40.694 35.7453 41.1023 36.3498 40.9404ZM17.4119 38.9029C17.5544 39.4348 17.2117 39.8483 16.7886 39.9617C16.3654 40.0751 15.8441 39.8218 15.7193 39.3564C15.6332 39.035 15.8826 38.352 16.0452 37.9599C16.1103 37.8032 16.2995 37.7492 16.4364 37.8495C16.77 38.0939 17.3143 38.5387 17.4119 38.9029ZM30.178 38.9029C30.3205 39.4348 29.9778 39.8483 29.5547 39.9617C29.1315 40.0751 28.6102 39.8218 28.4855 39.3564C28.3994 39.035 28.6487 38.352 28.8113 37.9599C28.8764 37.8032 29.0656 37.7492 29.2025 37.8495C29.5362 38.0939 30.0804 38.5387 30.178 38.9029ZM23.9452 39.3221C24.1669 40.1495 23.6875 40.7784 23.0831 40.9404C22.4786 41.1023 21.7213 40.694 21.5273 39.97C21.3969 39.4833 21.7126 38.4762 21.9336 37.8684C22.0275 37.61 22.337 37.522 22.5511 37.6945C23.0407 38.0892 23.7976 38.7713 23.9452 39.3221ZM32.6811 34.9029C32.8237 35.4348 32.481 35.8483 32.0578 35.9617C31.6347 36.0751 31.1133 35.8218 30.9886 35.3564C30.9025 35.035 31.1519 34.352 31.3145 33.9599C31.3795 33.8032 31.5688 33.7492 31.7057 33.8495C32.0393 34.0939 32.5836 34.5387 32.6811 34.9029ZM39.6039 36.4404C40.2084 36.2784 40.6877 35.6495 40.466 34.8221C40.3185 34.2713 39.5616 33.5892 39.0719 33.1945C38.8579 33.022 38.5484 33.11 38.4545 33.3684C38.2335 33.9762 37.9178 34.9833 38.0482 35.47C38.2422 36.194 38.9995 36.6023 39.6039 36.4404Z" fill="black"/>
</svg>
