<svg type="image" width="150" height="150" viewBox="0 0 150 150" fill="none" xmlns="http://www.w3.org/2000/svg">
<rect fill="white" width="151" height="150"/>
<path fill-rule="evenodd" clip-rule="evenodd" d="M75 149C115.869 149 149 115.869 149 75C149 34.1309 115.869 1 75 1C34.1309 1 1 34.1309 1 75C1 115.869 34.1309 149 75 149Z"/>
<path fill-rule="evenodd" clip-rule="evenodd" d="M75 149C115.869 149 149 115.869 149 75C149 34.1309 115.869 1 75 1C34.1309 1 1 34.1309 1 75C1 115.869 34.1309 149 75 149Z" stroke="#383B41" stroke-width="2" mask="url(#path-1-outside-1)"/>
<path d="M21 25L132 122" stroke="#383B41" stroke-linecap="square"/>
<path d="M127.678 21.1354L25.3219 127.865" stroke="#383B41" stroke-linecap="square"/>
</svg>
