<svg type="icon" width="60" height="42" viewBox="0 0 60 42" fill="none" xmlns="http://www.w3.org/2000/svg">
<rect fill="white" x="3.578" y="9.11111" width="57" height="33"/>
<path fill-rule="evenodd" clip-rule="evenodd" d="M49.8528 23.3351C45.6356 23.4254 42.2447 26.8722 42.2447 31.1111H42.3234C42.8626 27.3419 46.1042 24.4444 50.0224 24.4444C54.318 24.4444 57.8002 27.9267 57.8002 32.2222C57.8002 36.5178 54.318 40 50.0224 40C49.1315 40 48.2755 39.8502 47.4784 39.5744C46.9022 39.8473 46.2579 40 45.578 40H35.591C35.5867 40 35.5823 40 35.578 40C35.5737 40 35.5693 40 35.565 40H17.8002C17.1203 40 16.4761 39.8473 15.8999 39.5744C15.1027 39.8502 14.2467 40 13.3558 40C9.06023 40 5.578 36.5178 5.578 32.2222C5.578 27.9267 9.06023 24.4444 13.3558 24.4444C13.4819 24.4444 13.6073 24.4474 13.732 24.4534C14.6446 21.8594 17.1164 20 20.0224 20C23.3079 20 26.0382 22.3765 26.5881 25.5043C26.6544 25.1612 26.6891 24.8069 26.6891 24.4444C26.6891 21.9031 24.9827 19.7603 22.6532 19.0993C25.0238 14.363 29.9211 11.1111 35.578 11.1111C42.8004 11.1111 48.7847 16.4118 49.8528 23.3351Z"/>
<path d="M42.2447 31.1111H40.2447V33.1111H42.2447V31.1111ZM49.8528 23.3351L49.8956 25.3347L52.1775 25.2859L51.8295 23.0302L49.8528 23.3351ZM42.3234 31.1111V33.1111H44.0577L44.3033 31.3943L42.3234 31.1111ZM47.4784 39.5744L48.1323 37.6843L47.3603 37.4172L46.6222 37.7669L47.4784 39.5744ZM35.591 40L35.591 38L35.5892 38L35.591 40ZM35.565 40L35.5668 38H35.565V40ZM15.8999 39.5744L16.7561 37.7669L16.0179 37.4172L15.246 37.6843L15.8999 39.5744ZM13.732 24.4534L13.6368 26.4511L15.1243 26.522L15.6186 25.1172L13.732 24.4534ZM26.5881 25.5043L24.6183 25.8506L28.5518 25.8836L26.5881 25.5043ZM22.6532 19.0993L20.8647 18.2042L19.7837 20.364L22.1073 21.0233L22.6532 19.0993ZM44.2447 31.1111C44.2447 27.9625 46.7637 25.4017 49.8956 25.3347L49.8101 21.3356C44.5075 21.449 40.2447 25.782 40.2447 31.1111H44.2447ZM42.3234 29.1111H42.2447V33.1111H42.3234V29.1111ZM50.0224 22.4444C45.0949 22.4444 41.0217 26.0876 40.3436 30.8279L44.3033 31.3943C44.7035 28.5962 47.1134 26.4444 50.0224 26.4444V22.4444ZM59.8002 32.2222C59.8002 26.8221 55.4226 22.4444 50.0224 22.4444V26.4444C53.2134 26.4444 55.8002 29.0312 55.8002 32.2222H59.8002ZM50.0224 42C55.4226 42 59.8002 37.6223 59.8002 32.2222H55.8002C55.8002 35.4132 53.2134 38 50.0224 38V42ZM46.8244 41.4645C47.8291 41.8121 48.9059 42 50.0224 42V38C49.357 38 48.7219 37.8883 48.1323 37.6843L46.8244 41.4645ZM45.578 42C46.5602 42 47.4964 41.7789 48.3345 41.3819L46.6222 37.7669C46.308 37.9158 45.9556 38 45.578 38V42ZM35.591 42H45.578V38H35.591V42ZM35.578 42C35.5829 42 35.5878 42 35.5928 42L35.5892 38C35.5855 38 35.5817 38 35.578 38V42ZM35.5632 42C35.5682 42 35.5731 42 35.578 42V38C35.5743 38 35.5705 38 35.5668 38L35.5632 42ZM17.8002 42H35.565V38H17.8002V42ZM15.0437 41.3819C15.8819 41.7789 16.818 42 17.8002 42V38C17.4226 38 17.0703 37.9158 16.7561 37.7669L15.0437 41.3819ZM13.3558 42C14.4723 42 15.5491 41.8121 16.5538 41.4645L15.246 37.6843C14.6563 37.8883 14.0212 38 13.3558 38V42ZM3.578 32.2222C3.578 37.6223 7.95566 42 13.3558 42V38C10.1648 38 7.578 35.4132 7.578 32.2222H3.578ZM13.3558 22.4444C7.95566 22.4444 3.578 26.8221 3.578 32.2222H7.578C7.578 29.0312 10.1648 26.4444 13.3558 26.4444V22.4444ZM13.8271 22.4557C13.6708 22.4482 13.5136 22.4444 13.3558 22.4444V26.4444C13.4502 26.4444 13.5439 26.4467 13.6368 26.4511L13.8271 22.4557ZM20.0224 18C16.2415 18 13.0309 20.4201 11.8453 23.7896L15.6186 25.1172C16.2584 23.2987 17.9913 22 20.0224 22V18ZM28.5579 25.158C27.8428 21.0905 24.2955 18 20.0224 18V22C22.3202 22 24.2336 23.6626 24.6183 25.8506L28.5579 25.158ZM24.6891 24.4444C24.6891 24.6789 24.6667 24.9063 24.6244 25.125L28.5518 25.8836C28.6421 25.4162 28.6891 24.9349 28.6891 24.4444H24.6891ZM22.1073 21.0233C23.5992 21.4467 24.6891 22.8209 24.6891 24.4444H28.6891C28.6891 20.9853 26.3662 18.0739 23.1992 17.1753L22.1073 21.0233ZM35.578 9.11111C29.1349 9.11111 23.561 12.8169 20.8647 18.2042L24.4417 19.9944C26.4865 15.909 30.7073 13.1111 35.578 13.1111V9.11111ZM51.8295 23.0302C50.6132 15.1465 43.8022 9.11111 35.578 9.11111V13.1111C41.7985 13.1111 46.9563 17.6771 47.8762 23.6401L51.8295 23.0302Z" fill="black" mask="url(#path-1-outside-1)"/>
<path fill-rule="evenodd" clip-rule="evenodd" d="M9.28302 23.4882C9.37949 23.4528 9.47817 23.4235 9.5785 23.4004L11.0746 23.0556L11.4523 22.9975C11.2444 22.2186 11.1336 21.4 11.1336 20.5556C11.1336 15.3395 15.362 11.1111 20.578 11.1111C22.5421 11.1111 24.3661 11.7106 25.8771 12.7367L27.8439 11.4271C25.8506 9.8384 23.3252 8.88889 20.578 8.88889C14.1347 8.88889 8.91135 14.1122 8.91135 20.5556C8.91135 21.5684 9.04042 22.5512 9.28302 23.4882Z" fill="black"/>
<path fill-rule="evenodd" clip-rule="evenodd" d="M21.0224 0C20.4702 0 20.0224 0.447715 20.0224 1V4.55556C20.0224 5.10784 20.4702 5.55556 21.0224 5.55556H21.2447C21.797 5.55556 22.2447 5.10784 22.2447 4.55556V1C22.2447 0.447715 21.797 0 21.2447 0H21.0224ZM31.6041 2.7758C31.1259 2.49966 30.5143 2.66353 30.2381 3.14182L28.4603 6.22102C28.1842 6.69932 28.3481 7.31091 28.8264 7.58705L29.0188 7.69816C29.4971 7.9743 30.1087 7.81043 30.3848 7.33214L32.1626 4.25293C32.4388 3.77464 32.2749 3.16305 31.7966 2.88691L31.6041 2.7758ZM1 22.2447C0.447715 22.2447 0 21.797 0 21.2447V21.0224C0 20.4702 0.447715 20.0224 1 20.0224H4.55556C5.10784 20.0224 5.55556 20.4702 5.55556 21.0224V21.2447C5.55556 21.797 5.10784 22.2447 4.55556 22.2447H1ZM2.7758 10.663C2.49966 11.1413 2.66353 11.7529 3.14182 12.029L6.22102 13.8068C6.69932 14.083 7.31091 13.9191 7.58705 13.4408L7.69816 13.2483C7.9743 12.77 7.81043 12.1585 7.33214 11.8823L4.25293 10.1045C3.77464 9.82839 3.16305 9.99226 2.88691 10.4706L2.7758 10.663ZM10.1046 4.25293C9.82842 3.77464 9.99229 3.16305 10.4706 2.88691L10.663 2.7758C11.1413 2.49966 11.7529 2.66353 12.0291 3.14182L13.8068 6.22102C14.083 6.69932 13.9191 7.31091 13.4408 7.58705L13.2484 7.69816C12.7701 7.9743 12.1585 7.81043 11.8823 7.33214L10.1046 4.25293Z" fill="black"/>
</svg>
