<svg type="icon" width="40" height="40" viewBox="0 0 40 40" fill="none" xmlns="http://www.w3.org/2000/svg">
<path d="M20 30.4939C25.8073 30.4939 30.5151 25.7861 30.5151 19.9787C30.5151 14.1714 25.8073 9.46361 20 9.46361C14.1926 9.46361 9.48486 14.1714 9.48486 19.9787C9.48486 25.7861 14.1926 30.4939 20 30.4939Z" stroke="black" stroke-width="2"/>
<path fill-rule="evenodd" clip-rule="evenodd" d="M18.9485 1C18.9485 0.447715 19.3962 0 19.9485 0H20.0515C20.6038 0 21.0515 0.447715 21.0515 0.999999V4.25757C21.0515 4.80985 20.6038 5.25757 20.0515 5.25757H19.9485C19.3962 5.25757 18.9485 4.80985 18.9485 4.25757V1ZM28.5894 3.01975C28.8655 2.54146 29.4771 2.37758 29.9554 2.65372L30.0446 2.70524C30.5229 2.98138 30.6868 3.59297 30.4106 4.07126L28.7818 6.8924C28.5057 7.37069 27.8941 7.53456 27.4158 7.25842L27.3266 7.20691C26.8483 6.93077 26.6844 6.31918 26.9606 5.84088L28.5894 3.01975ZM37.2947 9.95538C37.0186 9.47709 36.407 9.31321 35.9287 9.58936L33.1076 11.2181C32.6293 11.4943 32.4654 12.1059 32.7416 12.5842L32.7931 12.6734C33.0692 13.1517 33.6808 13.3156 34.1591 13.0394L36.9802 11.4106C37.4585 11.1345 37.6224 10.5229 37.3463 10.0446L37.2947 9.95538ZM39 18.9485C39.5523 18.9485 40 19.3962 40 19.9485V20.0515C40 20.6038 39.5523 21.0515 39 21.0515H35.7424C35.1901 21.0515 34.7424 20.6038 34.7424 20.0515V19.9485C34.7424 19.3962 35.1901 18.9485 35.7424 18.9485H39ZM37.3463 29.9554C37.6224 29.4771 37.4585 28.8655 36.9802 28.5894L34.1591 26.9606C33.6808 26.6844 33.0692 26.8483 32.7931 27.3266L32.7416 27.4158C32.4654 27.8941 32.6293 28.5057 33.1076 28.7819L35.9287 30.4106C36.407 30.6868 37.0186 30.5229 37.2947 30.0446L37.3463 29.9554ZM30.4106 35.9287C30.6868 36.407 30.5229 37.0186 30.0446 37.2947L29.9554 37.3463C29.4771 37.6224 28.8655 37.4585 28.5893 36.9802L26.9606 34.1591C26.6844 33.6808 26.8483 33.0692 27.3266 32.7931L27.4158 32.7416C27.8941 32.4654 28.5057 32.6293 28.7818 33.1076L30.4106 35.9287ZM20.0515 40C20.6038 40 21.0515 39.5523 21.0515 39V35.7424C21.0515 35.1902 20.6038 34.7424 20.0515 34.7424H19.9485C19.3962 34.7424 18.9485 35.1902 18.9485 35.7424V39C18.9485 39.5523 19.3962 40 19.9485 40H20.0515ZM11.4106 36.9802C11.1345 37.4585 10.5229 37.6224 10.0446 37.3463L9.9554 37.2948C9.4771 37.0186 9.31323 36.407 9.58937 35.9287L11.2182 33.1076C11.4943 32.6293 12.1059 32.4654 12.5842 32.7416L12.6734 32.7931C13.1517 33.0692 13.3156 33.6808 13.0394 34.1591L11.4106 36.9802ZM2.70523 30.0446C2.98137 30.5229 3.59296 30.6868 4.07126 30.4106L6.89239 28.7818C7.37068 28.5057 7.53456 27.8941 7.25842 27.4158L7.2069 27.3266C6.93076 26.8483 6.31917 26.6844 5.84088 26.9606L3.01974 28.5894C2.54145 28.8655 2.37758 29.4771 2.65372 29.9554L2.70523 30.0446ZM1 21.0515C0.447715 21.0515 0 20.6038 0 20.0515V19.9485C0 19.3962 0.447715 18.9485 0.999999 18.9485H4.25757C4.80985 18.9485 5.25757 19.3962 5.25757 19.9485V20.0515C5.25757 20.6038 4.80985 21.0515 4.25757 21.0515H1ZM2.65375 10.0446C2.3776 10.5229 2.54148 11.1345 3.01977 11.4106L5.84091 13.0394C6.3192 13.3156 6.93079 13.1517 7.20693 12.6734L7.25845 12.5842C7.53459 12.1059 7.37071 11.4943 6.89242 11.2181L4.07129 9.58936C3.59299 9.31321 2.9814 9.47709 2.70526 9.95538L2.65375 10.0446ZM9.58936 4.07127C9.31321 3.59298 9.47709 2.98139 9.95538 2.70525L10.0446 2.65373C10.5229 2.37759 11.1345 2.54147 11.4106 3.01976L13.0394 5.84089C13.3156 6.31919 13.1517 6.93078 12.6734 7.20692L12.5842 7.25843C12.1059 7.53457 11.4943 7.3707 11.2181 6.89241L9.58936 4.07127Z" fill="black"/>
</svg>
