<svg xmlns="http://www.w3.org/2000/svg" xmlns:xlink="http://www.w3.org/1999/xlink" viewBox="0 0 375 667">
  <defs>
    <style>
      .cls-1 {
        clip-path: url(#clip-Facebook_connect);
      }

      .cls-14, .cls-15, .cls-16, .cls-2, .cls-5 {
        fill: #fff;
      }

      .cls-2 {
        stroke: #ababab;
      }

      .cls-3 {
        fill: #4c5363;
      }

      .cls-10, .cls-3, .cls-5 {
        font-size: 16px;
      }

      .cls-10, .cls-11, .cls-14, .cls-3, .cls-5, .cls-7 {
        font-family: Helvetica;
      }

      .cls-4 {
        fill: url(#linear-gradient);
      }

      .cls-6 {
        fill: #69707f;
      }

      .cls-15, .cls-6, .cls-9 {
        fill-rule: evenodd;
      }

      .cls-7 {
        fill: #5f6676;
        font-size: 14px;
      }

      .cls-8, .cls-9 {
        fill: #4385ff;
      }

      .cls-10 {
        fill: #4387ff;
      }

      .cls-11 {
        fill: #262626;
        font-size: 18px;
        letter-spacing: 0.006em;
      }

      .cls-12 {
        fill: #dedede;
      }

      .cls-13 {
        fill: #4e6aa5;
      }

      .cls-14 {
        font-size: 20px;
      }
    </style>
    <linearGradient id="linear-gradient" x1="0.5" x2="0.5" y2="1" gradientUnits="objectBoundingBox">
      <stop offset="0" stop-color="#6278aa"/>
      <stop offset="1" stop-color="#42588a"/>
    </linearGradient>
    <clipPath id="clip-Facebook_connect">
      <rect width="375" height="667"/>
    </clipPath>
  </defs>
  <g id="Facebook_connect" data-name="Facebook connect" class="cls-1">
    <rect class="cls-16" width="375" height="667"/>
    <g id="group-2">
      <rect id="rectangle" class="cls-2" width="170" height="50" rx="8" transform="translate(14 603)"/>
      <text id="Cancel" class="cls-3" transform="translate(98.5 633.5)"><tspan x="-24.902" y="0">Cancel</tspan></text>
    </g>
    <rect id="rectangle-2" data-name="rectangle" class="cls-4" width="170" height="50" rx="8" transform="translate(191 602)"/>
    <text id="OK" class="cls-5" transform="translate(276 634)"><tspan x="-11.559" y="0">OK</tspan></text>
    <g id="group-3">
      <path id="Shape" class="cls-6" d="M1.833,3.5V5.25H0V14H11V5.25H9.167V3.5A3.585,3.585,0,0,0,5.5,0,3.585,3.585,0,0,0,1.833,3.5ZM5.5,1.75A1.7,1.7,0,0,1,7.333,3.5V5.25H3.667V3.5A1.7,1.7,0,0,1,5.5,1.75Z" transform="translate(48 572)"/>
      <text id="This_does_not_l" data-name="This does not l" class="cls-7" transform="translate(65 585)"><tspan x="0" y="0">This does not let the app post to Facebook.</tspan></text>
    </g>
    <g id="group-4" transform="translate(-0.117 -0.014)">
      <path id="Rectangle-path" class="cls-8" d="M.009.028,5.21,0,5.2,1.669,0,1.694Z" transform="translate(108.92 406.895) rotate(-135)"/>
      <path id="Rectangle-path-2" data-name="Rectangle-path" class="cls-8" d="M.071.028,5.285,0,5.221,13.155.007,13.18Z" transform="translate(99.237 416.559) rotate(-135)"/>
      <path id="Shape-2" data-name="Shape" class="cls-9" d="M0,0H3.7V3.743Z" transform="translate(98.821 417.011) rotate(180)"/>
    </g>
    <text id="Edit_the_info_y" data-name="Edit the info y" class="cls-10" transform="translate(115 415)"><tspan x="0" y="0">Edit the info you provide</tspan></text>
    <text id="AppName_" data-name="AppName " class="cls-11" transform="translate(188 338)"><tspan x="-140.715" y="0">AppName will receive the following</tspan><tspan x="-150.629" y="22">info: your public profile, friend list and</tspan><tspan x="-61.727" y="44">email address. </tspan></text>
    <rect id="Rectangle-83" class="cls-12" width="80" height="80" rx="8" transform="translate(102 224)"/>
    <rect id="Rectangle-83-Copy" class="cls-12" width="80" height="80" rx="8" transform="translate(193 224)"/>
    <rect id="Rectangle-76" class="cls-13" width="375" height="74" transform="translate(0 -3)"/>
    <text id="Login" class="cls-14" transform="translate(188 60)"><tspan x="-24.468" y="0">Login</tspan></text>
    <path id="Chevron" class="cls-15" d="M6.242,10.085a.788.788,0,0,1,0-1.247L11.2,4.649c.407-.344.738-.2.738.322v8.981c0,.522-.328.669-.738.322Z" transform="translate(0.064 0.538)"/>
  </g>
</svg>
