<svg height="640" version="1.1" width="360" xmlns="http://www.w3.org/2000/svg" style="" fill="#ffffff"><desc>Created with Snap</desc><defs></defs><rect width="360" height="640" fill="#ffffff" style=""></rect><g transform="matrix(1,0,0,1,24,128)" width="152" height="40"><svg type="text" width="152" height="40" viewBox="0 0 106 28" fill="none" xmlns="http://www.w3.org/2000/svg">
<text fill="#383B41" xml:space="preserve" style="white-space: pre" font-family="Avenir" font-size="32" font-weight="900" letter-spacing="0px"><tspan x="0.3125" y="25">Seattle</tspan></text>
</svg></g><g transform="matrix(1,0,0,1,24,208)" width="152" height="16"><svg type="text" width="152" height="16" viewBox="0 0 118 13" fill="none" xmlns="http://www.w3.org/2000/svg">
<text fill="#383B41" xml:space="preserve" style="white-space: pre" font-family="Avenir" font-size="12" font-weight="800" letter-spacing="0.2px"><tspan x="-0.145409" y="10">Monday, March 11th</tspan></text>
</svg></g><g transform="matrix(1,0,0,1,24,240)" width="152" height="4"><svg type="separator" width="152" height="4" viewBox="0 0 292 4" fill="none" xmlns="http://www.w3.org/2000/svg">
  <rect width="100%" height="100%" rx="2.5" fill="#838992"></rect>
</svg></g><g transform="matrix(1,0,0,1,184,128)" width="152" height="152"><svg type="image" width="152" height="152" viewBox="0 0 67 67" fill="none" xmlns="http://www.w3.org/2000/svg">
<rect x="0.5" y="0.5" width="66" height="66" rx="9.5" stroke="#383B41"></rect>
<rect fill="white" x="7.95947" y="12.0338" width="51" height="30"></rect>
<path fill-rule="evenodd" clip-rule="evenodd" d="M49.7627 25.0233C45.9714 25.1044 42.9229 28.2031 42.9229 32.0139L42.9937 32.0139C43.4784 28.6253 46.3926 26.0205 49.9151 26.0205C53.7768 26.0205 56.9074 29.151 56.9074 33.0128C56.9074 36.8745 53.7768 40.005 49.9151 40.005C49.1142 40.005 48.3447 39.8703 47.628 39.6224C47.11 39.8678 46.5308 40.005 45.9196 40.005H20.9473C20.336 40.005 19.7568 39.8678 19.2388 39.6224C18.5222 39.8703 17.7527 40.005 16.9517 40.005C13.09 40.005 9.95947 36.8745 9.95947 33.0128C9.95947 29.151 13.09 26.0205 16.9517 26.0205C17.0651 26.0205 17.1778 26.0232 17.2899 26.0285C18.1104 23.6965 20.3325 22.0249 22.9451 22.0249C25.8987 22.0249 28.3533 24.1615 28.8476 26.9734C28.9072 26.6649 28.9384 26.3464 28.9384 26.0205C28.9384 23.7358 27.4044 21.8095 25.3101 21.2152C27.4412 16.9572 31.844 14.0338 36.9295 14.0338C43.4225 14.0338 48.8024 18.7992 49.7627 25.0233Z"></path>
<path d="M42.9229 32.0139H40.9229V34.0138L42.9228 34.0139L42.9229 32.0139ZM49.7627 25.0233L49.8054 27.0228L52.0873 26.974L51.7393 24.7183L49.7627 25.0233ZM42.9937 32.0139L42.9936 34.0139L44.728 34.014L44.9735 32.2971L42.9937 32.0139ZM47.628 39.6224L48.2819 37.7323L47.51 37.4652L46.7718 37.8149L47.628 39.6224ZM19.2388 39.6224L20.095 37.8149L19.3568 37.4652L18.5849 37.7323L19.2388 39.6224ZM17.2899 26.0285L17.1948 28.0263L18.6823 28.0971L19.1765 26.6923L17.2899 26.0285ZM28.8476 26.9734L26.8778 27.3197L30.8113 27.3527L28.8476 26.9734ZM25.3101 21.2152L23.5216 20.3201L22.4406 22.4799L24.7642 23.1392L25.3101 21.2152ZM44.9229 32.0139C44.9229 29.2934 47.0994 27.0807 49.8054 27.0228L49.7199 23.0237C44.8433 23.1281 40.9229 27.1129 40.9229 32.0139H44.9229ZM42.9938 30.0139L42.923 30.0139L42.9228 34.0139L42.9936 34.0139L42.9938 30.0139ZM49.9151 24.0205C45.3833 24.0205 41.6374 27.3711 41.0138 31.7307L44.9735 32.2971C45.3193 29.8796 47.4019 28.0205 49.9151 28.0205V24.0205ZM58.9074 33.0128C58.9074 28.0465 54.8814 24.0205 49.9151 24.0205V28.0205C52.6723 28.0205 54.9074 30.2556 54.9074 33.0128H58.9074ZM49.9151 42.005C54.8814 42.005 58.9074 37.979 58.9074 33.0128H54.9074C54.9074 35.7699 52.6723 38.005 49.9151 38.005V42.005ZM46.9741 41.5125C47.8982 41.8322 48.8886 42.005 49.9151 42.005V38.005C49.3397 38.005 48.7911 37.9084 48.2819 37.7323L46.9741 41.5125ZM45.9196 42.005C46.8331 42.005 47.7042 41.7993 48.4842 41.4298L46.7718 37.8149C46.5158 37.9362 46.2285 38.005 45.9196 38.005V42.005ZM20.9473 42.005H45.9196V38.005H20.9473V42.005ZM18.3826 41.4298C19.1626 41.7993 20.0337 42.005 20.9473 42.005V38.005C20.6383 38.005 20.351 37.9362 20.095 37.8149L18.3826 41.4298ZM16.9517 42.005C17.9782 42.005 18.9686 41.8322 19.8927 41.5125L18.5849 37.7323C18.0758 37.9085 17.5271 38.005 16.9517 38.005V42.005ZM7.95947 33.0128C7.95947 37.979 11.9854 42.005 16.9517 42.005V38.005C14.1946 38.005 11.9595 35.7699 11.9595 33.0128H7.95947ZM16.9517 24.0205C11.9854 24.0205 7.95947 28.0465 7.95947 33.0128H11.9595C11.9595 30.2556 14.1946 28.0205 16.9517 28.0205V24.0205ZM17.385 24.0308C17.2413 24.024 17.0968 24.0205 16.9517 24.0205V28.0205C17.0334 28.0205 17.1144 28.0225 17.1948 28.0263L17.385 24.0308ZM22.9451 20.0249C19.4576 20.0249 16.4966 22.2572 15.4033 25.3648L19.1765 26.6923C19.7242 25.1359 21.2074 24.0249 22.9451 24.0249V20.0249ZM30.8174 26.627C30.1578 22.8754 26.8864 20.0249 22.9451 20.0249V24.0249C24.911 24.0249 26.5487 25.4475 26.8778 27.3197L30.8174 26.627ZM26.9384 26.0205C26.9384 26.2184 26.9195 26.4099 26.8839 26.594L30.8113 27.3527C30.8949 26.9199 30.9384 26.4743 30.9384 26.0205H26.9384ZM24.7642 23.1392C26.0209 23.4958 26.9384 24.6536 26.9384 26.0205H30.9384C30.9384 22.8181 28.7879 20.1231 25.8561 19.2912L24.7642 23.1392ZM36.9295 12.0338C31.0578 12.0338 25.9785 15.4112 23.5216 20.3201L27.0986 22.1103C28.904 18.5033 32.6302 16.0338 36.9295 16.0338V12.0338ZM51.7393 24.7183C50.6309 17.5339 44.4244 12.0338 36.9295 12.0338V16.0338C42.4206 16.0338 46.974 20.0645 47.7861 25.3282L51.7393 24.7183Z" fill="black"></path>
<path fill-rule="evenodd" clip-rule="evenodd" d="M34.2565 48.4361C34.8603 48.2744 35.3391 47.6462 35.1176 46.8197C34.9703 46.2697 34.2147 45.5885 33.7255 45.1943C33.5115 45.0217 33.202 45.1098 33.1081 45.3681C32.8874 45.9753 32.5722 46.9808 32.7025 47.4668C32.8962 48.19 33.6527 48.5979 34.2565 48.4361ZM40.5934 46.9002C40.7358 47.4315 40.3935 47.8446 39.9708 47.9578C39.5482 48.0711 39.0274 47.8181 38.9028 47.3532C38.8168 47.0323 39.0657 46.3503 39.2282 45.9586C39.2932 45.8019 39.4824 45.7479 39.6193 45.8482C39.9526 46.0924 40.496 46.5365 40.5934 46.9002ZM27.2188 47.9578C27.6415 47.8446 27.9838 47.4315 27.8415 46.9002C27.744 46.5365 27.2007 46.0924 26.8674 45.8482C26.7304 45.7479 26.5412 45.8019 26.4762 45.9586C26.3137 46.3503 26.0648 47.0323 26.1508 47.3532C26.2754 47.8181 26.7962 48.0711 27.2188 47.9578ZM44.258 52.9311C44.8618 52.7693 45.3407 52.1411 45.1192 51.3146C44.9718 50.7646 44.2162 50.0835 43.7271 49.6892C43.513 49.5167 43.2036 49.6047 43.1096 49.8631C42.8889 50.4703 42.5738 51.4757 42.704 51.9618C42.8978 52.685 43.6542 53.0929 44.258 52.9311ZM25.3411 50.8958C25.4834 51.4271 25.1411 51.8402 24.7185 51.9534C24.2958 52.0667 23.775 51.8137 23.6504 51.3488C23.5645 51.0279 23.8134 50.3459 23.9758 49.9542C24.0409 49.7975 24.2301 49.7435 24.367 49.8438C24.7003 50.088 25.2436 50.5321 25.3411 50.8958ZM38.093 50.8958C38.2354 51.4271 37.8931 51.8402 37.4704 51.9534C37.0478 52.0667 36.527 51.8137 36.4024 51.3488C36.3164 51.0279 36.5653 50.3459 36.7278 49.9542C36.7928 49.7975 36.982 49.7435 37.1189 49.8438C37.4522 50.088 37.9956 50.5321 38.093 50.8958ZM31.8672 51.3146C32.0886 52.1411 31.6098 52.7693 31.006 52.9311C30.4022 53.0929 29.6457 52.685 29.452 51.9618C29.3217 51.4757 29.6369 50.4703 29.8576 49.8631C29.9515 49.6047 30.261 49.5167 30.475 49.6892C30.9642 50.0835 31.7198 50.7646 31.8672 51.3146ZM21.6156 46.8197C21.837 47.6462 21.3582 48.2744 20.7544 48.4361C20.1506 48.5979 19.3942 48.19 19.2004 47.4668C19.0702 46.9808 19.3853 45.9754 19.606 45.3681C19.6999 45.1098 20.0094 45.0217 20.2235 45.1943C20.7126 45.5885 21.4682 46.2697 21.6156 46.8197ZM47.5085 48.4361C48.1123 48.2744 48.5912 47.6462 48.3697 46.8197C48.2223 46.2697 47.4667 45.5885 46.9776 45.1943C46.7635 45.0217 46.4541 45.1098 46.3601 45.3681C46.1394 45.9753 45.8243 46.9808 45.9545 47.4668C46.1483 48.19 46.9047 48.5979 47.5085 48.4361Z" fill="black"></path>
</svg></g><g><g transform="matrix(1,0,0,1,256,32)" width="68" height="32"><svg type="text" width="68" height="32" viewBox="0 0 87 41" fill="none" xmlns="http://www.w3.org/2000/svg">
<text fill="#383B41" xml:space="preserve" style="white-space: pre" font-family="Avenir" font-size="56" font-weight="900" letter-spacing="0px"><tspan x="-0.703125" y="41">44°</tspan></text>
</svg></g><g transform="matrix(1,0,0,1,196,48)" width="48" height="16"><svg type="text" width="48" height="16" viewBox="0 0 75 25" fill="none" xmlns="http://www.w3.org/2000/svg">
<text fill="#383B41" xml:space="preserve" style="white-space: pre" font-family="Avenir" font-size="24" font-weight="300" letter-spacing="0px"><tspan x="-1.03125" y="19">Cloudy</tspan></text>
</svg></g></g><g transform="matrix(1,0,0,1,24,96)" width="312" height="21"><svg type="text" width="312" height="21" viewBox="0 0 203 14" fill="none" xmlns="http://www.w3.org/2000/svg">
<text id="Body" fill="#383B41" xml:space="preserve" style="white-space: pre" font-family="Avenir" font-size="16" font-weight="300" letter-spacing="0px"><tspan x="0.40625" y="13">Winds ENE at 10 to 15 km/h. </tspan></text>
</svg></g><g><g><g transform="matrix(1,0,0,1,147,336)" width="166" height="64"><svg type="text" width="166" height="64" viewBox="0 0 52 20" fill="none" xmlns="http://www.w3.org/2000/svg">
<text id="TuesHeader" fill="#383B41" xml:space="preserve" style="white-space: pre" font-family="Avenir" font-size="24" font-weight="900" letter-spacing="0.5px"><tspan x="0.375" y="19">Tues</tspan></text>
</svg></g><g transform="matrix(1,0,0,1,47,304)" width="96" height="96"><svg type="icon" width="96" height="96" viewBox="0 0 48 48" fill="none" xmlns="http://www.w3.org/2000/svg">
<path d="M24 36.5926C30.9688 36.5926 36.6182 30.9433 36.6182 23.9745C36.6182 17.0057 30.9688 11.3563 24 11.3563C17.0312 11.3563 11.3818 17.0057 11.3818 23.9745C11.3818 30.9433 17.0312 36.5926 24 36.5926Z" stroke="black" stroke-width="2"></path>
<path fill-rule="evenodd" clip-rule="evenodd" d="M22.7382 1C22.7382 0.447715 23.1859 0 23.7382 0H24.2618C24.8141 0 25.2618 0.447715 25.2618 1V5.30908C25.2618 5.86136 24.8141 6.30908 24.2618 6.30908H23.7382C23.1859 6.30908 22.7382 5.86136 22.7382 5.30908V1ZM34.4072 3.4505C34.6834 2.97221 35.295 2.80833 35.7732 3.08447L36.2267 3.34629C36.705 3.62243 36.8689 4.23402 36.5927 4.71231L34.4382 8.44409C34.1621 8.92238 33.5505 9.08625 33.0722 8.81011L32.6187 8.5483C32.1404 8.27215 31.9765 7.66056 32.2527 7.18227L34.4072 3.4505ZM44.6537 11.7733C44.3775 11.295 43.766 11.1311 43.2877 11.4073L39.5559 13.5618C39.0776 13.8379 38.9137 14.4495 39.1899 14.9278L39.4517 15.3813C39.7278 15.8596 40.3394 16.0235 40.8177 15.7473L44.5495 13.5928C45.0278 13.3167 45.1916 12.7051 44.9155 12.2268L44.6537 11.7733ZM47 22.7382C47.5523 22.7382 48 23.1859 48 23.7382V24.2618C48 24.8141 47.5523 25.2618 47 25.2618H42.6909C42.1386 25.2618 41.6909 24.8141 41.6909 24.2618V23.7382C41.6909 23.1859 42.1386 22.7382 42.6909 22.7382H47ZM44.9155 35.7733C45.1917 35.295 45.0278 34.6834 44.5495 34.4073L40.8177 32.2527C40.3394 31.9766 39.7278 32.1404 39.4517 32.6187L39.1899 33.0722C38.9137 33.5505 39.0776 34.1621 39.5559 34.4382L43.2877 36.5928C43.766 36.8689 44.3776 36.7051 44.6537 36.2268L44.9155 35.7733ZM36.5928 43.2877C36.8689 43.766 36.705 44.3775 36.2267 44.6537L35.7733 44.9155C35.295 45.1916 34.6834 45.0278 34.4072 44.5495L32.2527 40.8177C31.9765 40.3394 32.1404 39.7278 32.6187 39.4517L33.0722 39.1899C33.5505 38.9137 34.1621 39.0776 34.4382 39.5559L36.5928 43.2877ZM24.2618 48C24.8141 48 25.2618 47.5523 25.2618 47V42.6909C25.2618 42.1386 24.8141 41.6909 24.2618 41.6909H23.7382C23.1859 41.6909 22.7382 42.1386 22.7382 42.6909V47C22.7382 47.5523 23.1859 48 23.7382 48H24.2618ZM13.5928 44.5495C13.3166 45.0278 12.705 45.1917 12.2267 44.9155L11.7733 44.6537C11.295 44.3776 11.1311 43.766 11.4072 43.2877L13.5618 39.5559C13.8379 39.0776 14.4495 38.9137 14.9278 39.1899L15.3813 39.4517C15.8596 39.7278 16.0234 40.3394 15.7473 40.8177L13.5928 44.5495ZM3.34629 36.2268C3.62243 36.7051 4.23402 36.8689 4.71231 36.5928L8.44409 34.4383C8.92238 34.1621 9.08625 33.5505 8.81011 33.0722L8.5483 32.6188C8.27215 32.1405 7.66056 31.9766 7.18227 32.2527L3.4505 34.4073C2.97221 34.6834 2.80833 35.295 3.08447 35.7733L3.34629 36.2268ZM1 25.2618C0.447715 25.2618 0 24.8141 0 24.2618V23.7382C0 23.1859 0.447715 22.7382 1 22.7382H5.30908C5.86136 22.7382 6.30908 23.1859 6.30908 23.7382V24.2618C6.30908 24.8141 5.86136 25.2618 5.30908 25.2618H1ZM3.08447 12.2268C2.80833 12.7051 2.97221 13.3167 3.4505 13.5928L7.18227 15.7473C7.66056 16.0235 8.27215 15.8596 8.5483 15.3813L8.81011 14.9278C9.08625 14.4495 8.92238 13.838 8.44409 13.5618L4.71231 11.4073C4.23402 11.1311 3.62243 11.295 3.34629 11.7733L3.08447 12.2268ZM11.4072 4.71231C11.1311 4.23402 11.295 3.62243 11.7733 3.34629L12.2267 3.08447C12.705 2.80833 13.3166 2.97221 13.5928 3.4505L15.7473 7.18227C16.0234 7.66056 15.8596 8.27215 15.3813 8.5483L14.9278 8.81011C14.4495 9.08625 13.8379 8.92238 13.5618 8.44409L11.4072 4.71231Z" fill="black"></path>
</svg></g></g><g><g transform="matrix(1,0,0,1,147,544)" width="166" height="64"><svg type="text" width="166" height="64" viewBox="0 0 52 20" fill="none" xmlns="http://www.w3.org/2000/svg">
<text id="WedHeader" fill="#383B41" xml:space="preserve" style="white-space: pre" font-family="Avenir" font-size="24" font-weight="900" letter-spacing="0px"><tspan x="0.261719" y="19">Wed</tspan></text>
</svg></g><g transform="matrix(1,0,0,1,47,512)" width="96" height="96"><svg type="icon" width="96" height="96" viewBox="0 0 48 48" fill="none" xmlns="http://www.w3.org/2000/svg">
<rect width="48" height="48" fill="white"></rect>
<rect fill="white" y="8" width="49" height="30"></rect>
<path fill-rule="evenodd" clip-rule="evenodd" d="M37.2528 34.9573C37.9387 35.211 38.6773 35.3492 39.4468 35.3492C43.0661 35.3492 46 32.2936 46 28.5244C46 24.7552 43.0661 21.6996 39.4468 21.6996C36.1454 21.6996 33.4143 24.242 32.96 27.5494H32.8936C32.8937 23.83 35.7507 20.8055 39.3039 20.7263C38.404 14.6513 33.3619 10 27.2766 10C22.5104 10 18.3841 12.8534 16.3868 17.0094C18.3495 17.5894 19.7872 19.4697 19.7872 21.6996C19.7872 22.0177 19.758 22.3286 19.7021 22.6296C19.2388 19.8851 16.9383 17.7997 14.1702 17.7997C11.7217 17.7997 9.6391 19.4313 8.87014 21.7075C8.76512 21.7023 8.65945 21.6996 8.55319 21.6996C4.93396 21.6996 2 24.7552 2 28.5244C2 32.2936 4.93396 35.3492 8.55319 35.3492C9.32271 35.3492 10.0613 35.211 10.7472 34.9573C11.2625 35.2083 11.8413 35.3492 12.4531 35.3492H27.2699C27.2721 35.3492 27.2744 35.3492 27.2766 35.3492C27.2789 35.3492 27.2811 35.3492 27.2834 35.3492H35.5469C36.1587 35.3492 36.7375 35.2083 37.2528 34.9573Z"></path>
<path d="M37.2528 34.9573L37.9467 33.0815L37.1452 32.785L36.3768 33.1593L37.2528 34.9573ZM32.96 27.5494V29.5494H34.7041L34.9414 27.8216L32.96 27.5494ZM32.8936 27.5494L30.8936 27.5494L30.8936 29.5494H32.8936V27.5494ZM39.3039 20.7263L39.3485 22.7258L41.6145 22.6753L41.2823 20.4332L39.3039 20.7263ZM16.3868 17.0094L14.5841 16.1431L13.5661 18.2614L15.82 18.9274L16.3868 17.0094ZM19.7021 22.6296L17.7301 22.9626L21.6686 22.9943L19.7021 22.6296ZM8.87014 21.7075L8.77108 23.705L10.2811 23.7799L10.7649 22.3476L8.87014 21.7075ZM10.7472 34.9573L11.6231 33.1593L10.8548 32.785L10.0533 33.0815L10.7472 34.9573ZM36.5589 36.833C37.4628 37.1674 38.436 37.3492 39.4468 37.3492V33.3492C38.9186 33.3492 38.4147 33.2547 37.9467 33.0815L36.5589 36.833ZM39.4468 37.3492C44.2464 37.3492 48 33.3209 48 28.5244H44C44 31.2664 41.8857 33.3492 39.4468 33.3492V37.3492ZM48 28.5244C48 23.7279 44.2464 19.6996 39.4468 19.6996V23.6996C41.8857 23.6996 44 25.7824 44 28.5244H48ZM39.4468 19.6996C35.0713 19.6996 31.5584 23.0557 30.9786 27.2773L34.9414 27.8216C35.2701 25.4284 37.2196 23.6996 39.4468 23.6996V19.6996ZM32.96 25.5494H32.8936V29.5494H32.96V25.5494ZM34.8936 27.5494C34.8937 24.8448 36.9531 22.7792 39.3485 22.7258L39.2594 18.7268C34.5483 18.8317 30.8937 22.8151 30.8936 27.5494L34.8936 27.5494ZM41.2823 20.4332C40.2483 13.4531 34.4278 8 27.2766 8V12C32.2959 12 36.5597 15.8494 37.3255 21.0194L41.2823 20.4332ZM27.2766 8C21.6803 8 16.8871 11.3511 14.5841 16.1431L18.1894 17.8757C19.8811 14.3557 23.3404 12 27.2766 12V8ZM15.82 18.9274C16.9105 19.2497 17.7872 20.3325 17.7872 21.6996H21.7872C21.7872 18.6069 19.7886 15.9292 16.9536 15.0914L15.82 18.9274ZM17.7872 21.6996C17.7872 21.8949 17.7693 22.0837 17.7357 22.2649L21.6686 22.9943C21.7467 22.5735 21.7872 22.1405 21.7872 21.6996H17.7872ZM21.6742 22.2967C21.0611 18.6647 17.9886 15.7997 14.1702 15.7997V19.7997C15.8881 19.7997 17.4165 21.1055 17.7301 22.9626L21.6742 22.2967ZM14.1702 15.7997C10.7953 15.7997 7.99628 18.0453 6.97535 21.0673L10.7649 22.3476C11.2819 20.8173 12.6481 19.7997 14.1702 19.7997V15.7997ZM8.9692 19.7099C8.83121 19.7031 8.69251 19.6996 8.55319 19.6996V23.6996C8.62639 23.6996 8.69903 23.7014 8.77108 23.705L8.9692 19.7099ZM8.55319 19.6996C3.75363 19.6996 0 23.7279 0 28.5244H4C4 25.7824 6.1143 23.6996 8.55319 23.6996V19.6996ZM0 28.5244C0 33.3209 3.75363 37.3492 8.55319 37.3492V33.3492C6.1143 33.3492 4 31.2664 4 28.5244H0ZM8.55319 37.3492C9.56398 37.3492 10.5372 37.1674 11.4411 36.833L10.0533 33.0815C9.58527 33.2547 9.08144 33.3492 8.55319 33.3492V37.3492ZM9.87126 36.7553C10.6534 37.1363 11.5312 37.3492 12.4531 37.3492V33.3492C12.1514 33.3492 11.8715 33.2803 11.6231 33.1593L9.87126 36.7553ZM12.4531 37.3492H27.2699V33.3492H12.4531V37.3492ZM27.2699 37.3492C27.2705 37.3492 27.2712 37.3492 27.2724 37.3492C27.2734 37.3492 27.275 37.3492 27.2766 37.3492V33.3492C27.276 33.3492 27.2753 33.3492 27.2741 33.3492C27.273 33.3492 27.2715 33.3492 27.2699 33.3492V37.3492ZM27.2766 37.3492C27.2782 37.3492 27.2798 37.3492 27.2808 37.3492C27.282 37.3492 27.2827 37.3492 27.2834 37.3492V33.3492C27.2817 33.3492 27.2802 33.3492 27.2791 33.3492C27.2779 33.3492 27.2772 33.3492 27.2766 33.3492V37.3492ZM27.2834 37.3492H35.5469V33.3492H27.2834V37.3492ZM35.5469 37.3492C36.4688 37.3492 37.3466 37.1363 38.1287 36.7553L36.3768 33.1593C36.1285 33.2803 35.8486 33.3492 35.5469 33.3492V37.3492Z" fill="black"></path>
<path fill-rule="evenodd" clip-rule="evenodd" d="M12.9242 42.0005C13.1317 42.8073 12.683 43.4204 12.1171 43.5783C11.5512 43.7362 10.8423 43.3381 10.6607 42.6322C10.5412 42.1679 10.8216 41.2178 11.0276 40.6219C11.1202 40.3539 11.4374 40.2599 11.6499 40.4397C12.1086 40.8278 12.7891 41.4755 12.9242 42.0005ZM24.7714 43.5783C25.3373 43.4204 25.786 42.8073 25.5785 42.0005C25.4434 41.4755 24.7629 40.8278 24.3042 40.4397C24.0917 40.2599 23.7745 40.3539 23.6819 40.6219C23.4759 41.2178 23.1955 42.1679 23.315 42.6322C23.4966 43.3381 24.2055 43.7362 24.7714 43.5783ZM18.1756 43.1116C18.5718 43.001 18.8926 42.5979 18.7592 42.0793C18.6697 41.7314 18.1788 41.3081 17.8652 41.067C17.7289 40.9622 17.5352 41.0196 17.4707 41.1827C17.3185 41.5681 17.0956 42.2142 17.1747 42.5214C17.2914 42.9752 17.7795 43.2221 18.1756 43.1116ZM34.1449 47.9657C34.7108 47.8078 35.1596 47.1947 34.952 46.388C34.8169 45.8629 34.1364 45.2153 33.6777 44.8271C33.4653 44.6473 33.148 44.7413 33.0554 45.0093C32.8495 45.6052 32.569 46.5553 32.6885 47.0196C32.8701 47.7255 33.579 48.1236 34.1449 47.9657ZM16.4157 45.9791C16.5492 46.4977 16.2283 46.9009 15.8322 47.0114C15.4361 47.1219 14.948 46.875 14.8313 46.4212C14.7522 46.1141 14.9751 45.4679 15.1273 45.0825C15.1918 44.9194 15.3854 44.862 15.5218 44.9668C15.8354 45.2079 16.3262 45.6313 16.4157 45.9791ZM28.367 45.9791C28.5005 46.4977 28.1796 46.9009 27.7835 47.0114C27.3874 47.1219 26.8993 46.875 26.7826 46.4212C26.7035 46.1141 26.9264 45.4679 27.0786 45.0825C27.1431 44.9194 27.3367 44.862 27.4731 44.9668C27.7867 45.2079 28.2776 45.6313 28.367 45.9791ZM22.5321 46.388C22.7396 47.1947 22.2909 47.8078 21.725 47.9657C21.1591 48.1236 20.4502 47.7255 20.2685 47.0196C20.1491 46.5553 20.4295 45.6052 20.6355 45.0093C20.7281 44.7413 21.0453 44.6473 21.2578 44.8271C21.7165 45.2153 22.397 45.8629 22.5321 46.388ZM30.7104 42.0793C30.8439 42.5979 30.523 43.001 30.1269 43.1116C29.7308 43.2221 29.2427 42.9752 29.1259 42.5214C29.0469 42.2142 29.2698 41.5681 29.422 41.1827C29.4864 41.0196 29.6801 40.9622 29.8165 41.067C30.1301 41.3081 30.6209 41.7314 30.7104 42.0793ZM37.1914 43.5783C37.7572 43.4204 38.206 42.8073 37.9984 42.0005C37.8634 41.4755 37.1828 40.8278 36.7241 40.4397C36.5117 40.2599 36.1945 40.3539 36.1018 40.6219C35.8959 41.2178 35.6154 42.1679 35.7349 42.6322C35.9165 43.3381 36.6255 43.7362 37.1914 43.5783Z" fill="black"></path>
</svg></g></g><g><g transform="matrix(1,0,0,1,147,440)" width="166" height="64"><svg type="text" width="166" height="64" viewBox="0 0 52 20" fill="none" xmlns="http://www.w3.org/2000/svg">
<text id="ThursHeader" fill="#383B41" xml:space="preserve" style="white-space: pre" font-family="Avenir" font-size="24" font-weight="900" letter-spacing="0px"><tspan x="0.441406" y="19">Thur</tspan></text>
</svg></g><g transform="matrix(1,0,0,1,47,408)" width="96" height="96"><svg type="icon" width="96" height="96" viewBox="0 0 48 48" fill="none" xmlns="http://www.w3.org/2000/svg">
<rect width="48" height="48" fill="white"></rect>
<rect fill="white" x="2.34271" y="10.131" width="45" height="28"></rect>
<path fill-rule="evenodd" clip-rule="evenodd" d="M38.8126 22.1767C35.5293 22.2509 32.8893 25.0835 32.8893 28.567L32.9506 28.567C33.3704 25.4695 35.8941 23.0884 38.9447 23.0884C42.2889 23.0884 45 25.9501 45 29.4801C45 33.0102 42.2889 35.8719 38.9447 35.8719C38.2278 35.8719 37.54 35.7404 36.9018 35.499C36.4162 35.7378 35.8699 35.8719 35.2922 35.8719H14.0504C13.4728 35.8719 12.9265 35.7378 12.4409 35.499C11.8027 35.7404 11.1149 35.8719 10.3981 35.8719C7.05378 35.8719 4.34271 33.0102 4.34271 29.4801C4.34271 25.95 7.05378 23.0884 10.3981 23.0884C10.4962 23.0884 10.5939 23.0908 10.6909 23.0957C11.4015 20.964 13.3258 19.436 15.5883 19.436C18.1461 19.436 20.2718 21.389 20.7 23.9594C20.7516 23.6775 20.7786 23.3862 20.7786 23.0884C20.7786 20.9999 19.4501 19.239 17.6365 18.6957C19.4821 14.8034 23.2949 12.131 27.6991 12.131C33.322 12.131 37.9811 16.4872 38.8126 22.1767Z"></path>
<path d="M32.8893 28.567H30.8893V30.5669L32.8892 30.567L32.8893 28.567ZM38.8126 22.1767L38.8578 24.1762L41.1187 24.1252L40.7916 21.8875L38.8126 22.1767ZM32.9506 28.567L32.9505 30.567L34.6979 30.5671L34.9325 28.8356L32.9506 28.567ZM36.9018 35.499L37.6093 33.6283L36.7978 33.3214L36.0192 33.7042L36.9018 35.499ZM12.4409 35.499L13.3234 33.7042L12.5449 33.3214L11.7334 33.6283L12.4409 35.499ZM10.6909 23.0957L10.5905 25.0932L12.1079 25.1695L12.5883 23.7282L10.6909 23.0957ZM20.7 23.9594L18.7272 24.288L22.6673 24.3195L20.7 23.9594ZM17.6365 18.6957L15.8294 17.8389L14.8315 19.9434L17.0627 20.6116L17.6365 18.6957ZM34.8893 28.567C34.8893 26.0731 36.756 24.2237 38.8578 24.1762L38.7675 20.1773C34.3027 20.2781 30.8893 24.0939 30.8893 28.567H34.8893ZM32.9508 26.567L32.8894 26.567L32.8892 30.567L32.9505 30.567L32.9508 26.567ZM38.9447 21.0884C34.7985 21.0884 31.5098 24.3061 30.9687 28.2984L34.9325 28.8356C35.231 26.6329 36.9896 25.0884 38.9447 25.0884V21.0884ZM47 29.4801C47 24.9488 43.494 21.0884 38.9447 21.0884V25.0884C41.0838 25.0884 43 26.9514 43 29.4801H47ZM38.9447 37.8719C43.494 37.8719 47 34.0115 47 29.4801H43C43 32.0089 41.0838 33.8719 38.9447 33.8719V37.8719ZM36.1942 37.3697C37.0538 37.6948 37.981 37.8719 38.9447 37.8719V33.8719C38.4745 33.8719 38.0262 33.786 37.6093 33.6283L36.1942 37.3697ZM35.2922 37.8719C36.1826 37.8719 37.0302 37.6646 37.7843 37.2938L36.0192 33.7042C35.8022 33.811 35.5572 33.8719 35.2922 33.8719V37.8719ZM14.0504 37.8719H35.2922V33.8719H14.0504V37.8719ZM11.5584 37.2938C12.3125 37.6646 13.1601 37.8719 14.0504 37.8719V33.8719C13.7855 33.8719 13.5405 33.811 13.3234 33.7042L11.5584 37.2938ZM10.3981 37.8719C11.3616 37.8719 12.2888 37.6948 13.1484 37.3697L11.7334 33.6283C11.3165 33.786 10.8682 33.8719 10.3981 33.8719V37.8719ZM2.34271 29.4801C2.34271 34.0115 5.8487 37.8719 10.3981 37.8719V33.8719C8.25886 33.8719 6.34271 32.0089 6.34271 29.4801H2.34271ZM10.3981 21.0884C5.8487 21.0884 2.34271 24.9487 2.34271 29.4801H6.34271C6.34271 26.9513 8.25886 25.0884 10.3981 25.0884V21.0884ZM10.7913 21.0982C10.6609 21.0917 10.5297 21.0884 10.3981 21.0884V25.0884C10.4627 25.0884 10.5269 25.09 10.5905 25.0932L10.7913 21.0982ZM15.5883 17.436C12.3822 17.436 9.74922 19.5963 8.79356 22.4632L12.5883 23.7282C13.0538 22.3318 14.2695 21.436 15.5883 21.436V17.436ZM22.6728 23.6308C22.0998 20.1909 19.2171 17.436 15.5883 17.436V21.436C17.0752 21.436 18.4439 22.5872 18.7272 24.288L22.6728 23.6308ZM18.7786 23.0884C18.7786 23.2651 18.7626 23.4358 18.7327 23.5994L22.6673 24.3195C22.7406 23.9191 22.7786 23.5074 22.7786 23.0884H18.7786ZM17.0627 20.6116C17.9933 20.8904 18.7786 21.8446 18.7786 23.0884H22.7786C22.7786 20.1552 20.907 17.5875 18.2104 16.7798L17.0627 20.6116ZM27.6991 10.131C22.4501 10.131 17.9738 13.3161 15.8294 17.8389L19.4437 19.5526C20.9903 16.2907 24.1398 14.131 27.6991 14.131V10.131ZM40.7916 21.8875C39.8305 15.3118 34.4091 10.131 27.6991 10.131V14.131C32.2349 14.131 36.1316 17.6626 36.8337 22.466L40.7916 21.8875Z" fill="black"></path>
<path fill-rule="evenodd" clip-rule="evenodd" d="M7.22755 22.3039C7.30955 22.2722 7.39362 22.2458 7.47924 22.2249L8.62202 21.9469L8.91609 21.8992C8.75423 21.2591 8.66795 20.5864 8.66795 19.8925C8.66795 15.606 11.96 12.1311 16.0209 12.1311C17.55 12.1311 18.9701 12.6238 20.1464 13.4669L21.6277 12.4259C21.6444 12.4141 21.6612 12.4026 21.6781 12.3912C20.1261 11.0854 18.1599 10.3049 16.0209 10.3049C11.0045 10.3049 6.93787 14.5975 6.93787 19.8926C6.93787 20.7254 7.03847 21.5334 7.22755 22.3039Z" fill="black"></path>
<path fill-rule="evenodd" clip-rule="evenodd" d="M16.4534 3C15.9757 3 15.5884 3.3873 15.5884 3.86505V6.70049C15.5884 7.17824 15.9757 7.56554 16.4534 7.56554C16.9312 7.56554 17.3185 7.17824 17.3185 6.70049V3.86505C17.3185 3.3873 16.9312 3 16.4534 3ZM24.6801 5.3268C24.2664 5.07466 23.7425 5.21486 23.51 5.63995L22.1894 8.05442C21.9569 8.47952 22.1038 9.02853 22.5175 9.28067C22.9313 9.53282 23.4552 9.39262 23.6877 8.96753L25.0083 6.55305C25.2408 6.12796 25.0939 5.57895 24.6801 5.3268ZM0.913107 21.2806C0.408812 21.2806 0 20.8718 0 20.3675C0 19.8632 0.408812 19.4544 0.913108 19.4544H3.41214C3.91643 19.4544 4.32524 19.8632 4.32524 20.3675C4.32524 20.8718 3.91643 21.2806 3.41214 21.2806H0.913107ZM2.20433 11.6837C1.96545 12.1205 2.11639 12.6845 2.54147 12.9436L4.74791 14.2882C5.17298 14.5473 5.71122 14.4032 5.9501 13.9665C6.18897 13.5298 6.03803 12.9657 5.61296 12.7067L3.40652 11.362C2.98144 11.103 2.4432 11.247 2.20433 11.6837ZM7.89848 6.55307C7.66597 6.12798 7.81289 5.57897 8.22664 5.32682C8.64038 5.07467 9.16428 5.21487 9.39679 5.63996L10.7174 8.05444C10.9499 8.47953 10.803 9.02854 10.3893 9.28069C9.97551 9.53284 9.45162 9.39264 9.21911 8.96755L7.89848 6.55307Z" fill="black"></path>
</svg></g></g></g></svg>