<svg height="640" version="1.1" width="360" xmlns="http://www.w3.org/2000/svg" fill="#ffffff" style=""><desc>Created with Snap</desc><defs></defs><rect width="360" height="640" fill="#ffffff" style=""></rect><g transform="matrix(2.406,0,0,2.3913,20,64)"><svg type="text" width="133" height="23" viewBox="0 0 133 23" fill="none" xmlns="http://www.w3.org/2000/svg">
<text fill="#4387C5" xml:space="preserve" style="white-space: pre" font-family="Open Sans" font-size="28" font-weight="bold" letter-spacing="0px">
	<tspan x="-2" y="21.9277">New Task</tspan>
</text>
</svg></g><g><g transform="matrix(0.8723,0,0,1,40,224)"><svg type="field" width="321" height="48" viewBox="0 0 321 48" fill="none" xmlns="http://www.w3.org/2000/svg">
<rect width="100%" height="100%" rx="2.5" fill="white" stroke="#4387C5" stroke-width="3"></rect>
<text fill="#A4BDD4" xml:space="preserve" style="white-space: pre" font-family="Open Sans" font-size="14" letter-spacing="0px"><tspan x="14" y="28.9639">Complete By</tspan></text>
</svg></g><g transform="matrix(0.8723,0,0,1,40,292)"><svg type="field" width="321" height="48" viewBox="0 0 321 48" fill="none" xmlns="http://www.w3.org/2000/svg">
<rect width="100%" height="100%" rx="2.5" fill="white" stroke="#4387C5" stroke-width="3"></rect>
<text fill="#A4BDD4" xml:space="preserve" style="white-space: pre" font-family="Open Sans" font-size="14" letter-spacing="0px"><tspan x="14" y="28.9639">Task</tspan></text>
</svg></g></g><g transform="matrix(0.6928,0,0,1,20,384)"><svg type="separator" width="306" height="4" viewBox="0 0 306 4" fill="none" xmlns="http://www.w3.org/2000/svg">
  <rect width="100%" height="100%" rx="2.5" fill="#D2E4F4"></rect>
</svg></g><g><g><g transform="matrix(2.129,0,0,2.1333,73,424)"><svg type="text" width="62" height="15" viewBox="0 0 62 15" fill="none" xmlns="http://www.w3.org/2000/svg">
<text fill="#4387C5" xml:space="preserve" style="white-space: pre" font-family="Open Sans" font-size="14" letter-spacing="0px"><tspan x="0" y="10.9639">Set Alarm</tspan></text>
</svg></g><g transform="matrix(1.85,0,0,1.8462,213,416)"><svg type="element" width="40" height="26" viewBox="0 0 40 26" fill="none" xmlns="http://www.w3.org/2000/svg">
<rect x="1.5" y="1.5" width="37" height="23" rx="2.5" fill="#4387C5" stroke="#4387C5" stroke-width="3"></rect>
<rect x="4" y="4" width="18" height="18" rx="2" fill="white"></rect>
</svg></g></g><g><g transform="matrix(2.129,0,0,2.1333,73,484)"><svg type="text" width="62" height="15" viewBox="0 0 62 15" fill="none" xmlns="http://www.w3.org/2000/svg">
<text id="Label" fill="#4387C5" xml:space="preserve" style="white-space: pre" font-family="Open Sans" font-size="14" letter-spacing="0px"><tspan x="-1" y="10.9639">Notify Me</tspan></text>
</svg></g><g transform="matrix(1.85,0,0,1.8462,213,476)"><svg type="element" width="40" height="26" viewBox="0 0 40 26" fill="none" xmlns="http://www.w3.org/2000/svg">
<rect x="1.5" y="1.5" width="37" height="23" rx="2.5" fill="#4387C5" stroke="#4387C5" stroke-width="3"></rect>
<rect x="4" y="4" width="18" height="18" rx="2" fill="white"></rect>
</svg></g></g></g><g transform="matrix(1.0127,0,0,1,20,560)"><svg type="button" width="316" height="48" viewBox="0 0 316 48" preserveAspectRatio="true" fill="none" xmlns="http://www.w3.org/2000/svg">
<rect width="100%" height="100%" rx="2.5" fill="#4387C5" stroke="#4387C5" stroke-width="3"></rect>
<text fill="white" xml:space="preserve" style="white-space: pre" font-family="Open Sans" x="50%" text-anchor="middle" font-size="14" font-weight="bold" letter-spacing="0px"><tspan y="27.9639">Save</tspan></text>
</svg></g></svg>