<svg fill="#E4AF09" xmlns:dc="http://purl.org/dc/elements/1.1/" xmlns:cc="http://creativecommons.org/ns#" xmlns:rdf="http://www.w3.org/1999/02/22-rdf-syntax-ns#" xmlns:svg="http://www.w3.org/2000/svg" xmlns="http://www.w3.org/2000/svg" xmlns:sodipodi="http://sodipodi.sourceforge.net/DTD/sodipodi-0.dtd" xmlns:inkscape="http://www.inkscape.org/namespaces/inkscape" viewBox="0 0 48 48.000001" version="1.1" x="0px" y="0px"><g transform="translate(0,-1004.3622)"><path style="color:#000000;font-style:normal;font-variant:normal;font-weight:normal;font-stretch:normal;font-size:medium;line-height:normal;font-family:sans-serif;text-indent:0;text-align:start;text-decoration:none;text-decoration-line:none;text-decoration-style:solid;text-decoration-color:#000000;letter-spacing:normal;word-spacing:normal;text-transform:none;direction:ltr;block-progression:tb;writing-mode:lr-tb;baseline-shift:baseline;text-anchor:start;white-space:normal;clip-rule:nonzero;display:inline;overflow:visible;visibility:visible;opacity:1;isolation:auto;mix-blend-mode:normal;color-interpolation:sRGB;color-interpolation-filters:linearRGB;solid-color:#000000;solid-opacity:1;fill:#E4AF09;fill-opacity:1;fill-rule:nonzero;stroke:none;stroke-width:0.99999994;stroke-linecap:round;stroke-linejoin:round;stroke-miterlimit:4;stroke-dasharray:none;stroke-dashoffset:0;stroke-opacity:1;color-rendering:auto;image-rendering:auto;shape-rendering:auto;text-rendering:auto;enable-background:accumulate" d="M 24 0 C 10.75109 0 0 10.7511 0 24 C 0 37.2489 10.75109 48 24 48 C 37.24891 48 48 37.2489 48 24 C 48 10.7511 37.24891 0 24 0 z M 24 1 C 36.70847 1 47 11.2915 47 24 C 47 36.7085 36.70847 47 24 47 C 11.29153 47 1 36.7085 1 24 C 1 11.2915 11.29153 1 24 1 z M 29.716797 11.613281 C 29.519097 11.640381 29.315016 11.681141 29.103516 11.744141 L 29.507812 11.976562 L 29.716797 11.613281 z M 30.841797 11.669922 L 30.375 12.478516 L 31.240234 12.976562 L 31.707031 12.169922 C 31.583831 12.050622 31.453194 11.945328 31.308594 11.861328 C 31.164394 11.778028 31.006297 11.716922 30.841797 11.669922 z M 28.142578 12.34375 L 27.642578 13.208984 L 28.507812 13.708984 L 29.007812 12.84375 L 28.142578 12.34375 z M 32.318359 13.113281 L 32.107422 13.478516 L 32.511719 13.710938 C 32.460219 13.496037 32.394359 13.298281 32.318359 13.113281 z M 29.875 13.34375 L 29.375 14.210938 L 30.240234 14.708984 L 30.740234 13.84375 L 29.875 13.34375 z M 26.150391 13.501953 C 25.901291 13.718753 25.655103 13.979316 25.408203 14.228516 L 25.777344 14.441406 L 26.277344 13.576172 L 26.150391 13.501953 z M 27.142578 14.076172 L 26.642578 14.941406 L 27.507812 15.441406 L 28.007812 14.576172 L 27.142578 14.076172 z M 31.607422 14.34375 L 31.107422 15.210938 L 31.972656 15.710938 L 32.472656 14.84375 L 31.607422 14.34375 z M 24.703125 14.976562 C 24.487325 15.225163 24.277459 15.494125 24.068359 15.765625 L 24.777344 16.173828 L 25.277344 15.308594 L 24.703125 14.976562 z M 28.875 15.076172 L 28.375 15.941406 L 29.240234 16.441406 L 29.740234 15.576172 L 28.875 15.076172 z M 26.142578 15.808594 L 25.642578 16.673828 L 26.507812 17.173828 L 27.007812 16.308594 L 26.142578 15.808594 z M 30.607422 16.076172 L 30.107422 16.943359 L 30.972656 17.441406 L 31.472656 16.576172 L 30.607422 16.076172 z M 23.464844 16.572266 C 23.278744 16.843366 23.098375 17.123709 22.921875 17.412109 L 23.777344 17.90625 L 24.277344 17.041016 L 23.464844 16.572266 z M 27.875 16.808594 L 27.375 17.673828 L 28.240234 18.173828 L 28.740234 17.308594 L 27.875 16.808594 z M 32.337891 17.076172 L 31.837891 17.941406 L 32.205078 18.154297 C 32.297278 17.816397 32.401844 17.473991 32.464844 17.150391 L 32.337891 17.076172 z M 20.587891 17.220703 C 20.727191 18.275503 20.612362 19.374187 20.039062 20.367188 L 16.542969 26.421875 L 16.542969 26.431641 L 16.042969 27.296875 L 15.542969 28.164062 C 14.430669 30.090663 15.079259 32.516606 17.005859 33.628906 L 18.748047 34.634766 C 18.162447 33.266666 18.195391 31.659519 18.962891 30.261719 C 18.973891 30.227719 18.987859 30.195062 19.005859 30.164062 L 19.025391 30.132812 C 19.036391 30.105812 19.050406 30.079688 19.066406 30.054688 L 20.488281 27.591797 C 20.495281 27.580797 20.501719 27.571547 20.511719 27.560547 L 23.007812 23.236328 C 24.120113 21.309728 23.471522 18.883784 21.544922 17.771484 L 20.677734 17.271484 L 20.59375 17.222656 L 20.587891 17.220703 z M 25.142578 17.541016 L 24.642578 18.40625 L 25.507812 18.90625 L 26.007812 18.041016 L 25.142578 17.541016 z M 29.607422 17.808594 L 29.107422 18.673828 L 29.972656 19.173828 L 30.472656 18.308594 L 29.607422 17.808594 z M 26.875 18.541016 L 26.375 19.40625 L 27.240234 19.90625 L 27.740234 19.039062 L 26.875 18.541016 z M 31.337891 18.806641 L 30.837891 19.673828 L 31.546875 20.082031 C 31.677275 19.765331 31.804809 19.449672 31.912109 19.138672 L 31.337891 18.806641 z M 24.142578 19.271484 L 24.128906 19.291016 C 24.309906 19.719016 24.431281 20.167706 24.488281 20.628906 L 24.507812 20.638672 L 25.007812 19.771484 L 24.142578 19.271484 z M 28.607422 19.541016 L 28.107422 20.40625 L 28.972656 20.90625 L 29.472656 20.039062 L 28.607422 19.541016 z M 25.875 20.271484 L 25.375 21.138672 L 26.240234 21.638672 L 26.740234 20.771484 L 25.875 20.271484 z M 30.337891 20.539062 L 29.837891 21.40625 L 30.693359 21.900391 C 30.855259 21.602591 31.008291 21.305312 31.150391 21.007812 L 30.337891 20.539062 z M 27.607422 21.271484 L 27.107422 22.138672 L 27.972656 22.638672 L 28.472656 21.771484 L 27.607422 21.271484 z M 24.875 22.003906 L 24.375 22.869141 L 25.240234 23.369141 L 25.740234 22.503906 L 24.875 22.003906 z M 29.337891 22.271484 L 28.865234 23.089844 L 29.033203 23.089844 C 29.327203 23.114044 29.621462 23.154031 29.914062 23.207031 C 30.008162 23.062131 30.100406 22.913072 30.191406 22.763672 L 29.337891 22.271484 z M 26.607422 23.003906 L 26.458984 23.259766 C 26.613584 23.227766 26.771534 23.213453 26.927734 23.189453 L 26.607422 23.003906 z M 23.875 23.736328 L 23.417969 24.527344 C 23.714169 24.335544 24.015578 24.1549 24.330078 24 L 23.875 23.736328 z M 28.191406 24.060547 C 25.490706 24.095747 22.884991 25.508078 21.400391 28.017578 L 19.871094 30.664062 C 18.811594 32.499262 19.359272 34.781378 21.076172 35.955078 C 22.246672 36.517378 23.655806 36.107191 24.316406 34.962891 L 24.328125 34.951172 C 24.340125 34.919172 24.355047 34.889328 24.373047 34.861328 L 28.048828 28.494141 C 28.991228 26.861941 30.410222 25.733903 31.982422 24.970703 L 31.873047 24.908203 C 30.694947 24.318303 29.435413 24.044547 28.195312 24.060547 L 28.191406 24.060547 z M 17.375 34.994141 C 17.0937 35.481241 17.253034 36.080028 17.740234 36.361328 L 18.607422 36.861328 C 19.094722 37.142728 19.691356 36.981341 19.972656 36.494141 L 17.375 34.994141 z " transform="translate(0,1004.3622)"></path></g></svg>