<svg id="Layer_1" data-name="Layer 1" xmlns="http://www.w3.org/2000/svg" viewBox="0 0 343 36"><title>search</title><g id="search"><rect id="Search_Field" data-name="Search Field" width="343" height="36" rx="10" ry="10"/><g id="Search-2"><g id="Placeholder_Label" data-name="Placeholder Label" style="isolation:isolate"><text class="widget-editable-text" transform="translate(30 24)" style="isolation:isolate;font-size:17px;fill:#8e8e93;font-family:Helvetica, Helvetica;letter-spacing:-0.011000689338235295em">Search</text></g><g id="Search_Glyph" data-name="Search Glyph"><path id="Search-3" d="M21.74,23.57l-3.83-3.83A5.38,5.38,0,0,0,19,16.51,5.53,5.53,0,0,0,13.46,11,5.44,5.44,0,0,0,8,16.41v.06A5.54,5.54,0,0,0,13.5,22a5.41,5.41,0,0,0,3.24-1.07h0l3.83,3.84a.83.83,0,1,0,1.17-1.17h0ZM13.5,20.88a4.43,4.43,0,0,1-4.4-4.41,4.35,4.35,0,0,1,4.33-4.37h0a4.42,4.42,0,0,1,4.4,4.4,4.35,4.35,0,0,1-4.32,4.38Z" style="fill:#8e8e93"/></g></g><g id="Dictation"><path id="Dictation-2" d="M327,9h0a3,3,0,0,1,3,3v7a3,3,0,0,1-3,3h0a3,3,0,0,1-3-3V12A3,3,0,0,1,327,9Zm5.25,6.5a.76.76,0,0,0-.75.75V19a4.5,4.5,0,0,1-9,0V16.25a.75.75,0,0,0-1.5,0V19A6,6,0,0,0,326.25,25V26.5h-2a.75.75,0,0,0,0,1.5h5.5a.75.75,0,0,0,0-1.5h-2V25A6,6,0,0,0,333,19V16.25A.76.76,0,0,0,332.25,15.5Z" style="fill:#8e8e93"/></g></g></svg>