<svg xmlns="http://www.w3.org/2000/svg" xmlns:xlink="http://www.w3.org/1999/xlink" viewBox="0 0 750 1334">
  <defs>
    <style>
      .cls-1, .cls-12, .cls-13, .cls-14, .cls-24, .cls-25, .cls-28 {
        fill: none;
      }

      .cls-2 {
        clip-path: url(#clip-Profile);
      }

      .cls-3 {
        fill: #115688;
      }

      .cls-4 {
        fill: rgba(255,255,255,0);
      }

      .cls-18, .cls-5, .cls-6, .cls-7, .cls-8, .cls-9 {
        fill: #fff;
      }

      .cls-13, .cls-16, .cls-17, .cls-24, .cls-25, .cls-27, .cls-28, .cls-6, .cls-9 {
        fill-rule: evenodd;
      }

      .cls-7 {
        font-size: 20px;
        letter-spacing: 0em;
      }

      .cls-7, .cls-8 {
        font-family: Helvetica-Light, Helvetica;
        font-weight: 300;
      }

      .cls-22, .cls-8 {
        font-size: 24px;
      }

      .cls-8 {
        letter-spacing: 0em;
      }

      .cls-9 {
        opacity: 0.45;
      }

      .cls-10, .cls-17 {
        fill: #25272b;
      }

      .cls-11 {
        fill: #151818;
      }

      .cls-12, .cls-13 {
        stroke: #929395;
        stroke-width: 8px;
      }

      .cls-14 {
        stroke: #115688;
        stroke-width: 6px;
      }

      .cls-15, .cls-16 {
        fill: #929395;
      }

      .cls-18 {
        font-size: 34px;
      }

      .cls-18, .cls-19, .cls-21, .cls-22, .cls-23 {
        font-family: Helvetica;
      }

      .cls-19 {
        fill: #8b8e92;
      }

      .cls-19, .cls-23 {
        font-size: 28px;
      }

      .cls-20 {
        fill: #d8d8d8;
      }

      .cls-21, .cls-22 {
        fill: #1d1e21;
      }

      .cls-21 {
        font-size: 36px;
      }

      .cls-23 {
        fill: #444;
      }

      .cls-24, .cls-25 {
        stroke: #bbbdbf;
      }

      .cls-25 {
        stroke-width: 4px;
      }

      .cls-26 {
        fill: #3f90db;
      }

      .cls-27, .cls-29 {
        fill: #a5a7aa;
      }

      .cls-28 {
        stroke: #a5a7aa;
      }

      .cls-28, .cls-31 {
        stroke-width: 2px;
      }

      .cls-30 {
        clip-path: url(#clip-path);
      }

      .cls-31 {
        fill: #e4e4e4;
        stroke: #fff;
      }

      .cls-32 {
        stroke: none;
      }
    </style>
    <clipPath id="clip-path">
      <rect class="cls-1" width="750" height="637"/>
    </clipPath>
    <clipPath id="clip-Profile">
      <rect width="750" height="1334"/>
    </clipPath>
  </defs>
  <g id="Profile" class="cls-2">
    <rect class="cls-5" width="750" height="1334"/>
    <rect id="Header" class="cls-3" width="750" height="116"/>
    <g id="group-1">
      <rect id="Background" class="cls-4" width="750" height="40"/>
      <circle id="Oval-1" class="cls-5" cx="5.5" cy="5.5" r="5.5" transform="translate(13 15)"/>
      <circle id="Oval-1-copy" class="cls-5" cx="5.5" cy="5.5" r="5.5" transform="translate(27 15)"/>
      <circle id="Oval-1-copy-2" class="cls-5" cx="5.5" cy="5.5" r="5.5" transform="translate(41 15)"/>
      <path id="Shape" class="cls-6" d="M47.5,10h0A4.5,4.5,0,1,0,43,5.5,4.5,4.5,0,0,0,47.5,10Zm0,1h0A5.5,5.5,0,1,1,53,5.5,5.5,5.5,0,0,1,47.5,11Z" transform="translate(13 15)"/>
      <path id="Shape-2" data-name="Shape" class="cls-6" d="M61.5,10h0A4.5,4.5,0,1,0,57,5.5,4.5,4.5,0,0,0,61.5,10Zm0,1h0A5.5,5.5,0,1,1,67,5.5,5.5,5.5,0,0,1,61.5,11Z" transform="translate(13 15)"/>
      <text id="Carrier" class="cls-7" transform="translate(87 28)"><tspan x="0" y="0">Adobe XD</tspan></text>
      <path id="Wifi" class="cls-6" d="M171.483,22.963a6.168,6.168,0,0,0-3.971,1.556l3.971,4.536,3.976-4.532A6.167,6.167,0,0,0,171.483,22.963Zm.157-8.972a14.709,14.709,0,0,1,9.829,3.778l1.826-2.082A16.691,16.691,0,0,0,160,15.674l1.823,2.084A14.706,14.706,0,0,1,171.64,13.991ZM171.587,20a8.944,8.944,0,0,1,5.909,2.238l1.933-2.2a11.522,11.522,0,0,0-15.674-.009l1.93,2.206A8.933,8.933,0,0,1,171.587,20Z" transform="translate(24)"/>
      <text id="_1:20_PM" data-name="1:20 PM" class="cls-8" transform="translate(330 29)"><tspan x="0" y="0">1:20 PM</tspan></text>
      <path id="Shape-3" data-name="Shape" class="cls-6" d="M1,3H1V16a2,2,0,0,0,2,2H42a2,2,0,0,0,2-2V3a2,2,0,0,0-2-2H3A2,2,0,0,0,1,3ZM0,3A3,3,0,0,1,3,0H42a3,3,0,0,1,3,3V16a3,3,0,0,1-3,3H3a3,3,0,0,1-3-3V3Z" transform="translate(690 11)"/>
      <path id="Shape-4" data-name="Shape" class="cls-6" d="M3,2A1,1,0,0,0,2,3.007V15.993A1,1,0,0,0,3,17H30V2ZM46,6h1.5A1.5,1.5,0,0,1,49,7.5v4A1.5,1.5,0,0,1,47.5,13H46Z" transform="translate(690 11)"/>
      <text id="_77_" data-name="77%" class="cls-8" transform="translate(637 29)"><tspan x="0" y="0">77%</tspan></text>
      <path id="Bluetooth" class="cls-9" d="M623.919,14.976,615.522,7H615V18l-5.377-5.756L608,13.9l6.857,6.6L608,27.1l1.623,1.659L615,23V34h.685L624,26l-5.709-5.5ZM617,18V12l3.547,3Zm0,5,3.588,3L617,29Z"/>
    </g>
    <rect id="Tab---BG" class="cls-10" width="750" height="105" transform="translate(0 1229)"/>
    <rect id="Tab---Selected" class="cls-11" width="150" height="105" transform="translate(599 1229)"/>
    <g id="group-9">
      <circle id="Oval-28" class="cls-12" cx="20" cy="20" r="20" transform="translate(202 1260)"/>
      <path id="Line" class="cls-13" d="M53.2,53,36,38" transform="translate(200 1257)"/>
    </g>
    <g id="group-11">
      <g id="group-7">
        <rect id="Tab---Instagram-Camera" class="cls-3" width="150" height="105" transform="translate(300 1229)"/>
      </g>
      <g id="group-10">
        <rect id="Rectangle-114" class="cls-5" width="62" height="62" rx="6" transform="translate(344 1250)"/>
        <circle id="Oval-28-2" data-name="Oval-28" class="cls-14" cx="18" cy="18" r="18" transform="translate(357 1264)"/>
      </g>
    </g>
    <g id="group-6">
      <circle id="Oval-28-3" data-name="Oval-28" class="cls-15" cx="29" cy="29" r="29" transform="translate(495 1252)"/>
      <path id="Triangle-1" class="cls-16" d="M58.928,55.66,42.616,52.755,54.892,39.59,58.928,55.66Z" transform="translate(495 1252)"/>
      <path id="like-icon-copy" class="cls-17" d="M11,26.563C11,20.177,15.64,15,20.822,15A9.732,9.732,0,0,1,28.5,18.424,9.732,9.732,0,0,1,36.178,15C41.36,15,46,20.177,46,26.563S37.9,41.374,28.5,45.984C19.1,41.374,11,32.95,11,26.563Z" transform="translate(495 1252)"/>
    </g>
    <g id="group-5">
      <path id="Rectangle-115" class="cls-6" d="M0,44S6.147,33.961,25,33.961,50,44,50,44V55H0Z" transform="translate(650 1254)"/>
      <path id="Oval-31" class="cls-6" d="M25,29.289c6.627,0,10.535-9.989,10.535-17.721S31.627,0,25,0,14.223,3.836,14.223,11.568,18.373,29.289,25,29.289Z" transform="translate(650 1254)"/>
    </g>
    <path id="Rectangle-117" class="cls-16" d="M4,22,25.5,4.058,47,22V48H33.4V37.893C33.381,32.293,29.809,29,26.062,29s-7.857,2.771-7.857,8.893V48H4Z" transform="translate(49 1260)"/>
    <text id="STEVE_JONES_" class="cls-18" transform="translate(376 86.526)"><tspan x="-100.174" y="0">designmineio</tspan></text>
    <path id="Shape-5" data-name="Shape" class="cls-6" d="M36.156,20c0-2.49,1.542-4.458,3.844-5.812a21.193,21.193,0,0,0-1.646-3.979c-2.594.677-4.687-.333-6.458-2.1a6.237,6.237,0,0,1-1.625-6.458A20.909,20.909,0,0,0,26.292,0,7.527,7.527,0,0,1,20,3.844,7.541,7.541,0,0,1,13.708,0,20.909,20.909,0,0,0,9.729,1.646,6.243,6.243,0,0,1,8.1,8.1c-1.76,1.76-3.865,2.781-6.448,2.1A20.288,20.288,0,0,0,0,14.188C2.313,15.542,3.854,17.51,3.854,20A7.552,7.552,0,0,1,0,26.292a20.909,20.909,0,0,0,1.646,3.979A6.22,6.22,0,0,1,8.094,31.9a6.217,6.217,0,0,1,1.625,6.458A21.193,21.193,0,0,0,13.7,40a7.541,7.541,0,0,1,6.292-3.844A7.541,7.541,0,0,1,26.281,40a20.909,20.909,0,0,0,3.979-1.646A6.243,6.243,0,0,1,31.885,31.9c1.76-1.76,3.865-2.781,6.458-2.1a21.484,21.484,0,0,0,1.646-3.979c-2.3-1.354-3.833-3.323-3.833-5.812ZM20,32.06A12.059,12.059,0,1,1,32.06,20,12.065,12.065,0,0,1,20,32.06Z" transform="translate(683 59)"/>
    <text id="posts" class="cls-19" transform="translate(304 211)"><tspan x="0" y="0">posts</tspan></text>
    <circle id="Oval-100" class="cls-20" cx="90.5" cy="90.5" r="90.5" transform="translate(29 142)"/>
    <text id="followers" class="cls-19" transform="translate(432 211)"><tspan x="0" y="0">followers</tspan></text>
    <text id="following" class="cls-19" transform="translate(583 211)"><tspan x="0" y="0">following</tspan></text>
    <text id="_2182" data-name="2182" class="cls-21" transform="translate(297 182)"><tspan x="0" y="0">2182</tspan></text>
    <text id="_3864" data-name="3864" class="cls-21" transform="translate(447 182)"><tspan x="0" y="0">3864</tspan></text>
    <text id="_283" data-name="283" class="cls-21" transform="translate(607 182)"><tspan x="0" y="0">283</tspan></text>
    <rect id="Rectangle-458" class="cls-20" width="458" height="50" rx="4" transform="translate(263 233)"/>
    <text id="Edit_Profile" data-name="Edit Profile" class="cls-22" transform="translate(434 267)"><tspan x="0" y="0">Edit Profile</tspan></text>
    <text id="Steve_Jones" data-name="Steve Jones" class="cls-23" transform="translate(32 387)"><tspan x="0" y="0">Design Mine</tspan></text>
    <text id="http:_stevejon" data-name="http://stevejon" class="cls-23" transform="translate(31 430)"><tspan x="0" y="0">http://www.designmine.io</tspan></text>
    <path id="Line-2" data-name="Line" class="cls-24" d="M.5.5h750" transform="translate(-0.5 482.5)"/>
    <path id="Line-3" data-name="Line" class="cls-24" d="M188.5,21.5v65" transform="translate(1 483)"/>
    <path id="Line-4" data-name="Line" class="cls-24" d="M377.5,21.5v65" transform="translate(1 483)"/>
    <path id="Line-5" data-name="Line" class="cls-24" d="M565.5,21.5v65" transform="translate(1 483)"/>
    <g id="group-20">
      <path id="Line-6" data-name="Line" class="cls-25" d="M257,34h51.5" transform="translate(1 483)"/>
      <path id="Line-7" data-name="Line" class="cls-25" d="M257,54h51.5" transform="translate(1 483)"/>
      <path id="Line-8" data-name="Line" class="cls-25" d="M257,74h51.5" transform="translate(1 483)"/>
    </g>
    <g id="group-21">
      <rect id="Rectangle-459" class="cls-26" width="9" height="9" transform="translate(69 511)"/>
      <rect id="Rectangle-459-2" data-name="Rectangle-459" class="cls-26" width="9" height="9" transform="translate(90 511)"/>
      <rect id="Rectangle-459-3" data-name="Rectangle-459" class="cls-26" width="9" height="9" transform="translate(111 511)"/>
      <rect id="Rectangle-459-4" data-name="Rectangle-459" class="cls-26" width="9" height="9" transform="translate(69 532)"/>
      <rect id="Rectangle-459-5" data-name="Rectangle-459" class="cls-26" width="9" height="9" transform="translate(90 532)"/>
      <rect id="Rectangle-459-6" data-name="Rectangle-459" class="cls-26" width="9" height="9" transform="translate(111 532)"/>
      <rect id="Rectangle-459-7" data-name="Rectangle-459" class="cls-26" width="9" height="9" transform="translate(69 553)"/>
      <rect id="Rectangle-459-8" data-name="Rectangle-459" class="cls-26" width="9" height="9" transform="translate(90 553)"/>
      <rect id="Rectangle-459-9" data-name="Rectangle-459" class="cls-26" width="9" height="9" transform="translate(111 553)"/>
    </g>
    <g id="group-18">
      <path id="Rectangle-115-2" data-name="Rectangle-115" class="cls-27" d="M0,19.915s2.824-4.544,11.487-4.544,11.487,4.544,11.487,4.544v4.979H0Z" transform="translate(647 528)"/>
      <path id="Oval-31-2" data-name="Oval-31" class="cls-27" d="M11.487,13.257c3.045,0,4.841-4.521,4.841-8.021S14.532,0,11.487,0,6.535,1.736,6.535,5.236,8.442,13.257,11.487,13.257Z" transform="translate(647 528)"/>
      <path id="Rectangle-470" class="cls-28" d="M629,39.006A6,6,0,0,1,635,33h11.848c1.263,0,8.664-8.2,10.152-8.2S667.4,33,668.509,33h10.483A6,6,0,0,1,685,39.006V74.994A6,6,0,0,1,679.007,81H634.993A6,6,0,0,1,629,74.994Z" transform="translate(1 483)"/>
    </g>
    <g id="group-19">
      <circle id="Oval-102" class="cls-29" cx="7" cy="7" r="7" transform="translate(465 525)"/>
      <path id="Oval-102-2" data-name="Oval-102" class="cls-28" d="M471,80.221c1.611,0,22-20.071,22-32.221a22,22,0,0,0-44,0C449,60.15,469.389,80.221,471,80.221Z" transform="translate(1 483)"/>
    </g>
    <path id="Line-9" data-name="Line" class="cls-24" d="M.5.5h750" transform="translate(-0.5 591.5)"/>
    <g id="group-16" class="cls-30" transform="translate(0 592)">
      <g id="group" transform="translate(0 -116)">
        <g id="rectangle-2" class="cls-31" transform="translate(0 116)">
          <rect class="cls-32" width="250" height="250"/>
          <rect class="cls-1" x="1" y="1" width="248" height="248"/>
        </g>
      </g>
      <g id="group-2" data-name="group" transform="translate(250 -116)">
        <g id="rectangle-2-2" data-name="rectangle-2" class="cls-31" transform="translate(0 116)">
          <rect class="cls-32" width="250" height="250"/>
          <rect class="cls-1" x="1" y="1" width="248" height="248"/>
        </g>
      </g>
      <g id="group-3" data-name="group" transform="translate(500 -116)">
        <g id="rectangle-2-3" data-name="rectangle-2" class="cls-31" transform="translate(0 116)">
          <rect class="cls-32" width="250" height="250"/>
          <rect class="cls-1" x="1" y="1" width="248" height="248"/>
        </g>
      </g>
      <g id="group-4" data-name="group" transform="translate(0 134)">
        <g id="rectangle-2-4" data-name="rectangle-2" class="cls-31" transform="translate(0 116)">
          <rect class="cls-32" width="250" height="250"/>
          <rect class="cls-1" x="1" y="1" width="248" height="248"/>
        </g>
      </g>
      <g id="group-5-2" data-name="group" transform="translate(250 134)">
        <g id="rectangle-2-5" data-name="rectangle-2" class="cls-31" transform="translate(0 116)">
          <rect class="cls-32" width="250" height="250"/>
          <rect class="cls-1" x="1" y="1" width="248" height="248"/>
        </g>
      </g>
      <g id="group-6-2" data-name="group" transform="translate(500 134)">
        <g id="rectangle-2-6" data-name="rectangle-2" class="cls-31" transform="translate(0 116)">
          <rect class="cls-32" width="250" height="250"/>
          <rect class="cls-1" x="1" y="1" width="248" height="248"/>
        </g>
      </g>
      <g id="group-7-2" data-name="group" transform="translate(0 384)">
        <g id="rectangle-2-7" data-name="rectangle-2" class="cls-31" transform="translate(0 116)">
          <rect class="cls-32" width="250" height="250"/>
          <rect class="cls-1" x="1" y="1" width="248" height="248"/>
        </g>
      </g>
      <g id="group-8" data-name="group" transform="translate(250 384)">
        <g id="rectangle-2-8" data-name="rectangle-2" class="cls-31" transform="translate(0 116)">
          <rect class="cls-32" width="250" height="250"/>
          <rect class="cls-1" x="1" y="1" width="248" height="248"/>
        </g>
      </g>
      <g id="group-9-2" data-name="group" transform="translate(500 384)">
        <g id="rectangle-2-9" data-name="rectangle-2" class="cls-31" transform="translate(0 116)">
          <rect class="cls-32" width="250" height="250"/>
          <rect class="cls-1" x="1" y="1" width="248" height="248"/>
        </g>
      </g>
    </g>
  </g>
</svg>
