
<svg width="295px" height="143px" viewBox="0 0 295 143" version="1.1" xmlns="http://www.w3.org/2000/svg" xmlns:xlink="http://www.w3.org/1999/xlink">
    <g id="Page-1" stroke="none" stroke-width="1" fill="none" fill-rule="evenodd">
        <g id="Artboard" transform="translate(-44.000000, -453.000000)">
            <g id="Group-3" transform="translate(46.000000, 455.000000)">
                <path d="M290.753807,139 L0.219488447,139" id="Line" stroke="#4085C4" stroke-width="3" stroke-linecap="round" stroke-linejoin="round"></path>
                <path d="M0.481921752,0.364092931 L0.481921732,138.628342" id="Line-4" stroke="#4085C4" stroke-width="3" stroke-linecap="round" stroke-linejoin="round"></path>
                <g id="Group" transform="translate(1.000000, 9.000000)">
                    <polyline id="Path-26" fill="#D2E4F4" points="0.505719262 67.893787 24.411106 43.2805525 36.0755034 55.4879671 75.9688875 12.7265422 120.777663 57.9365144 143.94261 36.7480675 159.990951 54.2913601 209.070842 0.206790184 247.509417 42.1901879 280.907446 8.05008123 280.907446 128.166495 0.505264084 128.166495"></polyline>
                    <polyline id="Path-27" stroke="#4085C4" stroke-width="3" stroke-linecap="round" stroke-linejoin="round" points="0 67.4244156 24.411106 41.9979976 36.0755034 54.1475432 75.9688875 12.594905 120.777663 59.267377 143.94261 35.1389484 159.990951 51.8547752 209.070842 0.733543431 247.509417 40.7708639 280.907446 5.98373602"></polyline>
                    <path d="M18.9105012,48.6432891 L18.9105012,128.796856" id="Line-5" stroke="#4085C4" stroke-linecap="square" stroke-dasharray="5"></path>
                    <path d="M59.193718,30.2779827 L59.193718,128.796856" id="Line-7" stroke="#4085C4" stroke-linecap="square" stroke-dasharray="5"></path>
                    <path d="M99.4769348,37.5021228 L99.4769347,128.796856" id="Line-9" stroke="#4085C4" stroke-linecap="square" stroke-dasharray="5"></path>
                    <path d="M140.25141,41.2285713 L140.25141,128.796856" id="Line-11" stroke="#4085C4" stroke-linecap="square" stroke-dasharray="5"></path>
                    <path d="M180.534627,30.1872375 L180.534627,128.796856" id="Line-13" stroke="#4085C4" stroke-linecap="square" stroke-dasharray="5"></path>
                    <path d="M220.817844,12.9904118 L220.817844,128.796856" id="Line-15" stroke="#4085C4" stroke-linecap="square" stroke-dasharray="5"></path>
                    <path d="M261.592319,27.1116048 L261.592319,128.796856" id="Line-17" stroke="#4085C4" stroke-linecap="square" stroke-dasharray="5"></path>
                </g>
            </g>
        </g>
    </g>
</svg>