<svg height="640" version="1.1" width="360" xmlns="http://www.w3.org/2000/svg" fill="#ffffff" style=""><desc>Created with Snap</desc><defs></defs><rect width="360" height="640" fill="#ffffff" style=""></rect><g transform="matrix(0.8473,0,0,0.7857,4,624)"><svg type="text" width="203" height="14" viewBox="0 0 203 14" fill="none" xmlns="http://www.w3.org/2000/svg">
<text id="Body" fill="#383B41" xml:space="preserve" style="white-space: pre" font-family="Avenir" font-size="16" font-weight="300" letter-spacing="0px"><tspan x="0.40625" y="13">Winds ENE at 10 to 15 km/h. </tspan></text>
</svg></g><g><g transform="matrix(1.4483,0,0,1.4634,147,36)"><svg type="text" width="87" height="41" viewBox="0 0 87 41" fill="none" xmlns="http://www.w3.org/2000/svg">
<text fill="#383B41" xml:space="preserve" style="white-space: pre" font-family="Avenir" font-size="56" font-weight="900" letter-spacing="0px"><tspan x="-0.703125" y="41">44°</tspan></text>
</svg></g><g transform="matrix(1.76,0,0,1.76,144,100)"><svg type="text" width="75" height="25" viewBox="0 0 75 25" fill="none" xmlns="http://www.w3.org/2000/svg">
<text fill="#383B41" xml:space="preserve" style="white-space: pre" font-family="Avenir" font-size="24" font-weight="300" letter-spacing="0px"><tspan x="-1.03125" y="19">Cloudy</tspan></text>
</svg></g><g transform="matrix(2.1525,0,0,2.1538,83,4)"><svg type="text" width="118" height="13" viewBox="0 0 118 13" fill="none" xmlns="http://www.w3.org/2000/svg">
<text fill="#383B41" xml:space="preserve" style="white-space: pre" font-family="Avenir" font-size="12" font-weight="800" letter-spacing="0.2px"><tspan x="-0.145409" y="10">Monday, March 11th</tspan></text>
</svg></g></g><g transform="matrix(3.3208,0,0,3.2857,4,416)"><svg type="text" width="106" height="28" viewBox="0 0 106 28" fill="none" xmlns="http://www.w3.org/2000/svg">
<text fill="#383B41" xml:space="preserve" style="white-space: pre" font-family="Avenir" font-size="32" font-weight="900" letter-spacing="0px"><tspan x="0.3125" y="25">Seattle</tspan></text>
</svg></g><g><g transform="matrix(1.0149,0,0,1.0149,227,520)"><svg type="image" width="67" height="67" viewBox="0 0 67 67" fill="none" xmlns="http://www.w3.org/2000/svg">
<circle cx="33.5" cy="33.5" r="33.25" fill="white" stroke="black" stroke-width="0.5"></circle>
<path fill-rule="evenodd" clip-rule="evenodd" d="M49.8032 24.9895C46.0119 25.0706 42.9634 28.1693 42.9634 31.9801L43.0342 31.9801C43.5189 28.5915 46.4331 25.9867 49.9557 25.9867C53.8174 25.9867 56.9479 29.1172 56.9479 32.9789C56.9479 36.8406 53.8174 39.9712 49.9557 39.9712C49.1547 39.9712 48.3852 39.8365 47.6685 39.5886C47.1505 39.8339 46.5713 39.9712 45.9601 39.9712H20.9878C20.3765 39.9712 19.7974 39.8339 19.2794 39.5886C18.5627 39.8365 17.7932 39.9712 16.9922 39.9712C13.1305 39.9712 10 36.8406 10 32.9789C10 29.1172 13.1305 25.9867 16.9922 25.9867C17.1056 25.9867 17.2184 25.9894 17.3304 25.9947C18.1509 23.6627 20.373 21.9911 22.9856 21.9911C25.9392 21.9911 28.3938 24.1277 28.8882 26.9395C28.9477 26.6311 28.9789 26.3125 28.9789 25.9867C28.9789 23.702 27.4449 21.7756 25.3507 21.1814C27.4818 16.9234 31.8845 14 36.9701 14C43.463 14 48.8429 18.7654 49.8032 24.9895Z"></path>
<path d="M42.9634 31.9801H40.9634V33.9799L42.9633 33.9801L42.9634 31.9801ZM49.8032 24.9895L49.846 26.989L52.1278 26.9402L51.7798 24.6845L49.8032 24.9895ZM43.0342 31.9801L43.0341 33.9801L44.7685 33.9802L45.0141 32.2633L43.0342 31.9801ZM47.6685 39.5886L48.3225 37.6985L47.5505 37.4314L46.8123 37.7811L47.6685 39.5886ZM19.2794 39.5886L20.1356 37.7811L19.3974 37.4314L18.6254 37.6985L19.2794 39.5886ZM17.3304 25.9947L17.2353 27.9925L18.7228 28.0633L19.2171 26.6585L17.3304 25.9947ZM28.8882 26.9395L26.9184 27.2859L30.8519 27.3189L28.8882 26.9395ZM25.3507 21.1814L23.5622 20.2863L22.4812 22.4461L24.8047 23.1054L25.3507 21.1814ZM44.9634 31.9801C44.9634 29.2596 47.14 27.0469 49.846 26.989L49.7604 22.9899C44.8838 23.0942 40.9634 27.0791 40.9634 31.9801H44.9634ZM43.0344 29.9801L42.9636 29.9801L42.9633 33.9801L43.0341 33.9801L43.0344 29.9801ZM49.9557 23.9867C45.4238 23.9867 41.678 27.3372 41.0544 31.6969L45.0141 32.2633C45.3599 29.8458 47.4424 27.9867 49.9557 27.9867V23.9867ZM58.9479 32.9789C58.9479 28.0127 54.9219 23.9867 49.9557 23.9867V27.9867C52.7128 27.9867 54.9479 30.2218 54.9479 32.9789H58.9479ZM49.9557 41.9712C54.9219 41.9712 58.9479 37.9452 58.9479 32.9789H54.9479C54.9479 35.7361 52.7128 37.9712 49.9557 37.9712V41.9712ZM47.0146 41.4786C47.9388 41.7984 48.9291 41.9712 49.9557 41.9712V37.9712C49.3802 37.9712 48.8316 37.8746 48.3225 37.6985L47.0146 41.4786ZM45.9601 41.9712C46.8737 41.9712 47.7448 41.7655 48.5247 41.396L46.8123 37.7811C46.5563 37.9024 46.269 37.9712 45.9601 37.9712V41.9712ZM20.9878 41.9712H45.9601V37.9712H20.9878V41.9712ZM18.4232 41.396C19.2031 41.7655 20.0742 41.9712 20.9878 41.9712V37.9712C20.6789 37.9712 20.3916 37.9024 20.1356 37.7811L18.4232 41.396ZM16.9922 41.9712C18.0188 41.9712 19.0091 41.7984 19.9333 41.4786L18.6254 37.6985C18.1163 37.8746 17.5677 37.9712 16.9922 37.9712V41.9712ZM8 32.9789C8 37.9452 12.026 41.9712 16.9922 41.9712V37.9712C14.2351 37.9712 12 35.7361 12 32.9789H8ZM16.9922 23.9867C12.026 23.9867 8 28.0127 8 32.9789H12C12 30.2218 14.2351 27.9867 16.9922 27.9867V23.9867ZM17.4256 23.997C17.2818 23.9901 17.1374 23.9867 16.9922 23.9867V27.9867C17.0739 27.9867 17.1549 27.9886 17.2353 27.9925L17.4256 23.997ZM22.9856 19.9911C19.4981 19.9911 16.5371 22.2234 15.4438 25.3309L19.2171 26.6585C19.7647 25.102 21.248 23.9911 22.9856 23.9911V19.9911ZM30.8579 26.5932C30.1983 22.8416 26.9269 19.9911 22.9856 19.9911V23.9911C24.9515 23.9911 26.5892 25.4137 26.9184 27.2859L30.8579 26.5932ZM26.9789 25.9867C26.9789 26.1846 26.96 26.3761 26.9245 26.5602L30.8519 27.3189C30.9355 26.8861 30.9789 26.4405 30.9789 25.9867H26.9789ZM24.8047 23.1054C26.0614 23.462 26.9789 24.6198 26.9789 25.9867H30.9789C30.9789 22.7843 28.8284 20.0893 25.8966 19.2574L24.8047 23.1054ZM36.9701 12C31.0984 12 26.0191 15.3773 23.5622 20.2863L27.1392 22.0765C28.9445 18.4695 32.6707 16 36.9701 16V12ZM51.7798 24.6845C50.6714 17.5001 44.4649 12 36.9701 12V16C42.4612 16 47.0145 20.0307 47.8266 25.2944L51.7798 24.6845Z" fill="black"></path>
<path fill-rule="evenodd" clip-rule="evenodd" d="M34.297 48.4022C34.9008 48.2404 35.3796 47.6122 35.1582 46.7857C35.0108 46.2358 34.2552 45.5546 33.7661 45.1603C33.552 44.9878 33.2425 45.0758 33.1486 45.3342C32.9279 45.9414 32.6128 46.9469 32.743 47.4329C32.9368 48.1561 33.6932 48.564 34.297 48.4022ZM40.634 46.8662C40.7763 47.3976 40.434 47.8106 40.0113 47.9239C39.5887 48.0371 39.0679 47.7842 38.9433 47.3192C38.8573 46.9984 39.1062 46.3164 39.2687 45.9247C39.3337 45.7679 39.5229 45.714 39.6599 45.8143C39.9932 46.0584 40.5365 46.5026 40.634 46.8662ZM27.2594 47.9239C27.682 47.8106 28.0244 47.3976 27.882 46.8662C27.7845 46.5026 27.2412 46.0584 26.9079 45.8143C26.771 45.714 26.5818 45.7679 26.5167 45.9247C26.3543 46.3164 26.1054 46.9984 26.1914 47.3192C26.3159 47.7842 26.8367 48.0371 27.2594 47.9239ZM44.2986 52.8972C44.9024 52.7354 45.3812 52.1072 45.1597 51.2807C45.0124 50.7307 44.2568 50.0495 43.7676 49.6553C43.5536 49.4827 43.2441 49.5708 43.1502 49.8292C42.9295 50.4364 42.6143 51.4418 42.7445 51.9278C42.9383 52.651 43.6948 53.0589 44.2986 52.8972ZM25.3816 50.8618C25.524 51.3932 25.1817 51.8062 24.759 51.9195C24.3363 52.0327 23.8156 51.7797 23.691 51.3148C23.605 50.9939 23.8539 50.312 24.0164 49.9203C24.0814 49.7635 24.2706 49.7095 24.4075 49.8098C24.7408 50.054 25.2842 50.4982 25.3816 50.8618ZM38.1336 50.8618C38.2759 51.3932 37.9336 51.8062 37.511 51.9195C37.0883 52.0327 36.5675 51.7797 36.4429 51.3148C36.357 50.9939 36.6059 50.312 36.7683 49.9203C36.8333 49.7635 37.0226 49.7095 37.1595 49.8098C37.4928 50.054 38.0361 50.4982 38.1336 50.8618ZM31.9077 51.2807C32.1292 52.1072 31.6503 52.7354 31.0465 52.8972C30.4427 53.0589 29.6863 52.651 29.4925 51.9278C29.3623 51.4418 29.6774 50.4364 29.8981 49.8292C29.9921 49.5708 30.3015 49.4827 30.5156 49.6553C31.0047 50.0495 31.7603 50.7307 31.9077 51.2807ZM21.6561 46.7857C21.8776 47.6122 21.3987 48.2404 20.7949 48.4022C20.1911 48.564 19.4347 48.1561 19.2409 47.4329C19.1107 46.9469 19.4258 45.9414 19.6465 45.3342C19.7405 45.0758 20.0499 44.9878 20.264 45.1603C20.7531 45.5546 21.5087 46.2358 21.6561 46.7857ZM47.5491 48.4022C48.1529 48.2404 48.6317 47.6122 48.4102 46.7857C48.2629 46.2358 47.5072 45.5546 47.0181 45.1603C46.8041 44.9878 46.4946 45.0758 46.4007 45.3342C46.18 45.9414 45.8648 46.9469 45.995 47.4329C46.1888 48.1561 46.9453 48.564 47.5491 48.4022Z" fill="black"></path>
</svg></g><g transform="matrix(1.4286,0,0,1.4286,5,592)"><svg type="text" width="203" height="14" viewBox="0 0 203 14" fill="none" xmlns="http://www.w3.org/2000/svg">
<text id="Body" fill="#383B41" xml:space="preserve" style="white-space: pre" font-family="Avenir" font-size="16" font-weight="300" letter-spacing="0px"><tspan x="0.40625" y="13">Winds ENE at 10 to 15 km/h. </tspan></text>
</svg></g></g><g><g><g transform="matrix(2,0,0,2,150,196)"><svg type="text" width="52" height="20" viewBox="0 0 52 20" fill="none" xmlns="http://www.w3.org/2000/svg">
<text id="TuesHeader" fill="#383B41" xml:space="preserve" style="white-space: pre" font-family="Avenir" font-size="24" font-weight="900" letter-spacing="0.5px"><tspan x="0.375" y="19">Tues</tspan></text>
</svg></g><g transform="matrix(1.5,0,0,1.5,258,164)"><svg type="icon" width="48" height="48" viewBox="0 0 48 48" fill="none" xmlns="http://www.w3.org/2000/svg">
<path d="M24 36.5926C30.9688 36.5926 36.6182 30.9433 36.6182 23.9745C36.6182 17.0057 30.9688 11.3563 24 11.3563C17.0312 11.3563 11.3818 17.0057 11.3818 23.9745C11.3818 30.9433 17.0312 36.5926 24 36.5926Z" stroke="black" stroke-width="2"></path>
<path fill-rule="evenodd" clip-rule="evenodd" d="M22.7382 1C22.7382 0.447715 23.1859 0 23.7382 0H24.2618C24.8141 0 25.2618 0.447715 25.2618 1V5.30908C25.2618 5.86136 24.8141 6.30908 24.2618 6.30908H23.7382C23.1859 6.30908 22.7382 5.86136 22.7382 5.30908V1ZM34.4072 3.4505C34.6834 2.97221 35.295 2.80833 35.7732 3.08447L36.2267 3.34629C36.705 3.62243 36.8689 4.23402 36.5927 4.71231L34.4382 8.44409C34.1621 8.92238 33.5505 9.08625 33.0722 8.81011L32.6187 8.5483C32.1404 8.27215 31.9765 7.66056 32.2527 7.18227L34.4072 3.4505ZM44.6537 11.7733C44.3775 11.295 43.766 11.1311 43.2877 11.4073L39.5559 13.5618C39.0776 13.8379 38.9137 14.4495 39.1899 14.9278L39.4517 15.3813C39.7278 15.8596 40.3394 16.0235 40.8177 15.7473L44.5495 13.5928C45.0278 13.3167 45.1916 12.7051 44.9155 12.2268L44.6537 11.7733ZM47 22.7382C47.5523 22.7382 48 23.1859 48 23.7382V24.2618C48 24.8141 47.5523 25.2618 47 25.2618H42.6909C42.1386 25.2618 41.6909 24.8141 41.6909 24.2618V23.7382C41.6909 23.1859 42.1386 22.7382 42.6909 22.7382H47ZM44.9155 35.7733C45.1917 35.295 45.0278 34.6834 44.5495 34.4073L40.8177 32.2527C40.3394 31.9766 39.7278 32.1404 39.4517 32.6187L39.1899 33.0722C38.9137 33.5505 39.0776 34.1621 39.5559 34.4382L43.2877 36.5928C43.766 36.8689 44.3776 36.7051 44.6537 36.2268L44.9155 35.7733ZM36.5928 43.2877C36.8689 43.766 36.705 44.3775 36.2267 44.6537L35.7733 44.9155C35.295 45.1916 34.6834 45.0278 34.4072 44.5495L32.2527 40.8177C31.9765 40.3394 32.1404 39.7278 32.6187 39.4517L33.0722 39.1899C33.5505 38.9137 34.1621 39.0776 34.4382 39.5559L36.5928 43.2877ZM24.2618 48C24.8141 48 25.2618 47.5523 25.2618 47V42.6909C25.2618 42.1386 24.8141 41.6909 24.2618 41.6909H23.7382C23.1859 41.6909 22.7382 42.1386 22.7382 42.6909V47C22.7382 47.5523 23.1859 48 23.7382 48H24.2618ZM13.5928 44.5495C13.3166 45.0278 12.705 45.1917 12.2267 44.9155L11.7733 44.6537C11.295 44.3776 11.1311 43.766 11.4072 43.2877L13.5618 39.5559C13.8379 39.0776 14.4495 38.9137 14.9278 39.1899L15.3813 39.4517C15.8596 39.7278 16.0234 40.3394 15.7473 40.8177L13.5928 44.5495ZM3.34629 36.2268C3.62243 36.7051 4.23402 36.8689 4.71231 36.5928L8.44409 34.4383C8.92238 34.1621 9.08625 33.5505 8.81011 33.0722L8.5483 32.6188C8.27215 32.1405 7.66056 31.9766 7.18227 32.2527L3.4505 34.4073C2.97221 34.6834 2.80833 35.295 3.08447 35.7733L3.34629 36.2268ZM1 25.2618C0.447715 25.2618 0 24.8141 0 24.2618V23.7382C0 23.1859 0.447715 22.7382 1 22.7382H5.30908C5.86136 22.7382 6.30908 23.1859 6.30908 23.7382V24.2618C6.30908 24.8141 5.86136 25.2618 5.30908 25.2618H1ZM3.08447 12.2268C2.80833 12.7051 2.97221 13.3167 3.4505 13.5928L7.18227 15.7473C7.66056 16.0235 8.27215 15.8596 8.5483 15.3813L8.81011 14.9278C9.08625 14.4495 8.92238 13.838 8.44409 13.5618L4.71231 11.4073C4.23402 11.1311 3.62243 11.295 3.34629 11.7733L3.08447 12.2268ZM11.4072 4.71231C11.1311 4.23402 11.295 3.62243 11.7733 3.34629L12.2267 3.08447C12.705 2.80833 13.3166 2.97221 13.5928 3.4505L15.7473 7.18227C16.0234 7.66056 15.8596 8.27215 15.3813 8.5483L14.9278 8.81011C14.4495 9.08625 13.8379 8.92238 13.5618 8.44409L11.4072 4.71231Z" fill="black"></path>
</svg></g></g><g><g transform="matrix(2,0,0,2,150,276)"><svg type="text" width="52" height="20" viewBox="0 0 52 20" fill="none" xmlns="http://www.w3.org/2000/svg">
<text id="WedHeader" fill="#383B41" xml:space="preserve" style="white-space: pre" font-family="Avenir" font-size="24" font-weight="900" letter-spacing="0px"><tspan x="0.261719" y="19">Wed</tspan></text>
</svg></g><g transform="matrix(1.5,0,0,1.5,258,244)"><svg type="icon" width="48" height="48" viewBox="0 0 48 48" fill="none" xmlns="http://www.w3.org/2000/svg">
<g id="Group 2">
<rect id="Rectangle" width="48" height="48" fill="white"></rect>
<g id="Foggy">
<rect id="Rectangle_2" y="5" width="48" height="38" fill="white"></rect>
<g id="Foggy_2">
<g id="Cloud">
<rect fill="white" y="5" width="48" height="29"></rect>
<path fill-rule="evenodd" clip-rule="evenodd" d="M39.3039 17.3581C35.7507 17.4346 32.8936 20.3553 32.8936 23.9472C32.8936 23.9472 32.8936 23.9472 32.8936 23.9472H32.96C33.4142 20.7533 36.1454 18.2981 39.4468 18.2981C43.066 18.2981 46 21.2488 46 24.8887C46 28.5286 43.066 31.4793 39.4468 31.4793C38.6935 31.4793 37.9699 31.3515 37.2962 31.1162C36.8067 31.349 36.2589 31.4793 35.6807 31.4793H12.3192C11.741 31.4793 11.1933 31.349 10.7037 31.1162C10.0301 31.3515 9.30649 31.4793 8.55319 31.4793C4.93396 31.4793 2 28.5286 2 24.8887C2 21.2488 4.93396 18.2981 8.55319 18.2981C8.65945 18.2981 8.76512 18.3007 8.87014 18.3057C9.6391 16.1077 11.7217 14.5321 14.1702 14.5321C16.9383 14.5321 19.2388 16.5459 19.7021 19.1963C19.758 18.9056 19.7872 18.6053 19.7872 18.2982C19.7872 16.1447 18.3495 14.329 16.3868 13.7689C18.3841 9.75549 22.5104 7 27.2766 7C33.3618 7 38.4039 11.4916 39.3039 17.3581Z"></path>
<path d="M39.3039 17.3581L39.3469 19.3576L41.6265 19.3086L41.2808 17.0548L39.3039 17.3581ZM32.8936 23.9472H30.8936V25.9472H32.8936V23.9472ZM32.96 23.9472V25.9472H34.6956L34.94 24.2288L32.96 23.9472ZM37.2962 31.1162L37.9557 29.228L37.1796 28.957L36.4373 29.3101L37.2962 31.1162ZM10.7037 31.1162L11.5627 29.3101L10.8204 28.957L10.0443 29.228L10.7037 31.1162ZM8.87014 18.3057L8.77446 20.3034L10.2651 20.3748L10.7579 18.9661L8.87014 18.3057ZM19.7021 19.1963L17.732 19.5407L21.6662 19.5735L19.7021 19.1963ZM16.3868 13.7689L14.5963 12.8778L13.5243 15.0318L15.8379 15.6921L16.3868 13.7689ZM34.8936 23.9472C34.8936 21.4351 36.8893 19.4105 39.3469 19.3576L39.2609 15.3586C34.6121 15.4586 30.8936 19.2755 30.8936 23.9472H34.8936ZM34.8936 23.9472C34.8936 23.9472 34.8936 23.9472 34.8936 23.9472C34.8936 23.9472 34.8936 23.9472 34.8936 23.9472V23.9472V23.9472V23.9472V23.9472C34.8936 23.9472 34.8936 23.9472 34.8936 23.9472C34.8936 23.9472 34.8936 23.9472 34.8936 23.9472C34.8936 23.9472 34.8936 23.9472 34.8936 23.9472C34.8936 23.9472 34.8936 23.9472 34.8936 23.9472V23.9472C34.8936 23.9472 34.8936 23.9472 34.8936 23.9472C34.8936 23.9472 34.8936 23.9472 34.8936 23.9472C34.8936 23.9472 34.8936 23.9472 34.8936 23.9472V23.9472C34.8936 23.9472 34.8936 23.9472 34.8936 23.9472C34.8936 23.9472 34.8936 23.9472 34.8936 23.9472V23.9472C34.8936 23.9472 34.8936 23.9472 34.8936 23.9472V23.9472C34.8936 23.9472 34.8936 23.9472 34.8936 23.9472C34.8936 23.9472 34.8936 23.9472 34.8936 23.9472V23.9472C34.8936 23.9472 34.8936 23.9472 34.8936 23.9472C34.8936 23.9472 34.8936 23.9472 34.8936 23.9472C34.8936 23.9472 34.8936 23.9472 34.8936 23.9472V23.9472C34.8936 23.9472 34.8936 23.9472 34.8936 23.9472C34.8936 23.9472 34.8936 23.9472 34.8936 23.9472C34.8936 23.9472 34.8936 23.9472 34.8936 23.9472C34.8936 23.9472 34.8936 23.9472 34.8936 23.9472V23.9472V23.9472V23.9472V23.9472C34.8936 23.9472 34.8936 23.9472 34.8936 23.9472C34.8936 23.9472 34.8936 23.9472 34.8936 23.9472H30.8936C30.8936 23.9472 30.8936 23.9472 30.8936 23.9472C30.8936 23.9472 30.8936 23.9472 30.8936 23.9472V23.9472V23.9472V23.9472V23.9472C30.8936 23.9472 30.8936 23.9472 30.8936 23.9472C30.8936 23.9472 30.8936 23.9472 30.8936 23.9472C30.8936 23.9472 30.8936 23.9472 30.8936 23.9472C30.8936 23.9472 30.8936 23.9472 30.8936 23.9472V23.9472C30.8936 23.9472 30.8936 23.9472 30.8936 23.9472C30.8936 23.9472 30.8936 23.9472 30.8936 23.9472C30.8936 23.9472 30.8936 23.9472 30.8936 23.9472V23.9472C30.8936 23.9472 30.8936 23.9472 30.8936 23.9472C30.8936 23.9472 30.8936 23.9472 30.8936 23.9472V23.9472C30.8936 23.9472 30.8936 23.9472 30.8936 23.9472V23.9472C30.8936 23.9472 30.8936 23.9472 30.8936 23.9472C30.8936 23.9472 30.8936 23.9472 30.8936 23.9472V23.9472C30.8936 23.9472 30.8936 23.9472 30.8936 23.9472C30.8936 23.9472 30.8936 23.9472 30.8936 23.9472C30.8936 23.9472 30.8936 23.9472 30.8936 23.9472V23.9472C30.8936 23.9472 30.8936 23.9472 30.8936 23.9472C30.8936 23.9472 30.8936 23.9472 30.8936 23.9472C30.8936 23.9472 30.8936 23.9472 30.8936 23.9472C30.8936 23.9472 30.8936 23.9472 30.8936 23.9472V23.9472V23.9472V23.9472V23.9472C30.8936 23.9472 30.8936 23.9472 30.8936 23.9472C30.8936 23.9472 30.8936 23.9472 30.8936 23.9472H34.8936ZM32.96 21.9472H32.8936V25.9472H32.96V21.9472ZM39.4468 16.2981C35.127 16.2981 31.5711 19.5084 30.9799 23.6656L34.94 24.2288C35.2573 21.9982 37.1638 20.2981 39.4468 20.2981V16.2981ZM48 24.8887C48 20.155 44.1813 16.2981 39.4468 16.2981V20.2981C41.9507 20.2981 44 22.3427 44 24.8887H48ZM39.4468 33.4793C44.1813 33.4793 48 29.6224 48 24.8887H44C44 27.4348 41.9507 29.4793 39.4468 29.4793V33.4793ZM36.6368 33.0044C37.5194 33.3126 38.4658 33.4793 39.4468 33.4793V29.4793C38.9212 29.4793 38.4203 29.3903 37.9557 29.228L36.6368 33.0044ZM35.6807 33.4793C36.5623 33.4793 37.403 33.2801 38.1552 32.9224L36.4373 29.3101C36.2104 29.418 35.9555 29.4793 35.6807 29.4793V33.4793ZM12.3192 33.4793H35.6807V29.4793H12.3192V33.4793ZM9.84478 32.9224C10.597 33.2801 11.4376 33.4793 12.3192 33.4793V29.4793C12.0444 29.4793 11.7896 29.418 11.5627 29.3101L9.84478 32.9224ZM8.55319 33.4793C9.53418 33.4793 10.4805 33.3126 11.3632 33.0044L10.0443 29.228C9.57964 29.3903 9.0788 29.4793 8.55319 29.4793V33.4793ZM0 24.8887C0 29.6224 3.81868 33.4793 8.55319 33.4793V29.4793C6.04925 29.4793 4 27.4348 4 24.8887H0ZM8.55319 16.2981C3.81868 16.2981 0 20.155 0 24.8887H4C4 22.3427 6.04925 20.2981 8.55319 20.2981V16.2981ZM8.96581 16.308C8.82894 16.3014 8.69137 16.2981 8.55319 16.2981V20.2981C8.62753 20.2981 8.70129 20.2999 8.77446 20.3034L8.96581 16.308ZM14.1702 12.5321C10.8396 12.5321 8.02122 14.6757 6.98233 17.6453L10.7579 18.9661C11.257 17.5397 12.6038 16.5321 14.1702 16.5321V12.5321ZM21.6723 18.8519C21.0459 15.2689 17.9348 12.5321 14.1702 12.5321V16.5321C15.9419 16.5321 17.4317 17.8229 17.732 19.5407L21.6723 18.8519ZM17.7872 18.2982C17.7872 18.478 17.7701 18.652 17.738 18.819L21.6662 19.5735C21.7458 19.1591 21.7872 18.7325 21.7872 18.2982H17.7872ZM15.8379 15.6921C16.9581 16.0118 17.7872 17.0548 17.7872 18.2982H21.7872C21.7872 15.2347 19.741 12.6462 16.9356 11.8457L15.8379 15.6921ZM27.2766 5C21.7181 5 16.9165 8.21539 14.5963 12.8778L18.1773 14.66C19.8516 11.2956 23.3026 9 27.2766 9V5ZM41.2808 17.0548C40.2346 10.2356 34.3727 5 27.2766 5V9C32.351 9 36.5732 12.7476 37.3271 17.6614L41.2808 17.0548Z" fill="black"></path>
</g>
<g id="Line">
<path d="M3.87231 39.9006C6.93824 39.9006 6.38988 40.8421 8.89958 40.8421C11.4093 40.8421 11.2658 39.9006 13.9274 39.9006C16.589 39.9006 16.9185 40.8421 18.955 40.8421C20.9915 40.8421 21.3702 39.9006 23.9822 39.9006C26.5942 39.9006 26.3976 40.8421 29.0096 40.8421C31.6216 40.8421 31.4251 39.9006 34.0371 39.9006C36.6491 39.9006 36.4526 40.8421 39.0646 40.8421C41.6766 40.8421 40.5439 39.9006 44.092 39.9006" fill="black"></path>
<path d="M3.87231 39.9006C6.93824 39.9006 6.38988 40.8421 8.89958 40.8421C11.4093 40.8421 11.2658 39.9006 13.9274 39.9006C16.589 39.9006 16.9185 40.8421 18.955 40.8421C20.9915 40.8421 21.3702 39.9006 23.9822 39.9006C26.5942 39.9006 26.3976 40.8421 29.0096 40.8421C31.6216 40.8421 31.4251 39.9006 34.0371 39.9006C36.6491 39.9006 36.4526 40.8421 39.0646 40.8421C41.6766 40.8421 40.5439 39.9006 44.092 39.9006" stroke="white" stroke-linecap="square"></path>
</g>
<g id="Line_2">
<path d="M3.87231 42.7252C6.93824 42.7252 6.38988 43.6667 8.89958 43.6667C11.4093 43.6667 11.2658 42.7252 13.9274 42.7252C16.589 42.7252 16.9185 43.6667 18.955 43.6667C20.9915 43.6667 21.3702 42.7252 23.9822 42.7252C26.5942 42.7252 26.3976 43.6667 29.0096 43.6667C31.6216 43.6667 31.4251 42.7252 34.0371 42.7252C36.6491 42.7252 36.4526 43.6667 39.0646 43.6667C41.6766 43.6667 40.5439 42.7252 44.092 42.7252" fill="black"></path>
<path d="M3.87231 42.7252C6.93824 42.7252 6.38988 43.6667 8.89958 43.6667C11.4093 43.6667 11.2658 42.7252 13.9274 42.7252C16.589 42.7252 16.9185 43.6667 18.955 43.6667C20.9915 43.6667 21.3702 42.7252 23.9822 42.7252C26.5942 42.7252 26.3976 43.6667 29.0096 43.6667C31.6216 43.6667 31.4251 42.7252 34.0371 42.7252C36.6491 42.7252 36.4526 43.6667 39.0646 43.6667C41.6766 43.6667 40.5439 42.7252 44.092 42.7252" stroke="white" stroke-linecap="square"></path>
</g>
<g id="Line_3">
<path d="M3.87231 45.7252C6.93824 45.7252 6.38988 46.6667 8.89958 46.6667C11.4093 46.6667 11.2658 45.7252 13.9274 45.7252C16.589 45.7252 16.9185 46.6667 18.955 46.6667C20.9915 46.6667 21.3702 45.7252 23.9822 45.7252C26.5942 45.7252 26.3976 46.6667 29.0096 46.6667C31.6216 46.6667 31.4251 45.7252 34.0371 45.7252C36.6491 45.7252 36.4526 46.6667 39.0646 46.6667C41.6766 46.6667 40.5439 45.7252 44.092 45.7252" fill="black"></path>
<path d="M3.87231 45.7252C6.93824 45.7252 6.38988 46.6667 8.89958 46.6667C11.4093 46.6667 11.2658 45.7252 13.9274 45.7252C16.589 45.7252 16.9185 46.6667 18.955 46.6667C20.9915 46.6667 21.3702 45.7252 23.9822 45.7252C26.5942 45.7252 26.3976 46.6667 29.0096 46.6667C31.6216 46.6667 31.4251 45.7252 34.0371 45.7252C36.6491 45.7252 36.4526 46.6667 39.0646 46.6667C41.6766 46.6667 40.5439 45.7252 44.092 45.7252" stroke="white" stroke-linecap="square"></path>
</g>
</g>
</g>
</g>
</svg></g></g><g><g transform="matrix(2,0,0,2,150,356)"><svg type="text" width="52" height="20" viewBox="0 0 52 20" fill="none" xmlns="http://www.w3.org/2000/svg">
<text id="ThursHeader" fill="#383B41" xml:space="preserve" style="white-space: pre" font-family="Avenir" font-size="24" font-weight="900" letter-spacing="0px"><tspan x="0.441406" y="19">Thur</tspan></text>
</svg></g><g transform="matrix(1.5,0,0,1.5,258,324)"><svg type="icon" width="48" height="48" viewBox="0 0 48 48" fill="none" xmlns="http://www.w3.org/2000/svg">
<g id="Group">
<rect id="Rectangle" width="48" height="48" fill="white"></rect>
<g id="Rainy">
<rect id="Rectangle_2" y="4" width="48" height="40" fill="white"></rect>
<g id="Rainy_2">
<g id="Cloud">
<rect fill="white" x="0.0869446" y="4.10529" width="48" height="29"></rect>
<path fill-rule="evenodd" clip-rule="evenodd" d="M37.2761 30.6234C37.955 30.8682 38.6851 31.0013 39.4456 31.0013C43.0563 31.0013 45.9834 28.0003 45.9834 24.2985C45.9834 20.5967 43.0563 17.5958 39.4456 17.5958C36.152 17.5958 33.4273 20.0927 32.9741 23.3409H32.9078C32.9079 19.6879 35.7582 16.7175 39.303 16.6397C38.4052 10.6734 33.375 6.10529 27.304 6.10529C22.549 6.10529 18.4325 8.90767 16.4399 12.9894C18.398 13.559 19.8323 15.4056 19.8323 17.5957C19.8323 17.908 19.8031 18.2134 19.7474 18.509C19.2852 15.8136 16.9901 13.7655 14.2285 13.7655C11.7857 13.7655 9.70804 15.3679 8.94091 17.6034C8.83614 17.5983 8.73071 17.5957 8.62471 17.5957C5.014 17.5957 2.08694 20.5967 2.08694 24.2985C2.08694 28.0003 5.014 31.0012 8.62471 31.0012C9.38517 31.0012 10.1153 30.8681 10.7942 30.6234C11.2965 30.8655 11.8599 31.0012 12.4549 31.0012H27.2681C27.2801 31.0012 27.2921 31.0012 27.304 31.0012C27.316 31.0012 27.328 31.0012 27.34 31.0012H35.6155C36.2105 31.0012 36.7738 30.8655 37.2761 30.6234Z"></path>
<path d="M37.2761 30.6234L37.9544 28.7419L37.1644 28.4571L36.4079 28.8217L37.2761 30.6234ZM32.9741 23.3409V25.3409H34.7144L34.9549 23.6173L32.9741 23.3409ZM32.9078 23.3409L30.9078 23.3409L30.9078 25.3409H32.9078V23.3409ZM39.303 16.6397L39.3469 18.6393L41.6189 18.5894L41.2808 16.3421L39.303 16.6397ZM16.4399 12.9894L14.6426 12.112L13.6007 14.2463L15.8812 14.9098L16.4399 12.9894ZM19.7474 18.509L17.7762 18.8471L21.7129 18.8793L19.7474 18.509ZM8.94091 17.6034L8.84338 19.6011L10.3447 19.6744L10.8326 18.2526L8.94091 17.6034ZM10.7942 30.6234L11.6624 28.8217L10.9059 28.4571L10.1158 28.7419L10.7942 30.6234ZM27.2681 31.0012L27.2741 29.0012H27.2681V31.0012ZM27.34 31.0012V29.0012L27.3339 29.0012L27.34 31.0012ZM36.5978 32.5049C37.4906 32.8267 38.45 33.0013 39.4456 33.0013V29.0013C38.9202 29.0013 38.4194 28.9096 37.9544 28.7419L36.5978 32.5049ZM39.4456 33.0013C44.2076 33.0013 47.9834 29.0576 47.9834 24.2985H43.9834C43.9834 26.9431 41.905 29.0013 39.4456 29.0013V33.0013ZM47.9834 24.2985C47.9834 19.5394 44.2076 15.5958 39.4456 15.5958V19.5958C41.905 19.5958 43.9834 21.654 43.9834 24.2985H47.9834ZM39.4456 15.5958C35.1029 15.5958 31.5771 18.8798 30.9932 23.0645L34.9549 23.6173C35.2774 21.3055 37.2012 19.5958 39.4456 19.5958V15.5958ZM32.9741 21.3409H32.9078V25.3409H32.9741V21.3409ZM34.9078 23.3409C34.9079 20.732 36.9321 18.6922 39.3469 18.6393L39.2592 14.6402C34.5843 14.7428 30.9079 18.6438 30.9078 23.3409L34.9078 23.3409ZM41.2808 16.3421C40.2435 9.44903 34.4162 4.10529 27.304 4.10529V8.10529C32.3337 8.10529 36.5669 11.8977 37.3253 16.9374L41.2808 16.3421ZM27.304 4.10529C21.7361 4.10529 16.9487 7.38814 14.6426 12.112L18.2371 13.8668C19.9163 10.4272 23.362 8.10529 27.304 8.10529V4.10529ZM15.8812 14.9098C16.9801 15.2294 17.8323 16.2896 17.8323 17.5957H21.8323C21.8323 14.5217 19.8159 11.8886 16.9985 11.069L15.8812 14.9098ZM17.8323 17.5957C17.8323 17.7833 17.8148 17.9647 17.782 18.1388L21.7129 18.8793C21.7915 18.4621 21.8323 18.0328 21.8323 17.5957H17.8323ZM21.7187 18.171C21.1007 14.5676 18.0162 11.7655 14.2285 11.7655V15.7655C15.964 15.7655 17.4697 17.0596 17.7762 18.8471L21.7187 18.171ZM14.2285 11.7655C10.8793 11.7655 8.07634 13.9611 7.04919 16.9543L10.8326 18.2526C11.3397 16.7748 12.6922 15.7655 14.2285 15.7655V11.7655ZM9.03844 15.6058C8.90119 15.5991 8.76325 15.5957 8.62471 15.5957V19.5957C8.69818 19.5957 8.77108 19.5975 8.84338 19.6011L9.03844 15.6058ZM8.62471 15.5957C3.86273 15.5957 0.0869446 19.5394 0.0869446 24.2985H4.08694C4.08694 21.654 6.16527 19.5957 8.62471 19.5957V15.5957ZM0.0869446 24.2985C0.0869446 29.0576 3.86273 33.0012 8.62471 33.0012V29.0012C6.16527 29.0012 4.08694 26.943 4.08694 24.2985H0.0869446ZM8.62471 33.0012C9.62026 33.0012 10.5797 32.8267 11.4725 32.5048L10.1158 28.7419C9.65091 28.9095 9.15008 29.0012 8.62471 29.0012V33.0012ZM9.9259 32.4251C10.6933 32.7949 11.5528 33.0012 12.4549 33.0012V29.0012C12.1669 29.0012 11.8998 28.9361 11.6624 28.8217L9.9259 32.4251ZM12.4549 33.0012H27.2681V29.0012H12.4549V33.0012ZM27.262 33.0012C27.2761 33.0012 27.2902 33.0012 27.304 33.0012V29.0012C27.294 29.0012 27.284 29.0012 27.2741 29.0012L27.262 33.0012ZM27.304 33.0012C27.3179 33.0012 27.3319 33.0012 27.346 33.0012L27.3339 29.0012C27.3241 29.0012 27.3141 29.0012 27.304 29.0012V33.0012ZM27.34 33.0012H35.6155V29.0012H27.34V33.0012ZM35.6155 33.0012C36.5175 33.0012 37.377 32.7949 38.1444 32.4251L36.4079 28.8217C36.1705 28.9361 35.9034 29.0012 35.6155 29.0012V33.0012Z" fill="black"></path>
</g>
<g id="Drops">
<path id="Drops_2" fill-rule="evenodd" clip-rule="evenodd" d="M12.9854 37.5337C13.1925 38.326 12.7448 38.9281 12.1802 39.0832C11.6157 39.2383 10.9084 38.8473 10.7272 38.154C10.608 37.6978 10.888 36.7643 11.0935 36.1791C11.1863 35.9147 11.5007 35.8229 11.7135 36.0002C12.1712 36.3814 12.8506 37.0178 12.9854 37.5337ZM24.8047 39.0832C25.3693 38.9281 25.817 38.326 25.6099 37.5337C25.4751 37.0178 24.7956 36.3814 24.338 36.0002C24.1252 35.8229 23.8108 35.9147 23.7179 36.1791C23.5125 36.7643 23.2325 37.6978 23.3517 38.154C23.5329 38.8473 24.2402 39.2383 24.8047 39.0832ZM18.2245 38.6248C18.6197 38.5162 18.9397 38.1203 18.8066 37.6109C18.7173 37.2692 18.2271 36.8531 17.9143 36.6164C17.7778 36.5131 17.586 36.5692 17.5215 36.7299C17.3696 37.1084 17.147 37.7434 17.2259 38.0452C17.3424 38.4909 17.8293 38.7334 18.2245 38.6248ZM34.1562 43.3922C34.7207 43.2371 35.1684 42.6349 34.9614 41.8426C34.8265 41.3267 34.1471 40.6904 33.6895 40.3092C33.4767 40.1319 33.1623 40.2237 33.0694 40.4881C32.864 41.0732 32.5839 42.0068 32.7032 42.463C32.8844 43.1562 33.5916 43.5473 34.1562 43.3922ZM16.4687 41.4411C16.6018 41.9504 16.2818 42.3464 15.8866 42.4549C15.4914 42.5635 15.0044 42.321 14.888 41.8753C14.8091 41.5735 15.0316 40.9385 15.1835 40.56C15.248 40.3993 15.4399 40.3433 15.5763 40.4465C15.8892 40.6832 16.3794 41.0993 16.4687 41.4411ZM28.3919 41.4411C28.525 41.9504 28.205 42.3464 27.8098 42.4549C27.4146 42.5635 26.9277 42.321 26.8112 41.8753C26.7323 41.5735 26.9549 40.9385 27.1067 40.56C27.1712 40.3993 27.3631 40.3433 27.4996 40.4465C27.8124 40.6832 28.3026 41.0993 28.3919 41.4411ZM22.5707 41.8426C22.7777 42.6349 22.33 43.2371 21.7655 43.3922C21.2009 43.5473 20.4937 43.1562 20.3125 42.463C20.1932 42.0068 20.4733 41.0732 20.6787 40.4881C20.7716 40.2237 21.086 40.1319 21.2988 40.3092C21.7564 40.6904 22.4358 41.3267 22.5707 41.8426ZM30.7298 37.6109C30.8629 38.1203 30.5428 38.5162 30.1476 38.6248C29.7525 38.7334 29.2655 38.4909 29.149 38.0452C29.0702 37.7434 29.2927 37.1084 29.4446 36.7299C29.5091 36.5692 29.701 36.5131 29.8374 36.6164C30.1502 36.8531 30.6405 37.2692 30.7298 37.6109ZM37.1954 39.0832C37.76 38.9281 38.2077 38.326 38.0006 37.5337C37.8658 37.0178 37.1864 36.3814 36.7287 36.0002C36.5159 35.8229 36.2015 35.9147 36.1087 36.1791C35.9032 36.7643 35.6232 37.6978 35.7424 38.154C35.9236 38.8473 36.6309 39.2383 37.1954 39.0832Z" fill="black"></path>
</g>
<g id="Drops_3">
<path id="Drops_2_2" fill-rule="evenodd" clip-rule="evenodd" d="M13.2867 40.6249C13.4938 41.4171 13.0461 42.0193 12.4816 42.1744C11.917 42.3295 11.2097 41.9385 11.0285 41.2452C10.9093 40.789 11.1893 39.8555 11.3948 39.2703C11.4876 39.0059 11.802 38.9141 12.0149 39.0914C12.4725 39.4726 13.1519 40.1089 13.2867 40.6249ZM25.106 42.1744C25.6706 42.0193 26.1183 41.4171 25.9112 40.6249C25.7764 40.1089 25.097 39.4726 24.6394 39.0914C24.4265 38.9141 24.1121 39.0059 24.0193 39.2703C23.8138 39.8555 23.5338 40.789 23.653 41.2452C23.8342 41.9385 24.5415 42.3295 25.106 42.1744ZM18.5258 41.716C18.921 41.6074 19.2411 41.2115 19.108 40.7021C19.0186 40.3603 18.5284 39.9443 18.2156 39.7076C18.0791 39.6043 17.8873 39.6604 17.8228 39.8211C17.6709 40.1996 17.4483 40.8346 17.5272 41.1364C17.6437 41.582 18.1306 41.8246 18.5258 41.716ZM34.4575 46.4834C35.0221 46.3283 35.4698 45.7261 35.2627 44.9338C35.1279 44.4179 34.4484 43.7816 33.9908 43.4004C33.778 43.2231 33.4636 43.3148 33.3707 43.5793C33.1653 44.1644 32.8853 45.098 33.0045 45.5542C33.1857 46.2474 33.893 46.6385 34.4575 46.4834ZM16.77 44.5323C16.9032 45.0416 16.5831 45.4376 16.1879 45.5461C15.7927 45.6547 15.3058 45.4122 15.1893 44.9665C15.1104 44.6647 15.333 44.0297 15.4849 43.6512C15.5494 43.4905 15.7412 43.4345 15.8777 43.5377C16.1905 43.7744 16.6807 44.1905 16.77 44.5323ZM28.6933 44.5323C28.8264 45.0416 28.5063 45.4376 28.1111 45.5461C27.7159 45.6547 27.229 45.4122 27.1125 44.9665C27.0336 44.6647 27.2562 44.0297 27.4081 43.6512C27.4726 43.4905 27.6644 43.4345 27.8009 43.5377C28.1137 43.7744 28.6039 44.1905 28.6933 44.5323ZM22.872 44.9338C23.0791 45.7261 22.6314 46.3283 22.0668 46.4834C21.5023 46.6385 20.795 46.2474 20.6138 45.5542C20.4946 45.098 20.7746 44.1644 20.98 43.5793C21.0729 43.3148 21.3873 43.2231 21.6001 43.4004C22.0577 43.7816 22.7372 44.4179 22.872 44.9338ZM31.0311 40.7021C31.1642 41.2115 30.8442 41.6074 30.449 41.716C30.0538 41.8246 29.5668 41.582 29.4504 41.1364C29.3715 40.8346 29.594 40.1996 29.7459 39.8211C29.8104 39.6604 30.0023 39.6043 30.1387 39.7076C30.4516 39.9443 30.9418 40.3603 31.0311 40.7021ZM37.4968 42.1744C38.0613 42.0193 38.509 41.4171 38.302 40.6249C38.1671 40.1089 37.4877 39.4726 37.0301 39.0914C36.8172 38.9141 36.5029 39.0059 36.41 39.2703C36.2045 39.8555 35.9245 40.789 36.0438 41.2452C36.2249 41.9385 36.9322 42.3295 37.4968 42.1744Z" fill="black"></path>
</g>
</g>
</g>
</g>
</svg></g></g></g></svg>