<svg height="640" version="1.1" width="360" xmlns="http://www.w3.org/2000/svg" fill="#ffffff" style=""><desc>Created with Snap</desc><defs></defs><rect width="360" height="640" fill="#ffffff" style=""></rect><g transform="matrix(1,0,0,1,20,48)" width="320" height="55"><svg type="text" width="320" height="55" viewBox="0 0 133 23" fill="none" xmlns="http://www.w3.org/2000/svg">
<text fill="#4387C5" xml:space="preserve" style="white-space: pre" font-family="Open Sans" font-size="28" font-weight="bold" letter-spacing="0px">
	<tspan x="-2" y="21.9277">New Task</tspan>
</text>
</svg></g><g><g transform="matrix(1,0,0,1,24,168)" width="140" height="48"><svg type="field" width="140" height="48" viewBox="0 0 321 48" fill="none" xmlns="http://www.w3.org/2000/svg">
<rect width="100%" height="100%" rx="2.5" fill="white" stroke="#4387C5" stroke-width="3"></rect>
<text fill="#A4BDD4" xml:space="preserve" style="white-space: pre" font-family="Open Sans" font-size="14" letter-spacing="0px"><tspan x="14" y="28.9639">Task</tspan></text>
</svg></g><g transform="matrix(1,0,0,1,196,168)" width="140" height="48"><svg type="field" width="140" height="48" viewBox="0 0 321 48" fill="none" xmlns="http://www.w3.org/2000/svg">
<rect width="100%" height="100%" rx="2.5" fill="white" stroke="#4387C5" stroke-width="3"></rect>
<text fill="#A4BDD4" xml:space="preserve" style="white-space: pre" font-family="Open Sans" font-size="14" letter-spacing="0px"><tspan x="14" y="28.9639">Complete By</tspan></text>
</svg></g></g><g transform="matrix(1,0,0,1,20,296)" width="320" height="4"><svg type="separator" width="320" height="4" viewBox="0 0 306 4" fill="none" xmlns="http://www.w3.org/2000/svg">
  <rect width="100%" height="100%" rx="2.5" fill="#D2E4F4"></rect>
</svg></g><g><g><g transform="matrix(1,0,0,1,219,444)" width="74" height="48"><svg type="element" width="74" height="48" viewBox="0 0 40 26" fill="none" xmlns="http://www.w3.org/2000/svg">
<path d="M24.5 13C24.5 19.3513 19.3513 24.5 13 24.5C6.64873 24.5 1.5 19.3513 1.5 13C1.5 6.64873 6.64873 1.5 13 1.5C19.3513 1.5 24.5 6.64873 24.5 13Z" fill="white" stroke="#4387C5" stroke-width="3"></path>
<rect x="1.5" y="1.5" width="37" height="23" rx="11.5" fill="#4387C5" stroke="#4387C5" stroke-width="3"></rect>
<path fill-rule="evenodd" clip-rule="evenodd" d="M13 22C17.9706 22 22 17.9706 22 13C22 8.02944 17.9706 4 13 4C8.02944 4 4 8.02944 4 13C4 17.9706 8.02944 22 13 22Z" fill="white"></path>
</svg></g><g transform="matrix(1,0,0,1,67,444)" width="132" height="32"><svg type="text" width="132" height="32" viewBox="0 0 62 15" fill="none" xmlns="http://www.w3.org/2000/svg">
<text fill="#4387C5" xml:space="preserve" style="white-space: pre" font-family="Open Sans" font-size="14" letter-spacing="0px"><tspan x="0" y="10.9639">Set Alarm</tspan></text>
</svg></g></g><g><g transform="matrix(1,0,0,1,219,368)" width="74" height="48"><svg type="element" width="74" height="48" viewBox="0 0 40 26" fill="none" xmlns="http://www.w3.org/2000/svg">
<path d="M24.5 13C24.5 19.3513 19.3513 24.5 13 24.5C6.64873 24.5 1.5 19.3513 1.5 13C1.5 6.64873 6.64873 1.5 13 1.5C19.3513 1.5 24.5 6.64873 24.5 13Z" fill="white" stroke="#4387C5" stroke-width="3"></path>
<rect x="1.5" y="1.5" width="37" height="23" rx="11.5" fill="#4387C5" stroke="#4387C5" stroke-width="3"></rect>
<path fill-rule="evenodd" clip-rule="evenodd" d="M13 22C17.9706 22 22 17.9706 22 13C22 8.02944 17.9706 4 13 4C8.02944 4 4 8.02944 4 13C4 17.9706 8.02944 22 13 22Z" fill="white"></path>
</svg></g><g transform="matrix(1,0,0,1,67,368)" width="132" height="32"><svg type="text" width="132" height="32" viewBox="0 0 62 15" fill="none" xmlns="http://www.w3.org/2000/svg">
<text id="Label" fill="#4387C5" xml:space="preserve" style="white-space: pre" font-family="Open Sans" font-size="14" letter-spacing="0px"><tspan x="-1" y="10.9639">Notify Me</tspan></text>
</svg></g></g></g><g transform="matrix(1,0,0,1,20,560)" width="320" height="48"><svg type="button" width="320" height="48" viewBox="0 0 316 48" preserveAspectRatio="true" fill="none" xmlns="http://www.w3.org/2000/svg">
<rect width="100%" height="100%" rx="2.5" fill="#4387C5" stroke="#4387C5" stroke-width="3"></rect>
<text fill="white" xml:space="preserve" style="white-space: pre" font-family="Open Sans" x="50%" text-anchor="middle" font-size="14" font-weight="bold" letter-spacing="0px"><tspan y="27.9639">Save</tspan></text>
</svg></g></svg>