<svg type="icon" width="172" height="236" viewBox="0 0 172 236" fill="none" xmlns="http://www.w3.org/2000/svg">
<path fill-rule="evenodd" clip-rule="evenodd" d="M2 0C0.895432 0 0 0.89543 0 2V233.565C0 234.67 0.895431 235.565 2 235.565H170C171.105 235.565 172 234.67 172 233.565V2C172 0.895428 171.105 0 170 0H2Z" fill="#E3E5E6"/>
<path fill-rule="evenodd" clip-rule="evenodd" d="M86.0002 149.565C119.041 149.565 145.826 122.78 145.826 89.7391C145.826 56.698 119.041 29.913 86.0002 29.913C52.9591 29.913 26.1741 56.698 26.1741 89.7391C26.1741 122.78 52.9591 149.565 86.0002 149.565Z" fill="#CACCCC"/>
<mask id="mask0" mask-type="alpha" maskUnits="userSpaceOnUse" x="26" y="29" width="120" height="121">
<path fill-rule="evenodd" clip-rule="evenodd" d="M86.0002 149.565C119.041 149.565 145.826 122.78 145.826 89.7391C145.826 56.698 119.041 29.913 86.0002 29.913C52.9591 29.913 26.1741 56.698 26.1741 89.7391C26.1741 122.78 52.9591 149.565 86.0002 149.565Z" fill="white"/>
</mask>
<g mask="url(#mask0)">
<path fill-rule="evenodd" clip-rule="evenodd" d="M130.869 157.044C130.869 130.198 110.781 108.435 85.9999 108.435C61.2192 108.435 41.1304 130.198 41.1304 157.044" fill="#F7FAFA"/>
<path fill-rule="evenodd" clip-rule="evenodd" d="M85.9998 112.174C100.455 112.174 112.174 99.6185 112.174 84.1305C112.174 68.6425 100.455 56.087 85.9998 56.087C71.5444 56.087 59.8259 68.6425 59.8259 84.1305C59.8259 99.6185 71.5444 112.174 85.9998 112.174Z" fill="#F7FAFA"/>
</g>
<path fill-rule="evenodd" clip-rule="evenodd" d="M50.6086 172C49.5041 172 48.6086 172.895 48.6086 174V192.435C48.6086 193.539 49.5041 194.435 50.6086 194.435H121.391C122.496 194.435 123.391 193.539 123.391 192.435V174C123.391 172.895 122.496 172 121.391 172H50.6086Z" fill="#F7FAFA"/>
</svg>
