<svg width="162" height="162" viewBox="0 0 162 162" fill="none" xmlns="http://www.w3.org/2000/svg">
<path d="M0.5 3V159C0.5 160.381 1.61929 161.5 3 161.5H159C160.381 161.5 161.5 160.381 161.5 159V3C161.5 1.61929 160.381 0.5 159 0.5H3C1.61929 0.5 0.5 1.61929 0.5 3Z" fill="#E3E5E6" stroke="black"/>
<path fill-rule="evenodd" clip-rule="evenodd" d="M76.9999 137.565C110.041 137.565 136.826 110.78 136.826 77.7391C136.826 44.698 110.041 17.913 76.9999 17.913C43.9589 17.913 17.1738 44.698 17.1738 77.7391C17.1738 110.78 43.9589 137.565 76.9999 137.565Z" fill="#CACCCC"/>
<mask id="mask0" mask-type="alpha" maskUnits="userSpaceOnUse" x="17" y="17" width="120" height="121">
<path fill-rule="evenodd" clip-rule="evenodd" d="M76.9999 137.565C110.041 137.565 136.826 110.78 136.826 77.7391C136.826 44.698 110.041 17.913 76.9999 17.913C43.9589 17.913 17.1738 44.698 17.1738 77.7391C17.1738 110.78 43.9589 137.565 76.9999 137.565Z" fill="white"/>
</mask>
<g mask="url(#mask0)">
<path d="M122.369 145.044C122.369 117.96 102.094 95.9348 76.9999 95.9348C51.9061 95.9348 31.6304 117.96 31.6304 145.044H32.1304H32.6304H121.369H121.869H122.369Z" fill="#F7FAFA" stroke="white"/>
<path fill-rule="evenodd" clip-rule="evenodd" d="M77.0001 100.174C91.4555 100.174 103.174 87.6185 103.174 72.1305C103.174 56.6425 91.4555 44.087 77.0001 44.087C62.5446 44.087 50.8262 56.6425 50.8262 72.1305C50.8262 87.6185 62.5446 100.174 77.0001 100.174Z" fill="#F7FAFA"/>
</g>
</svg>
